<?xml version="1.0" encoding="UTF-8" standalone="no"?>
<svg
   version="1.1"
   xml:space="preserve"
   width="300px"
   height="300px"
   viewBox="0 0 300 300"
   id="svg30"
   sodipodi:docname="napthalene_mol.svg"
   inkscape:export-filename="napthalene_mol.pdf"
   inkscape:export-xdpi="96"
   inkscape:export-ydpi="96"
   inkscape:version="1.3.2 (091e20e, 2023-11-25)"
   xmlns:inkscape="http://www.inkscape.org/namespaces/inkscape"
   xmlns:sodipodi="http://sodipodi.sourceforge.net/DTD/sodipodi-0.dtd"
   xmlns="http://www.w3.org/2000/svg"
   xmlns:svg="http://www.w3.org/2000/svg"><defs
   id="defs30" /><sodipodi:namedview
   id="namedview30"
   pagecolor="#ffffff"
   bordercolor="#000000"
   borderopacity="0.25"
   inkscape:showpageshadow="2"
   inkscape:pageopacity="0.0"
   inkscape:pagecheckerboard="0"
   inkscape:deskcolor="#d1d1d1"
   inkscape:zoom="0.78666667"
   inkscape:cx="149.36441"
   inkscape:cy="150"
   inkscape:window-width="1312"
   inkscape:window-height="449"
   inkscape:window-x="1440"
   inkscape:window-y="56"
   inkscape:window-maximized="0"
   inkscape:current-layer="svg30" />
<!-- END OF HEADER -->
<rect
   style="opacity:1.0;fill:#FFFFFF;stroke:none"
   width="300.0"
   height="300.0"
   x="0.0"
   y="0.0"
   id="rect1"> </rect>
<path
   class="bond-0 atom-0 atom-1"
   d="M 46.0,154.8 L 67.8,160.5"
   style="fill:none;fill-rule:evenodd;stroke:#FF0000;stroke-width:2.0px;stroke-linecap:butt;stroke-linejoin:miter;stroke-opacity:1"
   id="path1" />
<path
   class="bond-0 atom-0 atom-1"
   d="M 67.8,160.5 L 89.6,166.2"
   style="fill:none;fill-rule:evenodd;stroke:#000000;stroke-width:2.0px;stroke-linecap:butt;stroke-linejoin:miter;stroke-opacity:1"
   id="path2" />
<path
   class="bond-1 atom-1 atom-2"
   d="M 89.6,166.2 L 103.9,218.5"
   style="fill:none;fill-rule:evenodd;stroke:#000000;stroke-width:2.0px;stroke-linecap:butt;stroke-linejoin:miter;stroke-opacity:1"
   id="path3" />
<path
   class="bond-1 atom-1 atom-2"
   d="M 98.7,168.6 L 110.5,211.9"
   style="fill:none;fill-rule:evenodd;stroke:#000000;stroke-width:2.0px;stroke-linecap:butt;stroke-linejoin:miter;stroke-opacity:1"
   id="path4" />
<path
   class="bond-2 atom-2 atom-3"
   d="M 103.9,218.5 L 156.3,232.3"
   style="fill:none;fill-rule:evenodd;stroke:#000000;stroke-width:2.0px;stroke-linecap:butt;stroke-linejoin:miter;stroke-opacity:1"
   id="path5" />
<path
   class="bond-3 atom-3 atom-4"
   d="M 156.3,232.3 L 194.4,193.8"
   style="fill:none;fill-rule:evenodd;stroke:#000000;stroke-width:2.0px;stroke-linecap:butt;stroke-linejoin:miter;stroke-opacity:1"
   id="path6" />
<path
   class="bond-3 atom-3 atom-4"
   d="M 153.8,223.3 L 185.4,191.4"
   style="fill:none;fill-rule:evenodd;stroke:#000000;stroke-width:2.0px;stroke-linecap:butt;stroke-linejoin:miter;stroke-opacity:1"
   id="path7" />
<path
   class="bond-4 atom-4 atom-5"
   d="M 194.4,193.8 L 246.9,207.6"
   style="fill:none;fill-rule:evenodd;stroke:#000000;stroke-width:2.0px;stroke-linecap:butt;stroke-linejoin:miter;stroke-opacity:1"
   id="path8" />
<path
   class="bond-5 atom-5 atom-6"
   d="M 246.9,207.6 L 285.0,169.1"
   style="fill:none;fill-rule:evenodd;stroke:#000000;stroke-width:2.0px;stroke-linecap:butt;stroke-linejoin:miter;stroke-opacity:1"
   id="path9" />
<path
   class="bond-5 atom-5 atom-6"
   d="M 244.4,198.5 L 275.9,166.7"
   style="fill:none;fill-rule:evenodd;stroke:#000000;stroke-width:2.0px;stroke-linecap:butt;stroke-linejoin:miter;stroke-opacity:1"
   id="path10" />
<path
   class="bond-6 atom-6 atom-7"
   d="M 285.0,169.1 L 270.7,116.8"
   style="fill:none;fill-rule:evenodd;stroke:#000000;stroke-width:2.0px;stroke-linecap:butt;stroke-linejoin:miter;stroke-opacity:1"
   id="path11" />
<path
   class="bond-7 atom-7 atom-8"
   d="M 270.7,116.8 L 218.3,103.0"
   style="fill:none;fill-rule:evenodd;stroke:#000000;stroke-width:2.0px;stroke-linecap:butt;stroke-linejoin:miter;stroke-opacity:1"
   id="path12" />
<path
   class="bond-7 atom-7 atom-8"
   d="M 264.1,123.5 L 220.8,112.1"
   style="fill:none;fill-rule:evenodd;stroke:#000000;stroke-width:2.0px;stroke-linecap:butt;stroke-linejoin:miter;stroke-opacity:1"
   id="path13" />
<path
   class="bond-8 atom-8 atom-9"
   d="M 218.3,103.0 L 180.2,141.5"
   style="fill:none;fill-rule:evenodd;stroke:#000000;stroke-width:2.0px;stroke-linecap:butt;stroke-linejoin:miter;stroke-opacity:1"
   id="path14" />
<path
   class="bond-9 atom-9 atom-10"
   d="M 180.2,141.5 L 127.8,127.7"
   style="fill:none;fill-rule:evenodd;stroke:#000000;stroke-width:2.0px;stroke-linecap:butt;stroke-linejoin:miter;stroke-opacity:1"
   id="path15" />
<path
   class="bond-9 atom-9 atom-10"
   d="M 173.6,148.2 L 130.2,136.8"
   style="fill:none;fill-rule:evenodd;stroke:#000000;stroke-width:2.0px;stroke-linecap:butt;stroke-linejoin:miter;stroke-opacity:1"
   id="path16" />
<path
   class="bond-10 atom-10 atom-11"
   d="M 127.8,127.7 L 122.0,106.5"
   style="fill:none;fill-rule:evenodd;stroke:#000000;stroke-width:2.0px;stroke-linecap:butt;stroke-linejoin:miter;stroke-opacity:1"
   id="path17" />
<path
   class="bond-10 atom-10 atom-11"
   d="M 122.0,106.5 L 116.2,85.2"
   style="fill:none;fill-rule:evenodd;stroke:#FF0000;stroke-width:2.0px;stroke-linecap:butt;stroke-linejoin:miter;stroke-opacity:1"
   id="path18" />
<path
   class="bond-11 atom-10 atom-1"
   d="M 127.8,127.7 L 89.6,166.2"
   style="fill:none;fill-rule:evenodd;stroke:#000000;stroke-width:2.0px;stroke-linecap:butt;stroke-linejoin:miter;stroke-opacity:1"
   id="path19" />
<path
   class="bond-12 atom-9 atom-4"
   d="M 180.2,141.5 L 194.4,193.8"
   style="fill:none;fill-rule:evenodd;stroke:#000000;stroke-width:2.0px;stroke-linecap:butt;stroke-linejoin:miter;stroke-opacity:1"
   id="path20" />
<path
   d="M 103.2,215.9 L 103.9,218.5 L 106.5,219.2"
   style="fill:none;stroke:#000000;stroke-width:2.0px;stroke-linecap:butt;stroke-linejoin:miter;stroke-opacity:1;"
   id="path21" />
<path
   d="M 153.7,231.6 L 156.3,232.3 L 158.2,230.4"
   style="fill:none;stroke:#000000;stroke-width:2.0px;stroke-linecap:butt;stroke-linejoin:miter;stroke-opacity:1;"
   id="path22" />
<path
   d="M 244.2,206.9 L 246.9,207.6 L 248.8,205.7"
   style="fill:none;stroke:#000000;stroke-width:2.0px;stroke-linecap:butt;stroke-linejoin:miter;stroke-opacity:1;"
   id="path23" />
<path
   d="M 283.1,171.0 L 285.0,169.1 L 284.3,166.5"
   style="fill:none;stroke:#000000;stroke-width:2.0px;stroke-linecap:butt;stroke-linejoin:miter;stroke-opacity:1;"
   id="path24" />
<path
   d="M 271.4,119.4 L 270.7,116.8 L 268.1,116.1"
   style="fill:none;stroke:#000000;stroke-width:2.0px;stroke-linecap:butt;stroke-linejoin:miter;stroke-opacity:1;"
   id="path25" />
<path
   d="M 220.9,103.7 L 218.3,103.0 L 216.4,105.0"
   style="fill:none;stroke:#000000;stroke-width:2.0px;stroke-linecap:butt;stroke-linejoin:miter;stroke-opacity:1;"
   id="path26" />
<path
   class="atom-0"
   d="M 15.0 144.9 L 17.1 144.9 L 17.1 151.4 L 24.9 151.4 L 24.9 144.9 L 27.0 144.9 L 27.0 160.2 L 24.9 160.2 L 24.9 153.1 L 17.1 153.1 L 17.1 160.2 L 15.0 160.2 L 15.0 144.9 "
   fill="#FF0000"
   id="path27" />
<path
   class="atom-0"
   d="M 30.2 152.5 Q 30.2 148.8, 32.0 146.7 Q 33.8 144.7, 37.2 144.7 Q 40.6 144.7, 42.4 146.7 Q 44.2 148.8, 44.2 152.5 Q 44.2 156.2, 42.4 158.3 Q 40.6 160.4, 37.2 160.4 Q 33.8 160.4, 32.0 158.3 Q 30.2 156.2, 30.2 152.5 M 37.2 158.7 Q 39.5 158.7, 40.8 157.2 Q 42.1 155.6, 42.1 152.5 Q 42.1 149.5, 40.8 148.0 Q 39.5 146.4, 37.2 146.4 Q 34.9 146.4, 33.6 147.9 Q 32.3 149.5, 32.3 152.5 Q 32.3 155.6, 33.6 157.2 Q 34.9 158.7, 37.2 158.7 "
   fill="#FF0000"
   id="path28" />
<path
   class="atom-11"
   d="M 106.4 75.5 Q 106.4 71.8, 108.3 69.8 Q 110.1 67.7, 113.5 67.7 Q 116.9 67.7, 118.7 69.8 Q 120.5 71.8, 120.5 75.5 Q 120.5 79.2, 118.7 81.4 Q 116.9 83.5, 113.5 83.5 Q 110.1 83.5, 108.3 81.4 Q 106.4 79.2, 106.4 75.5 M 113.5 81.7 Q 115.8 81.7, 117.1 80.2 Q 118.4 78.6, 118.4 75.5 Q 118.4 72.5, 117.1 71.0 Q 115.8 69.4, 113.5 69.4 Q 111.2 69.4, 109.9 70.9 Q 108.6 72.5, 108.6 75.5 Q 108.6 78.6, 109.9 80.2 Q 111.2 81.7, 113.5 81.7 "
   fill="#FF0000"
   id="path29" />
<path
   class="atom-11"
   d="M 122.9 67.9 L 125.0 67.9 L 125.0 74.4 L 132.9 74.4 L 132.9 67.9 L 134.9 67.9 L 134.9 83.2 L 132.9 83.2 L 132.9 76.1 L 125.0 76.1 L 125.0 83.2 L 122.9 83.2 L 122.9 67.9 "
   fill="#FF0000"
   id="path30" />
</svg>
