<?xml version="1.0" encoding="utf-8" standalone="no"?>
<!DOCTYPE svg PUBLIC "-//W3C//DTD SVG 1.1//EN"
  "http://www.w3.org/Graphics/SVG/1.1/DTD/svg11.dtd">
<svg xmlns:xlink="http://www.w3.org/1999/xlink" width="720pt" height="576pt" viewBox="0 0 720 576" xmlns="http://www.w3.org/2000/svg" version="1.1">
 <metadata>
  <rdf:RDF xmlns:dc="http://purl.org/dc/elements/1.1/" xmlns:cc="http://creativecommons.org/ns#" xmlns:rdf="http://www.w3.org/1999/02/22-rdf-syntax-ns#">
   <cc:Work>
    <dc:type rdf:resource="http://purl.org/dc/dcmitype/StillImage"/>
    <dc:date>2024-10-08T21:59:02.633016</dc:date>
    <dc:format>image/svg+xml</dc:format>
    <dc:creator>
     <cc:Agent>
      <dc:title>Matplotlib v3.8.4, https://matplotlib.org/</dc:title>
     </cc:Agent>
    </dc:creator>
   </cc:Work>
  </rdf:RDF>
 </metadata>
 <defs>
  <style type="text/css">*{stroke-linejoin: round; stroke-linecap: butt}</style>
 </defs>
 <g id="figure_1">
  <g id="patch_1">
   <path d="M 0 576 
L 720 576 
L 720 0 
L 0 0 
z
" style="fill: #ffffff"/>
  </g>
  <g id="axes_1">
   <g id="patch_2">
    <path d="M 90 512.64 
L 648 512.64 
L 648 69.12 
L 90 69.12 
z
" style="fill: #ffffff"/>
   </g>
   <g id="PolyCollection_1">
    <defs>
     <path id="ma41def77f6" d="M 232.919434 -83.52 
L 226.080566 -83.52 
L 225.397303 -87.396904 
L 224.610813 -91.273807 
L 223.712541 -95.150711 
L 222.694536 -99.027614 
L 221.549696 -102.904518 
L 220.272028 -106.781422 
L 218.85688 -110.658325 
L 217.301148 -114.535229 
L 215.603453 -118.412132 
L 213.764255 -122.289036 
L 211.785919 -126.16594 
L 209.672702 -130.042843 
L 207.430682 -133.919747 
L 205.067603 -137.796651 
L 202.592661 -141.673554 
L 200.01623 -145.550458 
L 197.349538 -149.427361 
L 194.604311 -153.304265 
L 191.792412 -157.181169 
L 188.925475 -161.058072 
L 186.014575 -164.934976 
L 183.069948 -168.811879 
L 180.100767 -172.688783 
L 177.115014 -176.565687 
L 174.119429 -180.44259 
L 171.119577 -184.319494 
L 168.119996 -188.196397 
L 165.124448 -192.073301 
L 162.136255 -195.950205 
L 159.158687 -199.827108 
L 156.195406 -203.704012 
L 153.25091 -207.580916 
L 150.330973 -211.457819 
L 147.443032 -215.334723 
L 144.596501 -219.211626 
L 141.802974 -223.08853 
L 139.076305 -226.965434 
L 136.432539 -230.842337 
L 133.889681 -234.719241 
L 131.467315 -238.596144 
L 129.18606 -242.473048 
L 127.066905 -246.349952 
L 125.13043 -250.226855 
L 123.395966 -254.103759 
L 121.880727 -257.980662 
L 120.598968 -261.857566 
L 119.561221 -265.73447 
L 118.773653 -269.611373 
L 118.237605 -273.488277 
L 117.949334 -277.36518 
L 117.9 -281.242084 
L 118.075912 -285.118988 
L 118.459028 -288.995891 
L 119.027695 -292.872795 
L 119.757614 -296.749699 
L 120.622969 -300.626602 
L 121.597664 -304.503506 
L 122.656627 -308.380409 
L 123.777072 -312.257313 
L 124.939683 -316.134217 
L 126.129625 -320.01112 
L 127.337339 -323.888024 
L 128.559051 -327.764927 
L 129.796982 -331.641831 
L 131.059218 -335.518735 
L 132.359258 -339.395638 
L 133.715247 -343.272542 
L 135.148947 -347.149445 
L 136.684477 -351.026349 
L 138.346911 -354.903253 
L 140.160796 -358.780156 
L 142.148678 -362.65706 
L 144.329708 -366.533963 
L 146.718411 -370.410867 
L 149.323675 -374.287771 
L 152.148019 -378.164674 
L 155.187165 -382.041578 
L 158.429946 -385.918482 
L 161.85853 -389.795385 
L 165.448956 -393.672289 
L 169.171939 -397.549192 
L 172.993892 -401.426096 
L 176.878111 -405.303 
L 180.786061 -409.179903 
L 184.678678 -413.056807 
L 188.517656 -416.93371 
L 192.266616 -420.810614 
L 195.892155 -424.687518 
L 199.364695 -428.564421 
L 202.659139 -432.441325 
L 205.755297 -436.318228 
L 208.638101 -440.195132 
L 211.297605 -444.072036 
L 213.728804 -447.948939 
L 215.931288 -451.825843 
L 217.908773 -455.702747 
L 219.668541 -459.57965 
L 221.220823 -463.456554 
L 222.578161 -467.333457 
L 236.421839 -467.333457 
L 236.421839 -467.333457 
L 237.779177 -463.456554 
L 239.331459 -459.57965 
L 241.091227 -455.702747 
L 243.068712 -451.825843 
L 245.271196 -447.948939 
L 247.702395 -444.072036 
L 250.361899 -440.195132 
L 253.244703 -436.318228 
L 256.340861 -432.441325 
L 259.635305 -428.564421 
L 263.107845 -424.687518 
L 266.733384 -420.810614 
L 270.482344 -416.93371 
L 274.321322 -413.056807 
L 278.213939 -409.179903 
L 282.121889 -405.303 
L 286.006108 -401.426096 
L 289.828061 -397.549192 
L 293.551044 -393.672289 
L 297.14147 -389.795385 
L 300.570054 -385.918482 
L 303.812835 -382.041578 
L 306.851981 -378.164674 
L 309.676325 -374.287771 
L 312.281589 -370.410867 
L 314.670292 -366.533963 
L 316.851322 -362.65706 
L 318.839204 -358.780156 
L 320.653089 -354.903253 
L 322.315523 -351.026349 
L 323.851053 -347.149445 
L 325.284753 -343.272542 
L 326.640742 -339.395638 
L 327.940782 -335.518735 
L 329.203018 -331.641831 
L 330.440949 -327.764927 
L 331.662661 -323.888024 
L 332.870375 -320.01112 
L 334.060317 -316.134217 
L 335.222928 -312.257313 
L 336.343373 -308.380409 
L 337.402336 -304.503506 
L 338.377031 -300.626602 
L 339.242386 -296.749699 
L 339.972305 -292.872795 
L 340.540972 -288.995891 
L 340.924088 -285.118988 
L 341.1 -281.242084 
L 341.050666 -277.36518 
L 340.762395 -273.488277 
L 340.226347 -269.611373 
L 339.438779 -265.73447 
L 338.401032 -261.857566 
L 337.119273 -257.980662 
L 335.604034 -254.103759 
L 333.86957 -250.226855 
L 331.933095 -246.349952 
L 329.81394 -242.473048 
L 327.532685 -238.596144 
L 325.110319 -234.719241 
L 322.567461 -230.842337 
L 319.923695 -226.965434 
L 317.197026 -223.08853 
L 314.403499 -219.211626 
L 311.556968 -215.334723 
L 308.669027 -211.457819 
L 305.74909 -207.580916 
L 302.804594 -203.704012 
L 299.841313 -199.827108 
L 296.863745 -195.950205 
L 293.875552 -192.073301 
L 290.880004 -188.196397 
L 287.880423 -184.319494 
L 284.880571 -180.44259 
L 281.884986 -176.565687 
L 278.899233 -172.688783 
L 275.930052 -168.811879 
L 272.985425 -164.934976 
L 270.074525 -161.058072 
L 267.207588 -157.181169 
L 264.395689 -153.304265 
L 261.650462 -149.427361 
L 258.98377 -145.550458 
L 256.407339 -141.673554 
L 253.932397 -137.796651 
L 251.569318 -133.919747 
L 249.327298 -130.042843 
L 247.214081 -126.16594 
L 245.235745 -122.289036 
L 243.396547 -118.412132 
L 241.698852 -114.535229 
L 240.14312 -110.658325 
L 238.727972 -106.781422 
L 237.450304 -102.904518 
L 236.305464 -99.027614 
L 235.287459 -95.150711 
L 234.389187 -91.273807 
L 233.602697 -87.396904 
L 232.919434 -83.52 
z
" style="stroke: #3f3f3f; stroke-width: 1.25"/>
    </defs>
    <g clip-path="url(#pe96314f96b)">
     <use xlink:href="#ma41def77f6" x="0" y="576" style="fill: #3274a1; stroke: #3f3f3f; stroke-width: 1.25"/>
    </g>
   </g>
   <g id="PolyCollection_2">
    <defs>
     <path id="m2956303114" d="M 510.480757 -292.357545 
L 506.519243 -292.357545 
L 506.089979 -294.320802 
L 505.597209 -296.284059 
L 505.038882 -298.247316 
L 504.414706 -300.210573 
L 503.726496 -302.17383 
L 502.978474 -304.137088 
L 502.177479 -306.100345 
L 501.333081 -308.063602 
L 500.457551 -310.026859 
L 499.565691 -311.990116 
L 498.674487 -313.953373 
L 497.802621 -315.91663 
L 496.969821 -317.879887 
L 496.19609 -319.843145 
L 495.50085 -321.806402 
L 494.90204 -323.769659 
L 494.415218 -325.732916 
L 494.052723 -327.696173 
L 493.822949 -329.65943 
L 493.729767 -331.622687 
L 493.772147 -333.585944 
L 493.943982 -335.549202 
L 494.234145 -337.512459 
L 494.62675 -339.475716 
L 495.101614 -341.438973 
L 495.634873 -343.40223 
L 496.199722 -345.365487 
L 496.76721 -347.328744 
L 497.307068 -349.292001 
L 497.788486 -351.255259 
L 498.180827 -353.218516 
L 498.454224 -355.181773 
L 498.580042 -357.14503 
L 498.531196 -359.108287 
L 498.282324 -361.071544 
L 497.809828 -363.034801 
L 497.091818 -364.998058 
L 496.107988 -366.961316 
L 494.839477 -368.924573 
L 493.268769 -370.88783 
L 491.379681 -372.851087 
L 489.157508 -374.814344 
L 486.589359 -376.777601 
L 483.664725 -378.740858 
L 480.376312 -380.704115 
L 476.721114 -382.667372 
L 472.701716 -384.63063 
L 468.32775 -386.593887 
L 463.617432 -388.557144 
L 458.599039 -390.520401 
L 453.312213 -392.483658 
L 447.808907 -394.446915 
L 442.153851 -396.410172 
L 436.424385 -398.373429 
L 430.70955 -400.336687 
L 425.108385 -402.299944 
L 419.727424 -404.263201 
L 414.677445 -406.226458 
L 410.069615 -408.189715 
L 406.011211 -410.152972 
L 402.601166 -412.116229 
L 399.925707 -414.079486 
L 398.054385 -416.042744 
L 397.036763 -418.006001 
L 396.9 -419.969258 
L 397.64751 -421.932515 
L 399.258793 -423.895772 
L 401.69046 -425.859029 
L 404.878365 -427.822286 
L 408.740708 -429.785543 
L 413.181877 -431.748801 
L 418.096765 -433.712058 
L 423.375278 -435.675315 
L 428.90675 -437.638572 
L 434.584003 -439.601829 
L 440.306848 -441.565086 
L 445.984864 -443.528343 
L 451.539387 -445.4916 
L 456.904674 -447.454858 
L 462.028295 -449.418115 
L 466.870844 -451.381372 
L 471.405095 -453.344629 
L 475.61475 -455.307886 
L 479.492929 -457.271143 
L 483.040552 -459.2344 
L 486.264721 -461.197657 
L 489.17721 -463.160915 
L 491.793126 -465.124172 
L 494.129774 -467.087429 
L 496.205743 -469.050686 
L 498.040202 -471.013943 
L 499.652386 -472.9772 
L 501.06123 -474.940457 
L 502.285131 -476.903714 
L 503.341788 -478.866972 
L 504.248106 -480.830229 
L 505.020133 -482.793486 
L 505.673009 -484.756743 
L 506.220933 -486.72 
L 510.779067 -486.72 
L 510.779067 -486.72 
L 511.326991 -484.756743 
L 511.979867 -482.793486 
L 512.751894 -480.830229 
L 513.658212 -478.866972 
L 514.714869 -476.903714 
L 515.93877 -474.940457 
L 517.347614 -472.9772 
L 518.959798 -471.013943 
L 520.794257 -469.050686 
L 522.870226 -467.087429 
L 525.206874 -465.124172 
L 527.82279 -463.160915 
L 530.735279 -461.197657 
L 533.959448 -459.2344 
L 537.507071 -457.271143 
L 541.38525 -455.307886 
L 545.594905 -453.344629 
L 550.129156 -451.381372 
L 554.971705 -449.418115 
L 560.095326 -447.454858 
L 565.460613 -445.4916 
L 571.015136 -443.528343 
L 576.693152 -441.565086 
L 582.415997 -439.601829 
L 588.09325 -437.638572 
L 593.624722 -435.675315 
L 598.903235 -433.712058 
L 603.818123 -431.748801 
L 608.259292 -429.785543 
L 612.121635 -427.822286 
L 615.30954 -425.859029 
L 617.741207 -423.895772 
L 619.35249 -421.932515 
L 620.1 -419.969258 
L 619.963237 -418.006001 
L 618.945615 -416.042744 
L 617.074293 -414.079486 
L 614.398834 -412.116229 
L 610.988789 -410.152972 
L 606.930385 -408.189715 
L 602.322555 -406.226458 
L 597.272576 -404.263201 
L 591.891615 -402.299944 
L 586.29045 -400.336687 
L 580.575615 -398.373429 
L 574.846149 -396.410172 
L 569.191093 -394.446915 
L 563.687787 -392.483658 
L 558.400961 -390.520401 
L 553.382568 -388.557144 
L 548.67225 -386.593887 
L 544.298284 -384.63063 
L 540.278886 -382.667372 
L 536.623688 -380.704115 
L 533.335275 -378.740858 
L 530.410641 -376.777601 
L 527.842492 -374.814344 
L 525.620319 -372.851087 
L 523.731231 -370.88783 
L 522.160523 -368.924573 
L 520.892012 -366.961316 
L 519.908182 -364.998058 
L 519.190172 -363.034801 
L 518.717676 -361.071544 
L 518.468804 -359.108287 
L 518.419958 -357.14503 
L 518.545776 -355.181773 
L 518.819173 -353.218516 
L 519.211514 -351.255259 
L 519.692932 -349.292001 
L 520.23279 -347.328744 
L 520.800278 -345.365487 
L 521.365127 -343.40223 
L 521.898386 -341.438973 
L 522.37325 -339.475716 
L 522.765855 -337.512459 
L 523.056018 -335.549202 
L 523.227853 -333.585944 
L 523.270233 -331.622687 
L 523.177051 -329.65943 
L 522.947277 -327.696173 
L 522.584782 -325.732916 
L 522.09796 -323.769659 
L 521.49915 -321.806402 
L 520.80391 -319.843145 
L 520.030179 -317.879887 
L 519.197379 -315.91663 
L 518.325513 -313.953373 
L 517.434309 -311.990116 
L 516.542449 -310.026859 
L 515.666919 -308.063602 
L 514.822521 -306.100345 
L 514.021526 -304.137088 
L 513.273504 -302.17383 
L 512.585294 -300.210573 
L 511.961118 -298.247316 
L 511.402791 -296.284059 
L 510.910021 -294.320802 
L 510.480757 -292.357545 
z
" style="stroke: #3f3f3f; stroke-width: 1.25"/>
    </defs>
    <g clip-path="url(#pe96314f96b)">
     <use xlink:href="#m2956303114" x="0" y="576" style="fill: #e1812c; stroke: #3f3f3f; stroke-width: 1.25"/>
    </g>
   </g>
   <g id="matplotlib.axis_1">
    <g id="xtick_1">
     <g id="line2d_1">
      <defs>
       <path id="m6e4cd64625" d="M 0 0 
L 0 3.5 
" style="stroke: #000000; stroke-width: 0.8"/>
      </defs>
      <g>
       <use xlink:href="#m6e4cd64625" x="229.5" y="512.64" style="stroke: #000000; stroke-width: 0.8"/>
      </g>
     </g>
     <g id="text_1">
      <!-- Low % Partner -->
      <g transform="translate(193.553906 527.238438) scale(0.1 -0.1)">
       <defs>
        <path id="DejaVuSans-4c" d="M 628 4666 
L 1259 4666 
L 1259 531 
L 3531 531 
L 3531 0 
L 628 0 
L 628 4666 
z
" transform="scale(0.015625)"/>
        <path id="DejaVuSans-6f" d="M 1959 3097 
Q 1497 3097 1228 2736 
Q 959 2375 959 1747 
Q 959 1119 1226 758 
Q 1494 397 1959 397 
Q 2419 397 2687 759 
Q 2956 1122 2956 1747 
Q 2956 2369 2687 2733 
Q 2419 3097 1959 3097 
z
M 1959 3584 
Q 2709 3584 3137 3096 
Q 3566 2609 3566 1747 
Q 3566 888 3137 398 
Q 2709 -91 1959 -91 
Q 1206 -91 779 398 
Q 353 888 353 1747 
Q 353 2609 779 3096 
Q 1206 3584 1959 3584 
z
" transform="scale(0.015625)"/>
        <path id="DejaVuSans-77" d="M 269 3500 
L 844 3500 
L 1563 769 
L 2278 3500 
L 2956 3500 
L 3675 769 
L 4391 3500 
L 4966 3500 
L 4050 0 
L 3372 0 
L 2619 2869 
L 1863 0 
L 1184 0 
L 269 3500 
z
" transform="scale(0.015625)"/>
        <path id="DejaVuSans-20" transform="scale(0.015625)"/>
        <path id="DejaVuSans-25" d="M 4653 2053 
Q 4381 2053 4226 1822 
Q 4072 1591 4072 1178 
Q 4072 772 4226 539 
Q 4381 306 4653 306 
Q 4919 306 5073 539 
Q 5228 772 5228 1178 
Q 5228 1588 5073 1820 
Q 4919 2053 4653 2053 
z
M 4653 2450 
Q 5147 2450 5437 2106 
Q 5728 1763 5728 1178 
Q 5728 594 5436 251 
Q 5144 -91 4653 -91 
Q 4153 -91 3862 251 
Q 3572 594 3572 1178 
Q 3572 1766 3864 2108 
Q 4156 2450 4653 2450 
z
M 1428 4353 
Q 1159 4353 1004 4120 
Q 850 3888 850 3481 
Q 850 3069 1003 2837 
Q 1156 2606 1428 2606 
Q 1700 2606 1854 2837 
Q 2009 3069 2009 3481 
Q 2009 3884 1853 4118 
Q 1697 4353 1428 4353 
z
M 4250 4750 
L 4750 4750 
L 1831 -91 
L 1331 -91 
L 4250 4750 
z
M 1428 4750 
Q 1922 4750 2215 4408 
Q 2509 4066 2509 3481 
Q 2509 2891 2217 2550 
Q 1925 2209 1428 2209 
Q 931 2209 642 2551 
Q 353 2894 353 3481 
Q 353 4063 643 4406 
Q 934 4750 1428 4750 
z
" transform="scale(0.015625)"/>
        <path id="DejaVuSans-50" d="M 1259 4147 
L 1259 2394 
L 2053 2394 
Q 2494 2394 2734 2622 
Q 2975 2850 2975 3272 
Q 2975 3691 2734 3919 
Q 2494 4147 2053 4147 
L 1259 4147 
z
M 628 4666 
L 2053 4666 
Q 2838 4666 3239 4311 
Q 3641 3956 3641 3272 
Q 3641 2581 3239 2228 
Q 2838 1875 2053 1875 
L 1259 1875 
L 1259 0 
L 628 0 
L 628 4666 
z
" transform="scale(0.015625)"/>
        <path id="DejaVuSans-61" d="M 2194 1759 
Q 1497 1759 1228 1600 
Q 959 1441 959 1056 
Q 959 750 1161 570 
Q 1363 391 1709 391 
Q 2188 391 2477 730 
Q 2766 1069 2766 1631 
L 2766 1759 
L 2194 1759 
z
M 3341 1997 
L 3341 0 
L 2766 0 
L 2766 531 
Q 2569 213 2275 61 
Q 1981 -91 1556 -91 
Q 1019 -91 701 211 
Q 384 513 384 1019 
Q 384 1609 779 1909 
Q 1175 2209 1959 2209 
L 2766 2209 
L 2766 2266 
Q 2766 2663 2505 2880 
Q 2244 3097 1772 3097 
Q 1472 3097 1187 3025 
Q 903 2953 641 2809 
L 641 3341 
Q 956 3463 1253 3523 
Q 1550 3584 1831 3584 
Q 2591 3584 2966 3190 
Q 3341 2797 3341 1997 
z
" transform="scale(0.015625)"/>
        <path id="DejaVuSans-72" d="M 2631 2963 
Q 2534 3019 2420 3045 
Q 2306 3072 2169 3072 
Q 1681 3072 1420 2755 
Q 1159 2438 1159 1844 
L 1159 0 
L 581 0 
L 581 3500 
L 1159 3500 
L 1159 2956 
Q 1341 3275 1631 3429 
Q 1922 3584 2338 3584 
Q 2397 3584 2469 3576 
Q 2541 3569 2628 3553 
L 2631 2963 
z
" transform="scale(0.015625)"/>
        <path id="DejaVuSans-74" d="M 1172 4494 
L 1172 3500 
L 2356 3500 
L 2356 3053 
L 1172 3053 
L 1172 1153 
Q 1172 725 1289 603 
Q 1406 481 1766 481 
L 2356 481 
L 2356 0 
L 1766 0 
Q 1100 0 847 248 
Q 594 497 594 1153 
L 594 3053 
L 172 3053 
L 172 3500 
L 594 3500 
L 594 4494 
L 1172 4494 
z
" transform="scale(0.015625)"/>
        <path id="DejaVuSans-6e" d="M 3513 2113 
L 3513 0 
L 2938 0 
L 2938 2094 
Q 2938 2591 2744 2837 
Q 2550 3084 2163 3084 
Q 1697 3084 1428 2787 
Q 1159 2491 1159 1978 
L 1159 0 
L 581 0 
L 581 3500 
L 1159 3500 
L 1159 2956 
Q 1366 3272 1645 3428 
Q 1925 3584 2291 3584 
Q 2894 3584 3203 3211 
Q 3513 2838 3513 2113 
z
" transform="scale(0.015625)"/>
        <path id="DejaVuSans-65" d="M 3597 1894 
L 3597 1613 
L 953 1613 
Q 991 1019 1311 708 
Q 1631 397 2203 397 
Q 2534 397 2845 478 
Q 3156 559 3463 722 
L 3463 178 
Q 3153 47 2828 -22 
Q 2503 -91 2169 -91 
Q 1331 -91 842 396 
Q 353 884 353 1716 
Q 353 2575 817 3079 
Q 1281 3584 2069 3584 
Q 2775 3584 3186 3129 
Q 3597 2675 3597 1894 
z
M 3022 2063 
Q 3016 2534 2758 2815 
Q 2500 3097 2075 3097 
Q 1594 3097 1305 2825 
Q 1016 2553 972 2059 
L 3022 2063 
z
" transform="scale(0.015625)"/>
       </defs>
       <use xlink:href="#DejaVuSans-4c"/>
       <use xlink:href="#DejaVuSans-6f" x="53.962891"/>
       <use xlink:href="#DejaVuSans-77" x="115.144531"/>
       <use xlink:href="#DejaVuSans-20" x="196.931641"/>
       <use xlink:href="#DejaVuSans-25" x="228.71875"/>
       <use xlink:href="#DejaVuSans-20" x="323.738281"/>
       <use xlink:href="#DejaVuSans-50" x="355.525391"/>
       <use xlink:href="#DejaVuSans-61" x="411.328125"/>
       <use xlink:href="#DejaVuSans-72" x="472.607422"/>
       <use xlink:href="#DejaVuSans-74" x="513.720703"/>
       <use xlink:href="#DejaVuSans-6e" x="552.929688"/>
       <use xlink:href="#DejaVuSans-65" x="616.308594"/>
       <use xlink:href="#DejaVuSans-72" x="677.832031"/>
      </g>
     </g>
    </g>
    <g id="xtick_2">
     <g id="line2d_2">
      <g>
       <use xlink:href="#m6e4cd64625" x="508.5" y="512.64" style="stroke: #000000; stroke-width: 0.8"/>
      </g>
     </g>
     <g id="text_2">
      <!-- Minor -->
      <g transform="translate(494.513281 527.238438) scale(0.1 -0.1)">
       <defs>
        <path id="DejaVuSans-4d" d="M 628 4666 
L 1569 4666 
L 2759 1491 
L 3956 4666 
L 4897 4666 
L 4897 0 
L 4281 0 
L 4281 4097 
L 3078 897 
L 2444 897 
L 1241 4097 
L 1241 0 
L 628 0 
L 628 4666 
z
" transform="scale(0.015625)"/>
        <path id="DejaVuSans-69" d="M 603 3500 
L 1178 3500 
L 1178 0 
L 603 0 
L 603 3500 
z
M 603 4863 
L 1178 4863 
L 1178 4134 
L 603 4134 
L 603 4863 
z
" transform="scale(0.015625)"/>
       </defs>
       <use xlink:href="#DejaVuSans-4d"/>
       <use xlink:href="#DejaVuSans-69" x="86.279297"/>
       <use xlink:href="#DejaVuSans-6e" x="114.0625"/>
       <use xlink:href="#DejaVuSans-6f" x="177.441406"/>
       <use xlink:href="#DejaVuSans-72" x="238.623047"/>
      </g>
     </g>
    </g>
    <g id="text_3">
     <!-- Domain Type -->
     <g transform="translate(336.526563 540.916563) scale(0.1 -0.1)">
      <defs>
       <path id="DejaVuSans-44" d="M 1259 4147 
L 1259 519 
L 2022 519 
Q 2988 519 3436 956 
Q 3884 1394 3884 2338 
Q 3884 3275 3436 3711 
Q 2988 4147 2022 4147 
L 1259 4147 
z
M 628 4666 
L 1925 4666 
Q 3281 4666 3915 4102 
Q 4550 3538 4550 2338 
Q 4550 1131 3912 565 
Q 3275 0 1925 0 
L 628 0 
L 628 4666 
z
" transform="scale(0.015625)"/>
       <path id="DejaVuSans-6d" d="M 3328 2828 
Q 3544 3216 3844 3400 
Q 4144 3584 4550 3584 
Q 5097 3584 5394 3201 
Q 5691 2819 5691 2113 
L 5691 0 
L 5113 0 
L 5113 2094 
Q 5113 2597 4934 2840 
Q 4756 3084 4391 3084 
Q 3944 3084 3684 2787 
Q 3425 2491 3425 1978 
L 3425 0 
L 2847 0 
L 2847 2094 
Q 2847 2600 2669 2842 
Q 2491 3084 2119 3084 
Q 1678 3084 1418 2786 
Q 1159 2488 1159 1978 
L 1159 0 
L 581 0 
L 581 3500 
L 1159 3500 
L 1159 2956 
Q 1356 3278 1631 3431 
Q 1906 3584 2284 3584 
Q 2666 3584 2933 3390 
Q 3200 3197 3328 2828 
z
" transform="scale(0.015625)"/>
       <path id="DejaVuSans-54" d="M -19 4666 
L 3928 4666 
L 3928 4134 
L 2272 4134 
L 2272 0 
L 1638 0 
L 1638 4134 
L -19 4134 
L -19 4666 
z
" transform="scale(0.015625)"/>
       <path id="DejaVuSans-79" d="M 2059 -325 
Q 1816 -950 1584 -1140 
Q 1353 -1331 966 -1331 
L 506 -1331 
L 506 -850 
L 844 -850 
Q 1081 -850 1212 -737 
Q 1344 -625 1503 -206 
L 1606 56 
L 191 3500 
L 800 3500 
L 1894 763 
L 2988 3500 
L 3597 3500 
L 2059 -325 
z
" transform="scale(0.015625)"/>
       <path id="DejaVuSans-70" d="M 1159 525 
L 1159 -1331 
L 581 -1331 
L 581 3500 
L 1159 3500 
L 1159 2969 
Q 1341 3281 1617 3432 
Q 1894 3584 2278 3584 
Q 2916 3584 3314 3078 
Q 3713 2572 3713 1747 
Q 3713 922 3314 415 
Q 2916 -91 2278 -91 
Q 1894 -91 1617 61 
Q 1341 213 1159 525 
z
M 3116 1747 
Q 3116 2381 2855 2742 
Q 2594 3103 2138 3103 
Q 1681 3103 1420 2742 
Q 1159 2381 1159 1747 
Q 1159 1113 1420 752 
Q 1681 391 2138 391 
Q 2594 391 2855 752 
Q 3116 1113 3116 1747 
z
" transform="scale(0.015625)"/>
      </defs>
      <use xlink:href="#DejaVuSans-44"/>
      <use xlink:href="#DejaVuSans-6f" x="77.001953"/>
      <use xlink:href="#DejaVuSans-6d" x="138.183594"/>
      <use xlink:href="#DejaVuSans-61" x="235.595703"/>
      <use xlink:href="#DejaVuSans-69" x="296.875"/>
      <use xlink:href="#DejaVuSans-6e" x="324.658203"/>
      <use xlink:href="#DejaVuSans-20" x="388.037109"/>
      <use xlink:href="#DejaVuSans-54" x="419.824219"/>
      <use xlink:href="#DejaVuSans-79" x="465.283203"/>
      <use xlink:href="#DejaVuSans-70" x="524.462891"/>
      <use xlink:href="#DejaVuSans-65" x="587.939453"/>
     </g>
    </g>
   </g>
   <g id="matplotlib.axis_2">
    <g id="ytick_1">
     <g id="line2d_3">
      <defs>
       <path id="m616f04097d" d="M 0 0 
L -3.5 0 
" style="stroke: #000000; stroke-width: 0.8"/>
      </defs>
      <g>
       <use xlink:href="#m616f04097d" x="90" y="491.505471" style="stroke: #000000; stroke-width: 0.8"/>
      </g>
     </g>
     <g id="text_4">
      <!-- −5 -->
      <g transform="translate(68.257812 495.304689) scale(0.1 -0.1)">
       <defs>
        <path id="DejaVuSans-2212" d="M 678 2272 
L 4684 2272 
L 4684 1741 
L 678 1741 
L 678 2272 
z
" transform="scale(0.015625)"/>
        <path id="DejaVuSans-35" d="M 691 4666 
L 3169 4666 
L 3169 4134 
L 1269 4134 
L 1269 2991 
Q 1406 3038 1543 3061 
Q 1681 3084 1819 3084 
Q 2600 3084 3056 2656 
Q 3513 2228 3513 1497 
Q 3513 744 3044 326 
Q 2575 -91 1722 -91 
Q 1428 -91 1123 -41 
Q 819 9 494 109 
L 494 744 
Q 775 591 1075 516 
Q 1375 441 1709 441 
Q 2250 441 2565 725 
Q 2881 1009 2881 1497 
Q 2881 1984 2565 2268 
Q 2250 2553 1709 2553 
Q 1456 2553 1204 2497 
Q 953 2441 691 2322 
L 691 4666 
z
" transform="scale(0.015625)"/>
       </defs>
       <use xlink:href="#DejaVuSans-2212"/>
       <use xlink:href="#DejaVuSans-35" x="83.789062"/>
      </g>
     </g>
    </g>
    <g id="ytick_2">
     <g id="line2d_4">
      <g>
       <use xlink:href="#m616f04097d" x="90" y="420.386359" style="stroke: #000000; stroke-width: 0.8"/>
      </g>
     </g>
     <g id="text_5">
      <!-- −4 -->
      <g transform="translate(68.257812 424.185578) scale(0.1 -0.1)">
       <defs>
        <path id="DejaVuSans-34" d="M 2419 4116 
L 825 1625 
L 2419 1625 
L 2419 4116 
z
M 2253 4666 
L 3047 4666 
L 3047 1625 
L 3713 1625 
L 3713 1100 
L 3047 1100 
L 3047 0 
L 2419 0 
L 2419 1100 
L 313 1100 
L 313 1709 
L 2253 4666 
z
" transform="scale(0.015625)"/>
       </defs>
       <use xlink:href="#DejaVuSans-2212"/>
       <use xlink:href="#DejaVuSans-34" x="83.789062"/>
      </g>
     </g>
    </g>
    <g id="ytick_3">
     <g id="line2d_5">
      <g>
       <use xlink:href="#m616f04097d" x="90" y="349.267248" style="stroke: #000000; stroke-width: 0.8"/>
      </g>
     </g>
     <g id="text_6">
      <!-- −3 -->
      <g transform="translate(68.257812 353.066467) scale(0.1 -0.1)">
       <defs>
        <path id="DejaVuSans-33" d="M 2597 2516 
Q 3050 2419 3304 2112 
Q 3559 1806 3559 1356 
Q 3559 666 3084 287 
Q 2609 -91 1734 -91 
Q 1441 -91 1130 -33 
Q 819 25 488 141 
L 488 750 
Q 750 597 1062 519 
Q 1375 441 1716 441 
Q 2309 441 2620 675 
Q 2931 909 2931 1356 
Q 2931 1769 2642 2001 
Q 2353 2234 1838 2234 
L 1294 2234 
L 1294 2753 
L 1863 2753 
Q 2328 2753 2575 2939 
Q 2822 3125 2822 3475 
Q 2822 3834 2567 4026 
Q 2313 4219 1838 4219 
Q 1578 4219 1281 4162 
Q 984 4106 628 3988 
L 628 4550 
Q 988 4650 1302 4700 
Q 1616 4750 1894 4750 
Q 2613 4750 3031 4423 
Q 3450 4097 3450 3541 
Q 3450 3153 3228 2886 
Q 3006 2619 2597 2516 
z
" transform="scale(0.015625)"/>
       </defs>
       <use xlink:href="#DejaVuSans-2212"/>
       <use xlink:href="#DejaVuSans-33" x="83.789062"/>
      </g>
     </g>
    </g>
    <g id="ytick_4">
     <g id="line2d_6">
      <g>
       <use xlink:href="#m616f04097d" x="90" y="278.148137" style="stroke: #000000; stroke-width: 0.8"/>
      </g>
     </g>
     <g id="text_7">
      <!-- −2 -->
      <g transform="translate(68.257812 281.947356) scale(0.1 -0.1)">
       <defs>
        <path id="DejaVuSans-32" d="M 1228 531 
L 3431 531 
L 3431 0 
L 469 0 
L 469 531 
Q 828 903 1448 1529 
Q 2069 2156 2228 2338 
Q 2531 2678 2651 2914 
Q 2772 3150 2772 3378 
Q 2772 3750 2511 3984 
Q 2250 4219 1831 4219 
Q 1534 4219 1204 4116 
Q 875 4013 500 3803 
L 500 4441 
Q 881 4594 1212 4672 
Q 1544 4750 1819 4750 
Q 2544 4750 2975 4387 
Q 3406 4025 3406 3419 
Q 3406 3131 3298 2873 
Q 3191 2616 2906 2266 
Q 2828 2175 2409 1742 
Q 1991 1309 1228 531 
z
" transform="scale(0.015625)"/>
       </defs>
       <use xlink:href="#DejaVuSans-2212"/>
       <use xlink:href="#DejaVuSans-32" x="83.789062"/>
      </g>
     </g>
    </g>
    <g id="ytick_5">
     <g id="line2d_7">
      <g>
       <use xlink:href="#m616f04097d" x="90" y="207.029026" style="stroke: #000000; stroke-width: 0.8"/>
      </g>
     </g>
     <g id="text_8">
      <!-- −1 -->
      <g transform="translate(68.257812 210.828244) scale(0.1 -0.1)">
       <defs>
        <path id="DejaVuSans-31" d="M 794 531 
L 1825 531 
L 1825 4091 
L 703 3866 
L 703 4441 
L 1819 4666 
L 2450 4666 
L 2450 531 
L 3481 531 
L 3481 0 
L 794 0 
L 794 531 
z
" transform="scale(0.015625)"/>
       </defs>
       <use xlink:href="#DejaVuSans-2212"/>
       <use xlink:href="#DejaVuSans-31" x="83.789062"/>
      </g>
     </g>
    </g>
    <g id="ytick_6">
     <g id="line2d_8">
      <g>
       <use xlink:href="#m616f04097d" x="90" y="135.909914" style="stroke: #000000; stroke-width: 0.8"/>
      </g>
     </g>
     <g id="text_9">
      <!-- 0 -->
      <g transform="translate(76.6375 139.709133) scale(0.1 -0.1)">
       <defs>
        <path id="DejaVuSans-30" d="M 2034 4250 
Q 1547 4250 1301 3770 
Q 1056 3291 1056 2328 
Q 1056 1369 1301 889 
Q 1547 409 2034 409 
Q 2525 409 2770 889 
Q 3016 1369 3016 2328 
Q 3016 3291 2770 3770 
Q 2525 4250 2034 4250 
z
M 2034 4750 
Q 2819 4750 3233 4129 
Q 3647 3509 3647 2328 
Q 3647 1150 3233 529 
Q 2819 -91 2034 -91 
Q 1250 -91 836 529 
Q 422 1150 422 2328 
Q 422 3509 836 4129 
Q 1250 4750 2034 4750 
z
" transform="scale(0.015625)"/>
       </defs>
       <use xlink:href="#DejaVuSans-30"/>
      </g>
     </g>
    </g>
    <g id="text_10">
     <!-- Domain Interaction Energy ($\Delta$CF) -->
     <g transform="translate(62.157812 373.48) rotate(-90) scale(0.1 -0.1)">
      <defs>
       <path id="DejaVuSans-49" d="M 628 4666 
L 1259 4666 
L 1259 0 
L 628 0 
L 628 4666 
z
" transform="scale(0.015625)"/>
       <path id="DejaVuSans-63" d="M 3122 3366 
L 3122 2828 
Q 2878 2963 2633 3030 
Q 2388 3097 2138 3097 
Q 1578 3097 1268 2742 
Q 959 2388 959 1747 
Q 959 1106 1268 751 
Q 1578 397 2138 397 
Q 2388 397 2633 464 
Q 2878 531 3122 666 
L 3122 134 
Q 2881 22 2623 -34 
Q 2366 -91 2075 -91 
Q 1284 -91 818 406 
Q 353 903 353 1747 
Q 353 2603 823 3093 
Q 1294 3584 2113 3584 
Q 2378 3584 2631 3529 
Q 2884 3475 3122 3366 
z
" transform="scale(0.015625)"/>
       <path id="DejaVuSans-45" d="M 628 4666 
L 3578 4666 
L 3578 4134 
L 1259 4134 
L 1259 2753 
L 3481 2753 
L 3481 2222 
L 1259 2222 
L 1259 531 
L 3634 531 
L 3634 0 
L 628 0 
L 628 4666 
z
" transform="scale(0.015625)"/>
       <path id="DejaVuSans-67" d="M 2906 1791 
Q 2906 2416 2648 2759 
Q 2391 3103 1925 3103 
Q 1463 3103 1205 2759 
Q 947 2416 947 1791 
Q 947 1169 1205 825 
Q 1463 481 1925 481 
Q 2391 481 2648 825 
Q 2906 1169 2906 1791 
z
M 3481 434 
Q 3481 -459 3084 -895 
Q 2688 -1331 1869 -1331 
Q 1566 -1331 1297 -1286 
Q 1028 -1241 775 -1147 
L 775 -588 
Q 1028 -725 1275 -790 
Q 1522 -856 1778 -856 
Q 2344 -856 2625 -561 
Q 2906 -266 2906 331 
L 2906 616 
Q 2728 306 2450 153 
Q 2172 0 1784 0 
Q 1141 0 747 490 
Q 353 981 353 1791 
Q 353 2603 747 3093 
Q 1141 3584 1784 3584 
Q 2172 3584 2450 3431 
Q 2728 3278 2906 2969 
L 2906 3500 
L 3481 3500 
L 3481 434 
z
" transform="scale(0.015625)"/>
       <path id="DejaVuSans-28" d="M 1984 4856 
Q 1566 4138 1362 3434 
Q 1159 2731 1159 2009 
Q 1159 1288 1364 580 
Q 1569 -128 1984 -844 
L 1484 -844 
Q 1016 -109 783 600 
Q 550 1309 550 2009 
Q 550 2706 781 3412 
Q 1013 4119 1484 4856 
L 1984 4856 
z
" transform="scale(0.015625)"/>
       <path id="DejaVuSans-394" d="M 2188 4044 
L 906 525 
L 3472 525 
L 2188 4044 
z
M 50 0 
L 1831 4666 
L 2547 4666 
L 4325 0 
L 50 0 
z
" transform="scale(0.015625)"/>
       <path id="DejaVuSans-43" d="M 4122 4306 
L 4122 3641 
Q 3803 3938 3442 4084 
Q 3081 4231 2675 4231 
Q 1875 4231 1450 3742 
Q 1025 3253 1025 2328 
Q 1025 1406 1450 917 
Q 1875 428 2675 428 
Q 3081 428 3442 575 
Q 3803 722 4122 1019 
L 4122 359 
Q 3791 134 3420 21 
Q 3050 -91 2638 -91 
Q 1578 -91 968 557 
Q 359 1206 359 2328 
Q 359 3453 968 4101 
Q 1578 4750 2638 4750 
Q 3056 4750 3426 4639 
Q 3797 4528 4122 4306 
z
" transform="scale(0.015625)"/>
       <path id="DejaVuSans-46" d="M 628 4666 
L 3309 4666 
L 3309 4134 
L 1259 4134 
L 1259 2759 
L 3109 2759 
L 3109 2228 
L 1259 2228 
L 1259 0 
L 628 0 
L 628 4666 
z
" transform="scale(0.015625)"/>
       <path id="DejaVuSans-29" d="M 513 4856 
L 1013 4856 
Q 1481 4119 1714 3412 
Q 1947 2706 1947 2009 
Q 1947 1309 1714 600 
Q 1481 -109 1013 -844 
L 513 -844 
Q 928 -128 1133 580 
Q 1338 1288 1338 2009 
Q 1338 2731 1133 3434 
Q 928 4138 513 4856 
z
" transform="scale(0.015625)"/>
      </defs>
      <use xlink:href="#DejaVuSans-44" transform="translate(0 0.015625)"/>
      <use xlink:href="#DejaVuSans-6f" transform="translate(77.001953 0.015625)"/>
      <use xlink:href="#DejaVuSans-6d" transform="translate(138.183594 0.015625)"/>
      <use xlink:href="#DejaVuSans-61" transform="translate(235.595703 0.015625)"/>
      <use xlink:href="#DejaVuSans-69" transform="translate(296.875 0.015625)"/>
      <use xlink:href="#DejaVuSans-6e" transform="translate(324.658203 0.015625)"/>
      <use xlink:href="#DejaVuSans-20" transform="translate(388.037109 0.015625)"/>
      <use xlink:href="#DejaVuSans-49" transform="translate(419.824219 0.015625)"/>
      <use xlink:href="#DejaVuSans-6e" transform="translate(449.316406 0.015625)"/>
      <use xlink:href="#DejaVuSans-74" transform="translate(512.695312 0.015625)"/>
      <use xlink:href="#DejaVuSans-65" transform="translate(551.904297 0.015625)"/>
      <use xlink:href="#DejaVuSans-72" transform="translate(613.427734 0.015625)"/>
      <use xlink:href="#DejaVuSans-61" transform="translate(654.541016 0.015625)"/>
      <use xlink:href="#DejaVuSans-63" transform="translate(715.820312 0.015625)"/>
      <use xlink:href="#DejaVuSans-74" transform="translate(770.800781 0.015625)"/>
      <use xlink:href="#DejaVuSans-69" transform="translate(810.009766 0.015625)"/>
      <use xlink:href="#DejaVuSans-6f" transform="translate(837.792969 0.015625)"/>
      <use xlink:href="#DejaVuSans-6e" transform="translate(898.974609 0.015625)"/>
      <use xlink:href="#DejaVuSans-20" transform="translate(962.353516 0.015625)"/>
      <use xlink:href="#DejaVuSans-45" transform="translate(994.140625 0.015625)"/>
      <use xlink:href="#DejaVuSans-6e" transform="translate(1057.324219 0.015625)"/>
      <use xlink:href="#DejaVuSans-65" transform="translate(1120.703125 0.015625)"/>
      <use xlink:href="#DejaVuSans-72" transform="translate(1182.226562 0.015625)"/>
      <use xlink:href="#DejaVuSans-67" transform="translate(1223.339844 0.015625)"/>
      <use xlink:href="#DejaVuSans-79" transform="translate(1286.816406 0.015625)"/>
      <use xlink:href="#DejaVuSans-20" transform="translate(1345.996094 0.015625)"/>
      <use xlink:href="#DejaVuSans-28" transform="translate(1377.783203 0.015625)"/>
      <use xlink:href="#DejaVuSans-394" transform="translate(1416.796875 0.015625)"/>
      <use xlink:href="#DejaVuSans-43" transform="translate(1485.205078 0.015625)"/>
      <use xlink:href="#DejaVuSans-46" transform="translate(1555.029297 0.015625)"/>
      <use xlink:href="#DejaVuSans-29" transform="translate(1612.548828 0.015625)"/>
     </g>
    </g>
   </g>
   <g id="line2d_9">
    <path d="M 229.5 403.978971 
L 229.5 197.167572 
" clip-path="url(#pe96314f96b)" style="fill: none; stroke: #3f3f3f; stroke-width: 1.875; stroke-linecap: square"/>
   </g>
   <g id="line2d_10">
    <path d="M 229.5 329.99534 
L 229.5 230.819549 
" clip-path="url(#pe96314f96b)" style="fill: none; stroke: #3f3f3f; stroke-width: 5.625; stroke-linecap: square"/>
   </g>
   <g id="line2d_11">
    <path d="M 229.5 294.441628 
" clip-path="url(#pe96314f96b)" style="fill: none; stroke: #3f3f3f; stroke-width: 1.5; stroke-linecap: square"/>
    <defs>
     <path id="mbc14132798" d="M 2.34375 0 
L -2.34375 -0 
" style="stroke: #ffffff; stroke-width: 1.125"/>
    </defs>
    <g clip-path="url(#pe96314f96b)">
     <use xlink:href="#mbc14132798" x="229.5" y="294.441628" style="fill: #ffffff; stroke: #ffffff; stroke-width: 1.125"/>
    </g>
   </g>
   <g id="line2d_12">
    <path d="M 508.5 161.181743 
L 508.5 152.407894 
" clip-path="url(#pe96314f96b)" style="fill: none; stroke: #3f3f3f; stroke-width: 1.875; stroke-linecap: square"/>
   </g>
   <g id="line2d_13">
    <path d="M 508.5 160.83717 
L 508.5 153.959342 
" clip-path="url(#pe96314f96b)" style="fill: none; stroke: #3f3f3f; stroke-width: 5.625; stroke-linecap: square"/>
   </g>
   <g id="line2d_14">
    <path d="M 508.5 157.487956 
" clip-path="url(#pe96314f96b)" style="fill: none; stroke: #3f3f3f; stroke-width: 1.5; stroke-linecap: square"/>
    <g clip-path="url(#pe96314f96b)">
     <use xlink:href="#mbc14132798" x="508.5" y="157.487956" style="fill: #ffffff; stroke: #ffffff; stroke-width: 1.125"/>
    </g>
   </g>
   <g id="patch_3">
    <path d="M 90 512.64 
L 90 69.12 
" style="fill: none; stroke: #000000; stroke-width: 0.8; stroke-linejoin: miter; stroke-linecap: square"/>
   </g>
   <g id="patch_4">
    <path d="M 648 512.64 
L 648 69.12 
" style="fill: none; stroke: #000000; stroke-width: 0.8; stroke-linejoin: miter; stroke-linecap: square"/>
   </g>
   <g id="patch_5">
    <path d="M 90 512.64 
L 648 512.64 
" style="fill: none; stroke: #000000; stroke-width: 0.8; stroke-linejoin: miter; stroke-linecap: square"/>
   </g>
   <g id="patch_6">
    <path d="M 90 69.12 
L 648 69.12 
" style="fill: none; stroke: #000000; stroke-width: 0.8; stroke-linejoin: miter; stroke-linecap: square"/>
   </g>
   <g id="PathCollection_1">
    <defs>
     <path id="mc4d1317932" d="M 0 2.5 
C 0.663008 2.5 1.29895 2.236584 1.767767 1.767767 
C 2.236584 1.29895 2.5 0.663008 2.5 0 
C 2.5 -0.663008 2.236584 -1.29895 1.767767 -1.767767 
C 1.29895 -2.236584 0.663008 -2.5 0 -2.5 
C -0.663008 -2.5 -1.29895 -2.236584 -1.767767 -1.767767 
C -2.236584 -1.29895 -2.5 -0.663008 -2.5 0 
C -2.5 0.663008 -2.236584 1.29895 -1.767767 1.767767 
C -1.29895 2.236584 -0.663008 2.5 0 2.5 
z
"/>
    </defs>
    <g clip-path="url(#pe96314f96b)">
     <use xlink:href="#mc4d1317932" x="224.250158" y="197.167572" style="fill: #ffffff"/>
     <use xlink:href="#mc4d1317932" x="229.5" y="197.206317" style="fill: #ffffff"/>
     <use xlink:href="#mc4d1317932" x="229.5" y="299.933869" style="fill: #ffffff"/>
     <use xlink:href="#mc4d1317932" x="229.5" y="288.949388" style="fill: #ffffff"/>
     <use xlink:href="#mc4d1317932" x="229.5" y="221.421409" style="fill: #ffffff"/>
     <use xlink:href="#mc4d1317932" x="229.5" y="337.526441" style="fill: #ffffff"/>
     <use xlink:href="#mc4d1317932" x="229.5" y="307.402037" style="fill: #ffffff"/>
     <use xlink:href="#mc4d1317932" x="229.5" y="403.978971" style="fill: #ffffff"/>
     <use xlink:href="#mc4d1317932" x="229.5" y="259.013968" style="fill: #ffffff"/>
     <use xlink:href="#mc4d1317932" x="229.5" y="365.951559" style="fill: #ffffff"/>
    </g>
   </g>
   <g id="PathCollection_2">
    <g clip-path="url(#pe96314f96b)">
     <use xlink:href="#mc4d1317932" x="508.5" y="244.613511" style="fill: #ffffff"/>
     <use xlink:href="#mc4d1317932" x="513.546592" y="159.803452" style="fill: #ffffff"/>
     <use xlink:href="#mc4d1317932" x="508.5" y="154.593543" style="fill: #ffffff"/>
     <use xlink:href="#mc4d1317932" x="502.013205" y="153.747942" style="fill: #ffffff"/>
     <use xlink:href="#mc4d1317932" x="513.221842" y="152.407894" style="fill: #ffffff"/>
     <use xlink:href="#mc4d1317932" x="517.656056" y="156.691801" style="fill: #ffffff"/>
     <use xlink:href="#mc4d1317932" x="508.5" y="161.181743" style="fill: #ffffff"/>
     <use xlink:href="#mc4d1317932" x="508.5" y="128.308944" style="fill: #ffffff"/>
     <use xlink:href="#mc4d1317932" x="504.221494" y="158.284111" style="fill: #ffffff"/>
     <use xlink:href="#mc4d1317932" x="508.5" y="184.416122" style="fill: #ffffff"/>
    </g>
   </g>
   <g id="text_11">
    <!-- Interaction energy of low partner and minor domain interactions -->
    <g transform="translate(175.205625 63.12) scale(0.12 -0.12)">
     <defs>
      <path id="DejaVuSans-66" d="M 2375 4863 
L 2375 4384 
L 1825 4384 
Q 1516 4384 1395 4259 
Q 1275 4134 1275 3809 
L 1275 3500 
L 2222 3500 
L 2222 3053 
L 1275 3053 
L 1275 0 
L 697 0 
L 697 3053 
L 147 3053 
L 147 3500 
L 697 3500 
L 697 3744 
Q 697 4328 969 4595 
Q 1241 4863 1831 4863 
L 2375 4863 
z
" transform="scale(0.015625)"/>
      <path id="DejaVuSans-6c" d="M 603 4863 
L 1178 4863 
L 1178 0 
L 603 0 
L 603 4863 
z
" transform="scale(0.015625)"/>
      <path id="DejaVuSans-64" d="M 2906 2969 
L 2906 4863 
L 3481 4863 
L 3481 0 
L 2906 0 
L 2906 525 
Q 2725 213 2448 61 
Q 2172 -91 1784 -91 
Q 1150 -91 751 415 
Q 353 922 353 1747 
Q 353 2572 751 3078 
Q 1150 3584 1784 3584 
Q 2172 3584 2448 3432 
Q 2725 3281 2906 2969 
z
M 947 1747 
Q 947 1113 1208 752 
Q 1469 391 1925 391 
Q 2381 391 2643 752 
Q 2906 1113 2906 1747 
Q 2906 2381 2643 2742 
Q 2381 3103 1925 3103 
Q 1469 3103 1208 2742 
Q 947 2381 947 1747 
z
" transform="scale(0.015625)"/>
      <path id="DejaVuSans-73" d="M 2834 3397 
L 2834 2853 
Q 2591 2978 2328 3040 
Q 2066 3103 1784 3103 
Q 1356 3103 1142 2972 
Q 928 2841 928 2578 
Q 928 2378 1081 2264 
Q 1234 2150 1697 2047 
L 1894 2003 
Q 2506 1872 2764 1633 
Q 3022 1394 3022 966 
Q 3022 478 2636 193 
Q 2250 -91 1575 -91 
Q 1294 -91 989 -36 
Q 684 19 347 128 
L 347 722 
Q 666 556 975 473 
Q 1284 391 1588 391 
Q 1994 391 2212 530 
Q 2431 669 2431 922 
Q 2431 1156 2273 1281 
Q 2116 1406 1581 1522 
L 1381 1569 
Q 847 1681 609 1914 
Q 372 2147 372 2553 
Q 372 3047 722 3315 
Q 1072 3584 1716 3584 
Q 2034 3584 2315 3537 
Q 2597 3491 2834 3397 
z
" transform="scale(0.015625)"/>
     </defs>
     <use xlink:href="#DejaVuSans-49"/>
     <use xlink:href="#DejaVuSans-6e" x="29.492188"/>
     <use xlink:href="#DejaVuSans-74" x="92.871094"/>
     <use xlink:href="#DejaVuSans-65" x="132.080078"/>
     <use xlink:href="#DejaVuSans-72" x="193.603516"/>
     <use xlink:href="#DejaVuSans-61" x="234.716797"/>
     <use xlink:href="#DejaVuSans-63" x="295.996094"/>
     <use xlink:href="#DejaVuSans-74" x="350.976562"/>
     <use xlink:href="#DejaVuSans-69" x="390.185547"/>
     <use xlink:href="#DejaVuSans-6f" x="417.96875"/>
     <use xlink:href="#DejaVuSans-6e" x="479.150391"/>
     <use xlink:href="#DejaVuSans-20" x="542.529297"/>
     <use xlink:href="#DejaVuSans-65" x="574.316406"/>
     <use xlink:href="#DejaVuSans-6e" x="635.839844"/>
     <use xlink:href="#DejaVuSans-65" x="699.21875"/>
     <use xlink:href="#DejaVuSans-72" x="760.742188"/>
     <use xlink:href="#DejaVuSans-67" x="800.105469"/>
     <use xlink:href="#DejaVuSans-79" x="863.582031"/>
     <use xlink:href="#DejaVuSans-20" x="922.761719"/>
     <use xlink:href="#DejaVuSans-6f" x="954.548828"/>
     <use xlink:href="#DejaVuSans-66" x="1015.730469"/>
     <use xlink:href="#DejaVuSans-20" x="1050.935547"/>
     <use xlink:href="#DejaVuSans-6c" x="1082.722656"/>
     <use xlink:href="#DejaVuSans-6f" x="1110.505859"/>
     <use xlink:href="#DejaVuSans-77" x="1171.6875"/>
     <use xlink:href="#DejaVuSans-20" x="1253.474609"/>
     <use xlink:href="#DejaVuSans-70" x="1285.261719"/>
     <use xlink:href="#DejaVuSans-61" x="1348.738281"/>
     <use xlink:href="#DejaVuSans-72" x="1410.017578"/>
     <use xlink:href="#DejaVuSans-74" x="1451.130859"/>
     <use xlink:href="#DejaVuSans-6e" x="1490.339844"/>
     <use xlink:href="#DejaVuSans-65" x="1553.71875"/>
     <use xlink:href="#DejaVuSans-72" x="1615.242188"/>
     <use xlink:href="#DejaVuSans-20" x="1656.355469"/>
     <use xlink:href="#DejaVuSans-61" x="1688.142578"/>
     <use xlink:href="#DejaVuSans-6e" x="1749.421875"/>
     <use xlink:href="#DejaVuSans-64" x="1812.800781"/>
     <use xlink:href="#DejaVuSans-20" x="1876.277344"/>
     <use xlink:href="#DejaVuSans-6d" x="1908.064453"/>
     <use xlink:href="#DejaVuSans-69" x="2005.476562"/>
     <use xlink:href="#DejaVuSans-6e" x="2033.259766"/>
     <use xlink:href="#DejaVuSans-6f" x="2096.638672"/>
     <use xlink:href="#DejaVuSans-72" x="2157.820312"/>
     <use xlink:href="#DejaVuSans-20" x="2198.933594"/>
     <use xlink:href="#DejaVuSans-64" x="2230.720703"/>
     <use xlink:href="#DejaVuSans-6f" x="2294.197266"/>
     <use xlink:href="#DejaVuSans-6d" x="2355.378906"/>
     <use xlink:href="#DejaVuSans-61" x="2452.791016"/>
     <use xlink:href="#DejaVuSans-69" x="2514.070312"/>
     <use xlink:href="#DejaVuSans-6e" x="2541.853516"/>
     <use xlink:href="#DejaVuSans-20" x="2605.232422"/>
     <use xlink:href="#DejaVuSans-69" x="2637.019531"/>
     <use xlink:href="#DejaVuSans-6e" x="2664.802734"/>
     <use xlink:href="#DejaVuSans-74" x="2728.181641"/>
     <use xlink:href="#DejaVuSans-65" x="2767.390625"/>
     <use xlink:href="#DejaVuSans-72" x="2828.914062"/>
     <use xlink:href="#DejaVuSans-61" x="2870.027344"/>
     <use xlink:href="#DejaVuSans-63" x="2931.306641"/>
     <use xlink:href="#DejaVuSans-74" x="2986.287109"/>
     <use xlink:href="#DejaVuSans-69" x="3025.496094"/>
     <use xlink:href="#DejaVuSans-6f" x="3053.279297"/>
     <use xlink:href="#DejaVuSans-6e" x="3114.460938"/>
     <use xlink:href="#DejaVuSans-73" x="3177.839844"/>
    </g>
   </g>
  </g>
 </g>
 <defs>
  <clipPath id="pe96314f96b">
   <rect x="90" y="69.12" width="558" height="443.52"/>
  </clipPath>
 </defs>
</svg>
