<?xml version="1.0" encoding="UTF-8" standalone="no"?>
<svg
   width="603.38281pt"
   height="488.99438pt"
   viewBox="0 0 603.38281 488.99438"
   version="1.1"
   id="svg180"
   sodipodi:docname="interaction_energy_boxplot.svg"
   inkscape:version="1.3.2 (091e20e, 2023-11-25)"
   inkscape:export-filename="interaction_energy_boxplot.pdf"
   inkscape:export-xdpi="96"
   inkscape:export-ydpi="96"
   xmlns:inkscape="http://www.inkscape.org/namespaces/inkscape"
   xmlns:sodipodi="http://sodipodi.sourceforge.net/DTD/sodipodi-0.dtd"
   xmlns:xlink="http://www.w3.org/1999/xlink"
   xmlns="http://www.w3.org/2000/svg"
   xmlns:svg="http://www.w3.org/2000/svg"
   xmlns:rdf="http://www.w3.org/1999/02/22-rdf-syntax-ns#"
   xmlns:cc="http://creativecommons.org/ns#"
   xmlns:dc="http://purl.org/dc/elements/1.1/">
  <sodipodi:namedview
     id="namedview180"
     pagecolor="#ffffff"
     bordercolor="#000000"
     borderopacity="0.25"
     inkscape:showpageshadow="2"
     inkscape:pageopacity="0.0"
     inkscape:pagecheckerboard="0"
     inkscape:deskcolor="#d1d1d1"
     inkscape:document-units="pt"
     inkscape:zoom="0.24583333"
     inkscape:cx="416.94915"
     inkscape:cy="309.15254"
     inkscape:window-width="1312"
     inkscape:window-height="449"
     inkscape:window-x="0"
     inkscape:window-y="25"
     inkscape:window-maximized="0"
     inkscape:current-layer="figure_1" />
  <metadata
     id="metadata1">
    <rdf:RDF>
      <cc:Work>
        <dc:type
           rdf:resource="http://purl.org/dc/dcmitype/StillImage" />
        <dc:date>2025-01-12T17:14:08.244199</dc:date>
        <dc:format>image/svg+xml</dc:format>
        <dc:creator>
          <cc:Agent>
            <dc:title>Matplotlib v3.10.0, https://matplotlib.org/</dc:title>
          </cc:Agent>
        </dc:creator>
      </cc:Work>
    </rdf:RDF>
  </metadata>
  <defs
     id="defs1">
    <style
       type="text/css"
       id="style1">*{stroke-linejoin: round; stroke-linecap: butt}</style>
  </defs>
  <g
     id="figure_1"
     transform="translate(-45.017187,-54.001875)">
    <g
       id="axes_1">
      <g
         id="patch_2">
        <path
           d="M 90,512.64 H 648 V 69.12 H 90 Z"
           style="fill:#ffffff"
           id="path2" />
      </g>
      <g
         id="matplotlib.axis_1">
        <g
           id="xtick_1">
          <g
             id="line2d_1">
            <defs
               id="defs2">
              <path
                 id="mb26b8d239a"
                 d="M 0,0 V 3.5"
                 style="stroke:#000000;stroke-width:0.8" />
            </defs>
            <g
               id="g2">
              <use
                 xlink:href="#mb26b8d239a"
                 x="229.5"
                 y="512.64001"
                 style="stroke:#000000;stroke-width:0.8"
                 id="use2" />
            </g>
          </g>
          <g
             id="text_1">
            <!-- Low % Partner -->
            <g
               transform="matrix(0.1,0,0,-0.1,193.55391,527.23844)"
               id="g15">
              <defs
                 id="defs3">
                <path
                   id="DejaVuSans-4c"
                   d="m 628,4666 h 631 V 531 H 3531 V 0 H 628 Z"
                   transform="scale(0.015625)" />
                <path
                   id="DejaVuSans-6f"
                   d="m 1959,3097 q -462,0 -731,-361 -269,-361 -269,-989 0,-628 267,-989 268,-361 733,-361 460,0 728,362 269,363 269,988 0,622 -269,986 -268,364 -728,364 z m 0,487 q 750,0 1178,-488 429,-487 429,-1349 Q 3566,888 3137,398 2709,-91 1959,-91 1206,-91 779,398 353,888 353,1747 q 0,862 426,1349 427,488 1180,488 z"
                   transform="scale(0.015625)" />
                <path
                   id="DejaVuSans-77"
                   d="m 269,3500 h 575 l 719,-2731 715,2731 h 678 l 719,-2731 716,2731 h 575 L 4050,0 H 3372 L 2619,2869 1863,0 h -679 z"
                   transform="scale(0.015625)" />
                <path
                   id="DejaVuSans-20"
                   transform="scale(0.015625)"
                   d="" />
                <path
                   id="DejaVuSans-25"
                   d="m 4653,2053 q -272,0 -427,-231 -154,-231 -154,-644 0,-406 154,-639 155,-233 427,-233 266,0 420,233 155,233 155,639 0,410 -155,642 -154,233 -420,233 z m 0,397 q 494,0 784,-344 291,-343 291,-928 0,-584 -292,-927 -292,-342 -783,-342 -500,0 -791,342 -290,343 -290,927 0,588 292,930 292,342 789,342 z M 1428,4353 q -269,0 -424,-233 -154,-232 -154,-639 0,-412 153,-644 153,-231 425,-231 272,0 426,231 155,232 155,644 0,403 -156,637 -156,235 -425,235 z m 2822,397 h 500 L 1831,-91 h -500 z m -2822,0 q 494,0 787,-342 294,-342 294,-927 0,-590 -292,-931 -292,-341 -789,-341 -497,0 -786,342 -289,343 -289,930 0,582 290,925 291,344 785,344 z"
                   transform="scale(0.015625)" />
                <path
                   id="DejaVuSans-50"
                   d="M 1259,4147 V 2394 h 794 q 441,0 681,228 241,228 241,650 0,419 -241,647 -240,228 -681,228 z m -631,519 h 1425 q 785,0 1186,-355 402,-355 402,-1039 0,-691 -402,-1044 -401,-353 -1186,-353 H 1259 V 0 H 628 Z"
                   transform="scale(0.015625)" />
                <path
                   id="DejaVuSans-61"
                   d="m 2194,1759 q -697,0 -966,-159 -269,-159 -269,-544 0,-306 202,-486 202,-179 548,-179 479,0 768,339 289,339 289,901 v 128 z m 1147,238 V 0 H 2766 V 531 Q 2569,213 2275,61 1981,-91 1556,-91 q -537,0 -855,302 -317,302 -317,808 0,590 395,890 396,300 1180,300 h 807 v 57 q 0,397 -261,614 -261,217 -733,217 -300,0 -585,-72 -284,-72 -546,-216 v 532 q 315,122 612,182 297,61 578,61 760,0 1135,-394 375,-393 375,-1193 z"
                   transform="scale(0.015625)" />
                <path
                   id="DejaVuSans-72"
                   d="m 2631,2963 q -97,56 -211,82 -114,27 -251,27 -488,0 -749,-317 -261,-317 -261,-911 V 0 H 581 v 3500 h 578 v -544 q 182,319 472,473 291,155 707,155 59,0 131,-8 72,-7 159,-23 z"
                   transform="scale(0.015625)" />
                <path
                   id="DejaVuSans-74"
                   d="M 1172,4494 V 3500 H 2356 V 3053 H 1172 V 1153 q 0,-428 117,-550 117,-122 477,-122 h 590 V 0 H 1766 Q 1100,0 847,248 594,497 594,1153 V 3053 H 172 v 447 h 422 v 994 z"
                   transform="scale(0.015625)" />
                <path
                   id="DejaVuSans-6e"
                   d="M 3513,2113 V 0 h -575 v 2094 q 0,497 -194,743 -194,247 -581,247 -466,0 -735,-297 -269,-296 -269,-809 V 0 H 581 v 3500 h 578 v -544 q 207,316 486,472 280,156 646,156 603,0 912,-373 310,-373 310,-1098 z"
                   transform="scale(0.015625)" />
                <path
                   id="DejaVuSans-65"
                   d="M 3597,1894 V 1613 H 953 q 38,-594 358,-905 320,-311 892,-311 331,0 642,81 311,81 618,244 V 178 Q 3153,47 2828,-22 2503,-91 2169,-91 1331,-91 842,396 353,884 353,1716 q 0,859 464,1363 464,505 1252,505 706,0 1117,-455 411,-454 411,-1235 z m -575,169 q -6,471 -264,752 -258,282 -683,282 -481,0 -770,-272 -289,-272 -333,-766 z"
                   transform="scale(0.015625)" />
              </defs>
              <use
                 xlink:href="#DejaVuSans-4c"
                 id="use3" />
              <use
                 xlink:href="#DejaVuSans-6f"
                 transform="translate(53.962891)"
                 id="use4" />
              <use
                 xlink:href="#DejaVuSans-77"
                 transform="translate(115.14453)"
                 id="use5" />
              <use
                 xlink:href="#DejaVuSans-20"
                 transform="translate(196.93164)"
                 id="use6" />
              <use
                 xlink:href="#DejaVuSans-25"
                 transform="translate(228.71875)"
                 id="use7" />
              <use
                 xlink:href="#DejaVuSans-20"
                 transform="translate(323.73828)"
                 id="use8" />
              <use
                 xlink:href="#DejaVuSans-50"
                 transform="translate(355.52539)"
                 id="use9" />
              <use
                 xlink:href="#DejaVuSans-61"
                 transform="translate(411.32812)"
                 id="use10" />
              <use
                 xlink:href="#DejaVuSans-72"
                 transform="translate(472.60742)"
                 id="use11" />
              <use
                 xlink:href="#DejaVuSans-74"
                 transform="translate(513.7207)"
                 id="use12" />
              <use
                 xlink:href="#DejaVuSans-6e"
                 transform="translate(552.92969)"
                 id="use13" />
              <use
                 xlink:href="#DejaVuSans-65"
                 transform="translate(616.30859)"
                 id="use14" />
              <use
                 xlink:href="#DejaVuSans-72"
                 transform="translate(677.83203)"
                 id="use15" />
            </g>
          </g>
        </g>
        <g
           id="xtick_2">
          <g
             id="line2d_2">
            <g
               id="g16">
              <use
                 xlink:href="#mb26b8d239a"
                 x="508.5"
                 y="512.64001"
                 style="stroke:#000000;stroke-width:0.8"
                 id="use16" />
            </g>
          </g>
          <g
             id="text_2">
            <!-- Minor -->
            <g
               transform="matrix(0.1,0,0,-0.1,494.51328,527.23844)"
               id="g21">
              <defs
                 id="defs16">
                <path
                   id="DejaVuSans-4d"
                   d="m 628,4666 h 941 L 2759,1491 3956,4666 h 941 V 0 H 4281 V 4097 L 3078,897 H 2444 L 1241,4097 V 0 H 628 Z"
                   transform="scale(0.015625)" />
                <path
                   id="DejaVuSans-69"
                   d="m 603,3500 h 575 V 0 H 603 Z m 0,1363 h 575 V 4134 H 603 Z"
                   transform="scale(0.015625)" />
              </defs>
              <use
                 xlink:href="#DejaVuSans-4d"
                 id="use17" />
              <use
                 xlink:href="#DejaVuSans-69"
                 transform="translate(86.279297)"
                 id="use18" />
              <use
                 xlink:href="#DejaVuSans-6e"
                 transform="translate(114.0625)"
                 id="use19" />
              <use
                 xlink:href="#DejaVuSans-6f"
                 transform="translate(177.44141)"
                 id="use20" />
              <use
                 xlink:href="#DejaVuSans-72"
                 transform="translate(238.62305)"
                 id="use21" />
            </g>
          </g>
        </g>
        <g
           id="text_3">
          <!-- Domain Type -->
          <g
             transform="matrix(0.1,0,0,-0.1,336.52656,540.91656)"
             id="g32">
            <defs
               id="defs21">
              <path
                 id="DejaVuSans-44"
                 d="M 1259,4147 V 519 h 763 q 966,0 1414,437 448,438 448,1382 0,937 -448,1373 -448,436 -1414,436 z m -631,519 h 1297 q 1356,0 1990,-564 635,-564 635,-1764 Q 4550,1131 3912,565 3275,0 1925,0 H 628 Z"
                 transform="scale(0.015625)" />
              <path
                 id="DejaVuSans-6d"
                 d="m 3328,2828 q 216,388 516,572 300,184 706,184 547,0 844,-383 297,-382 297,-1088 V 0 h -578 v 2094 q 0,503 -179,746 -178,244 -543,244 -447,0 -707,-297 -259,-296 -259,-809 V 0 h -578 v 2094 q 0,506 -178,748 -178,242 -550,242 -441,0 -701,-298 -259,-298 -259,-808 V 0 H 581 v 3500 h 578 v -544 q 197,322 472,475 275,153 653,153 382,0 649,-194 267,-193 395,-562 z"
                 transform="scale(0.015625)" />
              <path
                 id="DejaVuSans-54"
                 d="M -19,4666 H 3928 V 4134 H 2272 V 0 H 1638 V 4134 H -19 Z"
                 transform="scale(0.015625)" />
              <path
                 id="DejaVuSans-79"
                 d="m 2059,-325 q -243,-625 -475,-815 -231,-191 -618,-191 H 506 v 481 h 338 q 237,0 368,113 132,112 291,531 L 1606,56 191,3500 H 800 L 1894,763 2988,3500 h 609 z"
                 transform="scale(0.015625)" />
              <path
                 id="DejaVuSans-70"
                 d="M 1159,525 V -1331 H 581 v 4831 h 578 v -531 q 182,312 458,463 277,152 661,152 638,0 1036,-506 399,-506 399,-1331 0,-825 -399,-1332 -398,-506 -1036,-506 -384,0 -661,152 -276,152 -458,464 z m 1957,1222 q 0,634 -261,995 -261,361 -717,361 -457,0 -718,-361 -261,-361 -261,-995 0,-634 261,-995 261,-361 718,-361 456,0 717,361 261,361 261,995 z"
                 transform="scale(0.015625)" />
            </defs>
            <use
               xlink:href="#DejaVuSans-44"
               id="use22" />
            <use
               xlink:href="#DejaVuSans-6f"
               transform="translate(77.001953)"
               id="use23" />
            <use
               xlink:href="#DejaVuSans-6d"
               transform="translate(138.18359)"
               id="use24" />
            <use
               xlink:href="#DejaVuSans-61"
               transform="translate(235.5957)"
               id="use25" />
            <use
               xlink:href="#DejaVuSans-69"
               transform="translate(296.875)"
               id="use26" />
            <use
               xlink:href="#DejaVuSans-6e"
               transform="translate(324.6582)"
               id="use27" />
            <use
               xlink:href="#DejaVuSans-20"
               transform="translate(388.03711)"
               id="use28" />
            <use
               xlink:href="#DejaVuSans-54"
               transform="translate(419.82422)"
               id="use29" />
            <use
               xlink:href="#DejaVuSans-79"
               transform="translate(465.2832)"
               id="use30" />
            <use
               xlink:href="#DejaVuSans-70"
               transform="translate(524.46289)"
               id="use31" />
            <use
               xlink:href="#DejaVuSans-65"
               transform="translate(587.93945)"
               id="use32" />
          </g>
        </g>
      </g>
      <g
         id="matplotlib.axis_2">
        <g
           id="ytick_1">
          <g
             id="line2d_3">
            <defs
               id="defs32">
              <path
                 id="m5d698f192e"
                 d="M 0,0 H -3.5"
                 style="stroke:#000000;stroke-width:0.8" />
            </defs>
            <g
               id="g33">
              <use
                 xlink:href="#m5d698f192e"
                 x="90"
                 y="464.46768"
                 style="stroke:#000000;stroke-width:0.8"
                 id="use33" />
            </g>
          </g>
          <g
             id="text_4">
            <!-- −3.5 -->
            <g
               transform="matrix(0.1,0,0,-0.1,58.717187,468.26691)"
               id="g37">
              <defs
                 id="defs33">
                <path
                   id="DejaVuSans-2212"
                   d="M 678,2272 H 4684 V 1741 H 678 Z"
                   transform="scale(0.015625)" />
                <path
                   id="DejaVuSans-33"
                   d="m 2597,2516 q 453,-97 707,-404 255,-306 255,-756 0,-690 -475,-1069 -475,-378 -1350,-378 -293,0 -604,58 -311,58 -642,174 v 609 q 262,-153 574,-231 313,-78 654,-78 593,0 904,234 311,234 311,681 0,413 -289,645 -289,233 -804,233 h -544 v 519 h 569 q 465,0 712,186 247,186 247,536 0,359 -255,551 -254,193 -729,193 -260,0 -557,-57 -297,-56 -653,-174 v 562 q 360,100 674,150 314,50 592,50 719,0 1137,-327 419,-326 419,-882 0,-388 -222,-655 -222,-267 -631,-370 z"
                   transform="scale(0.015625)" />
                <path
                   id="DejaVuSans-2e"
                   d="m 684,794 h 660 V 0 H 684 Z"
                   transform="scale(0.015625)" />
                <path
                   id="DejaVuSans-35"
                   d="M 691,4666 H 3169 V 4134 H 1269 V 2991 q 137,47 274,70 138,23 276,23 781,0 1237,-428 457,-428 457,-1159 Q 3513,744 3044,326 2575,-91 1722,-91 1428,-91 1123,-41 819,9 494,109 v 635 q 281,-153 581,-228 300,-75 634,-75 541,0 856,284 316,284 316,772 0,487 -316,771 -315,285 -856,285 -253,0 -505,-56 -251,-56 -513,-175 z"
                   transform="scale(0.015625)" />
              </defs>
              <use
                 xlink:href="#DejaVuSans-2212"
                 id="use34" />
              <use
                 xlink:href="#DejaVuSans-33"
                 transform="translate(83.789062)"
                 id="use35" />
              <use
                 xlink:href="#DejaVuSans-2e"
                 transform="translate(147.41211)"
                 id="use36" />
              <use
                 xlink:href="#DejaVuSans-35"
                 transform="translate(179.19922)"
                 id="use37" />
            </g>
          </g>
        </g>
        <g
           id="ytick_2">
          <g
             id="line2d_4">
            <g
               id="g38">
              <use
                 xlink:href="#m5d698f192e"
                 x="90"
                 y="412.45764"
                 style="stroke:#000000;stroke-width:0.8"
                 id="use38" />
            </g>
          </g>
          <g
             id="text_5">
            <!-- −3.0 -->
            <g
               transform="matrix(0.1,0,0,-0.1,58.717187,416.25686)"
               id="g42">
              <defs
                 id="defs38">
                <path
                   id="DejaVuSans-30"
                   d="m 2034,4250 q -487,0 -733,-480 -245,-479 -245,-1442 0,-959 245,-1439 246,-480 733,-480 491,0 736,480 246,480 246,1439 0,963 -246,1442 -245,480 -736,480 z m 0,500 q 785,0 1199,-621 414,-620 414,-1801 0,-1178 -414,-1799 -414,-620 -1199,-620 -784,0 -1198,620 -414,621 -414,1799 0,1181 414,1801 414,621 1198,621 z"
                   transform="scale(0.015625)" />
              </defs>
              <use
                 xlink:href="#DejaVuSans-2212"
                 id="use39" />
              <use
                 xlink:href="#DejaVuSans-33"
                 transform="translate(83.789062)"
                 id="use40" />
              <use
                 xlink:href="#DejaVuSans-2e"
                 transform="translate(147.41211)"
                 id="use41" />
              <use
                 xlink:href="#DejaVuSans-30"
                 transform="translate(179.19922)"
                 id="use42" />
            </g>
          </g>
        </g>
        <g
           id="ytick_3">
          <g
             id="line2d_5">
            <g
               id="g43">
              <use
                 xlink:href="#m5d698f192e"
                 x="90"
                 y="360.44757"
                 style="stroke:#000000;stroke-width:0.8"
                 id="use43" />
            </g>
          </g>
          <g
             id="text_6">
            <!-- −2.5 -->
            <g
               transform="matrix(0.1,0,0,-0.1,58.717187,364.2468)"
               id="g47">
              <defs
                 id="defs43">
                <path
                   id="DejaVuSans-32"
                   d="M 1228,531 H 3431 V 0 H 469 v 531 q 359,372 979,998 621,627 780,809 303,340 423,576 121,236 121,464 0,372 -261,606 -261,235 -680,235 -297,0 -627,-103 -329,-103 -704,-313 v 638 q 381,153 712,231 332,78 607,78 725,0 1156,-363 431,-362 431,-968 0,-288 -108,-546 -107,-257 -392,-607 -78,-91 -497,-524 Q 1991,1309 1228,531 Z"
                   transform="scale(0.015625)" />
              </defs>
              <use
                 xlink:href="#DejaVuSans-2212"
                 id="use44" />
              <use
                 xlink:href="#DejaVuSans-32"
                 transform="translate(83.789062)"
                 id="use45" />
              <use
                 xlink:href="#DejaVuSans-2e"
                 transform="translate(147.41211)"
                 id="use46" />
              <use
                 xlink:href="#DejaVuSans-35"
                 transform="translate(179.19922)"
                 id="use47" />
            </g>
          </g>
        </g>
        <g
           id="ytick_4">
          <g
             id="line2d_6">
            <g
               id="g48">
              <use
                 xlink:href="#m5d698f192e"
                 x="90"
                 y="308.43753"
                 style="stroke:#000000;stroke-width:0.8"
                 id="use48" />
            </g>
          </g>
          <g
             id="text_7">
            <!-- −2.0 -->
            <g
               transform="matrix(0.1,0,0,-0.1,58.717187,312.23675)"
               id="g52">
              <use
                 xlink:href="#DejaVuSans-2212"
                 id="use49" />
              <use
                 xlink:href="#DejaVuSans-32"
                 transform="translate(83.789062)"
                 id="use50" />
              <use
                 xlink:href="#DejaVuSans-2e"
                 transform="translate(147.41211)"
                 id="use51" />
              <use
                 xlink:href="#DejaVuSans-30"
                 transform="translate(179.19922)"
                 id="use52" />
            </g>
          </g>
        </g>
        <g
           id="ytick_5">
          <g
             id="line2d_7">
            <g
               id="g53">
              <use
                 xlink:href="#m5d698f192e"
                 x="90"
                 y="256.42749"
                 style="stroke:#000000;stroke-width:0.8"
                 id="use53" />
            </g>
          </g>
          <g
             id="text_8">
            <!-- −1.5 -->
            <g
               transform="matrix(0.1,0,0,-0.1,58.717187,260.2267)"
               id="g57">
              <defs
                 id="defs53">
                <path
                   id="DejaVuSans-31"
                   d="M 794,531 H 1825 V 4091 L 703,3866 v 575 l 1116,225 h 631 V 531 H 3481 V 0 H 794 Z"
                   transform="scale(0.015625)" />
              </defs>
              <use
                 xlink:href="#DejaVuSans-2212"
                 id="use54" />
              <use
                 xlink:href="#DejaVuSans-31"
                 transform="translate(83.789062)"
                 id="use55" />
              <use
                 xlink:href="#DejaVuSans-2e"
                 transform="translate(147.41211)"
                 id="use56" />
              <use
                 xlink:href="#DejaVuSans-35"
                 transform="translate(179.19922)"
                 id="use57" />
            </g>
          </g>
        </g>
        <g
           id="ytick_6">
          <g
             id="line2d_8">
            <g
               id="g58">
              <use
                 xlink:href="#m5d698f192e"
                 x="90"
                 y="204.41742"
                 style="stroke:#000000;stroke-width:0.8"
                 id="use58" />
            </g>
          </g>
          <g
             id="text_9">
            <!-- −1.0 -->
            <g
               transform="matrix(0.1,0,0,-0.1,58.717187,208.21664)"
               id="g62">
              <use
                 xlink:href="#DejaVuSans-2212"
                 id="use59" />
              <use
                 xlink:href="#DejaVuSans-31"
                 transform="translate(83.789062)"
                 id="use60" />
              <use
                 xlink:href="#DejaVuSans-2e"
                 transform="translate(147.41211)"
                 id="use61" />
              <use
                 xlink:href="#DejaVuSans-30"
                 transform="translate(179.19922)"
                 id="use62" />
            </g>
          </g>
        </g>
        <g
           id="ytick_7">
          <g
             id="line2d_9">
            <g
               id="g63">
              <use
                 xlink:href="#m5d698f192e"
                 x="90"
                 y="152.40736"
                 style="stroke:#000000;stroke-width:0.8"
                 id="use63" />
            </g>
          </g>
          <g
             id="text_10">
            <!-- −0.5 -->
            <g
               transform="matrix(0.1,0,0,-0.1,58.717187,156.20659)"
               id="g67">
              <use
                 xlink:href="#DejaVuSans-2212"
                 id="use64" />
              <use
                 xlink:href="#DejaVuSans-30"
                 transform="translate(83.789062)"
                 id="use65" />
              <use
                 xlink:href="#DejaVuSans-2e"
                 transform="translate(147.41211)"
                 id="use66" />
              <use
                 xlink:href="#DejaVuSans-35"
                 transform="translate(179.19922)"
                 id="use67" />
            </g>
          </g>
        </g>
        <g
           id="ytick_8">
          <g
             id="line2d_10">
            <g
               id="g68">
              <use
                 xlink:href="#m5d698f192e"
                 x="90"
                 y="100.39732"
                 style="stroke:#000000;stroke-width:0.8"
                 id="use68" />
            </g>
          </g>
          <g
             id="text_11">
            <!-- 0.0 -->
            <g
               transform="matrix(0.1,0,0,-0.1,67.096875,104.19654)"
               id="g71">
              <use
                 xlink:href="#DejaVuSans-30"
                 id="use69" />
              <use
                 xlink:href="#DejaVuSans-2e"
                 transform="translate(63.623047)"
                 id="use70" />
              <use
                 xlink:href="#DejaVuSans-30"
                 transform="translate(95.410156)"
                 id="use71" />
            </g>
          </g>
        </g>
        <g
           id="text_12">
          <!-- Domain Interaction Energy ($\Delta$CF) -->
          <g
             transform="matrix(0,-0.1,-0.1,0,52.617187,373.48)"
             id="g102">
            <defs
               id="defs71">
              <path
                 id="DejaVuSans-49"
                 d="m 628,4666 h 631 V 0 H 628 Z"
                 transform="scale(0.015625)" />
              <path
                 id="DejaVuSans-63"
                 d="m 3122,3366 v -538 q -244,135 -489,202 -245,67 -495,67 -560,0 -870,-355 -309,-354 -309,-995 0,-641 309,-996 310,-354 870,-354 250,0 495,67 245,67 489,202 V 134 Q 2881,22 2623,-34 2366,-91 2075,-91 1284,-91 818,406 353,903 353,1747 q 0,856 470,1346 471,491 1290,491 265,0 518,-55 253,-54 491,-163 z"
                 transform="scale(0.015625)" />
              <path
                 id="DejaVuSans-45"
                 d="M 628,4666 H 3578 V 4134 H 1259 V 2753 H 3481 V 2222 H 1259 V 531 H 3634 V 0 H 628 Z"
                 transform="scale(0.015625)" />
              <path
                 id="DejaVuSans-67"
                 d="m 2906,1791 q 0,625 -258,968 -257,344 -723,344 -462,0 -720,-344 -258,-343 -258,-968 0,-622 258,-966 258,-344 720,-344 466,0 723,344 258,344 258,966 z M 3481,434 q 0,-893 -397,-1329 -396,-436 -1215,-436 -303,0 -572,45 -269,45 -522,139 v 559 q 253,-137 500,-202 247,-66 503,-66 566,0 847,295 281,295 281,892 V 616 Q 2728,306 2450,153 2172,0 1784,0 1141,0 747,490 353,981 353,1791 q 0,812 394,1302 394,491 1037,491 388,0 666,-153 278,-153 456,-462 v 531 h 575 z"
                 transform="scale(0.015625)" />
              <path
                 id="DejaVuSans-28"
                 d="m 1984,4856 q -418,-718 -622,-1422 -203,-703 -203,-1425 0,-721 205,-1429 205,-708 620,-1424 h -500 q -468,735 -701,1444 -233,709 -233,1409 0,697 231,1403 232,707 703,1444 z"
                 transform="scale(0.015625)" />
              <path
                 id="DejaVuSans-394"
                 d="M 2188,4044 906,525 H 3472 Z M 50,0 1831,4666 h 716 L 4325,0 Z"
                 transform="scale(0.015625)" />
              <path
                 id="DejaVuSans-43"
                 d="m 4122,4306 v -665 q -319,297 -680,443 -361,147 -767,147 -800,0 -1225,-489 -425,-489 -425,-1414 0,-922 425,-1411 425,-489 1225,-489 406,0 767,147 361,147 680,444 V 359 Q 3791,134 3420,21 3050,-91 2638,-91 1578,-91 968,557 359,1206 359,2328 q 0,1125 609,1773 610,649 1670,649 418,0 788,-111 371,-111 696,-333 z"
                 transform="scale(0.015625)" />
              <path
                 id="DejaVuSans-46"
                 d="M 628,4666 H 3309 V 4134 H 1259 V 2759 H 3109 V 2228 H 1259 V 0 H 628 Z"
                 transform="scale(0.015625)" />
              <path
                 id="DejaVuSans-29"
                 d="m 513,4856 h 500 q 468,-737 701,-1444 233,-706 233,-1403 0,-700 -233,-1409 -233,-709 -701,-1444 H 513 q 415,716 620,1424 205,708 205,1429 0,722 -205,1425 -205,704 -620,1422 z"
                 transform="scale(0.015625)" />
            </defs>
            <use
               xlink:href="#DejaVuSans-44"
               transform="translate(0,0.015625)"
               id="use72" />
            <use
               xlink:href="#DejaVuSans-6f"
               transform="translate(77.001953,0.015625)"
               id="use73" />
            <use
               xlink:href="#DejaVuSans-6d"
               transform="translate(138.18359,0.015625)"
               id="use74" />
            <use
               xlink:href="#DejaVuSans-61"
               transform="translate(235.5957,0.015625)"
               id="use75" />
            <use
               xlink:href="#DejaVuSans-69"
               transform="translate(296.875,0.015625)"
               id="use76" />
            <use
               xlink:href="#DejaVuSans-6e"
               transform="translate(324.6582,0.015625)"
               id="use77" />
            <use
               xlink:href="#DejaVuSans-20"
               transform="translate(388.03711,0.015625)"
               id="use78" />
            <use
               xlink:href="#DejaVuSans-49"
               transform="translate(419.82422,0.015625)"
               id="use79" />
            <use
               xlink:href="#DejaVuSans-6e"
               transform="translate(449.31641,0.015625)"
               id="use80" />
            <use
               xlink:href="#DejaVuSans-74"
               transform="translate(512.69531,0.015625)"
               id="use81" />
            <use
               xlink:href="#DejaVuSans-65"
               transform="translate(551.9043,0.015625)"
               id="use82" />
            <use
               xlink:href="#DejaVuSans-72"
               transform="translate(613.42773,0.015625)"
               id="use83" />
            <use
               xlink:href="#DejaVuSans-61"
               transform="translate(654.54102,0.015625)"
               id="use84" />
            <use
               xlink:href="#DejaVuSans-63"
               transform="translate(715.82031,0.015625)"
               id="use85" />
            <use
               xlink:href="#DejaVuSans-74"
               transform="translate(770.80078,0.015625)"
               id="use86" />
            <use
               xlink:href="#DejaVuSans-69"
               transform="translate(810.00977,0.015625)"
               id="use87" />
            <use
               xlink:href="#DejaVuSans-6f"
               transform="translate(837.79297,0.015625)"
               id="use88" />
            <use
               xlink:href="#DejaVuSans-6e"
               transform="translate(898.97461,0.015625)"
               id="use89" />
            <use
               xlink:href="#DejaVuSans-20"
               transform="translate(962.35352,0.015625)"
               id="use90" />
            <use
               xlink:href="#DejaVuSans-45"
               transform="translate(994.14062,0.015625)"
               id="use91" />
            <use
               xlink:href="#DejaVuSans-6e"
               transform="translate(1057.3242,0.015625)"
               id="use92" />
            <use
               xlink:href="#DejaVuSans-65"
               transform="translate(1120.7031,0.015625)"
               id="use93" />
            <use
               xlink:href="#DejaVuSans-72"
               transform="translate(1182.2266,0.015625)"
               id="use94" />
            <use
               xlink:href="#DejaVuSans-67"
               transform="translate(1223.3398,0.015625)"
               id="use95" />
            <use
               xlink:href="#DejaVuSans-79"
               transform="translate(1286.8164,0.015625)"
               id="use96" />
            <use
               xlink:href="#DejaVuSans-20"
               transform="translate(1345.9961,0.015625)"
               id="use97" />
            <use
               xlink:href="#DejaVuSans-28"
               transform="translate(1377.7832,0.015625)"
               id="use98" />
            <use
               xlink:href="#DejaVuSans-394"
               transform="translate(1416.7969,0.015625)"
               id="use99" />
            <use
               xlink:href="#DejaVuSans-43"
               transform="translate(1485.2051,0.015625)"
               id="use100" />
            <use
               xlink:href="#DejaVuSans-46"
               transform="translate(1555.0293,0.015625)"
               id="use101" />
            <use
               xlink:href="#DejaVuSans-29"
               transform="translate(1612.5488,0.015625)"
               id="use102" />
          </g>
        </g>
      </g>
      <g
         id="patch_3">
        <path
           d="M 117.9,384.27019 H 341.1 V 239.21388 H 117.9 Z"
           clip-path="url(#p5d7f3eb91a)"
           style="fill:#3274a1;stroke:#3f3f3f;stroke-linejoin:miter"
           id="path102" />
      </g>
      <g
         id="line2d_11">
        <path
           d="M 229.5,384.27019 V 492.48"
           clip-path="url(#p5d7f3eb91a)"
           style="fill:none;stroke:#3f3f3f"
           id="path103" />
      </g>
      <g
         id="line2d_12">
        <path
           d="m 229.5,239.21388 v -49.22"
           clip-path="url(#p5d7f3eb91a)"
           style="fill:none;stroke:#3f3f3f"
           id="path104" />
      </g>
      <g
         id="line2d_13">
        <path
           d="M 173.7,492.48 H 285.3"
           clip-path="url(#p5d7f3eb91a)"
           style="fill:none;stroke:#3f3f3f;stroke-linecap:square"
           id="path105" />
      </g>
      <g
         id="line2d_14">
        <path
           d="M 173.7,189.99388 H 285.3"
           clip-path="url(#p5d7f3eb91a)"
           style="fill:none;stroke:#3f3f3f;stroke-linecap:square"
           id="path106" />
      </g>
      <g
         id="line2d_15" />
      <g
         id="patch_4">
        <path
           d="M 396.9,136.85638 H 620.1 V 126.79674 H 396.9 Z"
           clip-path="url(#p5d7f3eb91a)"
           style="fill:#e1812c;stroke:#3f3f3f;stroke-linejoin:miter"
           id="path107" />
      </g>
      <g
         id="line2d_16">
        <path
           d="m 508.5,136.85638 v 0.50397"
           clip-path="url(#p5d7f3eb91a)"
           style="fill:none;stroke:#3f3f3f"
           id="path108" />
      </g>
      <g
         id="line2d_17">
        <path
           d="m 508.5,126.79674 v -2.26918"
           clip-path="url(#p5d7f3eb91a)"
           style="fill:none;stroke:#3f3f3f"
           id="path109" />
      </g>
      <g
         id="line2d_18">
        <path
           d="M 452.7,137.36035 H 564.3"
           clip-path="url(#p5d7f3eb91a)"
           style="fill:none;stroke:#3f3f3f;stroke-linecap:square"
           id="path110" />
      </g>
      <g
         id="line2d_19">
        <path
           d="M 452.7,124.52756 H 564.3"
           clip-path="url(#p5d7f3eb91a)"
           style="fill:none;stroke:#3f3f3f;stroke-linecap:square"
           id="path111" />
      </g>
      <g
         id="line2d_20">
        <defs
           id="defs111">
          <path
             id="m9fa7dc47b9"
             d="M 0,3 C 0.795609,3 1.55874,2.683901 2.12132,2.12132 2.683901,1.55874 3,0.795609 3,0 3,-0.795609 2.683901,-1.55874 2.12132,-2.12132 1.55874,-2.683901 0.795609,-3 0,-3 -0.795609,-3 -1.55874,-2.683901 -2.12132,-2.12132 -2.683901,-1.55874 -3,-0.795609 -3,0 -3,0.795609 -2.683901,1.55874 -2.12132,2.12132 -1.55874,2.683901 -0.795609,3 0,3 Z"
             style="stroke:#3f3f3f" />
        </defs>
        <g
           clip-path="url(#p5d7f3eb91a)"
           id="g113">
          <use
             xlink:href="#m9fa7dc47b9"
             x="508.5"
             y="259.38919"
             style="fill-opacity:0;stroke:#3f3f3f"
             id="use111" />
          <use
             xlink:href="#m9fa7dc47b9"
             x="508.5"
             y="171.34338"
             style="fill-opacity:0;stroke:#3f3f3f"
             id="use112" />
          <use
             xlink:href="#m9fa7dc47b9"
             x="508.5"
             y="89.279999"
             style="fill-opacity:0;stroke:#3f3f3f"
             id="use113" />
        </g>
      </g>
      <g
         id="line2d_21">
        <path
           d="M 117.9,332.26869 H 341.1"
           clip-path="url(#p5d7f3eb91a)"
           style="fill:none;stroke:#3f3f3f"
           id="path113" />
      </g>
      <g
         id="line2d_22">
        <path
           d="M 396.9,131.95775 H 620.1"
           clip-path="url(#p5d7f3eb91a)"
           style="fill:none;stroke:#3f3f3f"
           id="path114" />
      </g>
      <g
         id="patch_5">
        <path
           d="M 90,512.64 V 69.12"
           style="fill:none;stroke:#000000;stroke-width:0.8;stroke-linecap:square;stroke-linejoin:miter"
           id="path115" />
      </g>
      <g
         id="patch_6">
        <path
           d="M 648,512.64 V 69.12"
           style="fill:none;stroke:#000000;stroke-width:0.8;stroke-linecap:square;stroke-linejoin:miter"
           id="path116" />
      </g>
      <g
         id="patch_7">
        <path
           d="M 90,512.64 H 648"
           style="fill:none;stroke:#000000;stroke-width:0.8;stroke-linecap:square;stroke-linejoin:miter"
           id="path117" />
      </g>
      <g
         id="patch_8">
        <path
           d="M 90,69.12 H 648"
           style="fill:none;stroke:#000000;stroke-width:0.8;stroke-linecap:square;stroke-linejoin:miter"
           id="path118" />
      </g>
      <g
         id="text_13">
        <!-- Interaction energy of low partner and minor domain interactions -->
        <g
           transform="matrix(0.12,0,0,-0.12,175.20562,63.12)"
           id="g180">
          <defs
             id="defs118">
            <path
               id="DejaVuSans-66"
               d="m 2375,4863 v -479 h -550 q -309,0 -430,-125 -120,-125 -120,-450 v -309 h 947 V 3053 H 1275 V 0 H 697 V 3053 H 147 v 447 h 550 v 244 q 0,584 272,851 272,268 862,268 z"
               transform="scale(0.015625)" />
            <path
               id="DejaVuSans-6c"
               d="m 603,4863 h 575 V 0 H 603 Z"
               transform="scale(0.015625)" />
            <path
               id="DejaVuSans-64"
               d="m 2906,2969 v 1894 h 575 V 0 H 2906 V 525 Q 2725,213 2448,61 2172,-91 1784,-91 1150,-91 751,415 353,922 353,1747 q 0,825 398,1331 399,506 1033,506 388,0 664,-152 277,-151 458,-463 z M 947,1747 q 0,-634 261,-995 261,-361 717,-361 456,0 718,361 263,361 263,995 0,634 -263,995 -262,361 -718,361 -456,0 -717,-361 -261,-361 -261,-995 z"
               transform="scale(0.015625)" />
            <path
               id="DejaVuSans-73"
               d="m 2834,3397 v -544 q -243,125 -506,187 -262,63 -544,63 -428,0 -642,-131 -214,-131 -214,-394 0,-200 153,-314 153,-114 616,-217 l 197,-44 q 612,-131 870,-370 258,-239 258,-667 0,-488 -386,-773 Q 2250,-91 1575,-91 1294,-91 989,-36 684,19 347,128 v 594 q 319,-166 628,-249 309,-82 613,-82 406,0 624,139 219,139 219,392 0,234 -158,359 -157,125 -692,241 l -200,47 q -534,112 -772,345 -237,233 -237,639 0,494 350,762 350,269 994,269 318,0 599,-47 282,-46 519,-140 z"
               transform="scale(0.015625)" />
          </defs>
          <use
             xlink:href="#DejaVuSans-49"
             id="use118" />
          <use
             xlink:href="#DejaVuSans-6e"
             transform="translate(29.492188)"
             id="use119" />
          <use
             xlink:href="#DejaVuSans-74"
             transform="translate(92.871094)"
             id="use120" />
          <use
             xlink:href="#DejaVuSans-65"
             transform="translate(132.08008)"
             id="use121" />
          <use
             xlink:href="#DejaVuSans-72"
             transform="translate(193.60352)"
             id="use122" />
          <use
             xlink:href="#DejaVuSans-61"
             transform="translate(234.7168)"
             id="use123" />
          <use
             xlink:href="#DejaVuSans-63"
             transform="translate(295.99609)"
             id="use124" />
          <use
             xlink:href="#DejaVuSans-74"
             transform="translate(350.97656)"
             id="use125" />
          <use
             xlink:href="#DejaVuSans-69"
             transform="translate(390.18555)"
             id="use126" />
          <use
             xlink:href="#DejaVuSans-6f"
             transform="translate(417.96875)"
             id="use127" />
          <use
             xlink:href="#DejaVuSans-6e"
             transform="translate(479.15039)"
             id="use128" />
          <use
             xlink:href="#DejaVuSans-20"
             transform="translate(542.5293)"
             id="use129" />
          <use
             xlink:href="#DejaVuSans-65"
             transform="translate(574.31641)"
             id="use130" />
          <use
             xlink:href="#DejaVuSans-6e"
             transform="translate(635.83984)"
             id="use131" />
          <use
             xlink:href="#DejaVuSans-65"
             transform="translate(699.21875)"
             id="use132" />
          <use
             xlink:href="#DejaVuSans-72"
             transform="translate(760.74219)"
             id="use133" />
          <use
             xlink:href="#DejaVuSans-67"
             transform="translate(800.10547)"
             id="use134" />
          <use
             xlink:href="#DejaVuSans-79"
             transform="translate(863.58203)"
             id="use135" />
          <use
             xlink:href="#DejaVuSans-20"
             transform="translate(922.76172)"
             id="use136" />
          <use
             xlink:href="#DejaVuSans-6f"
             transform="translate(954.54883)"
             id="use137" />
          <use
             xlink:href="#DejaVuSans-66"
             transform="translate(1015.7305)"
             id="use138" />
          <use
             xlink:href="#DejaVuSans-20"
             transform="translate(1050.9355)"
             id="use139" />
          <use
             xlink:href="#DejaVuSans-6c"
             transform="translate(1082.7227)"
             id="use140" />
          <use
             xlink:href="#DejaVuSans-6f"
             transform="translate(1110.5059)"
             id="use141" />
          <use
             xlink:href="#DejaVuSans-77"
             transform="translate(1171.6875)"
             id="use142" />
          <use
             xlink:href="#DejaVuSans-20"
             transform="translate(1253.4746)"
             id="use143" />
          <use
             xlink:href="#DejaVuSans-70"
             transform="translate(1285.2617)"
             id="use144" />
          <use
             xlink:href="#DejaVuSans-61"
             transform="translate(1348.7383)"
             id="use145" />
          <use
             xlink:href="#DejaVuSans-72"
             transform="translate(1410.0176)"
             id="use146" />
          <use
             xlink:href="#DejaVuSans-74"
             transform="translate(1451.1309)"
             id="use147" />
          <use
             xlink:href="#DejaVuSans-6e"
             transform="translate(1490.3398)"
             id="use148" />
          <use
             xlink:href="#DejaVuSans-65"
             transform="translate(1553.7188)"
             id="use149" />
          <use
             xlink:href="#DejaVuSans-72"
             transform="translate(1615.2422)"
             id="use150" />
          <use
             xlink:href="#DejaVuSans-20"
             transform="translate(1656.3555)"
             id="use151" />
          <use
             xlink:href="#DejaVuSans-61"
             transform="translate(1688.1426)"
             id="use152" />
          <use
             xlink:href="#DejaVuSans-6e"
             transform="translate(1749.4219)"
             id="use153" />
          <use
             xlink:href="#DejaVuSans-64"
             transform="translate(1812.8008)"
             id="use154" />
          <use
             xlink:href="#DejaVuSans-20"
             transform="translate(1876.2773)"
             id="use155" />
          <use
             xlink:href="#DejaVuSans-6d"
             transform="translate(1908.0645)"
             id="use156" />
          <use
             xlink:href="#DejaVuSans-69"
             transform="translate(2005.4766)"
             id="use157" />
          <use
             xlink:href="#DejaVuSans-6e"
             transform="translate(2033.2598)"
             id="use158" />
          <use
             xlink:href="#DejaVuSans-6f"
             transform="translate(2096.6387)"
             id="use159" />
          <use
             xlink:href="#DejaVuSans-72"
             transform="translate(2157.8203)"
             id="use160" />
          <use
             xlink:href="#DejaVuSans-20"
             transform="translate(2198.9336)"
             id="use161" />
          <use
             xlink:href="#DejaVuSans-64"
             transform="translate(2230.7207)"
             id="use162" />
          <use
             xlink:href="#DejaVuSans-6f"
             transform="translate(2294.1973)"
             id="use163" />
          <use
             xlink:href="#DejaVuSans-6d"
             transform="translate(2355.3789)"
             id="use164" />
          <use
             xlink:href="#DejaVuSans-61"
             transform="translate(2452.791)"
             id="use165" />
          <use
             xlink:href="#DejaVuSans-69"
             transform="translate(2514.0703)"
             id="use166" />
          <use
             xlink:href="#DejaVuSans-6e"
             transform="translate(2541.8535)"
             id="use167" />
          <use
             xlink:href="#DejaVuSans-20"
             transform="translate(2605.2324)"
             id="use168" />
          <use
             xlink:href="#DejaVuSans-69"
             transform="translate(2637.0195)"
             id="use169" />
          <use
             xlink:href="#DejaVuSans-6e"
             transform="translate(2664.8027)"
             id="use170" />
          <use
             xlink:href="#DejaVuSans-74"
             transform="translate(2728.1816)"
             id="use171" />
          <use
             xlink:href="#DejaVuSans-65"
             transform="translate(2767.3906)"
             id="use172" />
          <use
             xlink:href="#DejaVuSans-72"
             transform="translate(2828.9141)"
             id="use173" />
          <use
             xlink:href="#DejaVuSans-61"
             transform="translate(2870.0273)"
             id="use174" />
          <use
             xlink:href="#DejaVuSans-63"
             transform="translate(2931.3066)"
             id="use175" />
          <use
             xlink:href="#DejaVuSans-74"
             transform="translate(2986.2871)"
             id="use176" />
          <use
             xlink:href="#DejaVuSans-69"
             transform="translate(3025.4961)"
             id="use177" />
          <use
             xlink:href="#DejaVuSans-6f"
             transform="translate(3053.2793)"
             id="use178" />
          <use
             xlink:href="#DejaVuSans-6e"
             transform="translate(3114.4609)"
             id="use179" />
          <use
             xlink:href="#DejaVuSans-73"
             transform="translate(3177.8398)"
             id="use180" />
        </g>
      </g>
    </g>
  </g>
  <defs
     id="defs180">
    <clipPath
       id="p5d7f3eb91a">
      <rect
         x="90"
         y="69.120003"
         width="558"
         height="443.51999"
         id="rect180" />
    </clipPath>
  </defs>
</svg>
