<svg xmlns="http://www.w3.org/2000/svg" width="240.52703857421875" height="399.5909729003906" viewBox="-47.912078857421875 -217.4158935546875 240.52703857421875 399.5909729003906"><title>Neo4j Graph Visualization</title><desc>Created using Neo4j (http://www.neo4j.com/)</desc><g class="layer relationships"><g class="relationship" transform="translate(148.6149531825967 -100.43995634612763) rotate(214.80231025700357)"><path class="b-outline" fill="#A5ABB6" stroke="none" d="M 40 0.5 L 57.617784209288786 0.5 L 57.617784209288786 -0.5 L 40 -0.5 Z M 104.52403420928879 0.5 L 122.14181841857757 0.5 L 122.14181841857757 3.5 L 129.14181841857757 0 L 122.14181841857757 -3.5 L 122.14181841857757 -0.5 L 104.52403420928879 -0.5 Z"/><text text-anchor="middle" pointer-events="none" font-size="8px" fill="#000000" x="81.07090920928879" y="3" transform="rotate(180 81.07090920928879 0)" font-family="Helvetica Neue, Helvetica, Arial, sans-serif">IS_IN_PDB</text></g><g class="relationship" transform="translate(123.40463020210409 54.141653282377646) rotate(534.7664708701545)"><path class="b-outline" fill="#A5ABB6" stroke="none" d="M 25 0.5 L 47.1710855353255 0.5 L 47.1710855353255 -0.5 L 25 -0.5 Z M 88.7413980353255 0.5 L 110.912483570651 0.5 L 110.912483570651 3.5 L 117.912483570651 0 L 110.912483570651 -3.5 L 110.912483570651 -0.5 L 88.7413980353255 -0.5 Z"/><text text-anchor="middle" pointer-events="none" font-size="8px" fill="#000000" x="67.9562417853255" y="3" transform="rotate(180 67.9562417853255 0)" font-family="Helvetica Neue, Helvetica, Arial, sans-serif">IS_IN_EC</text></g><g class="relationship" transform="translate(148.6149531825967 -100.43995634612763) rotate(459.26267655415415)"><path class="b-outline" fill="#A5ABB6" stroke="none" d="M 40 0.5 L 46.63615018468042 0.5 L 46.63615018468042 -0.5 L 40 -0.5 Z M 117.98771268468042 0.5 L 124.62386286936083 0.5 L 124.62386286936083 3.5 L 131.62386286936083 0 L 124.62386286936083 -3.5 L 124.62386286936083 -0.5 L 117.98771268468042 -0.5 Z"/><text text-anchor="middle" pointer-events="none" font-size="8px" fill="#000000" x="82.31193143468042" y="3" transform="rotate(180 82.31193143468042 0)" font-family="Helvetica Neue, Helvetica, Arial, sans-serif">HAS_SIMILARITY</text></g><g class="relationship" transform="translate(123.40463020210409 54.141653282377646) rotate(495.27887256972144)"><path class="b-outline" fill="#A5ABB6" stroke="none" d="M 25 0.5 L 46.08539386954973 0.5 L 46.08539386954973 -0.5 L 25 -0.5 Z M 87.65570636954973 0.5 L 108.74110023909947 0.5 L 108.74110023909947 3.5 L 115.74110023909947 0 L 108.74110023909947 -3.5 L 108.74110023909947 -0.5 L 87.65570636954973 -0.5 Z"/><text text-anchor="middle" pointer-events="none" font-size="8px" fill="#000000" x="66.87055011954973" y="3" transform="rotate(180 66.87055011954973 0)" font-family="Helvetica Neue, Helvetica, Arial, sans-serif">IS_IN_EC</text></g></g><g class="layer nodes"><g class="node" aria-label="graph-node538339" transform="translate(22.04506812037883,-188.4158870358492)"><circle class="b-outline" cx="0" cy="0" r="25" fill="#FFC454" stroke="#d7a013" stroke-width="2px"/><text class="caption" text-anchor="middle" pointer-events="none" x="0" y="5" font-size="10px" fill="#2A2C34" font-family="Helvetica Neue, Helvetica, Arial, sans-serif"> 2vno</text></g><g class="node" aria-label="graph-node1471595" transform="translate(123.40463020210409,54.141653282377646)"><circle class="b-outline" cx="0" cy="0" r="25" fill="#57C7E3" stroke="#23b3d7" stroke-width="2px"/><text class="caption" text-anchor="middle" pointer-events="none" x="0" y="5" font-size="10px" fill="#2A2C34" font-family="Helvetica Neue, Helvetica, Arial, sans-serif"> N-Acetyl…</text></g><g class="node" aria-label="graph-node769548" transform="translate(148.6149531825967,-100.43995634612763)"><circle class="b-outline" cx="0" cy="0" r="40" fill="#ECB5C9" stroke="#da7298" stroke-width="2px"/><text class="caption" text-anchor="middle" pointer-events="none" x="0" y="5" font-size="10px" fill="#2A2C34" font-family="Helvetica Neue, Helvetica, Arial, sans-serif"> 2vno_bm2_C</text></g><g class="node" aria-label="graph-node377458" transform="translate(-18.912078446782935,67.1774654810632)"><circle class="b-outline" cx="0" cy="0" r="25" fill="#D9C8AE" stroke="#c0a378" stroke-width="2px"/><text class="caption" text-anchor="middle" pointer-events="none" x="0" y="5" font-size="10px" fill="#2A2C34" font-family="Helvetica Neue, Helvetica, Arial, sans-serif"> 3.2.1.49</text></g><g class="node" aria-label="graph-node226383" transform="translate(23.402441304853802,153.17507951953715)"><circle class="b-outline" cx="0" cy="0" r="25" fill="#D9C8AE" stroke="#c0a378" stroke-width="2px"/><text class="caption" text-anchor="middle" pointer-events="none" x="0" y="5" font-size="10px" fill="#2A2C34" font-family="Helvetica Neue, Helvetica, Arial, sans-serif"> 2.4.1.40</text></g></g></svg>