<?xml version="1.0" encoding="UTF-8" standalone="no"?>
<svg
   version="1.1"
   viewBox="0 0 759.45801 445.62729"
   fill="none"
   stroke="none"
   stroke-linecap="square"
   stroke-miterlimit="10"
   id="svg57"
   sodipodi:docname="cath_scop_comparison.svg"
   inkscape:export-filename="cath_scop_comparison.pdf"
   inkscape:export-xdpi="96"
   inkscape:export-ydpi="96"
   inkscape:version="1.3.2 (091e20e, 2023-11-25)"
   width="759.45801"
   height="445.62729"
   xmlns:inkscape="http://www.inkscape.org/namespaces/inkscape"
   xmlns:sodipodi="http://sodipodi.sourceforge.net/DTD/sodipodi-0.dtd"
   xmlns="http://www.w3.org/2000/svg"
   xmlns:svg="http://www.w3.org/2000/svg">
  <defs
     id="defs57" />
  <sodipodi:namedview
     id="namedview57"
     pagecolor="#ffffff"
     bordercolor="#000000"
     borderopacity="0.25"
     inkscape:showpageshadow="2"
     inkscape:pageopacity="0.0"
     inkscape:pagecheckerboard="0"
     inkscape:deskcolor="#d1d1d1"
     inkscape:zoom="0.62717581"
     inkscape:cx="334.03712"
     inkscape:cy="428.90685"
     inkscape:window-width="2560"
     inkscape:window-height="1387"
     inkscape:window-x="1440"
     inkscape:window-y="25"
     inkscape:window-maximized="0"
     inkscape:current-layer="g57" />
  <clipPath
     id="g2eb09d30e4c_1_286.0">
    <path
       d="M 0,0 H 960 V 540 H 0 Z"
       clip-rule="nonzero"
       id="path1" />
  </clipPath>
  <g
     clip-path="url(#g2eb09d30e4c_1_286.0)"
     id="g57"
     transform="translate(-122.38189,-33.02362)">
    <path
       fill="#000000"
       fill-opacity="0"
       d="m 224.3189,82.37795 h 90.80315 v 49.35433 H 224.3189 Z"
       fill-rule="evenodd"
       id="path3" />
    <path
       fill="#595959"
       d="m 253.82399,108.3867 2.28123,0.57813 q -0.71873,2.79687 -2.57811,4.28125 -1.85937,1.46875 -4.54687,1.46875 -2.76563,0 -4.51563,-1.125 -1.73437,-1.14063 -2.64062,-3.28125 -0.90625,-2.15625 -0.90625,-4.60938 0,-2.6875 1.01562,-4.6875 1.03125,-2 2.92188,-3.03125 1.89062,-1.03125 4.17187,-1.03125 2.57813,0 4.32813,1.3125 1.76562,1.3125 2.45312,3.6875 l -2.23437,0.53125 q -0.60938,-1.875 -1.75,-2.734375 -1.125,-0.859375 -2.84375,-0.859375 -1.98438,0 -3.3125,0.953125 -1.32813,0.953125 -1.875,2.546875 -0.53125,1.59375 -0.53125,3.29688 0,2.1875 0.625,3.82812 0.64062,1.64063 1.98437,2.45313 1.35938,0.79687 2.92188,0.79687 1.92187,0 3.23437,-1.09375 1.32813,-1.10937 1.79688,-3.28125 z m 4.75389,6.03125 v -17.1875 h 2.10938 v 17.1875 z m 13.50391,-1.53125 q -1.17188,0.98438 -2.26563,1.40625 -1.07812,0.40625 -2.3125,0.40625 -2.04687,0 -3.15625,-1 -1.09375,-1 -1.09375,-2.5625 0,-0.92187 0.40625,-1.67187 0.42188,-0.75 1.09375,-1.20313 0.67188,-0.46875 1.51563,-0.70312 0.625,-0.15625 1.875,-0.3125 2.5625,-0.3125 3.76562,-0.73438 0.0156,-0.42187 0.0156,-0.54687 0,-1.28125 -0.60938,-1.8125 -0.79687,-0.71875 -2.39062,-0.71875 -1.5,0 -2.20313,0.53125 -0.70312,0.51562 -1.04687,1.84375 l -2.0625,-0.28125 q 0.28125,-1.32813 0.92187,-2.14063 0.64063,-0.8125 1.85938,-1.25 1.21875,-0.45312 2.82812,-0.45312 1.59375,0 2.59375,0.375 1,0.375 1.46875,0.95312 0.46875,0.5625 0.65625,1.4375 0.0937,0.53125 0.0937,1.9375 v 2.8125 q 0,2.9375 0.14063,3.71875 0.14062,0.78125 0.53125,1.5 h -2.20313 q -0.32812,-0.65625 -0.42187,-1.53125 z m -0.17188,-4.71875 q -1.15625,0.46875 -3.45312,0.79688 -1.29688,0.1875 -1.84375,0.42187 -0.53125,0.23438 -0.82813,0.6875 -0.28125,0.45313 -0.28125,1 0,0.84375 0.625,1.40625 0.64063,0.5625 1.875,0.5625 1.21875,0 2.17188,-0.53125 0.95312,-0.53125 1.39062,-1.45312 0.34375,-0.71875 0.34375,-2.10938 z m 4.55078,2.53125 2.09375,-0.32812 q 0.17188,1.25 0.96875,1.92187 0.8125,0.67188 2.25,0.67188 1.45313,0 2.15625,-0.59375 0.70313,-0.59375 0.70313,-1.39063 0,-0.71875 -0.625,-1.125 -0.42188,-0.28125 -2.15625,-0.71875 -2.3125,-0.57812 -3.21875,-1 -0.89063,-0.4375 -1.35938,-1.1875 -0.45312,-0.76562 -0.45312,-1.67187 0,-0.82813 0.375,-1.53125 0.39062,-0.71875 1.04687,-1.1875 0.48438,-0.35938 1.32813,-0.60938 0.85937,-0.26562 1.82812,-0.26562 1.46875,0 2.57813,0.42187 1.10937,0.42188 1.625,1.15625 0.53125,0.71875 0.73437,1.92188 l -2.0625,0.28125 q -0.14062,-0.96875 -0.8125,-1.5 -0.67187,-0.54688 -1.90625,-0.54688 -1.45312,0 -2.07812,0.48438 -0.625,0.48437 -0.625,1.125 0,0.40625 0.26562,0.73437 0.25,0.34375 0.8125,0.5625 0.3125,0.125 1.85938,0.54688 2.23437,0.59375 3.10937,0.98437 0.89063,0.375 1.39063,1.10938 0.51562,0.71875 0.51562,1.79687 0,1.04688 -0.625,1.98438 -0.60937,0.9375 -1.76562,1.45312 -1.15625,0.5 -2.625,0.5 -2.42188,0 -3.70313,-1 -1.26562,-1.01562 -1.625,-3 z m 12,0 2.09375,-0.32812 q 0.17188,1.25 0.96875,1.92187 0.8125,0.67188 2.25,0.67188 1.45313,0 2.15625,-0.59375 0.70313,-0.59375 0.70313,-1.39063 0,-0.71875 -0.625,-1.125 -0.42188,-0.28125 -2.15625,-0.71875 -2.3125,-0.57812 -3.21875,-1 -0.89063,-0.4375 -1.35938,-1.1875 -0.45312,-0.76562 -0.45312,-1.67187 0,-0.82813 0.375,-1.53125 0.39062,-0.71875 1.04687,-1.1875 0.48438,-0.35938 1.32813,-0.60938 0.85937,-0.26562 1.82812,-0.26562 1.46875,0 2.57813,0.42187 1.10937,0.42188 1.625,1.15625 0.53125,0.71875 0.73437,1.92188 l -2.0625,0.28125 q -0.14062,-0.96875 -0.8125,-1.5 -0.67187,-0.54688 -1.90625,-0.54688 -1.45312,0 -2.07812,0.48438 -0.625,0.48437 -0.625,1.125 0,0.40625 0.26562,0.73437 0.25,0.34375 0.8125,0.5625 0.3125,0.125 1.85938,0.54688 2.23437,0.59375 3.10937,0.98437 0.89063,0.375 1.39063,1.10938 0.51562,0.71875 0.51562,1.79687 0,1.04688 -0.625,1.98438 -0.60937,0.9375 -1.76562,1.45312 -1.15625,0.5 -2.625,0.5 -2.42188,0 -3.70313,-1 -1.26562,-1.01562 -1.625,-3 z"
       fill-rule="nonzero"
       id="path4" />
    <path
       fill="#000000"
       fill-opacity="0"
       d="m 192.06693,169.9895 h 155.3071 v 48.47244 h -155.3071 z"
       fill-rule="evenodd"
       id="path5" />
    <path
       fill="#595959"
       d="m 205.66383,202.0295 6.59375,-17.1875 h 2.45312 l 7.03125,17.1875 h -2.59375 l -2,-5.20312 h -7.1875 l -1.89062,5.20312 z m 4.95312,-7.0625 h 5.82813 l -1.79688,-4.75 q -0.8125,-2.17187 -1.21875,-3.5625 -0.32812,1.65625 -0.92187,3.28125 z m 12.64844,7.0625 v -12.45312 h 1.89063 v 1.89062 q 0.73437,-1.32812 1.34375,-1.75 0.625,-0.42187 1.35937,-0.42187 1.0625,0 2.17188,0.6875 l -0.73438,1.95312 q -0.76562,-0.45312 -1.54687,-0.45312 -0.6875,0 -1.25,0.42187 -0.54688,0.40625 -0.78125,1.14063 -0.34375,1.125 -0.34375,2.46875 v 6.51562 z m 16.13281,-4.5625 2.07813,0.26563 q -0.34375,2.15625 -1.75,3.375 -1.39063,1.20312 -3.4375,1.20312 -2.54688,0 -4.10938,-1.67187 -1.54687,-1.67188 -1.54687,-4.78125 0,-2.01563 0.67187,-3.53125 0.67188,-1.51563 2.03125,-2.26563 1.35938,-0.76562 2.96875,-0.76562 2.03125,0 3.3125,1.03125 1.29688,1.03125 1.65625,2.90625 l -2.04687,0.32812 q -0.29688,-1.26562 -1.04688,-1.89062 -0.73437,-0.64063 -1.79687,-0.64063 -1.59375,0 -2.59375,1.15625 -0.98438,1.14063 -0.98438,3.60938 0,2.5 0.95313,3.64062 0.96875,1.14063 2.51562,1.14063 1.23438,0 2.0625,-0.76563 0.84375,-0.76562 1.0625,-2.34375 z m 3.875,4.5625 V 184.842 h 2.10938 v 6.17188 q 1.48437,-1.71875 3.73437,-1.71875 1.375,0 2.39063,0.54687 1.03125,0.54688 1.46875,1.51563 0.4375,0.95312 0.4375,2.78125 v 7.89062 h -2.10938 v -7.89062 q 0,-1.57813 -0.6875,-2.29688 -0.6875,-0.71875 -1.9375,-0.71875 -0.9375,0 -1.76562,0.48438 -0.82813,0.48437 -1.1875,1.3125 -0.34375,0.82812 -0.34375,2.29687 v 6.8125 z m 13.36327,-14.75 v -2.4375 h 2.10938 v 2.4375 z m 0,14.75 v -12.45312 h 2.10938 v 12.45312 z m 9.92578,-1.89062 0.3125,1.85937 q -0.89062,0.20313 -1.59375,0.20313 -1.15625,0 -1.79687,-0.35938 -0.625,-0.375 -0.89063,-0.96875 -0.25,-0.59375 -0.25,-2.48437 V 191.217 h -1.54687 v -1.64062 h 1.54687 v -3.07813 l 2.09375,-1.26562 v 4.34375 h 2.125 v 1.64062 h -2.125 v 7.28125 q 0,0.90625 0.10938,1.17188 0.125,0.25 0.375,0.40625 0.25,0.14062 0.71875,0.14062 0.34375,0 0.92187,-0.0781 z m 10.58985,-2.125 2.17187,0.28125 q -0.51562,1.90625 -1.90625,2.96875 -1.39062,1.04687 -3.5625,1.04687 -2.73437,0 -4.34375,-1.67187 -1.59375,-1.6875 -1.59375,-4.73438 0,-3.14062 1.60938,-4.875 1.625,-1.73437 4.20312,-1.73437 2.5,0 4.07813,1.70312 1.59375,1.70313 1.59375,4.78125 0,0.1875 -0.0156,0.5625 h -9.28125 q 0.10938,2.04688 1.15625,3.14063 1.04688,1.09375 2.60938,1.09375 1.15625,0 1.96875,-0.60938 0.82812,-0.60937 1.3125,-1.95312 z m -6.9375,-3.40625 h 6.95312 q -0.14062,-1.5625 -0.79687,-2.35938 -1,-1.21875 -2.60938,-1.21875 -1.45312,0 -2.45312,0.98438 -0.98438,0.96875 -1.09375,2.59375 z m 19.8789,2.85937 2.07813,0.26563 q -0.34375,2.15625 -1.75,3.375 -1.39063,1.20312 -3.4375,1.20312 -2.54688,0 -4.10938,-1.67187 -1.54687,-1.67188 -1.54687,-4.78125 0,-2.01563 0.67187,-3.53125 0.67188,-1.51563 2.03125,-2.26563 1.35938,-0.76562 2.96875,-0.76562 2.03125,0 3.3125,1.03125 1.29688,1.03125 1.65625,2.90625 l -2.04687,0.32812 q -0.29688,-1.26562 -1.04688,-1.89062 -0.73437,-0.64063 -1.79687,-0.64063 -1.59375,0 -2.59375,1.15625 -0.98438,1.14063 -0.98438,3.60938 0,2.5 0.95313,3.64062 0.96875,1.14063 2.51562,1.14063 1.23438,0 2.0625,-0.76563 0.84375,-0.76562 1.0625,-2.34375 z m 8.48438,2.67188 0.3125,1.85937 q -0.89063,0.20313 -1.59375,0.20313 -1.15625,0 -1.79688,-0.35938 -0.625,-0.375 -0.89062,-0.96875 -0.25,-0.59375 -0.25,-2.48437 V 191.217 h -1.54688 v -1.64062 h 1.54688 v -3.07813 l 2.09375,-1.26562 v 4.34375 h 2.125 v 1.64062 h -2.125 v 7.28125 q 0,0.90625 0.10937,1.17188 0.125,0.25 0.375,0.40625 0.25,0.14062 0.71875,0.14062 0.34375,0 0.92188,-0.0781 z m 10.21484,1.89062 v -1.82812 q -1.45312,2.10937 -3.9375,2.10937 -1.10937,0 -2.0625,-0.42187 -0.95312,-0.42188 -1.42187,-1.0625 -0.45313,-0.64063 -0.64063,-1.5625 -0.14062,-0.625 -0.14062,-1.96875 v -7.71875 h 2.10937 v 6.90625 q 0,1.65625 0.14063,2.23437 0.1875,0.82813 0.82812,1.3125 0.65625,0.46875 1.60938,0.46875 0.9375,0 1.76562,-0.48437 0.84375,-0.5 1.1875,-1.32813 0.34375,-0.84375 0.34375,-2.4375 v -6.67187 h 2.10938 v 12.45312 z m 5.17578,0 v -12.45312 h 1.89063 v 1.89062 q 0.73437,-1.32812 1.34375,-1.75 0.625,-0.42187 1.35937,-0.42187 1.0625,0 2.17188,0.6875 l -0.73438,1.95312 q -0.76562,-0.45312 -1.54687,-0.45312 -0.6875,0 -1.25,0.42187 -0.54688,0.40625 -0.78125,1.14063 -0.34375,1.125 -0.34375,2.46875 v 6.51562 z m 16.53906,-4.01562 2.17188,0.28125 q -0.51563,1.90625 -1.90625,2.96875 -1.39063,1.04687 -3.5625,1.04687 -2.73438,0 -4.34375,-1.67187 -1.59375,-1.6875 -1.59375,-4.73438 0,-3.14062 1.60937,-4.875 1.625,-1.73437 4.20313,-1.73437 2.5,0 4.07812,1.70312 1.59375,1.70313 1.59375,4.78125 0,0.1875 -0.0156,0.5625 h -9.28125 q 0.10937,2.04688 1.15625,3.14063 1.04687,1.09375 2.60937,1.09375 1.15625,0 1.96875,-0.60938 0.82813,-0.60937 1.3125,-1.95312 z m -6.9375,-3.40625 h 6.95313 q -0.14063,-1.5625 -0.79688,-2.35938 -1,-1.21875 -2.60937,-1.21875 -1.45313,0 -2.45313,0.98438 -0.98437,0.96875 -1.09375,2.59375 z"
       fill-rule="nonzero"
       id="path6" />
    <path
       fill="#000000"
       fill-opacity="0"
       d="m 209.61023,256.71915 h 120.22049 v 48.47244 H 209.61023 Z"
       fill-rule="evenodd"
       id="path7" />
    <path
       fill="#595959"
       d="m 227.90407,288.75916 v -15.15625 h -5.65625 v -2.03125 h 13.625 v 2.03125 h -5.6875 v 15.15625 z m 6.57812,-6.21875 q 0,-3.46875 1.92188,-5.125 1.60937,-1.39063 3.92187,-1.39063 2.5625,0 4.1875,1.6875 1.625,1.6875 1.625,4.64063 0,2.40625 -0.71875,3.78125 -0.71875,1.375 -2.09375,2.14062 -1.375,0.76563 -3,0.76563 -2.625,0 -4.23437,-1.67188 -1.60938,-1.6875 -1.60938,-4.82812 z m 2.17188,0 q 0,2.39062 1.03125,3.57812 1.04687,1.1875 2.64062,1.1875 1.5625,0 2.60938,-1.1875 1.04687,-1.20312 1.04687,-3.65625 0,-2.3125 -1.0625,-3.5 -1.04687,-1.1875 -2.59375,-1.1875 -1.59375,0 -2.64062,1.1875 -1.03125,1.1875 -1.03125,3.57813 z m 11.95703,10.98437 v -17.21875 h 1.92188 v 1.625 q 0.6875,-0.95312 1.53125,-1.42187 0.85937,-0.48438 2.07812,-0.48438 1.59375,0 2.81249,0.82813 1.21875,0.8125 1.84375,2.3125 0.625,1.5 0.625,3.28125 0,1.90625 -0.6875,3.4375 -0.6875,1.53125 -2,2.34375 -1.29686,0.8125 -2.73436,0.8125 -1.0625,0 -1.90625,-0.4375 -0.82813,-0.45313 -1.375,-1.14063 v 6.0625 z m 1.92188,-10.92187 q 0,2.40625 0.96875,3.5625 0.96875,1.14062 2.35937,1.14062 1.40625,0 2.40624,-1.1875 1,-1.1875 1,-3.6875 0,-2.375 -0.98438,-3.5625 -0.96873,-1.1875 -2.32811,-1.1875 -1.35937,0 -2.39062,1.26563 -1.03125,1.25 -1.03125,3.65625 z m 10.64451,-0.0625 q 0,-3.46875 1.92188,-5.125 1.60937,-1.39063 3.92187,-1.39063 2.5625,0 4.1875,1.6875 1.625,1.6875 1.625,4.64063 0,2.40625 -0.71875,3.78125 -0.71875,1.375 -2.09375,2.14062 -1.375,0.76563 -3,0.76563 -2.625,0 -4.23437,-1.67188 -1.60938,-1.6875 -1.60938,-4.82812 z m 2.17188,0 q 0,2.39062 1.03125,3.57812 1.04687,1.1875 2.64062,1.1875 1.5625,0 2.60938,-1.1875 1.04687,-1.20312 1.04687,-3.65625 0,-2.3125 -1.0625,-3.5 -1.04687,-1.1875 -2.59375,-1.1875 -1.59375,0 -2.64062,1.1875 -1.03125,1.1875 -1.03125,3.57813 z m 11.91015,6.21875 v -17.1875 h 2.10938 v 17.1875 z m 4.59766,-6.21875 q 0,-3.46875 1.92187,-5.125 1.60938,-1.39063 3.92188,-1.39063 2.5625,0 4.1875,1.6875 1.625,1.6875 1.625,4.64063 0,2.40625 -0.71875,3.78125 -0.71875,1.375 -2.09375,2.14062 -1.375,0.76563 -3,0.76563 -2.625,0 -4.23438,-1.67188 -1.60937,-1.6875 -1.60937,-4.82812 z m 2.17187,0 q 0,2.39062 1.03125,3.57812 1.04688,1.1875 2.64063,1.1875 1.5625,0 2.60937,-1.1875 1.04688,-1.20312 1.04688,-3.65625 0,-2.3125 -1.0625,-3.5 -1.04688,-1.1875 -2.59375,-1.1875 -1.59375,0 -2.64063,1.1875 -1.03125,1.1875 -1.03125,3.57813 z m 11.58204,7.25 2.04687,0.3125 q 0.125,0.9375 0.71875,1.375 0.78125,0.59375 2.14063,0.59375 1.46875,0 2.26562,-0.59375 0.79688,-0.57813 1.07813,-1.64063 0.15625,-0.64062 0.14062,-2.70312 -1.375,1.625 -3.4375,1.625 -2.5625,0 -3.96875,-1.84375 -1.40625,-1.85938 -1.40625,-4.45313 0,-1.78125 0.64063,-3.28125 0.64062,-1.51562 1.85937,-2.32812 1.23438,-0.82813 2.89063,-0.82813 2.20312,0 3.625,1.78125 v -1.5 h 1.95312 v 10.76563 q 0,2.90625 -0.59375,4.10937 -0.59375,1.21875 -1.875,1.92188 -1.28125,0.70312 -3.15625,0.70312 -2.23437,0 -3.60937,-1 -1.35938,-1 -1.3125,-3.01562 z m 1.73437,-7.48438 q 0,2.45313 0.96875,3.57813 0.98438,1.125 2.45313,1.125 1.45312,0 2.4375,-1.10938 0.98437,-1.125 0.98437,-3.51562 0,-2.28125 -1.01562,-3.4375 -1.01563,-1.17188 -2.45313,-1.17188 -1.40625,0 -2.39062,1.14063 -0.98438,1.14062 -0.98438,3.39062 z m 11.89453,11.25 -0.23437,-1.98437 q 0.70312,0.1875 1.21875,0.1875 0.70312,0 1.125,-0.23438 0.42187,-0.23437 0.6875,-0.65625 0.20312,-0.3125 0.64062,-1.5625 0.0625,-0.1875 0.1875,-0.51562 l -4.71875,-12.48438 h 2.26563 l 2.59375,7.21875 q 0.5,1.35938 0.90625,2.875 0.35937,-1.45312 0.85937,-2.82812 l 2.67188,-7.26563 h 2.10937 l -4.73437,12.67188 q -0.76563,2.04687 -1.1875,2.8125 -0.5625,1.04687 -1.29688,1.53125 -0.71875,0.48437 -1.73437,0.48437 -0.60938,0 -1.35938,-0.25 z"
       fill-rule="nonzero"
       id="path8" />
    <path
       fill="#000000"
       fill-opacity="0"
       d="m 122.38189,343.44882 h 294.67715 v 48.47244 H 122.38189 Z"
       fill-rule="evenodd"
       id="path9" />
    <path
       fill="#595959"
       d="m 137.57985,375.48883 v -17.1875 h 2.28125 v 7.0625 h 8.92187 v -7.0625 h 2.28125 v 17.1875 h -2.28125 v -8.09375 h -8.92187 v 8.09375 z m 16.20703,-6.21875 q 0,-3.46875 1.92188,-5.125 1.60937,-1.39063 3.92187,-1.39063 2.5625,0 4.1875,1.6875 1.625,1.6875 1.625,4.64063 0,2.40625 -0.71875,3.78125 -0.71875,1.375 -2.09375,2.14062 -1.375,0.76563 -3,0.76563 -2.625,0 -4.23437,-1.67188 -1.60938,-1.6875 -1.60938,-4.82812 z m 2.17188,0 q 0,2.39062 1.03125,3.57812 1.04687,1.1875 2.64062,1.1875 1.5625,0 2.60938,-1.1875 1.04687,-1.20312 1.04687,-3.65625 0,-2.3125 -1.0625,-3.5 -1.04687,-1.1875 -2.59375,-1.1875 -1.59375,0 -2.64062,1.1875 -1.03125,1.1875 -1.03125,3.57813 z m 11.95703,6.21875 V 363.0357 h 1.89062 v 1.75 q 0.59375,-0.90625 1.5625,-1.46875 0.96875,-0.5625 2.21875,-0.5625 1.375,0 2.25,0.57813 0.89063,0.57812 1.26563,1.60937 1.46875,-2.1875 3.84375,-2.1875 1.84375,0 2.84375,1.03125 1,1.03125 1,3.15625 v 8.54688 h -2.10938 v -7.84375 q 0,-1.26563 -0.20312,-1.8125 -0.20313,-0.5625 -0.75,-0.90625 -0.53125,-0.34375 -1.25,-0.34375 -1.3125,0 -2.1875,0.875 -0.85938,0.875 -0.85938,2.79687 v 7.23438 h -2.10937 v -8.09375 q 0,-1.40625 -0.51563,-2.10938 -0.51562,-0.70312 -1.6875,-0.70312 -0.89062,0 -1.65625,0.46875 -0.75,0.46875 -1.09375,1.375 -0.34375,0.90625 -0.34375,2.60937 v 6.45313 z m 19.21093,-6.21875 q 0,-3.46875 1.92188,-5.125 1.60937,-1.39063 3.92187,-1.39063 2.5625,0 4.1875,1.6875 1.625,1.6875 1.625,4.64063 0,2.40625 -0.71875,3.78125 -0.71875,1.375 -2.09375,2.14062 -1.375,0.76563 -3,0.76563 -2.625,0 -4.23437,-1.67188 -1.60938,-1.6875 -1.60938,-4.82812 z m 2.17188,0 q 0,2.39062 1.03125,3.57812 1.04687,1.1875 2.64062,1.1875 1.5625,0 2.60938,-1.1875 1.04687,-1.20312 1.04687,-3.65625 0,-2.3125 -1.0625,-3.5 -1.04687,-1.1875 -2.59375,-1.1875 -1.59375,0 -2.64062,1.1875 -1.03125,1.1875 -1.03125,3.57813 z m 11.91016,6.21875 v -17.1875 h 2.10937 v 17.1875 z m 4.59765,-6.21875 q 0,-3.46875 1.92188,-5.125 1.60937,-1.39063 3.92187,-1.39063 2.5625,0 4.1875,1.6875 1.625,1.6875 1.625,4.64063 0,2.40625 -0.71875,3.78125 -0.71875,1.375 -2.09375,2.14062 -1.375,0.76563 -3,0.76563 -2.625,0 -4.23437,-1.67188 -1.60938,-1.6875 -1.60938,-4.82812 z m 2.17188,0 q 0,2.39062 1.03125,3.57812 1.04687,1.1875 2.64062,1.1875 1.5625,0 2.60938,-1.1875 1.04687,-1.20312 1.04687,-3.65625 0,-2.3125 -1.0625,-3.5 -1.04687,-1.1875 -2.59375,-1.1875 -1.59375,0 -2.64062,1.1875 -1.03125,1.1875 -1.03125,3.57813 z m 11.58203,7.25 2.04687,0.3125 q 0.125,0.9375 0.71875,1.375 0.78125,0.59375 2.14063,0.59375 1.46875,0 2.26562,-0.59375 0.79688,-0.57813 1.07813,-1.64063 0.15625,-0.64062 0.14062,-2.70312 -1.375,1.625 -3.4375,1.625 -2.5625,0 -3.96875,-1.84375 -1.40625,-1.85938 -1.40625,-4.45313 0,-1.78125 0.64063,-3.28125 0.64062,-1.51562 1.85937,-2.32812 1.23438,-0.82813 2.89063,-0.82813 2.20312,0 3.625,1.78125 v -1.5 h 1.95312 v 10.76563 q 0,2.90625 -0.59375,4.10937 -0.59375,1.21875 -1.875,1.92188 -1.28125,0.70312 -3.15625,0.70312 -2.23437,0 -3.60937,-1 -1.35938,-1 -1.3125,-3.01562 z m 1.73437,-7.48438 q 0,2.45313 0.96875,3.57813 0.98438,1.125 2.45313,1.125 1.45312,0 2.4375,-1.10938 0.98437,-1.125 0.98437,-3.51562 0,-2.28125 -1.01562,-3.4375 -1.01563,-1.17188 -2.45313,-1.17188 -1.40625,0 -2.39062,1.14063 -0.98438,1.14062 -0.98438,3.39062 z m 11.20703,0.23438 q 0,-3.46875 1.92188,-5.125 1.60937,-1.39063 3.92187,-1.39063 2.5625,0 4.1875,1.6875 1.625,1.6875 1.625,4.64063 0,2.40625 -0.71875,3.78125 -0.71875,1.375 -2.09375,2.14062 -1.375,0.76563 -3,0.76563 -2.625,0 -4.23437,-1.67188 -1.60938,-1.6875 -1.60938,-4.82812 z m 2.17188,0 q 0,2.39062 1.03125,3.57812 1.04687,1.1875 2.64062,1.1875 1.5625,0 2.60938,-1.1875 1.04687,-1.20312 1.04687,-3.65625 0,-2.3125 -1.0625,-3.5 -1.04687,-1.1875 -2.59375,-1.1875 -1.59375,0 -2.64062,1.1875 -1.03125,1.1875 -1.03125,3.57813 z m 20.11328,6.21875 v -1.82813 q -1.45312,2.10938 -3.9375,2.10938 -1.10937,0 -2.0625,-0.42188 -0.95312,-0.42187 -1.42187,-1.0625 -0.45313,-0.64062 -0.64063,-1.5625 -0.14062,-0.625 -0.14062,-1.96875 v -7.71875 h 2.10937 v 6.90625 q 0,1.65625 0.14063,2.23438 0.1875,0.82812 0.82812,1.3125 0.65625,0.46875 1.60938,0.46875 0.9375,0 1.76562,-0.48438 0.84375,-0.5 1.1875,-1.32812 0.34375,-0.84375 0.34375,-2.4375 v -6.67188 h 2.10936 v 12.45313 z m 4.34764,-3.71875 2.09375,-0.32813 q 0.17188,1.25 0.96875,1.92188 0.8125,0.67187 2.25,0.67187 1.45313,0 2.15625,-0.59375 0.70313,-0.59375 0.70313,-1.39062 0,-0.71875 -0.625,-1.125 -0.42188,-0.28125 -2.15625,-0.71875 -2.3125,-0.57813 -3.21875,-1 -0.89063,-0.4375 -1.35938,-1.1875 -0.45312,-0.76563 -0.45312,-1.67188 0,-0.82812 0.375,-1.53125 0.39062,-0.71875 1.04687,-1.1875 0.48438,-0.35937 1.32813,-0.60937 0.85937,-0.26563 1.82812,-0.26563 1.46875,0 2.57813,0.42188 1.10937,0.42187 1.625,1.15625 0.53125,0.71875 0.73437,1.92187 l -2.0625,0.28125 q -0.14062,-0.96875 -0.8125,-1.5 -0.67187,-0.54687 -1.90625,-0.54687 -1.45312,0 -2.07812,0.48437 -0.625,0.48438 -0.625,1.125 0,0.40625 0.26562,0.73438 0.25,0.34375 0.8125,0.5625 0.3125,0.125 1.85938,0.54687 2.23437,0.59375 3.10937,0.98438 0.89063,0.375 1.39063,1.10937 0.51562,0.71875 0.51562,1.79688 0,1.04687 -0.625,1.98437 -0.60937,0.9375 -1.76562,1.45313 -1.15625,0.5 -2.625,0.5 -2.42188,0 -3.70313,-1 -1.26562,-1.01563 -1.625,-3 z m 19.01172,-1.79688 2.14063,-0.1875 q 0.15625,1.28125 0.70312,2.10938 0.5625,0.82812 1.73438,1.34375 1.17187,0.5 2.64062,0.5 1.29688,0 2.29688,-0.375 1,-0.39063 1.48437,-1.0625 0.48438,-0.6875 0.48438,-1.48438 0,-0.79687 -0.46875,-1.40625 -0.46875,-0.60937 -1.54688,-1.01562 -0.6875,-0.26563 -3.0625,-0.82813 -2.35937,-0.57812 -3.3125,-1.07812 -1.23437,-0.64063 -1.84375,-1.59375 -0.59375,-0.96875 -0.59375,-2.14063 0,-1.3125 0.73438,-2.4375 0.75,-1.125 2.15625,-1.70312 1.42187,-0.59375 3.15625,-0.59375 1.90625,0 3.35937,0.60937 1.46875,0.60938 2.25,1.8125 0.79688,1.1875 0.84375,2.70313 l -2.17187,0.17187 q -0.17188,-1.64062 -1.1875,-2.46875 -1.01563,-0.82812 -3,-0.82812 -2.0625,0 -3.01563,0.76562 -0.9375,0.75 -0.9375,1.8125 0,0.92188 0.67188,1.51563 0.65625,0.60937 3.42187,1.23437 2.78125,0.625 3.8125,1.09375 1.5,0.6875 2.20313,1.75 0.71875,1.0625 0.71875,2.4375 0,1.375 -0.78125,2.59375 -0.78125,1.20313 -2.25,1.89063 -1.46875,0.67187 -3.3125,0.67187 -2.32813,0 -3.90625,-0.67187 -1.57813,-0.6875 -2.48438,-2.04688 -0.89062,-1.375 -0.9375,-3.09375 z m 24.66406,5.51563 v -1.82813 q -1.45312,2.10938 -3.9375,2.10938 -1.10937,0 -2.0625,-0.42188 -0.95312,-0.42187 -1.42187,-1.0625 -0.45313,-0.64062 -0.64063,-1.5625 -0.14062,-0.625 -0.14062,-1.96875 v -7.71875 h 2.10937 v 6.90625 q 0,1.65625 0.14063,2.23438 0.1875,0.82812 0.82812,1.3125 0.65625,0.46875 1.60938,0.46875 0.9375,0 1.76562,-0.48438 0.84375,-0.5 1.1875,-1.32812 0.34375,-0.84375 0.34375,-2.4375 v -6.67188 h 2.10938 v 12.45313 z m 5.19141,4.76562 V 363.0357 h 1.92187 v 1.625 q 0.6875,-0.95312 1.53125,-1.42187 0.85938,-0.48438 2.07813,-0.48438 1.59375,0 2.8125,0.82813 1.21875,0.8125 1.84375,2.3125 0.625,1.5 0.625,3.28125 0,1.90625 -0.6875,3.4375 -0.6875,1.53125 -2,2.34375 -1.29688,0.8125 -2.73438,0.8125 -1.0625,0 -1.90625,-0.4375 -0.82812,-0.45313 -1.375,-1.14063 v 6.0625 z m 1.92187,-10.92187 q 0,2.40625 0.96875,3.5625 0.96875,1.14062 2.35938,1.14062 1.40625,0 2.40625,-1.1875 1,-1.1875 1,-3.6875 0,-2.375 -0.98438,-3.5625 -0.96875,-1.1875 -2.32812,-1.1875 -1.35938,0 -2.39063,1.26563 -1.03125,1.25 -1.03125,3.65625 z m 19.95703,2.14062 2.17188,0.28125 q -0.51563,1.90625 -1.90625,2.96875 -1.39063,1.04688 -3.5625,1.04688 -2.73438,0 -4.34375,-1.67188 -1.59375,-1.6875 -1.59375,-4.73437 0,-3.14063 1.60937,-4.875 1.625,-1.73438 4.20313,-1.73438 2.5,0 4.07812,1.70313 1.59375,1.70312 1.59375,4.78125 0,0.1875 -0.0156,0.5625 h -9.28125 q 0.10937,2.04687 1.15625,3.14062 1.04687,1.09375 2.60937,1.09375 1.15625,0 1.96875,-0.60937 0.82813,-0.60938 1.3125,-1.95313 z m -6.9375,-3.40625 h 6.95313 q -0.14063,-1.5625 -0.79688,-2.35937 -1,-1.21875 -2.60937,-1.21875 -1.45313,0 -2.45313,0.98437 -0.98437,0.96875 -1.09375,2.59375 z m 11.73829,7.42188 V 363.0357 h 1.89062 v 1.89063 q 0.73438,-1.32813 1.34375,-1.75 0.625,-0.42188 1.35938,-0.42188 1.0625,0 2.17187,0.6875 l -0.73437,1.95313 q -0.76563,-0.45313 -1.54688,-0.45313 -0.6875,0 -1.25,0.42188 -0.54687,0.40625 -0.78125,1.14062 -0.34375,1.125 -0.34375,2.46875 v 6.51563 z m 8.52343,0 v -10.8125 h -1.875 v -1.64063 h 1.875 v -1.3125 q 0,-1.26562 0.21875,-1.875 0.29688,-0.8125 1.0625,-1.3125 0.78125,-0.51562 2.15625,-0.51562 0.89063,0 1.96875,0.20312 l -0.3125,1.84375 q -0.65625,-0.125 -1.25,-0.125 -0.95312,0 -1.35937,0.42188 -0.39063,0.40625 -0.39063,1.53125 v 1.14062 h 2.42188 v 1.64063 h -2.42188 v 10.8125 z m 14.27735,-1.53125 q -1.17188,0.98437 -2.26563,1.40625 -1.07812,0.40625 -2.3125,0.40625 -2.04687,0 -3.15625,-1 -1.09375,-1 -1.09375,-2.5625 0,-0.92188 0.40625,-1.67188 0.42188,-0.75 1.09375,-1.20312 0.67188,-0.46875 1.51563,-0.70313 0.625,-0.15625 1.875,-0.3125 2.5625,-0.3125 3.76562,-0.73437 0.0156,-0.42188 0.0156,-0.54688 0,-1.28125 -0.60938,-1.8125 -0.79687,-0.71875 -2.39062,-0.71875 -1.5,0 -2.20313,0.53125 -0.70312,0.51563 -1.04687,1.84375 l -2.0625,-0.28125 q 0.28125,-1.32812 0.92187,-2.14062 0.64063,-0.8125 1.85938,-1.25 1.21875,-0.45313 2.82812,-0.45313 1.59375,0 2.59375,0.375 1,0.375 1.46875,0.95313 0.46875,0.5625 0.65625,1.4375 0.0937,0.53125 0.0937,1.9375 v 2.8125 q 0,2.9375 0.14063,3.71875 0.14062,0.78125 0.53125,1.5 h -2.20313 q -0.32812,-0.65625 -0.42187,-1.53125 z m -0.17188,-4.71875 q -1.15625,0.46875 -3.45312,0.79687 -1.29688,0.1875 -1.84375,0.42188 -0.53125,0.23437 -0.82813,0.6875 -0.28125,0.45312 -0.28125,1 0,0.84375 0.625,1.40625 0.64063,0.5625 1.875,0.5625 1.21875,0 2.17188,-0.53125 0.95312,-0.53125 1.39062,-1.45313 0.34375,-0.71875 0.34375,-2.10937 z m 5.39453,6.25 V 363.0357 h 1.89063 v 1.75 q 0.59375,-0.90625 1.5625,-1.46875 0.96875,-0.5625 2.21875,-0.5625 1.375,0 2.25,0.57813 0.89062,0.57812 1.26562,1.60937 1.46875,-2.1875 3.84375,-2.1875 1.84375,0 2.84375,1.03125 1,1.03125 1,3.15625 v 8.54688 h -2.10937 v -7.84375 q 0,-1.26563 -0.20313,-1.8125 -0.20312,-0.5625 -0.75,-0.90625 -0.53125,-0.34375 -1.25,-0.34375 -1.3125,0 -2.1875,0.875 -0.85937,0.875 -0.85937,2.79687 v 7.23438 h -2.10938 v -8.09375 q 0,-1.40625 -0.51562,-2.10938 -0.51563,-0.70312 -1.6875,-0.70312 -0.89063,0 -1.65625,0.46875 -0.75,0.46875 -1.09375,1.375 -0.34375,0.90625 -0.34375,2.60937 v 6.45313 z m 20.00782,-14.75 v -2.4375 h 2.10937 v 2.4375 z m 0,14.75 V 363.0357 h 2.10937 v 12.45313 z m 5.26953,0 v -17.1875 h 2.10937 v 17.1875 z m 5.28515,4.79687 -0.23437,-1.98437 q 0.70312,0.1875 1.21875,0.1875 0.70312,0 1.125,-0.23438 0.42187,-0.23437 0.6875,-0.65625 0.20312,-0.3125 0.64062,-1.5625 0.0625,-0.1875 0.1875,-0.51562 l -4.71875,-12.48438 h 2.26563 l 2.59375,7.21875 q 0.5,1.35938 0.90625,2.875 0.35937,-1.45312 0.85937,-2.82812 l 2.67188,-7.26563 h 2.10937 l -4.73437,12.67188 q -0.76563,2.04687 -1.1875,2.8125 -0.5625,1.04687 -1.29688,1.53125 -0.71875,0.48437 -1.73437,0.48437 -0.60938,0 -1.35938,-0.25 z"
       fill-rule="nonzero"
       id="path10" />
    <path
       fill="#000000"
       fill-opacity="0"
       d="m 634.38715,256.71915 h 72.8819 v 48.47244 h -72.8819 z"
       fill-rule="evenodd"
       id="path11" />
    <path
       fill="#595959"
       d="m 649.45306,288.75916 v -17.1875 h 11.59375 v 2.03125 h -9.3125 v 5.32812 h 8.0625 v 2.01563 h -8.0625 v 7.8125 z m 13.48828,-6.21875 q 0,-3.46875 1.92188,-5.125 1.60937,-1.39063 3.92187,-1.39063 2.5625,0 4.1875,1.6875 1.625,1.6875 1.625,4.64063 0,2.40625 -0.71875,3.78125 -0.71875,1.375 -2.09375,2.14062 -1.375,0.76563 -3,0.76563 -2.625,0 -4.23437,-1.67188 -1.60938,-1.6875 -1.60938,-4.82812 z m 2.17188,0 q 0,2.39062 1.03125,3.57812 1.04687,1.1875 2.64062,1.1875 1.5625,0 2.60938,-1.1875 1.04687,-1.20312 1.04687,-3.65625 0,-2.3125 -1.0625,-3.5 -1.04687,-1.1875 -2.59375,-1.1875 -1.59375,0 -2.64062,1.1875 -1.03125,1.1875 -1.03125,3.57813 z m 11.91015,6.21875 v -17.1875 h 2.10938 v 17.1875 z m 13.45703,0 v -1.57813 q -1.1875,1.85938 -3.48437,1.85938 -1.48438,0 -2.73438,-0.8125 -1.25,-0.82813 -1.9375,-2.29688 -0.67187,-1.46875 -0.67187,-3.39062 0,-1.85938 0.60937,-3.375 0.625,-1.51563 1.85938,-2.32813 1.25,-0.8125 2.78125,-0.8125 1.125,0 2,0.48438 0.89062,0.46875 1.4375,1.23437 v -6.17187 h 2.09375 v 17.1875 z m -6.67187,-6.21875 q 0,2.39062 1,3.57812 1.01562,1.1875 2.39062,1.1875 1.39063,0 2.34375,-1.125 0.96875,-1.14062 0.96875,-3.45312 0,-2.5625 -0.98437,-3.75 -0.98438,-1.20313 -2.42188,-1.20313 -1.40625,0 -2.35937,1.15625 -0.9375,1.14063 -0.9375,3.60938 z"
       fill-rule="nonzero"
       id="path12" />
    <path
       fill="#000000"
       fill-opacity="0"
       d="m 597.1903,343.44882 h 147.27557 v 48.47244 H 597.1903 Z"
       fill-rule="evenodd"
       id="path13" />
    <path
       fill="#595959"
       d="m 608.54877,369.9732 2.14062,-0.1875 q 0.15625,1.28125 0.70313,2.10938 0.5625,0.82812 1.73437,1.34375 1.17188,0.5 2.64063,0.5 1.29687,0 2.29687,-0.375 1,-0.39063 1.48438,-1.0625 0.48437,-0.6875 0.48437,-1.48438 0,-0.79687 -0.46875,-1.40625 -0.46875,-0.60937 -1.54687,-1.01562 -0.6875,-0.26563 -3.0625,-0.82813 -2.35938,-0.57812 -3.3125,-1.07812 -1.23438,-0.64063 -1.84375,-1.59375 -0.59375,-0.96875 -0.59375,-2.14063 0,-1.3125 0.73437,-2.4375 0.75,-1.125 2.15625,-1.70312 1.42188,-0.59375 3.15625,-0.59375 1.90625,0 3.35938,0.60937 1.46875,0.60938 2.25,1.8125 0.79687,1.1875 0.84375,2.70313 l -2.17188,0.17187 q -0.17187,-1.64062 -1.1875,-2.46875 -1.01562,-0.82812 -3,-0.82812 -2.0625,0 -3.01562,0.76562 -0.9375,0.75 -0.9375,1.8125 0,0.92188 0.67187,1.51563 0.65625,0.60937 3.42188,1.23437 2.78125,0.625 3.8125,1.09375 1.5,0.6875 2.20312,1.75 0.71875,1.0625 0.71875,2.4375 0,1.375 -0.78125,2.59375 -0.78125,1.20313 -2.25,1.89063 -1.46875,0.67187 -3.3125,0.67187 -2.32812,0 -3.90625,-0.67187 -1.57812,-0.6875 -2.48437,-2.04688 -0.89063,-1.375 -0.9375,-3.09375 z m 24.66406,5.51563 v -1.82813 q -1.45312,2.10938 -3.9375,2.10938 -1.10937,0 -2.0625,-0.42188 -0.95312,-0.42187 -1.42187,-1.0625 -0.45313,-0.64062 -0.64063,-1.5625 -0.14062,-0.625 -0.14062,-1.96875 v -7.71875 h 2.10937 v 6.90625 q 0,1.65625 0.14063,2.23438 0.1875,0.82812 0.82812,1.3125 0.65625,0.46875 1.60938,0.46875 0.9375,0 1.76562,-0.48438 0.84375,-0.5 1.1875,-1.32812 0.34375,-0.84375 0.34375,-2.4375 v -6.67188 h 2.10938 v 12.45313 z m 5.19141,4.76562 V 363.0357 h 1.92187 v 1.625 q 0.6875,-0.95312 1.53125,-1.42187 0.85938,-0.48438 2.07813,-0.48438 1.59375,0 2.8125,0.82813 1.21875,0.8125 1.84375,2.3125 0.625,1.5 0.625,3.28125 0,1.90625 -0.6875,3.4375 -0.6875,1.53125 -2,2.34375 -1.29688,0.8125 -2.73438,0.8125 -1.0625,0 -1.90625,-0.4375 -0.82812,-0.45313 -1.375,-1.14063 v 6.0625 z m 1.92187,-10.92187 q 0,2.40625 0.96875,3.5625 0.96875,1.14062 2.35938,1.14062 1.40625,0 2.40625,-1.1875 1,-1.1875 1,-3.6875 0,-2.375 -0.98438,-3.5625 -0.96875,-1.1875 -2.32812,-1.1875 -1.35938,0 -2.39063,1.26563 -1.03125,1.25 -1.03125,3.65625 z m 19.95703,2.14062 2.17188,0.28125 q -0.51563,1.90625 -1.90625,2.96875 -1.39063,1.04688 -3.5625,1.04688 -2.73438,0 -4.34375,-1.67188 -1.59375,-1.6875 -1.59375,-4.73437 0,-3.14063 1.60937,-4.875 1.625,-1.73438 4.20313,-1.73438 2.5,0 4.07812,1.70313 1.59375,1.70312 1.59375,4.78125 0,0.1875 -0.0156,0.5625 h -9.28125 q 0.10937,2.04687 1.15625,3.14062 1.04687,1.09375 2.60937,1.09375 1.15625,0 1.96875,-0.60937 0.82813,-0.60938 1.3125,-1.95313 z m -6.9375,-3.40625 h 6.95313 q -0.14063,-1.5625 -0.79688,-2.35937 -1,-1.21875 -2.60937,-1.21875 -1.45313,0 -2.45313,0.98437 -0.98437,0.96875 -1.09375,2.59375 z m 11.73829,7.42188 V 363.0357 h 1.89062 v 1.89063 q 0.73438,-1.32813 1.34375,-1.75 0.625,-0.42188 1.35938,-0.42188 1.0625,0 2.17187,0.6875 l -0.73437,1.95313 q -0.76563,-0.45313 -1.54688,-0.45313 -0.6875,0 -1.25,0.42188 -0.54687,0.40625 -0.78125,1.14062 -0.34375,1.125 -0.34375,2.46875 v 6.51563 z m 8.52343,0 v -10.8125 h -1.875 v -1.64063 h 1.875 v -1.3125 q 0,-1.26562 0.21875,-1.875 0.29688,-0.8125 1.0625,-1.3125 0.78125,-0.51562 2.15625,-0.51562 0.89063,0 1.96875,0.20312 l -0.3125,1.84375 q -0.65625,-0.125 -1.25,-0.125 -0.95312,0 -1.35937,0.42188 -0.39063,0.40625 -0.39063,1.53125 v 1.14062 h 2.42188 v 1.64063 h -2.42188 v 10.8125 z m 14.27735,-1.53125 q -1.17188,0.98437 -2.26563,1.40625 -1.07812,0.40625 -2.3125,0.40625 -2.04687,0 -3.15625,-1 -1.09375,-1 -1.09375,-2.5625 0,-0.92188 0.40625,-1.67188 0.42188,-0.75 1.09375,-1.20312 0.67188,-0.46875 1.51563,-0.70313 0.625,-0.15625 1.875,-0.3125 2.5625,-0.3125 3.76562,-0.73437 0.0156,-0.42188 0.0156,-0.54688 0,-1.28125 -0.60938,-1.8125 -0.79687,-0.71875 -2.39062,-0.71875 -1.5,0 -2.20313,0.53125 -0.70312,0.51563 -1.04687,1.84375 l -2.0625,-0.28125 q 0.28125,-1.32812 0.92187,-2.14062 0.64063,-0.8125 1.85938,-1.25 1.21875,-0.45313 2.82812,-0.45313 1.59375,0 2.59375,0.375 1,0.375 1.46875,0.95313 0.46875,0.5625 0.65625,1.4375 0.0937,0.53125 0.0937,1.9375 v 2.8125 q 0,2.9375 0.14063,3.71875 0.14062,0.78125 0.53125,1.5 h -2.20313 q -0.32812,-0.65625 -0.42187,-1.53125 z m -0.17188,-4.71875 q -1.15625,0.46875 -3.45312,0.79687 -1.29688,0.1875 -1.84375,0.42188 -0.53125,0.23437 -0.82813,0.6875 -0.28125,0.45312 -0.28125,1 0,0.84375 0.625,1.40625 0.64063,0.5625 1.875,0.5625 1.21875,0 2.17188,-0.53125 0.95312,-0.53125 1.39062,-1.45313 0.34375,-0.71875 0.34375,-2.10937 z m 5.39453,6.25 V 363.0357 h 1.89063 v 1.75 q 0.59375,-0.90625 1.5625,-1.46875 0.96875,-0.5625 2.21875,-0.5625 1.375,0 2.25,0.57813 0.89062,0.57812 1.26562,1.60937 1.46875,-2.1875 3.84375,-2.1875 1.84375,0 2.84375,1.03125 1,1.03125 1,3.15625 v 8.54688 h -2.10937 v -7.84375 q 0,-1.26563 -0.20313,-1.8125 -0.20312,-0.5625 -0.75,-0.90625 -0.53125,-0.34375 -1.25,-0.34375 -1.3125,0 -2.1875,0.875 -0.85937,0.875 -0.85937,2.79687 v 7.23438 h -2.10938 v -8.09375 q 0,-1.40625 -0.51562,-2.10938 -0.51563,-0.70312 -1.6875,-0.70312 -0.89063,0 -1.65625,0.46875 -0.75,0.46875 -1.09375,1.375 -0.34375,0.90625 -0.34375,2.60937 v 6.45313 z m 20.00781,-14.75 v -2.4375 h 2.10938 v 2.4375 z m 0,14.75 V 363.0357 h 2.10938 v 12.45313 z m 5.26954,0 v -17.1875 h 2.10937 v 17.1875 z m 5.28515,4.79687 -0.23437,-1.98437 q 0.70312,0.1875 1.21875,0.1875 0.70312,0 1.125,-0.23438 0.42187,-0.23437 0.6875,-0.65625 0.20312,-0.3125 0.64062,-1.5625 0.0625,-0.1875 0.1875,-0.51562 l -4.71875,-12.48438 h 2.26563 l 2.59375,7.21875 q 0.5,1.35938 0.90625,2.875 0.35937,-1.45312 0.85937,-2.82812 l 2.67188,-7.26563 h 2.10937 l -4.73437,12.67188 q -0.76563,2.04687 -1.1875,2.8125 -0.5625,1.04687 -1.29688,1.53125 -0.71875,0.48437 -1.73437,0.48437 -0.60938,0 -1.35938,-0.25 z"
       fill-rule="nonzero"
       id="path14" />
    <path
       fill="#000000"
       fill-opacity="0"
       d="m 625.4265,82.37795 h 90.80316 v 49.35433 H 625.4265 Z"
       fill-rule="evenodd"
       id="path15" />
    <path
       fill="#595959"
       d="m 654.9316,108.3867 2.28125,0.57813 q -0.71875,2.79687 -2.57813,4.28125 -1.85937,1.46875 -4.54687,1.46875 -2.76563,0 -4.51563,-1.125 -1.73437,-1.14063 -2.64062,-3.28125 -0.90625,-2.15625 -0.90625,-4.60938 0,-2.6875 1.01562,-4.6875 1.03125,-2 2.92188,-3.03125 1.89062,-1.03125 4.17187,-1.03125 2.57813,0 4.32813,1.3125 1.76562,1.3125 2.45312,3.6875 l -2.23437,0.53125 q -0.60938,-1.875 -1.75,-2.734375 -1.125,-0.859375 -2.84375,-0.859375 -1.98438,0 -3.3125,0.953125 -1.32813,0.953125 -1.875,2.546875 -0.53125,1.59375 -0.53125,3.29688 0,2.1875 0.625,3.82812 0.64062,1.64063 1.98437,2.45313 1.35938,0.79687 2.92188,0.79687 1.92187,0 3.23437,-1.09375 1.32813,-1.10937 1.79688,-3.28125 z m 4.75391,6.03125 v -17.1875 h 2.10937 v 17.1875 z m 13.5039,-1.53125 q -1.17187,0.98438 -2.26562,1.40625 -1.07813,0.40625 -2.3125,0.40625 -2.04688,0 -3.15625,-1 -1.09375,-1 -1.09375,-2.5625 0,-0.92187 0.40625,-1.67187 0.42187,-0.75 1.09375,-1.20313 0.67187,-0.46875 1.51562,-0.70312 0.625,-0.15625 1.875,-0.3125 2.5625,-0.3125 3.76563,-0.73438 0.0156,-0.42187 0.0156,-0.54687 0,-1.28125 -0.60937,-1.8125 -0.79688,-0.71875 -2.39063,-0.71875 -1.5,0 -2.20312,0.53125 -0.70313,0.51562 -1.04688,1.84375 l -2.0625,-0.28125 q 0.28125,-1.32813 0.92188,-2.14063 0.64062,-0.8125 1.85937,-1.25 1.21875,-0.45312 2.82813,-0.45312 1.59375,0 2.59375,0.375 1,0.375 1.46875,0.95312 0.46875,0.5625 0.65625,1.4375 0.0937,0.53125 0.0937,1.9375 v 2.8125 q 0,2.9375 0.14062,3.71875 0.14063,0.78125 0.53125,1.5 h -2.20312 q -0.32813,-0.65625 -0.42188,-1.53125 z m -0.17187,-4.71875 q -1.15625,0.46875 -3.45313,0.79688 -1.29687,0.1875 -1.84375,0.42187 -0.53125,0.23438 -0.82812,0.6875 -0.28125,0.45313 -0.28125,1 0,0.84375 0.625,1.40625 0.64062,0.5625 1.875,0.5625 1.21875,0 2.17187,-0.53125 0.95313,-0.53125 1.39063,-1.45312 0.34375,-0.71875 0.34375,-2.10938 z m 4.55078,2.53125 2.09375,-0.32812 q 0.17187,1.25 0.96875,1.92187 0.8125,0.67188 2.25,0.67188 1.45312,0 2.15625,-0.59375 0.70312,-0.59375 0.70312,-1.39063 0,-0.71875 -0.625,-1.125 -0.42187,-0.28125 -2.15625,-0.71875 -2.3125,-0.57812 -3.21875,-1 -0.89062,-0.4375 -1.35937,-1.1875 -0.45313,-0.76562 -0.45313,-1.67187 0,-0.82813 0.375,-1.53125 0.39063,-0.71875 1.04688,-1.1875 0.48437,-0.35938 1.32812,-0.60938 0.85938,-0.26562 1.82813,-0.26562 1.46875,0 2.57812,0.42187 1.10938,0.42188 1.625,1.15625 0.53125,0.71875 0.73438,1.92188 l -2.0625,0.28125 q -0.14063,-0.96875 -0.8125,-1.5 -0.67188,-0.54688 -1.90625,-0.54688 -1.45313,0 -2.07813,0.48438 -0.625,0.48437 -0.625,1.125 0,0.40625 0.26563,0.73437 0.25,0.34375 0.8125,0.5625 0.3125,0.125 1.85937,0.54688 2.23438,0.59375 3.10938,0.98437 0.89062,0.375 1.39062,1.10938 0.51563,0.71875 0.51563,1.79687 0,1.04688 -0.625,1.98438 -0.60938,0.9375 -1.76563,1.45312 -1.15625,0.5 -2.625,0.5 -2.42187,0 -3.70312,-1 -1.26563,-1.01562 -1.625,-3 z m 12,0 2.09375,-0.32812 q 0.17187,1.25 0.96875,1.92187 0.8125,0.67188 2.25,0.67188 1.45312,0 2.15625,-0.59375 0.70312,-0.59375 0.70312,-1.39063 0,-0.71875 -0.625,-1.125 -0.42187,-0.28125 -2.15625,-0.71875 -2.3125,-0.57812 -3.21875,-1 -0.89062,-0.4375 -1.35937,-1.1875 -0.45313,-0.76562 -0.45313,-1.67187 0,-0.82813 0.375,-1.53125 0.39063,-0.71875 1.04688,-1.1875 0.48437,-0.35938 1.32812,-0.60938 0.85938,-0.26562 1.82813,-0.26562 1.46875,0 2.57812,0.42187 1.10938,0.42188 1.625,1.15625 0.53125,0.71875 0.73438,1.92188 l -2.0625,0.28125 q -0.14063,-0.96875 -0.8125,-1.5 -0.67188,-0.54688 -1.90625,-0.54688 -1.45313,0 -2.07813,0.48438 -0.625,0.48437 -0.625,1.125 0,0.40625 0.26563,0.73437 0.25,0.34375 0.8125,0.5625 0.3125,0.125 1.85937,0.54688 2.23438,0.59375 3.10938,0.98437 0.89062,0.375 1.39062,1.10938 0.51563,0.71875 0.51563,1.79687 0,1.04688 -0.625,1.98438 -0.60938,0.9375 -1.76563,1.45312 -1.15625,0.5 -2.625,0.5 -2.42187,0 -3.70312,-1 -1.26563,-1.01562 -1.625,-3 z"
       fill-rule="nonzero"
       id="path16" />
    <path
       fill="#000000"
       fill-opacity="0"
       d="m 597.1903,430.17847 h 147.27557 v 48.47244 H 597.1903 Z"
       fill-rule="evenodd"
       id="path17" />
    <path
       fill="#595959"
       d="m 637.4648,462.21848 v -17.1875 h 11.59375 v 2.03125 h -9.3125 v 5.32812 h 8.0625 v 2.01563 h -8.0625 v 7.8125 z m 22.39453,-1.53125 q -1.17187,0.98437 -2.26562,1.40625 -1.07813,0.40625 -2.3125,0.40625 -2.04688,0 -3.15625,-1 -1.09375,-1 -1.09375,-2.5625 0,-0.92188 0.40625,-1.67188 0.42187,-0.75 1.09375,-1.20312 0.67187,-0.46875 1.51562,-0.70313 0.625,-0.15625 1.875,-0.3125 2.5625,-0.3125 3.76563,-0.73437 0.0156,-0.42188 0.0156,-0.54688 0,-1.28125 -0.60937,-1.8125 -0.79688,-0.71875 -2.39063,-0.71875 -1.5,0 -2.20312,0.53125 -0.70313,0.51563 -1.04688,1.84375 l -2.0625,-0.28125 q 0.28125,-1.32812 0.92188,-2.14062 0.64062,-0.8125 1.85937,-1.25 1.21875,-0.45313 2.82813,-0.45313 1.59375,0 2.59375,0.375 1,0.375 1.46875,0.95313 0.46875,0.5625 0.65625,1.4375 0.0937,0.53125 0.0937,1.9375 v 2.8125 q 0,2.9375 0.14062,3.71875 0.14063,0.78125 0.53125,1.5 h -2.20312 q -0.32813,-0.65625 -0.42188,-1.53125 z m -0.17187,-4.71875 q -1.15625,0.46875 -3.45313,0.79687 -1.29687,0.1875 -1.84375,0.42188 -0.53125,0.23437 -0.82812,0.6875 -0.28125,0.45312 -0.28125,1 0,0.84375 0.625,1.40625 0.64062,0.5625 1.875,0.5625 1.21875,0 2.17187,-0.53125 0.95313,-0.53125 1.39063,-1.45313 0.34375,-0.71875 0.34375,-2.10937 z m 5.39453,6.25 v -12.45313 h 1.89062 v 1.75 q 0.59375,-0.90625 1.5625,-1.46875 0.96875,-0.5625 2.21875,-0.5625 1.375,0 2.25,0.57813 0.89063,0.57812 1.26563,1.60937 1.46875,-2.1875 3.84375,-2.1875 1.84375,0 2.84375,1.03125 1,1.03125 1,3.15625 v 8.54688 h -2.10938 v -7.84375 q 0,-1.26563 -0.20312,-1.8125 -0.20313,-0.5625 -0.75,-0.90625 -0.53125,-0.34375 -1.25,-0.34375 -1.3125,0 -2.1875,0.875 -0.85938,0.875 -0.85938,2.79687 v 7.23438 h -2.10937 v -8.09375 q 0,-1.40625 -0.51563,-2.10938 -0.51562,-0.70312 -1.6875,-0.70312 -0.89062,0 -1.65625,0.46875 -0.75,0.46875 -1.09375,1.375 -0.34375,0.90625 -0.34375,2.60937 v 6.45313 z m 20.00781,-14.75 v -2.4375 h 2.10937 v 2.4375 z m 0,14.75 v -12.45313 h 2.10937 v 12.45313 z m 5.26953,0 v -17.1875 h 2.10938 v 17.1875 z m 5.28516,4.79687 -0.23438,-1.98437 q 0.70313,0.1875 1.21875,0.1875 0.70313,0 1.125,-0.23438 0.42188,-0.23437 0.6875,-0.65625 0.20313,-0.3125 0.64063,-1.5625 0.0625,-0.1875 0.1875,-0.51562 l -4.71875,-12.48438 h 2.26562 l 2.59375,7.21875 q 0.5,1.35938 0.90625,2.875 0.35938,-1.45312 0.85938,-2.82812 l 2.67187,-7.26563 h 2.10938 l -4.73438,12.67188 q -0.76562,2.04687 -1.1875,2.8125 -0.5625,1.04687 -1.29687,1.53125 -0.71875,0.48437 -1.73438,0.48437 -0.60937,0 -1.35937,-0.25 z"
       fill-rule="nonzero"
       id="path18" />
    <path
       fill="#000000"
       fill-opacity="0"
       d="m 799.44617,256.71915 h 82.39374 v 48.47244 h -82.39374 z"
       fill-rule="evenodd"
       id="path19" />
    <path
       fill="#ff0000"
       d="m 814.2075,288.75916 v -17.1875 h 2.28125 v 17.1875 z m 17.55859,-17.1875 h 2.28125 v 9.9375 q 0,2.57812 -0.59375,4.10937 -0.57812,1.51563 -2.10937,2.48438 -1.53125,0.95312 -4.01563,0.95312 -2.42187,0 -3.95312,-0.82812 -1.53125,-0.84375 -2.1875,-2.42188 -0.65625,-1.57812 -0.65625,-4.29687 v -9.9375 h 2.26562 v 9.92187 q 0,2.23438 0.42188,3.29688 0.42187,1.0625 1.42187,1.64062 1.01563,0.5625 2.48438,0.5625 2.51562,0 3.57812,-1.125 1.0625,-1.14062 1.0625,-4.375 z m 6.06641,17.1875 v -17.1875 h 6.46875 q 1.71875,0 2.625,0.17187 1.26563,0.20313 2.10938,0.79688 0.85937,0.59375 1.375,1.67187 0.53125,1.0625 0.53125,2.32813 0,2.20312 -1.40625,3.71875 -1.39063,1.51562 -5.03125,1.51562 h -4.40625 v 6.98438 z m 2.26563,-9.01563 h 4.4375 q 2.20312,0 3.125,-0.8125 0.9375,-0.82812 0.9375,-2.3125 0,-1.07812 -0.54688,-1.84375 -0.54687,-0.76562 -1.4375,-1.01562 -0.57812,-0.15625 -2.125,-0.15625 h -4.39062 z m 13.77343,9.01563 v -17.1875 h 7.60938 q 2.29687,0 3.48437,0.46875 1.20313,0.46875 1.92188,1.64062 0.71875,1.17188 0.71875,2.57813 0,1.82812 -1.1875,3.09375 -1.1875,1.25 -3.65625,1.59375 0.90625,0.42187 1.375,0.84375 1,0.92187 1.89062,2.29687 l 2.98438,4.67188 h -2.85938 l -2.28125,-3.57813 q -0.98437,-1.54687 -1.64062,-2.35937 -0.64063,-0.82813 -1.15625,-1.15625 -0.5,-0.32813 -1.03125,-0.45313 -0.39063,-0.0781 -1.26563,-0.0781 h -2.64062 v 7.625 z m 2.26563,-9.59375 h 4.89062 q 1.5625,0 2.4375,-0.32813 0.875,-0.32812 1.32813,-1.03125 0.46875,-0.70312 0.46875,-1.54687 0,-1.21875 -0.89063,-2 -0.875,-0.78125 -2.79687,-0.78125 h -5.4375 z"
       fill-rule="nonzero"
       id="path20" />
    <path
       fill="#000000"
       fill-opacity="0"
       d="m 719.30054,169.01181 h 72.8819 v 48.47244 h -72.8819 z"
       fill-rule="evenodd"
       id="path21" />
    <path
       fill="#ff0000"
       d="m 735.9446,201.05182 v -15.15625 h -5.65625 v -2.03125 h 13.625 v 2.03125 h -5.6875 v 15.15625 z m 8.60156,4.79687 -0.23437,-1.98437 q 0.70312,0.1875 1.21875,0.1875 0.70312,0 1.125,-0.23438 0.42187,-0.23437 0.6875,-0.65625 0.20312,-0.3125 0.64062,-1.5625 0.0625,-0.1875 0.1875,-0.51562 l -4.71875,-12.48438 h 2.26563 l 2.59375,7.21875 q 0.5,1.35938 0.90625,2.875 0.35937,-1.45312 0.85937,-2.82812 l 2.67188,-7.26563 h 2.10937 l -4.73437,12.67188 q -0.76563,2.04687 -1.1875,2.8125 -0.5625,1.04687 -1.29688,1.53125 -0.71875,0.48437 -1.73437,0.48437 -0.60938,0 -1.35938,-0.25 z m 12.09375,-0.0312 v -17.21875 h 1.92188 v 1.625 q 0.6875,-0.95312 1.53125,-1.42187 0.85937,-0.48438 2.07812,-0.48438 1.59375,0 2.8125,0.82813 1.21875,0.8125 1.84375,2.3125 0.625,1.5 0.625,3.28125 0,1.90625 -0.6875,3.4375 -0.6875,1.53125 -2,2.34375 -1.29687,0.8125 -2.73437,0.8125 -1.0625,0 -1.90625,-0.4375 -0.82813,-0.45313 -1.375,-1.14063 v 6.0625 z m 1.92188,-10.92187 q 0,2.40625 0.96875,3.5625 0.96875,1.14062 2.35937,1.14062 1.40625,0 2.40625,-1.1875 1,-1.1875 1,-3.6875 0,-2.375 -0.98437,-3.5625 -0.96875,-1.1875 -2.32813,-1.1875 -1.35937,0 -2.39062,1.26563 -1.03125,1.25 -1.03125,3.65625 z m 19.95703,2.14062 2.17187,0.28125 q -0.51562,1.90625 -1.90625,2.96875 -1.39062,1.04688 -3.5625,1.04688 -2.73437,0 -4.34375,-1.67188 -1.59375,-1.6875 -1.59375,-4.73437 0,-3.14063 1.60938,-4.875 1.625,-1.73438 4.20312,-1.73438 2.5,0 4.07813,1.70313 1.59375,1.70312 1.59375,4.78125 0,0.1875 -0.0156,0.5625 h -9.28125 q 0.10938,2.04687 1.15625,3.14062 1.04688,1.09375 2.60938,1.09375 1.15625,0 1.96875,-0.60937 0.82812,-0.60938 1.3125,-1.95313 z m -6.9375,-3.40625 h 6.95312 q -0.14062,-1.5625 -0.79687,-2.35937 -1,-1.21875 -2.60938,-1.21875 -1.45312,0 -2.45312,0.98437 -0.98438,0.96875 -1.09375,2.59375 z"
       fill-rule="nonzero"
       id="path22" />
    <path
       fill="#000000"
       fill-opacity="0"
       d="M 315.1273,107.05512 H 625.42652"
       fill-rule="evenodd"
       id="path23" />
    <path
       stroke="#595959"
       stroke-width="1"
       stroke-linejoin="round"
       stroke-linecap="butt"
       d="M 315.1273,107.05512 H 625.42652"
       fill-rule="evenodd"
       id="path24" />
    <path
       fill="#000000"
       fill-opacity="0"
       d="M 329.83072,280.95538 H 634.39765"
       fill-rule="evenodd"
       id="path25" />
    <path
       stroke="#595959"
       stroke-width="1"
       stroke-linejoin="round"
       stroke-linecap="butt"
       d="M 329.83072,280.95538 H 634.39765"
       fill-rule="evenodd"
       id="path26" />
    <path
       fill="#000000"
       fill-opacity="0"
       d="m 417.05905,367.68503 h 180.126"
       fill-rule="evenodd"
       id="path27" />
    <path
       stroke="#595959"
       stroke-width="1"
       stroke-linejoin="round"
       stroke-linecap="butt"
       d="m 417.05905,367.68503 h 180.126"
       fill-rule="evenodd"
       id="path28" />
    <path
       fill="#000000"
       fill-opacity="0"
       d="M 269.72046,131.73228 V 170"
       fill-rule="evenodd"
       id="path29" />
    <path
       stroke="#595959"
       stroke-width="1"
       stroke-linejoin="round"
       stroke-linecap="butt"
       d="M 269.72046,131.73228 V 170"
       fill-rule="evenodd"
       id="path30" />
    <path
       fill="#000000"
       fill-opacity="0"
       d="m 269.72046,218.46194 v 38.2677"
       fill-rule="evenodd"
       id="path31" />
    <path
       stroke="#595959"
       stroke-width="1"
       stroke-linejoin="round"
       stroke-linecap="butt"
       d="m 269.72046,218.46194 v 38.2677"
       fill-rule="evenodd"
       id="path32" />
    <path
       fill="#000000"
       fill-opacity="0"
       d="m 269.72046,305.1916 v 38.26773"
       fill-rule="evenodd"
       id="path33" />
    <path
       stroke="#595959"
       stroke-width="1"
       stroke-linejoin="round"
       stroke-linecap="butt"
       d="m 269.72046,305.1916 v 38.26773"
       fill-rule="evenodd"
       id="path34" />
    <path
       fill="#000000"
       fill-opacity="0"
       d="M 670.82806,131.73228 V 256.70864"
       fill-rule="evenodd"
       id="path35" />
    <path
       stroke="#595959"
       stroke-width="1"
       stroke-linejoin="round"
       stroke-linecap="butt"
       d="M 670.82806,131.73228 V 250.70866"
       fill-rule="evenodd"
       id="path36" />
    <path
       fill="#595959"
       stroke="#595959"
       stroke-width="1"
       stroke-linecap="butt"
       d="m 669.17633,250.70866 1.65173,4.5381 1.65174,-4.5381 z"
       fill-rule="evenodd"
       id="path37" />
    <path
       fill="#000000"
       fill-opacity="0"
       d="m 670.82806,131.73228 v -1.94464 h 169.82678 v 126.921"
       fill-rule="evenodd"
       id="path38" />
    <path
       stroke="#ff0000"
       stroke-width="1"
       stroke-linejoin="round"
       stroke-linecap="butt"
       d="m 670.82806,131.73228 v -1.94464 h 169.82678 v 120.92102"
       fill-rule="evenodd"
       id="path39" />
    <path
       fill="#ff0000"
       stroke="#ff0000"
       stroke-width="1"
       stroke-linecap="butt"
       d="m 839.0031,250.70866 1.65173,4.5381 1.65174,-4.5381 z"
       fill-rule="evenodd"
       id="path40" />
    <path
       fill="#000000"
       fill-opacity="0"
       d="m 670.82806,305.1916 v 38.26773"
       fill-rule="evenodd"
       id="path41" />
    <path
       stroke="#595959"
       stroke-width="1"
       stroke-linejoin="round"
       stroke-linecap="butt"
       d="m 670.82806,305.1916 v 32.26773"
       fill-rule="evenodd"
       id="path42" />
    <path
       fill="#595959"
       stroke="#595959"
       stroke-width="1"
       stroke-linecap="butt"
       d="m 669.17633,337.45932 1.65173,4.53809 1.65174,-4.53809 z"
       fill-rule="evenodd"
       id="path43" />
    <path
       fill="#000000"
       fill-opacity="0"
       d="m 670.82806,391.92126 v 38.2677"
       fill-rule="evenodd"
       id="path44" />
    <path
       stroke="#595959"
       stroke-width="1"
       stroke-linejoin="round"
       stroke-linecap="butt"
       d="m 670.82806,391.92126 v 32.2677"
       fill-rule="evenodd"
       id="path45" />
    <path
       fill="#595959"
       stroke="#595959"
       stroke-width="1"
       stroke-linecap="butt"
       d="m 669.17633,424.18896 1.65173,4.53812 1.65174,-4.53812 z"
       fill-rule="evenodd"
       id="path46" />
    <path
       fill="#000000"
       fill-opacity="0"
       d="m 755.74146,217.48425 v 63.46457 h -48.47241"
       fill-rule="evenodd"
       id="path47" />
    <path
       stroke="#ff0000"
       stroke-width="1"
       stroke-linejoin="round"
       stroke-linecap="butt"
       d="m 755.74146,217.48425 v 63.46457 h -42.47241"
       fill-rule="evenodd"
       id="path48" />
    <path
       fill="#ff0000"
       stroke="#ff0000"
       stroke-width="1"
       stroke-linecap="butt"
       d="m 713.26904,279.2971 -4.53809,1.65173 4.53809,1.65174 z"
       fill-rule="evenodd"
       id="path49" />
    <path
       fill="#000000"
       fill-opacity="0"
       d="m 755.74146,217.48425 v 63.46457 h 43.71655"
       fill-rule="evenodd"
       id="path50" />
    <path
       stroke="#ff0000"
       stroke-width="1"
       stroke-linejoin="round"
       stroke-linecap="butt"
       d="m 755.74146,217.48425 v 63.46457 h 37.71655"
       fill-rule="evenodd"
       id="path51" />
    <path
       fill="#ff0000"
       stroke="#ff0000"
       stroke-width="1"
       stroke-linecap="butt"
       d="m 793.458,282.60056 4.53809,-1.65173 -4.53809,-1.65174 z"
       fill-rule="evenodd"
       id="path52" />
    <path
       fill="#000000"
       fill-opacity="0"
       d="m 224.3189,33.91601 h 90.80315 V 83.27034 H 224.3189 Z"
       fill-rule="evenodd"
       id="path53" />
    <path
       fill="#595959"
       d="m 250.01735,59.643513 3.375,1.0625 q -0.78125,2.8125 -2.57813,4.187496 -1.79687,1.359375 -4.5625,1.359375 -3.42187,0 -5.625,-2.343746 -2.20312,-2.34375 -2.20312,-6.390625 0,-4.296875 2.20312,-6.65625 2.21875,-2.375 5.82813,-2.375 3.15625,0 5.125,1.859375 1.17187,1.09375 1.76562,3.15625 l -3.4375,0.828125 q -0.3125,-1.34375 -1.28125,-2.109375 -0.95312,-0.78125 -2.34375,-0.78125 -1.90625,0 -3.09375,1.375 -1.1875,1.375 -1.1875,4.4375 0,3.265625 1.17188,4.65625 1.17187,1.375 3.04687,1.375 1.375,0 2.375,-0.875 1,-0.890625 1.42188,-2.765625 z m 21.83202,6.312496 h -3.76563 l -1.5,-3.906246 h -6.875 l -1.40625,3.906246 h -3.68748 l 6.68748,-17.187496 h 3.67188 z m -6.375,-6.796871 -2.375,-6.375 -2.3125,6.375 z m 10.30078,6.796871 V 51.674763 h -5.09375 v -2.90625 h 13.65625 v 2.90625 h -5.09375 v 14.281246 z m 10.8164,0 V 48.768513 h 3.46875 v 6.765625 h 6.79688 v -6.765625 h 3.46875 v 17.187496 h -3.46875 v -7.515621 h -6.79688 v 7.515621 z"
       fill-rule="nonzero"
       id="path54" />
    <path
       fill="#000000"
       fill-opacity="0"
       d="M 580.7651,33.02362 H 760.89108 V 82.377952 H 580.7651 Z"
       fill-rule="evenodd"
       id="path55" />
    <path
       fill="#595959"
       d="m 593.6796,59.46987 3.375,-0.328125 q 0.29688,1.703125 1.21875,2.5 0.9375,0.796875 2.53125,0.796875 1.67188,0 2.51563,-0.703125 0.85937,-0.71875 0.85937,-1.671875 0,-0.609375 -0.35937,-1.03125 -0.35938,-0.421875 -1.25,-0.75 -0.60938,-0.203125 -2.78125,-0.75 -2.78125,-0.6875 -3.90625,-1.6875 -1.59375,-1.421875 -1.59375,-3.46875 0,-1.3125 0.75,-2.453125 0.75,-1.140625 2.14062,-1.734375 1.40625,-0.59375 3.39063,-0.59375 3.23437,0 4.85937,1.421875 1.64063,1.40625 1.71875,3.78125 l -3.46875,0.140625 q -0.21875,-1.3125 -0.95312,-1.890625 -0.73438,-0.59375 -2.20313,-0.59375 -1.5,0 -2.35937,0.625 -0.54688,0.40625 -0.54688,1.0625 0,0.609375 0.51563,1.046875 0.65625,0.546875 3.1875,1.15625 2.53125,0.59375 3.73437,1.234375 1.21875,0.640625 1.90625,1.75 0.6875,1.09375 0.6875,2.734375 0,1.46875 -0.82812,2.765625 -0.8125,1.28125 -2.3125,1.921875 -1.5,0.625 -3.75,0.625 -3.25,0 -5,-1.5 -1.75,-1.515625 -2.07813,-4.40625 z m 27.86719,-0.71875 3.375,1.0625 q -0.78125,2.8125 -2.57813,4.1875 -1.79687,1.359375 -4.5625,1.359375 -3.42187,0 -5.625,-2.34375 -2.20312,-2.34375 -2.20312,-6.390625 0,-4.296875 2.20312,-6.65625 2.21875,-2.375 5.82813,-2.375 3.15625,0 5.125,1.859375 1.17187,1.09375 1.76562,3.15625 l -3.4375,0.828125 q -0.3125,-1.34375 -1.28125,-2.109375 -0.95312,-0.78125 -2.34375,-0.78125 -1.90625,0 -3.09375,1.375 -1.1875,1.375 -1.1875,4.4375 0,3.265625 1.17188,4.65625 1.17187,1.375 3.04687,1.375 1.375,0 2.375,-0.875 1,-0.890625 1.42188,-2.765625 z m 5.64453,-2.171875 q 0,-2.625 0.78125,-4.40625 0.59375,-1.3125 1.59375,-2.359375 1.01562,-1.046875 2.23437,-1.546875 1.59375,-0.671875 3.70313,-0.671875 3.79687,0 6.0625,2.359375 2.28125,2.34375 2.28125,6.546875 0,4.15625 -2.26563,6.515625 -2.25,2.34375 -6.03125,2.34375 -3.84375,0 -6.10937,-2.34375 -2.25,-2.34375 -2.25,-6.4375 z m 3.57812,-0.125 q 0,2.921875 1.34375,4.4375 1.34375,1.5 3.42188,1.5 2.07812,0 3.40625,-1.484375 1.32812,-1.5 1.32812,-4.5 0,-2.953125 -1.29687,-4.40625 -1.29688,-1.453125 -3.4375,-1.453125 -2.14063,0 -3.45313,1.484375 -1.3125,1.46875 -1.3125,4.421875 z m 15.79297,8.609375 v -17.1875 h 5.5625 q 3.17188,0 4.125,0.265625 1.48438,0.390625 2.46875,1.6875 1,1.28125 1,3.34375 0,1.578125 -0.57812,2.65625 -0.5625,1.078125 -1.45313,1.703125 -0.89062,0.609375 -1.79687,0.796875 -1.25,0.25 -3.59375,0.25 h -2.26563 v 6.484375 z m 3.46875,-14.28125 v 4.875 h 1.89063 q 2.0625,0 2.75,-0.265625 0.6875,-0.265625 1.07812,-0.84375 0.39063,-0.578125 0.39063,-1.328125 0,-0.9375 -0.54688,-1.546875 -0.54687,-0.609375 -1.39062,-0.765625 -0.625,-0.125 -2.5,-0.125 z m 10.75782,14.578125 4.25,-17.765625 h 2.46875 l -4.29688,17.765625 z"
       fill-rule="nonzero"
       id="path56" />
    <path
       fill="#ff0000"
       d="m 668.3632,59.46987 3.375,-0.328125 q 0.29687,1.703125 1.21875,2.5 0.9375,0.796875 2.53125,0.796875 1.67187,0 2.51562,-0.703125 0.85938,-0.71875 0.85938,-1.671875 0,-0.609375 -0.35938,-1.03125 -0.35937,-0.421875 -1.25,-0.75 -0.60937,-0.203125 -2.78125,-0.75 -2.78125,-0.6875 -3.90625,-1.6875 -1.59375,-1.421875 -1.59375,-3.46875 0,-1.3125 0.75,-2.453125 0.75,-1.140625 2.14063,-1.734375 1.40625,-0.59375 3.39062,-0.59375 3.23438,0 4.85938,1.421875 1.64062,1.40625 1.71875,3.78125 l -3.46875,0.140625 q -0.21875,-1.3125 -0.95313,-1.890625 -0.73437,-0.59375 -2.20312,-0.59375 -1.5,0 -2.35938,0.625 -0.54687,0.40625 -0.54687,1.0625 0,0.609375 0.51562,1.046875 0.65625,0.546875 3.1875,1.15625 2.53125,0.59375 3.73438,1.234375 1.21875,0.640625 1.90625,1.75 0.6875,1.09375 0.6875,2.734375 0,1.46875 -0.82813,2.765625 -0.8125,1.28125 -2.3125,1.921875 -1.5,0.625 -3.75,0.625 -3.25,0 -5,-1.5 -1.75,-1.515625 -2.07812,-4.40625 z m 27.86719,-0.71875 3.375,1.0625 q -0.78125,2.8125 -2.57813,4.1875 -1.79687,1.359375 -4.5625,1.359375 -3.42187,0 -5.625,-2.34375 -2.20312,-2.34375 -2.20312,-6.390625 0,-4.296875 2.20312,-6.65625 2.21875,-2.375 5.82813,-2.375 3.15625,0 5.125,1.859375 1.17187,1.09375 1.76562,3.15625 l -3.4375,0.828125 q -0.3125,-1.34375 -1.28125,-2.109375 -0.95312,-0.78125 -2.34375,-0.78125 -1.90625,0 -3.09375,1.375 -1.1875,1.375 -1.1875,4.4375 0,3.265625 1.17188,4.65625 1.17187,1.375 3.04687,1.375 1.375,0 2.375,-0.875 1,-0.890625 1.42188,-2.765625 z m 5.64453,-2.171875 q 0,-2.625 0.78125,-4.40625 0.59375,-1.3125 1.59375,-2.359375 1.01562,-1.046875 2.23437,-1.546875 1.59375,-0.671875 3.70313,-0.671875 3.79687,0 6.0625,2.359375 2.28125,2.34375 2.28125,6.546875 0,4.15625 -2.26563,6.515625 -2.25,2.34375 -6.03125,2.34375 -3.84375,0 -6.10937,-2.34375 -2.25,-2.34375 -2.25,-6.4375 z m 3.57812,-0.125 q 0,2.921875 1.34375,4.4375 1.34375,1.5 3.42188,1.5 2.07812,0 3.40625,-1.484375 1.32812,-1.5 1.32812,-4.5 0,-2.953125 -1.29687,-4.40625 -1.29688,-1.453125 -3.4375,-1.453125 -2.14063,0 -3.45313,1.484375 -1.3125,1.46875 -1.3125,4.421875 z m 15.79297,8.609375 v -17.1875 h 5.5625 q 3.17188,0 4.125,0.265625 1.48438,0.390625 2.46875,1.6875 1,1.28125 1,3.34375 0,1.578125 -0.57812,2.65625 -0.5625,1.078125 -1.45313,1.703125 -0.89062,0.609375 -1.79687,0.796875 -1.25,0.25 -3.59375,0.25 h -2.26563 v 6.484375 z m 3.46875,-14.28125 v 4.875 h 1.89063 q 2.0625,0 2.75,-0.265625 0.6875,-0.265625 1.07812,-0.84375 0.39063,-0.578125 0.39063,-1.328125 0,-0.9375 -0.54688,-1.546875 -0.54687,-0.609375 -1.39062,-0.765625 -0.625,-0.125 -2.5,-0.125 z m 22.92969,11.21875 v 3.0625 h -11.54687 q 0.1875,-1.734375 1.125,-3.28125 0.9375,-1.5625 3.70312,-4.125 2.23438,-2.078125 2.73438,-2.8125 0.6875,-1.015625 0.6875,-2.015625 0,-1.109375 -0.59375,-1.6875 -0.59375,-0.59375 -1.64063,-0.59375 -1.03125,0 -1.64062,0.625 -0.60938,0.609375 -0.70313,2.046875 l -3.28125,-0.328125 q 0.29688,-2.71875 1.84375,-3.890625 1.54688,-1.1875 3.85938,-1.1875 2.54687,0 4,1.375 1.45312,1.359375 1.45312,3.40625 0,1.15625 -0.42187,2.203125 -0.40625,1.046875 -1.3125,2.203125 -0.59375,0.765625 -2.15625,2.203125 -1.5625,1.421875 -1.98438,1.890625 -0.40625,0.46875 -0.65625,0.90625 z"
       fill-rule="nonzero"
       id="path57" />
  </g>
</svg>
