<?xml version="1.0" encoding="UTF-8" standalone="no"?>
<svg
   version="1.1"
   xml:space="preserve"
   width="300px"
   height="300px"
   viewBox="0 0 300 300"
   id="svg15"
   sodipodi:docname="ALF.svg"
   inkscape:export-filename="ALF.pdf"
   inkscape:export-xdpi="96"
   inkscape:export-ydpi="96"
   inkscape:version="1.3.2 (091e20e, 2023-11-25)"
   xmlns:inkscape="http://www.inkscape.org/namespaces/inkscape"
   xmlns:sodipodi="http://sodipodi.sourceforge.net/DTD/sodipodi-0.dtd"
   xmlns="http://www.w3.org/2000/svg"
   xmlns:svg="http://www.w3.org/2000/svg"><defs
   id="defs15" /><sodipodi:namedview
   id="namedview15"
   pagecolor="#ffffff"
   bordercolor="#000000"
   borderopacity="0.25"
   inkscape:showpageshadow="2"
   inkscape:pageopacity="0.0"
   inkscape:pagecheckerboard="0"
   inkscape:deskcolor="#d1d1d1"
   inkscape:zoom="0.78666667"
   inkscape:cx="149.36441"
   inkscape:cy="150"
   inkscape:window-width="1312"
   inkscape:window-height="449"
   inkscape:window-x="1440"
   inkscape:window-y="56"
   inkscape:window-maximized="0"
   inkscape:current-layer="svg15" />
<!-- END OF HEADER -->
<rect
   style="opacity:1.0;fill:#FFFFFF;stroke:none"
   width="300.0"
   height="300.0"
   x="0.0"
   y="0.0"
   id="rect1"> </rect>
<path
   class="bond-0 atom-0 atom-1"
   d="M 46.8,209.6 L 88.6,185.4"
   style="fill:none;fill-rule:evenodd;stroke:#33CCCC;stroke-width:2.0px;stroke-linecap:butt;stroke-linejoin:miter;stroke-opacity:1"
   id="path1" />
<path
   class="bond-0 atom-0 atom-1"
   d="M 88.6,185.4 L 130.5,161.3"
   style="fill:none;fill-rule:evenodd;stroke:#000000;stroke-width:2.0px;stroke-linecap:butt;stroke-linejoin:miter;stroke-opacity:1"
   id="path2" />
<path
   class="bond-1 atom-1 atom-2"
   d="M 174.1,136.1 L 213.6,113.3"
   style="fill:none;fill-rule:evenodd;stroke:#000000;stroke-width:2.0px;stroke-linecap:butt;stroke-linejoin:miter;stroke-opacity:1"
   id="path3" />
<path
   class="bond-1 atom-1 atom-2"
   d="M 213.6,113.3 L 253.2,90.4"
   style="fill:none;fill-rule:evenodd;stroke:#33CCCC;stroke-width:2.0px;stroke-linecap:butt;stroke-linejoin:miter;stroke-opacity:1"
   id="path4" />
<path
   class="bond-2 atom-1 atom-3"
   d="M 161.3,169.6 L 183.8,208.5"
   style="fill:none;fill-rule:evenodd;stroke:#000000;stroke-width:2.0px;stroke-linecap:butt;stroke-linejoin:miter;stroke-opacity:1"
   id="path5" />
<path
   class="bond-2 atom-1 atom-3"
   d="M 183.8,208.5 L 206.3,247.4"
   style="fill:none;fill-rule:evenodd;stroke:#33CCCC;stroke-width:2.0px;stroke-linecap:butt;stroke-linejoin:miter;stroke-opacity:1"
   id="path6" />
<path
   class="bond-3 atom-1 atom-4"
   d="M 139.9,132.4 L 116.8,92.5"
   style="fill:none;fill-rule:evenodd;stroke:#000000;stroke-width:2.0px;stroke-linecap:butt;stroke-linejoin:miter;stroke-opacity:1"
   id="path7" />
<path
   class="bond-3 atom-1 atom-4"
   d="M 116.8,92.5 L 93.7,52.6"
   style="fill:none;fill-rule:evenodd;stroke:#33CCCC;stroke-width:2.0px;stroke-linecap:butt;stroke-linejoin:miter;stroke-opacity:1"
   id="path8" />
<path
   class="atom-0"
   d="M 25.6 202.8 L 42.4 202.8 L 42.4 206.1 L 29.4 206.1 L 29.4 214.7 L 41.0 214.7 L 41.0 217.9 L 29.4 217.9 L 29.4 231.1 L 25.6 231.1 L 25.6 202.8 "
   fill="#33CCCC"
   id="path9" />
<path
   class="atom-1"
   d="M 155.8 165.2 L 152.8 156.9 L 141.6 156.9 L 138.7 165.2 L 134.9 165.2 L 144.7 136.9 L 149.4 136.9 L 159.5 165.2 L 155.8 165.2 M 142.7 153.7 L 151.7 153.7 L 147.1 140.8 L 142.7 153.7 "
   fill="#000000"
   id="path10" />
<path
   class="atom-1"
   d="M 161.4 134.8 L 165.1 134.8 L 165.1 165.2 L 161.4 165.2 L 161.4 134.8 "
   fill="#000000"
   id="path11" />
<path
   class="atom-1"
   d="M 170.0 140.5 L 179.7 140.5 L 179.7 142.6 L 170.0 142.6 L 170.0 140.5 "
   fill="#000000"
   id="path12" />
<path
   class="atom-2"
   d="M 257.6 68.9 L 274.4 68.9 L 274.4 72.1 L 261.4 72.1 L 261.4 80.7 L 273.0 80.7 L 273.0 84.0 L 261.4 84.0 L 261.4 97.2 L 257.6 97.2 L 257.6 68.9 "
   fill="#33CCCC"
   id="path13" />
<path
   class="atom-3"
   d="M 208.6 251.9 L 225.4 251.9 L 225.4 255.1 L 212.4 255.1 L 212.4 263.7 L 224.0 263.7 L 224.0 267.0 L 212.4 267.0 L 212.4 280.2 L 208.6 280.2 L 208.6 251.9 "
   fill="#33CCCC"
   id="path14" />
<path
   class="atom-4"
   d="M 74.6 19.8 L 91.4 19.8 L 91.4 23.1 L 78.4 23.1 L 78.4 31.7 L 90.0 31.7 L 90.0 34.9 L 78.4 34.9 L 78.4 48.1 L 74.6 48.1 L 74.6 19.8 "
   fill="#33CCCC"
   id="path15" />
</svg>
