<?xml version="1.0" encoding="UTF-8" standalone="no"?>
<svg
   version="1.1"
   xml:space="preserve"
   width="300px"
   height="300px"
   viewBox="0 0 300 300"
   id="svg12"
   sodipodi:docname="BEF.svg"
   inkscape:export-filename="BEF.pdf"
   inkscape:export-xdpi="96"
   inkscape:export-ydpi="96"
   inkscape:version="1.3.2 (091e20e, 2023-11-25)"
   xmlns:inkscape="http://www.inkscape.org/namespaces/inkscape"
   xmlns:sodipodi="http://sodipodi.sourceforge.net/DTD/sodipodi-0.dtd"
   xmlns="http://www.w3.org/2000/svg"
   xmlns:svg="http://www.w3.org/2000/svg"><defs
   id="defs12" /><sodipodi:namedview
   id="namedview12"
   pagecolor="#ffffff"
   bordercolor="#000000"
   borderopacity="0.25"
   inkscape:showpageshadow="2"
   inkscape:pageopacity="0.0"
   inkscape:pagecheckerboard="0"
   inkscape:deskcolor="#d1d1d1"
   inkscape:zoom="0.78666667"
   inkscape:cx="149.36441"
   inkscape:cy="150"
   inkscape:window-width="1312"
   inkscape:window-height="449"
   inkscape:window-x="1440"
   inkscape:window-y="56"
   inkscape:window-maximized="0"
   inkscape:current-layer="svg12" />
<!-- END OF HEADER -->
<rect
   style="opacity:1.0;fill:#FFFFFF;stroke:none"
   width="300.0"
   height="300.0"
   x="0.0"
   y="0.0"
   id="rect1"> </rect>
<path
   class="bond-0 atom-0 atom-1"
   d="M 259.9,51.0 L 214.9,77.0"
   style="fill:none;fill-rule:evenodd;stroke:#33CCCC;stroke-width:2.0px;stroke-linecap:butt;stroke-linejoin:miter;stroke-opacity:1"
   id="path1" />
<path
   class="bond-0 atom-0 atom-1"
   d="M 214.9,77.0 L 169.8,103.0"
   style="fill:none;fill-rule:evenodd;stroke:#000000;stroke-width:2.0px;stroke-linecap:butt;stroke-linejoin:miter;stroke-opacity:1"
   id="path2" />
<path
   class="bond-1 atom-1 atom-2"
   d="M 124.8,99.9 L 82.4,75.5"
   style="fill:none;fill-rule:evenodd;stroke:#000000;stroke-width:2.0px;stroke-linecap:butt;stroke-linejoin:miter;stroke-opacity:1"
   id="path3" />
<path
   class="bond-1 atom-1 atom-2"
   d="M 82.4,75.5 L 40.1,51.0"
   style="fill:none;fill-rule:evenodd;stroke:#33CCCC;stroke-width:2.0px;stroke-linecap:butt;stroke-linejoin:miter;stroke-opacity:1"
   id="path4" />
<path
   class="bond-2 atom-1 atom-3"
   d="M 150.0,133.7 L 150.0,185.7"
   style="fill:none;fill-rule:evenodd;stroke:#000000;stroke-width:2.0px;stroke-linecap:butt;stroke-linejoin:miter;stroke-opacity:1"
   id="path5" />
<path
   class="bond-2 atom-1 atom-3"
   d="M 150.0,185.7 L 150.0,237.7"
   style="fill:none;fill-rule:evenodd;stroke:#33CCCC;stroke-width:2.0px;stroke-linecap:butt;stroke-linejoin:miter;stroke-opacity:1"
   id="path6" />
<path
   class="atom-0"
   d="M 264.6 29.3 L 281.5 29.3 L 281.5 32.5 L 268.4 32.5 L 268.4 41.1 L 280.0 41.1 L 280.0 44.4 L 268.4 44.4 L 268.4 57.6 L 264.6 57.6 L 264.6 29.3 "
   fill="#33CCCC"
   id="path7" />
<path
   class="atom-1"
   d="M 143.3 113.8 Q 146.0 114.5, 147.3 116.2 Q 148.7 117.8, 148.7 120.3 Q 148.7 124.2, 146.2 126.4 Q 143.7 128.6, 139.0 128.6 L 129.5 128.6 L 129.5 100.3 L 137.9 100.3 Q 142.7 100.3, 145.1 102.3 Q 147.6 104.2, 147.6 107.8 Q 147.6 112.1, 143.3 113.8 M 133.3 103.5 L 133.3 112.4 L 137.9 112.4 Q 140.7 112.4, 142.1 111.3 Q 143.6 110.1, 143.6 107.8 Q 143.6 103.5, 137.9 103.5 L 133.3 103.5 M 139.0 125.4 Q 141.8 125.4, 143.3 124.1 Q 144.7 122.8, 144.7 120.3 Q 144.7 118.0, 143.1 116.8 Q 141.5 115.6, 138.4 115.6 L 133.3 115.6 L 133.3 125.4 L 139.0 125.4 "
   fill="#000000"
   id="path8" />
<path
   class="atom-1"
   d="M 152.3 118.3 Q 152.3 113.3, 154.8 110.5 Q 157.3 107.7, 161.9 107.7 Q 166.5 107.7, 168.5 110.4 Q 170.5 113.1, 170.5 118.2 L 170.5 118.8 L 156.1 118.8 Q 156.2 122.3, 157.8 124.2 Q 159.3 126.0, 162.3 126.0 Q 163.9 126.0, 165.3 125.6 Q 166.8 125.2, 168.6 124.4 L 169.7 127.0 Q 167.7 128.0, 165.8 128.5 Q 164.0 129.0, 162.1 129.0 Q 157.4 129.0, 154.9 126.2 Q 152.3 123.4, 152.3 118.3 M 161.9 110.7 Q 159.6 110.7, 158.1 112.0 Q 156.7 113.4, 156.3 116.0 L 166.5 116.0 Q 166.3 113.3, 165.1 112.0 Q 164.0 110.7, 161.9 110.7 "
   fill="#000000"
   id="path9" />
<path
   class="atom-1"
   d="M 173.8 108.5 L 183.5 108.5 L 183.5 110.7 L 173.8 110.7 L 173.8 108.5 "
   fill="#000000"
   id="path10" />
<path
   class="atom-2"
   d="M 18.5 29.3 L 35.4 29.3 L 35.4 32.5 L 22.3 32.5 L 22.3 41.1 L 33.9 41.1 L 33.9 44.4 L 22.3 44.4 L 22.3 57.6 L 18.5 57.6 L 18.5 29.3 "
   fill="#33CCCC"
   id="path11" />
<path
   class="atom-3"
   d="M 141.6 242.4 L 158.4 242.4 L 158.4 245.6 L 145.4 245.6 L 145.4 254.2 L 157.0 254.2 L 157.0 257.5 L 145.4 257.5 L 145.4 270.7 L 141.6 270.7 L 141.6 242.4 "
   fill="#33CCCC"
   id="path12" />
</svg>
