<?xml version="1.0" encoding="UTF-8" standalone="no"?>
<svg
   version="1.1"
   xml:space="preserve"
   width="300px"
   height="300px"
   viewBox="0 0 300 300"
   id="svg149"
   sodipodi:docname="CLA.svg"
   inkscape:export-filename="CLA.pdf"
   inkscape:export-xdpi="96"
   inkscape:export-ydpi="96"
   inkscape:version="1.3.2 (091e20e, 2023-11-25)"
   xmlns:inkscape="http://www.inkscape.org/namespaces/inkscape"
   xmlns:sodipodi="http://sodipodi.sourceforge.net/DTD/sodipodi-0.dtd"
   xmlns="http://www.w3.org/2000/svg"
   xmlns:svg="http://www.w3.org/2000/svg"><defs
   id="defs149" /><sodipodi:namedview
   id="namedview149"
   pagecolor="#ffffff"
   bordercolor="#000000"
   borderopacity="0.25"
   inkscape:showpageshadow="2"
   inkscape:pageopacity="0.0"
   inkscape:pagecheckerboard="0"
   inkscape:deskcolor="#d1d1d1"
   inkscape:zoom="0.78666667"
   inkscape:cx="149.36441"
   inkscape:cy="150"
   inkscape:window-width="1312"
   inkscape:window-height="449"
   inkscape:window-x="1440"
   inkscape:window-y="56"
   inkscape:window-maximized="0"
   inkscape:current-layer="svg149" />
<!-- END OF HEADER -->
<rect
   style="opacity:1.0;fill:#FFFFFF;stroke:none"
   width="300.0"
   height="300.0"
   x="0.0"
   y="0.0"
   id="rect1"> </rect>
<path
   class="bond-0 atom-0 atom-1"
   d="M 285.0,163.4 L 270.7,174.1"
   style="fill:none;fill-rule:evenodd;stroke:#000000;stroke-width:2.0px;stroke-linecap:butt;stroke-linejoin:miter;stroke-opacity:1"
   id="path1" />
<path
   class="bond-0 atom-0 atom-1"
   d="M 283.4,161.3 L 270.3,171.0"
   style="fill:none;fill-rule:evenodd;stroke:#000000;stroke-width:2.0px;stroke-linecap:butt;stroke-linejoin:miter;stroke-opacity:1"
   id="path2" />
<path
   class="bond-1 atom-1 atom-2"
   d="M 270.7,174.1 L 254.3,167.0"
   style="fill:none;fill-rule:evenodd;stroke:#000000;stroke-width:2.0px;stroke-linecap:butt;stroke-linejoin:miter;stroke-opacity:1"
   id="path3" />
<path
   class="bond-2 atom-2 atom-3"
   d="M 254.3,167.0 L 238.9,176.1"
   style="fill:none;fill-rule:evenodd;stroke:#000000;stroke-width:2.0px;stroke-linecap:butt;stroke-linejoin:miter;stroke-opacity:1"
   id="path4" />
<path
   class="bond-3 atom-3 atom-4"
   d="M 238.9,176.1 L 239.4,194.0"
   style="fill:none;fill-rule:evenodd;stroke:#000000;stroke-width:2.0px;stroke-linecap:butt;stroke-linejoin:miter;stroke-opacity:1"
   id="path5" />
<path
   class="bond-4 atom-3 atom-5"
   d="M 238.9,176.1 L 225.5,164.3"
   style="fill:none;fill-rule:evenodd;stroke:#000000;stroke-width:2.0px;stroke-linecap:butt;stroke-linejoin:miter;stroke-opacity:1"
   id="path6" />
<path
   class="bond-4 atom-3 atom-5"
   d="M 239.2,172.8 L 228.7,163.6"
   style="fill:none;fill-rule:evenodd;stroke:#000000;stroke-width:2.0px;stroke-linecap:butt;stroke-linejoin:miter;stroke-opacity:1"
   id="path7" />
<path
   class="bond-5 atom-5 atom-6"
   d="M 225.5,164.3 L 228.3,157.7"
   style="fill:none;fill-rule:evenodd;stroke:#000000;stroke-width:2.0px;stroke-linecap:butt;stroke-linejoin:miter;stroke-opacity:1"
   id="path8" />
<path
   class="bond-5 atom-5 atom-6"
   d="M 228.3,157.7 L 231.2,151.0"
   style="fill:none;fill-rule:evenodd;stroke:#0000FF;stroke-width:2.0px;stroke-linecap:butt;stroke-linejoin:miter;stroke-opacity:1"
   id="path9" />
<path
   class="bond-6 atom-6 atom-7"
   d="M 235.1,148.1 L 242.7,148.8"
   style="fill:none;fill-rule:evenodd;stroke:#0000FF;stroke-width:2.0px;stroke-linecap:butt;stroke-linejoin:miter;stroke-opacity:1"
   id="path10" />
<path
   class="bond-6 atom-6 atom-7"
   d="M 242.7,148.8 L 250.3,149.6"
   style="fill:none;fill-rule:evenodd;stroke:#000000;stroke-width:2.0px;stroke-linecap:butt;stroke-linejoin:miter;stroke-opacity:1"
   id="path11" />
<path
   class="bond-7 atom-7 atom-8"
   d="M 250.3,149.6 L 260.7,135.0"
   style="fill:none;fill-rule:evenodd;stroke:#000000;stroke-width:2.0px;stroke-linecap:butt;stroke-linejoin:miter;stroke-opacity:1"
   id="path12" />
<path
   class="bond-8 atom-8 atom-9"
   d="M 260.7,135.0 L 253.2,118.7"
   style="fill:none;fill-rule:evenodd;stroke:#000000;stroke-width:2.0px;stroke-linecap:butt;stroke-linejoin:miter;stroke-opacity:1"
   id="path13" />
<path
   class="bond-8 atom-8 atom-9"
   d="M 257.6,134.7 L 251.4,121.3"
   style="fill:none;fill-rule:evenodd;stroke:#000000;stroke-width:2.0px;stroke-linecap:butt;stroke-linejoin:miter;stroke-opacity:1"
   id="path14" />
<path
   class="bond-9 atom-9 atom-10"
   d="M 253.2,118.7 L 260.3,102.3"
   style="fill:none;fill-rule:evenodd;stroke:#000000;stroke-width:2.0px;stroke-linecap:butt;stroke-linejoin:miter;stroke-opacity:1"
   id="path15" />
<path
   class="bond-10 atom-10 atom-11"
   d="M 260.3,102.3 L 277.7,98.4"
   style="fill:none;fill-rule:evenodd;stroke:#000000;stroke-width:2.0px;stroke-linecap:butt;stroke-linejoin:miter;stroke-opacity:1"
   id="path16" />
<path
   class="bond-11 atom-10 atom-12"
   d="M 260.3,102.3 L 246.9,90.5"
   style="fill:none;fill-rule:evenodd;stroke:#000000;stroke-width:2.0px;stroke-linecap:butt;stroke-linejoin:miter;stroke-opacity:1"
   id="path17" />
<path
   class="bond-11 atom-10 atom-12"
   d="M 257.1,103.1 L 246.6,93.8"
   style="fill:none;fill-rule:evenodd;stroke:#000000;stroke-width:2.0px;stroke-linecap:butt;stroke-linejoin:miter;stroke-opacity:1"
   id="path18" />
<path
   class="bond-12 atom-12 atom-13"
   d="M 246.9,90.5 L 248.6,72.8"
   style="fill:none;fill-rule:evenodd;stroke:#000000;stroke-width:2.0px;stroke-linecap:butt;stroke-linejoin:miter;stroke-opacity:1"
   id="path19" />
<path
   class="bond-13 atom-13 atom-14"
   d="M 248.6,72.8 L 234.0,62.4"
   style="fill:none;fill-rule:evenodd;stroke:#000000;stroke-width:2.0px;stroke-linecap:butt;stroke-linejoin:miter;stroke-opacity:1"
   id="path20" />
<path
   class="bond-14 atom-12 atom-15"
   d="M 246.9,90.5 L 231.5,99.7"
   style="fill:none;fill-rule:evenodd;stroke:#000000;stroke-width:2.0px;stroke-linecap:butt;stroke-linejoin:miter;stroke-opacity:1"
   id="path21" />
<path
   class="bond-15 atom-15 atom-16"
   d="M 231.5,99.7 L 233.1,106.8"
   style="fill:none;fill-rule:evenodd;stroke:#000000;stroke-width:2.0px;stroke-linecap:butt;stroke-linejoin:miter;stroke-opacity:1"
   id="path22" />
<path
   class="bond-15 atom-15 atom-16"
   d="M 233.1,106.8 L 234.7,114.0"
   style="fill:none;fill-rule:evenodd;stroke:#0000FF;stroke-width:2.0px;stroke-linecap:butt;stroke-linejoin:miter;stroke-opacity:1"
   id="path23" />
<path
   class="bond-15 atom-15 atom-16"
   d="M 234.6,101.0 L 235.9,107.2"
   style="fill:none;fill-rule:evenodd;stroke:#000000;stroke-width:2.0px;stroke-linecap:butt;stroke-linejoin:miter;stroke-opacity:1"
   id="path24" />
<path
   class="bond-15 atom-15 atom-16"
   d="M 235.9,107.2 L 237.3,113.4"
   style="fill:none;fill-rule:evenodd;stroke:#0000FF;stroke-width:2.0px;stroke-linecap:butt;stroke-linejoin:miter;stroke-opacity:1"
   id="path25" />
<path
   class="bond-16 atom-16 atom-17"
   d="M 233.2,120.2 L 229.8,125.0"
   style="fill:none;fill-rule:evenodd;stroke:#0000FF;stroke-width:2.0px;stroke-linecap:butt;stroke-linejoin:miter;stroke-opacity:1"
   id="path26" />
<path
   class="bond-16 atom-16 atom-17"
   d="M 229.8,125.0 L 226.8,129.3"
   style="fill:none;fill-rule:evenodd;stroke:#000000;stroke-width:2.0px;stroke-linecap:butt;stroke-linejoin:miter;stroke-opacity:1"
   id="path27" />
<path
   class="bond-16 atom-16 atom-17"
   d="M 227.8,126.7 L 226.8,129.3 L 228.9,127.5 Z"
   style="fill:#000000;fill-rule:evenodd;fill-opacity:1;stroke:#000000;stroke-width:2.0px;stroke-linecap:butt;stroke-linejoin:miter;stroke-opacity:1;"
   id="path28" />
<path
   class="bond-17 atom-18 atom-17"
   d="M 225.5,146.4 L 225.3,140.6"
   style="fill:none;fill-rule:evenodd;stroke:#0000FF;stroke-width:2.0px;stroke-linecap:butt;stroke-linejoin:miter;stroke-opacity:1"
   id="path29" />
<path
   class="bond-17 atom-18 atom-17"
   d="M 225.3,140.6 L 225.2,135.4"
   style="fill:none;fill-rule:evenodd;stroke:#000000;stroke-width:2.0px;stroke-linecap:butt;stroke-linejoin:miter;stroke-opacity:1"
   id="path30" />
<path
   class="bond-17 atom-18 atom-17"
   d="M 226.0,138.0 L 225.2,135.4 L 224.5,138.0 Z"
   style="fill:#000000;fill-rule:evenodd;fill-opacity:1;stroke:#000000;stroke-width:2.0px;stroke-linecap:butt;stroke-linejoin:miter;stroke-opacity:1;"
   id="path31" />
<path
   class="bond-18 atom-18 atom-19"
   d="M 223.0,151.1 L 216.7,155.0"
   style="fill:none;fill-rule:evenodd;stroke:#0000FF;stroke-width:2.0px;stroke-linecap:butt;stroke-linejoin:miter;stroke-opacity:1"
   id="path32" />
<path
   class="bond-18 atom-18 atom-19"
   d="M 216.7,155.0 L 210.3,158.8"
   style="fill:none;fill-rule:evenodd;stroke:#000000;stroke-width:2.0px;stroke-linecap:butt;stroke-linejoin:miter;stroke-opacity:1"
   id="path33" />
<path
   class="bond-18 atom-18 atom-19"
   d="M 224.4,153.3 L 218.9,156.7"
   style="fill:none;fill-rule:evenodd;stroke:#0000FF;stroke-width:2.0px;stroke-linecap:butt;stroke-linejoin:miter;stroke-opacity:1"
   id="path34" />
<path
   class="bond-18 atom-18 atom-19"
   d="M 218.9,156.7 L 213.4,160.1"
   style="fill:none;fill-rule:evenodd;stroke:#000000;stroke-width:2.0px;stroke-linecap:butt;stroke-linejoin:miter;stroke-opacity:1"
   id="path35" />
<path
   class="bond-19 atom-19 atom-20"
   d="M 210.3,158.8 L 188.3,154.2"
   style="fill:none;fill-rule:evenodd;stroke:#000000;stroke-width:2.0px;stroke-linecap:butt;stroke-linejoin:miter;stroke-opacity:1"
   id="path36" />
<path
   class="bond-20 atom-20 atom-21"
   d="M 188.3,154.2 L 193.6,137.1"
   style="fill:none;fill-rule:evenodd;stroke:#000000;stroke-width:2.0px;stroke-linecap:butt;stroke-linejoin:miter;stroke-opacity:1"
   id="path37" />
<path
   class="bond-20 atom-20 atom-21"
   d="M 191.7,152.2 L 195.9,138.8"
   style="fill:none;fill-rule:evenodd;stroke:#000000;stroke-width:2.0px;stroke-linecap:butt;stroke-linejoin:miter;stroke-opacity:1"
   id="path38" />
<path
   class="bond-21 atom-21 atom-22"
   d="M 193.6,137.1 L 179.0,126.8"
   style="fill:none;fill-rule:evenodd;stroke:#000000;stroke-width:2.0px;stroke-linecap:butt;stroke-linejoin:miter;stroke-opacity:1"
   id="path39" />
<path
   class="bond-22 atom-22 atom-23"
   d="M 179.0,126.8 L 184.3,109.8"
   style="fill:none;fill-rule:evenodd;stroke:#000000;stroke-width:2.0px;stroke-linecap:butt;stroke-linejoin:miter;stroke-opacity:1"
   id="path40" />
<path
   class="bond-22 atom-22 atom-23"
   d="M 182.1,125.8 L 186.3,112.4"
   style="fill:none;fill-rule:evenodd;stroke:#000000;stroke-width:2.0px;stroke-linecap:butt;stroke-linejoin:miter;stroke-opacity:1"
   id="path41" />
<path
   class="bond-23 atom-23 atom-24"
   d="M 184.3,109.8 L 173.7,95.4"
   style="fill:none;fill-rule:evenodd;stroke:#000000;stroke-width:2.0px;stroke-linecap:butt;stroke-linejoin:miter;stroke-opacity:1"
   id="path42" />
<path
   class="bond-24 atom-23 atom-25"
   d="M 184.3,109.8 L 202.2,109.6"
   style="fill:none;fill-rule:evenodd;stroke:#000000;stroke-width:2.0px;stroke-linecap:butt;stroke-linejoin:miter;stroke-opacity:1"
   id="path43" />
<path
   class="bond-25 atom-25 atom-26"
   d="M 202.2,109.6 L 204.5,116.5"
   style="fill:none;fill-rule:evenodd;stroke:#000000;stroke-width:2.0px;stroke-linecap:butt;stroke-linejoin:miter;stroke-opacity:1"
   id="path44" />
<path
   class="bond-25 atom-25 atom-26"
   d="M 204.5,116.5 L 206.9,123.4"
   style="fill:none;fill-rule:evenodd;stroke:#0000FF;stroke-width:2.0px;stroke-linecap:butt;stroke-linejoin:miter;stroke-opacity:1"
   id="path45" />
<path
   class="bond-26 atom-25 atom-27"
   d="M 202.2,109.6 L 214.0,96.1"
   style="fill:none;fill-rule:evenodd;stroke:#000000;stroke-width:2.0px;stroke-linecap:butt;stroke-linejoin:miter;stroke-opacity:1"
   id="path46" />
<path
   class="bond-26 atom-25 atom-27"
   d="M 205.2,110.2 L 215.0,99.1"
   style="fill:none;fill-rule:evenodd;stroke:#000000;stroke-width:2.0px;stroke-linecap:butt;stroke-linejoin:miter;stroke-opacity:1"
   id="path47" />
<path
   class="bond-27 atom-22 atom-28"
   d="M 179.0,126.8 L 164.7,137.5"
   style="fill:none;fill-rule:evenodd;stroke:#000000;stroke-width:2.0px;stroke-linecap:butt;stroke-linejoin:miter;stroke-opacity:1"
   id="path48" />
<path
   class="bond-28 atom-28 atom-29"
   d="M 166.0,136.5 L 158.5,134.1"
   style="fill:none;fill-rule:evenodd;stroke:#000000;stroke-width:2.0px;stroke-linecap:butt;stroke-linejoin:miter;stroke-opacity:1"
   id="path49" />
<path
   class="bond-28 atom-28 atom-29"
   d="M 158.5,134.1 L 150.9,131.8"
   style="fill:none;fill-rule:evenodd;stroke:#FF0000;stroke-width:2.0px;stroke-linecap:butt;stroke-linejoin:miter;stroke-opacity:1"
   id="path50" />
<path
   class="bond-28 atom-28 atom-29"
   d="M 165.2,139.0 L 157.7,136.7"
   style="fill:none;fill-rule:evenodd;stroke:#000000;stroke-width:2.0px;stroke-linecap:butt;stroke-linejoin:miter;stroke-opacity:1"
   id="path51" />
<path
   class="bond-28 atom-28 atom-29"
   d="M 157.7,136.7 L 150.1,134.3"
   style="fill:none;fill-rule:evenodd;stroke:#FF0000;stroke-width:2.0px;stroke-linecap:butt;stroke-linejoin:miter;stroke-opacity:1"
   id="path52" />
<path
   class="bond-29 atom-28 atom-30"
   d="M 164.7,137.5 L 170.4,154.4"
   style="fill:none;fill-rule:evenodd;stroke:#000000;stroke-width:2.0px;stroke-linecap:butt;stroke-linejoin:miter;stroke-opacity:1"
   id="path53" />
<path
   class="bond-30 atom-30 atom-31"
   d="M 170.4,154.4 L 160.1,169.0"
   style="fill:none;fill-rule:evenodd;stroke:#000000;stroke-width:2.0px;stroke-linecap:butt;stroke-linejoin:miter;stroke-opacity:1"
   id="path54" />
<path
   class="bond-31 atom-31 atom-32"
   d="M 158.5,168.8 L 161.7,175.7"
   style="fill:none;fill-rule:evenodd;stroke:#000000;stroke-width:2.0px;stroke-linecap:butt;stroke-linejoin:miter;stroke-opacity:1"
   id="path55" />
<path
   class="bond-31 atom-31 atom-32"
   d="M 161.7,175.7 L 164.9,182.6"
   style="fill:none;fill-rule:evenodd;stroke:#FF0000;stroke-width:2.0px;stroke-linecap:butt;stroke-linejoin:miter;stroke-opacity:1"
   id="path56" />
<path
   class="bond-31 atom-31 atom-32"
   d="M 160.9,167.7 L 164.1,174.6"
   style="fill:none;fill-rule:evenodd;stroke:#000000;stroke-width:2.0px;stroke-linecap:butt;stroke-linejoin:miter;stroke-opacity:1"
   id="path57" />
<path
   class="bond-31 atom-31 atom-32"
   d="M 164.1,174.6 L 167.3,181.5"
   style="fill:none;fill-rule:evenodd;stroke:#FF0000;stroke-width:2.0px;stroke-linecap:butt;stroke-linejoin:miter;stroke-opacity:1"
   id="path58" />
<path
   class="bond-32 atom-31 atom-33"
   d="M 160.1,169.0 L 152.6,168.3"
   style="fill:none;fill-rule:evenodd;stroke:#000000;stroke-width:2.0px;stroke-linecap:butt;stroke-linejoin:miter;stroke-opacity:1"
   id="path59" />
<path
   class="bond-32 atom-31 atom-33"
   d="M 152.6,168.3 L 145.2,167.6"
   style="fill:none;fill-rule:evenodd;stroke:#FF0000;stroke-width:2.0px;stroke-linecap:butt;stroke-linejoin:miter;stroke-opacity:1"
   id="path60" />
<path
   class="bond-33 atom-33 atom-34"
   d="M 140.0,170.5 L 136.0,176.2"
   style="fill:none;fill-rule:evenodd;stroke:#FF0000;stroke-width:2.0px;stroke-linecap:butt;stroke-linejoin:miter;stroke-opacity:1"
   id="path61" />
<path
   class="bond-33 atom-33 atom-34"
   d="M 136.0,176.2 L 131.9,181.9"
   style="fill:none;fill-rule:evenodd;stroke:#000000;stroke-width:2.0px;stroke-linecap:butt;stroke-linejoin:miter;stroke-opacity:1"
   id="path62" />
<path
   class="bond-34 atom-19 atom-35"
   d="M 210.3,158.8 L 214.5,176.2"
   style="fill:none;fill-rule:evenodd;stroke:#000000;stroke-width:2.0px;stroke-linecap:butt;stroke-linejoin:miter;stroke-opacity:1"
   id="path63" />
<path
   class="bond-35 atom-35 atom-36"
   d="M 214.5,176.2 L 202.9,189.8"
   style="fill:none;fill-rule:evenodd;stroke:#000000;stroke-width:2.0px;stroke-linecap:butt;stroke-linejoin:miter;stroke-opacity:1"
   id="path64" />
<path
   class="bond-36 atom-36 atom-37"
   d="M 202.9,189.8 L 185.3,186.5"
   style="fill:none;fill-rule:evenodd;stroke:#000000;stroke-width:2.0px;stroke-linecap:butt;stroke-linejoin:miter;stroke-opacity:1"
   id="path65" />
<path
   class="bond-37 atom-37 atom-38"
   d="M 185.3,186.5 L 173.7,200.1"
   style="fill:none;fill-rule:evenodd;stroke:#000000;stroke-width:2.0px;stroke-linecap:butt;stroke-linejoin:miter;stroke-opacity:1"
   id="path66" />
<path
   class="bond-38 atom-38 atom-39"
   d="M 172.2,199.8 L 174.7,207.0"
   style="fill:none;fill-rule:evenodd;stroke:#000000;stroke-width:2.0px;stroke-linecap:butt;stroke-linejoin:miter;stroke-opacity:1"
   id="path67" />
<path
   class="bond-38 atom-38 atom-39"
   d="M 174.7,207.0 L 177.3,214.3"
   style="fill:none;fill-rule:evenodd;stroke:#FF0000;stroke-width:2.0px;stroke-linecap:butt;stroke-linejoin:miter;stroke-opacity:1"
   id="path68" />
<path
   class="bond-38 atom-38 atom-39"
   d="M 174.7,198.9 L 177.2,206.2"
   style="fill:none;fill-rule:evenodd;stroke:#000000;stroke-width:2.0px;stroke-linecap:butt;stroke-linejoin:miter;stroke-opacity:1"
   id="path69" />
<path
   class="bond-38 atom-38 atom-39"
   d="M 177.2,206.2 L 179.8,213.4"
   style="fill:none;fill-rule:evenodd;stroke:#FF0000;stroke-width:2.0px;stroke-linecap:butt;stroke-linejoin:miter;stroke-opacity:1"
   id="path70" />
<path
   class="bond-39 atom-38 atom-40"
   d="M 173.7,200.1 L 166.4,198.8"
   style="fill:none;fill-rule:evenodd;stroke:#000000;stroke-width:2.0px;stroke-linecap:butt;stroke-linejoin:miter;stroke-opacity:1"
   id="path71" />
<path
   class="bond-39 atom-38 atom-40"
   d="M 166.4,198.8 L 159.0,197.4"
   style="fill:none;fill-rule:evenodd;stroke:#FF0000;stroke-width:2.0px;stroke-linecap:butt;stroke-linejoin:miter;stroke-opacity:1"
   id="path72" />
<path
   class="bond-40 atom-40 atom-41"
   d="M 153.4,200.1 L 148.9,205.2"
   style="fill:none;fill-rule:evenodd;stroke:#FF0000;stroke-width:2.0px;stroke-linecap:butt;stroke-linejoin:miter;stroke-opacity:1"
   id="path73" />
<path
   class="bond-40 atom-40 atom-41"
   d="M 148.9,205.2 L 144.5,210.4"
   style="fill:none;fill-rule:evenodd;stroke:#000000;stroke-width:2.0px;stroke-linecap:butt;stroke-linejoin:miter;stroke-opacity:1"
   id="path74" />
<path
   class="bond-41 atom-41 atom-42"
   d="M 144.5,210.4 L 126.9,207.2"
   style="fill:none;fill-rule:evenodd;stroke:#000000;stroke-width:2.0px;stroke-linecap:butt;stroke-linejoin:miter;stroke-opacity:1"
   id="path75" />
<path
   class="bond-42 atom-42 atom-43"
   d="M 126.9,207.2 L 115.3,220.7"
   style="fill:none;fill-rule:evenodd;stroke:#000000;stroke-width:2.0px;stroke-linecap:butt;stroke-linejoin:miter;stroke-opacity:1"
   id="path76" />
<path
   class="bond-42 atom-42 atom-43"
   d="M 128.0,210.1 L 118.4,221.3"
   style="fill:none;fill-rule:evenodd;stroke:#000000;stroke-width:2.0px;stroke-linecap:butt;stroke-linejoin:miter;stroke-opacity:1"
   id="path77" />
<path
   class="bond-43 atom-43 atom-44"
   d="M 115.3,220.7 L 121.3,237.6"
   style="fill:none;fill-rule:evenodd;stroke:#000000;stroke-width:2.0px;stroke-linecap:butt;stroke-linejoin:miter;stroke-opacity:1"
   id="path78" />
<path
   class="bond-44 atom-43 atom-45"
   d="M 115.3,220.7 L 97.8,217.5"
   style="fill:none;fill-rule:evenodd;stroke:#000000;stroke-width:2.0px;stroke-linecap:butt;stroke-linejoin:miter;stroke-opacity:1"
   id="path79" />
<path
   class="bond-45 atom-45 atom-46"
   d="M 97.8,217.5 L 91.8,200.6"
   style="fill:none;fill-rule:evenodd;stroke:#000000;stroke-width:2.0px;stroke-linecap:butt;stroke-linejoin:miter;stroke-opacity:1"
   id="path80" />
<path
   class="bond-46 atom-46 atom-47"
   d="M 91.8,200.6 L 74.2,197.4"
   style="fill:none;fill-rule:evenodd;stroke:#000000;stroke-width:2.0px;stroke-linecap:butt;stroke-linejoin:miter;stroke-opacity:1"
   id="path81" />
<path
   class="bond-47 atom-47 atom-48"
   d="M 74.2,197.4 L 68.3,180.5"
   style="fill:none;fill-rule:evenodd;stroke:#000000;stroke-width:2.0px;stroke-linecap:butt;stroke-linejoin:miter;stroke-opacity:1"
   id="path82" />
<path
   class="bond-48 atom-48 atom-49"
   d="M 68.3,180.5 L 50.7,177.2"
   style="fill:none;fill-rule:evenodd;stroke:#000000;stroke-width:2.0px;stroke-linecap:butt;stroke-linejoin:miter;stroke-opacity:1"
   id="path83" />
<path
   class="bond-49 atom-48 atom-50"
   d="M 68.3,180.5 L 79.9,166.9"
   style="fill:none;fill-rule:evenodd;stroke:#000000;stroke-width:2.0px;stroke-linecap:butt;stroke-linejoin:miter;stroke-opacity:1"
   id="path84" />
<path
   class="bond-50 atom-50 atom-51"
   d="M 79.9,166.9 L 73.9,150.1"
   style="fill:none;fill-rule:evenodd;stroke:#000000;stroke-width:2.0px;stroke-linecap:butt;stroke-linejoin:miter;stroke-opacity:1"
   id="path85" />
<path
   class="bond-51 atom-51 atom-52"
   d="M 73.9,150.1 L 85.6,136.5"
   style="fill:none;fill-rule:evenodd;stroke:#000000;stroke-width:2.0px;stroke-linecap:butt;stroke-linejoin:miter;stroke-opacity:1"
   id="path86" />
<path
   class="bond-52 atom-52 atom-53"
   d="M 85.6,136.5 L 79.6,119.7"
   style="fill:none;fill-rule:evenodd;stroke:#000000;stroke-width:2.0px;stroke-linecap:butt;stroke-linejoin:miter;stroke-opacity:1"
   id="path87" />
<path
   class="bond-53 atom-53 atom-54"
   d="M 79.6,119.7 L 91.2,106.1"
   style="fill:none;fill-rule:evenodd;stroke:#000000;stroke-width:2.0px;stroke-linecap:butt;stroke-linejoin:miter;stroke-opacity:1"
   id="path88" />
<path
   class="bond-54 atom-53 atom-55"
   d="M 79.6,119.7 L 62.0,116.4"
   style="fill:none;fill-rule:evenodd;stroke:#000000;stroke-width:2.0px;stroke-linecap:butt;stroke-linejoin:miter;stroke-opacity:1"
   id="path89" />
<path
   class="bond-55 atom-55 atom-56"
   d="M 62.0,116.4 L 56.1,99.5"
   style="fill:none;fill-rule:evenodd;stroke:#000000;stroke-width:2.0px;stroke-linecap:butt;stroke-linejoin:miter;stroke-opacity:1"
   id="path90" />
<path
   class="bond-56 atom-56 atom-57"
   d="M 56.1,99.5 L 38.5,96.3"
   style="fill:none;fill-rule:evenodd;stroke:#000000;stroke-width:2.0px;stroke-linecap:butt;stroke-linejoin:miter;stroke-opacity:1"
   id="path91" />
<path
   class="bond-57 atom-57 atom-58"
   d="M 38.5,96.3 L 32.6,79.4"
   style="fill:none;fill-rule:evenodd;stroke:#000000;stroke-width:2.0px;stroke-linecap:butt;stroke-linejoin:miter;stroke-opacity:1"
   id="path92" />
<path
   class="bond-58 atom-58 atom-59"
   d="M 32.6,79.4 L 15.0,76.2"
   style="fill:none;fill-rule:evenodd;stroke:#000000;stroke-width:2.0px;stroke-linecap:butt;stroke-linejoin:miter;stroke-opacity:1"
   id="path93" />
<path
   class="bond-59 atom-58 atom-60"
   d="M 32.6,79.4 L 44.2,65.8"
   style="fill:none;fill-rule:evenodd;stroke:#000000;stroke-width:2.0px;stroke-linecap:butt;stroke-linejoin:miter;stroke-opacity:1"
   id="path94" />
<path
   class="bond-60 atom-35 atom-61"
   d="M 214.5,176.2 L 232.3,177.6"
   style="fill:none;fill-rule:evenodd;stroke:#000000;stroke-width:2.0px;stroke-linecap:butt;stroke-linejoin:miter;stroke-opacity:1"
   id="path95" />
<path
   class="bond-61 atom-61 atom-62"
   d="M 232.3,177.6 L 239.7,193.9"
   style="fill:none;fill-rule:evenodd;stroke:#000000;stroke-width:2.0px;stroke-linecap:butt;stroke-linejoin:miter;stroke-opacity:1"
   id="path96" />
<path
   class="bond-62 atom-61 atom-63"
   d="M 232.3,177.6 L 239.1,161.1"
   style="fill:none;fill-rule:evenodd;stroke:#000000;stroke-width:2.0px;stroke-linecap:butt;stroke-linejoin:miter;stroke-opacity:1"
   id="path97" />
<path
   class="bond-63 atom-63 atom-64"
   d="M 239.1,161.1 L 242.6,169.5"
   style="fill:none;fill-rule:evenodd;stroke:#000000;stroke-width:2.0px;stroke-linecap:butt;stroke-linejoin:miter;stroke-opacity:1"
   id="path98" />
<path
   class="bond-63 atom-63 atom-64"
   d="M 236.9,162.7 L 238.0,165.3"
   style="fill:none;fill-rule:evenodd;stroke:#000000;stroke-width:2.0px;stroke-linecap:butt;stroke-linejoin:miter;stroke-opacity:1"
   id="path99" />
<path
   class="bond-64 atom-7 atom-2"
   d="M 250.3,149.6 L 254.3,167.0"
   style="fill:none;fill-rule:evenodd;stroke:#000000;stroke-width:2.0px;stroke-linecap:butt;stroke-linejoin:miter;stroke-opacity:1"
   id="path100" />
<path
   class="bond-64 atom-7 atom-2"
   d="M 248.2,152.0 L 251.2,165.7"
   style="fill:none;fill-rule:evenodd;stroke:#000000;stroke-width:2.0px;stroke-linecap:butt;stroke-linejoin:miter;stroke-opacity:1"
   id="path101" />
<path
   class="bond-65 atom-16 atom-9"
   d="M 237.9,117.3 L 245.6,118.0"
   style="fill:none;fill-rule:evenodd;stroke:#0000FF;stroke-width:2.0px;stroke-linecap:butt;stroke-linejoin:miter;stroke-opacity:1"
   id="path102" />
<path
   class="bond-65 atom-16 atom-9"
   d="M 245.6,118.0 L 253.2,118.7"
   style="fill:none;fill-rule:evenodd;stroke:#000000;stroke-width:2.0px;stroke-linecap:butt;stroke-linejoin:miter;stroke-opacity:1"
   id="path103" />
<path
   class="bond-66 atom-26 atom-17"
   d="M 210.4,127.2 L 215.0,128.6"
   style="fill:none;fill-rule:evenodd;stroke:#0000FF;stroke-width:2.0px;stroke-linecap:butt;stroke-linejoin:miter;stroke-opacity:1"
   id="path104" />
<path
   class="bond-66 atom-26 atom-17"
   d="M 215.0,128.6 L 219.5,130.0"
   style="fill:none;fill-rule:evenodd;stroke:#000000;stroke-width:2.0px;stroke-linecap:butt;stroke-linejoin:miter;stroke-opacity:1"
   id="path105" />
<path
   class="bond-67 atom-64 atom-5"
   d="M 242.6,169.5 L 225.5,164.3"
   style="fill:none;fill-rule:evenodd;stroke:#000000;stroke-width:2.0px;stroke-linecap:butt;stroke-linejoin:miter;stroke-opacity:1"
   id="path106" />
<path
   class="bond-68 atom-17 atom-6"
   d="M 227.4,136.6 L 229.2,140.7"
   style="fill:none;fill-rule:evenodd;stroke:#000000;stroke-width:2.0px;stroke-linecap:butt;stroke-linejoin:miter;stroke-opacity:1"
   id="path107" />
<path
   class="bond-68 atom-17 atom-6"
   d="M 229.2,140.7 L 231.1,144.8"
   style="fill:none;fill-rule:evenodd;stroke:#0000FF;stroke-width:2.0px;stroke-linecap:butt;stroke-linejoin:miter;stroke-opacity:1"
   id="path108" />
<path
   class="bond-69 atom-63 atom-18"
   d="M 239.1,161.1 L 233.6,156.4"
   style="fill:none;fill-rule:evenodd;stroke:#000000;stroke-width:2.0px;stroke-linecap:butt;stroke-linejoin:miter;stroke-opacity:1"
   id="path109" />
<path
   class="bond-69 atom-63 atom-18"
   d="M 233.6,156.4 L 228.1,151.7"
   style="fill:none;fill-rule:evenodd;stroke:#0000FF;stroke-width:2.0px;stroke-linecap:butt;stroke-linejoin:miter;stroke-opacity:1"
   id="path110" />
<path
   class="bond-70 atom-27 atom-15"
   d="M 214.0,96.1 L 231.5,99.7"
   style="fill:none;fill-rule:evenodd;stroke:#000000;stroke-width:2.0px;stroke-linecap:butt;stroke-linejoin:miter;stroke-opacity:1"
   id="path111" />
<path
   class="bond-71 atom-30 atom-20"
   d="M 170.4,154.4 L 188.3,154.2"
   style="fill:none;fill-rule:evenodd;stroke:#000000;stroke-width:2.0px;stroke-linecap:butt;stroke-linejoin:miter;stroke-opacity:1"
   id="path112" />
<path
   class="bond-72 atom-26 atom-21"
   d="M 205.4,128.3 L 199.5,132.7"
   style="fill:none;fill-rule:evenodd;stroke:#0000FF;stroke-width:2.0px;stroke-linecap:butt;stroke-linejoin:miter;stroke-opacity:1"
   id="path113" />
<path
   class="bond-72 atom-26 atom-21"
   d="M 199.5,132.7 L 193.6,137.1"
   style="fill:none;fill-rule:evenodd;stroke:#000000;stroke-width:2.0px;stroke-linecap:butt;stroke-linejoin:miter;stroke-opacity:1"
   id="path114" />
<path
   d="M 271.4,173.5 L 270.7,174.1 L 269.8,173.7"
   style="fill:none;stroke:#000000;stroke-width:2.0px;stroke-linecap:butt;stroke-linejoin:miter;stroke-opacity:1;"
   id="path115" />
<path
   d="M 260.2,135.7 L 260.7,135.0 L 260.3,134.2"
   style="fill:none;stroke:#000000;stroke-width:2.0px;stroke-linecap:butt;stroke-linejoin:miter;stroke-opacity:1;"
   id="path116" />
<path
   d="M 248.5,73.6 L 248.6,72.8 L 247.8,72.2"
   style="fill:none;stroke:#000000;stroke-width:2.0px;stroke-linecap:butt;stroke-linejoin:miter;stroke-opacity:1;"
   id="path117" />
<path
   d="M 213.4,96.8 L 214.0,96.1 L 214.9,96.3"
   style="fill:none;stroke:#000000;stroke-width:2.0px;stroke-linecap:butt;stroke-linejoin:miter;stroke-opacity:1;"
   id="path118" />
<path
   d="M 165.4,136.9 L 164.7,137.5 L 165.0,138.3"
   style="fill:none;stroke:#000000;stroke-width:2.0px;stroke-linecap:butt;stroke-linejoin:miter;stroke-opacity:1;"
   id="path119" />
<path
   d="M 160.6,168.3 L 160.1,169.0 L 159.7,169.0"
   style="fill:none;stroke:#000000;stroke-width:2.0px;stroke-linecap:butt;stroke-linejoin:miter;stroke-opacity:1;"
   id="path120" />
<path
   d="M 203.4,189.1 L 202.9,189.8 L 202.0,189.6"
   style="fill:none;stroke:#000000;stroke-width:2.0px;stroke-linecap:butt;stroke-linejoin:miter;stroke-opacity:1;"
   id="path121" />
<path
   d="M 186.2,186.7 L 185.3,186.5 L 184.7,187.2"
   style="fill:none;stroke:#000000;stroke-width:2.0px;stroke-linecap:butt;stroke-linejoin:miter;stroke-opacity:1;"
   id="path122" />
<path
   d="M 174.3,199.4 L 173.7,200.1 L 173.3,200.0"
   style="fill:none;stroke:#000000;stroke-width:2.0px;stroke-linecap:butt;stroke-linejoin:miter;stroke-opacity:1;"
   id="path123" />
<path
   d="M 144.7,210.2 L 144.5,210.4 L 143.6,210.3"
   style="fill:none;stroke:#000000;stroke-width:2.0px;stroke-linecap:butt;stroke-linejoin:miter;stroke-opacity:1;"
   id="path124" />
<path
   d="M 127.8,207.3 L 126.9,207.2 L 126.4,207.8"
   style="fill:none;stroke:#000000;stroke-width:2.0px;stroke-linecap:butt;stroke-linejoin:miter;stroke-opacity:1;"
   id="path125" />
<path
   d="M 98.6,217.6 L 97.8,217.5 L 97.5,216.6"
   style="fill:none;stroke:#000000;stroke-width:2.0px;stroke-linecap:butt;stroke-linejoin:miter;stroke-opacity:1;"
   id="path126" />
<path
   d="M 92.1,201.5 L 91.8,200.6 L 90.9,200.5"
   style="fill:none;stroke:#000000;stroke-width:2.0px;stroke-linecap:butt;stroke-linejoin:miter;stroke-opacity:1;"
   id="path127" />
<path
   d="M 75.1,197.5 L 74.2,197.4 L 73.9,196.5"
   style="fill:none;stroke:#000000;stroke-width:2.0px;stroke-linecap:butt;stroke-linejoin:miter;stroke-opacity:1;"
   id="path128" />
<path
   d="M 79.3,167.6 L 79.9,166.9 L 79.6,166.1"
   style="fill:none;stroke:#000000;stroke-width:2.0px;stroke-linecap:butt;stroke-linejoin:miter;stroke-opacity:1;"
   id="path129" />
<path
   d="M 74.2,150.9 L 73.9,150.1 L 74.5,149.4"
   style="fill:none;stroke:#000000;stroke-width:2.0px;stroke-linecap:butt;stroke-linejoin:miter;stroke-opacity:1;"
   id="path130" />
<path
   d="M 85.0,137.2 L 85.6,136.5 L 85.3,135.7"
   style="fill:none;stroke:#000000;stroke-width:2.0px;stroke-linecap:butt;stroke-linejoin:miter;stroke-opacity:1;"
   id="path131" />
<path
   d="M 62.9,116.6 L 62.0,116.4 L 61.7,115.5"
   style="fill:none;stroke:#000000;stroke-width:2.0px;stroke-linecap:butt;stroke-linejoin:miter;stroke-opacity:1;"
   id="path132" />
<path
   d="M 56.4,100.4 L 56.1,99.5 L 55.2,99.4"
   style="fill:none;stroke:#000000;stroke-width:2.0px;stroke-linecap:butt;stroke-linejoin:miter;stroke-opacity:1;"
   id="path133" />
<path
   d="M 39.4,96.4 L 38.5,96.3 L 38.2,95.4"
   style="fill:none;stroke:#000000;stroke-width:2.0px;stroke-linecap:butt;stroke-linejoin:miter;stroke-opacity:1;"
   id="path134" />
<path
   d="M 242.4,169.1 L 242.6,169.5 L 241.7,169.3"
   style="fill:none;stroke:#000000;stroke-width:2.0px;stroke-linecap:butt;stroke-linejoin:miter;stroke-opacity:1;"
   id="path135" />
<path
   class="atom-6"
   d="M 231.4 145.4 L 233.1 148.0 Q 233.3 148.3, 233.5 148.8 Q 233.8 149.3, 233.8 149.3 L 233.8 145.4 L 234.5 145.4 L 234.5 150.4 L 233.8 150.4 L 232.0 147.5 Q 231.8 147.2, 231.6 146.8 Q 231.4 146.4, 231.3 146.2 L 231.3 150.4 L 230.6 150.4 L 230.6 145.4 L 231.4 145.4 "
   fill="#0000FF"
   id="path136" />
<path
   class="atom-16"
   d="M 234.3 114.6 L 236.0 117.2 Q 236.1 117.5, 236.4 118.0 Q 236.7 118.5, 236.7 118.5 L 236.7 114.6 L 237.4 114.6 L 237.4 119.6 L 236.7 119.6 L 234.9 116.7 Q 234.7 116.3, 234.5 115.9 Q 234.2 115.6, 234.2 115.4 L 234.2 119.6 L 233.5 119.6 L 233.5 114.6 L 234.3 114.6 "
   fill="#0000FF"
   id="path137" />
<path
   class="atom-17"
   d="M 225.9 134.2 L 225.2 134.2 L 224.7 130.1 L 223.3 134.2 L 222.6 134.2 L 221.3 130.1 L 220.7 134.2 L 220.1 134.2 L 220.7 129.1 L 221.6 129.1 L 223.0 133.2 L 224.4 129.1 L 225.2 129.1 L 225.9 134.2 "
   fill="#000000"
   id="path138" />
<path
   class="atom-17"
   d="M 230.1 130.5 L 230.1 134.4 Q 230.1 136.0, 228.4 136.0 Q 227.6 136.0, 226.9 135.6 L 227.1 135.1 Q 227.5 135.3, 227.8 135.4 Q 228.1 135.5, 228.4 135.5 Q 229.0 135.5, 229.2 135.2 Q 229.4 135.0, 229.4 134.4 L 229.4 133.8 Q 229.1 134.2, 228.4 134.2 Q 227.6 134.2, 227.2 133.8 Q 226.8 133.3, 226.8 132.4 Q 226.8 131.5, 227.3 131.0 Q 227.8 130.5, 228.7 130.5 Q 229.1 130.5, 229.6 130.6 L 229.6 130.5 L 230.1 130.5 M 228.4 133.7 Q 228.8 133.7, 229.1 133.5 Q 229.3 133.3, 229.4 132.9 L 229.4 131.1 Q 229.1 131.0, 228.7 131.0 Q 228.1 131.0, 227.8 131.4 Q 227.5 131.7, 227.5 132.4 Q 227.5 133.0, 227.7 133.4 Q 228.0 133.7, 228.4 133.7 "
   fill="#000000"
   id="path139" />
<path
   class="atom-18"
   d="M 224.4 147.0 L 226.1 149.7 Q 226.3 149.9, 226.5 150.4 Q 226.8 150.9, 226.8 150.9 L 226.8 147.0 L 227.5 147.0 L 227.5 152.1 L 226.8 152.1 L 225.0 149.1 Q 224.8 148.8, 224.6 148.4 Q 224.4 148.0, 224.3 147.9 L 224.3 152.1 L 223.6 152.1 L 223.6 147.0 L 224.4 147.0 "
   fill="#0000FF"
   id="path140" />
<path
   class="atom-26"
   d="M 206.8 124.0 L 208.5 126.6 Q 208.6 126.9, 208.9 127.4 Q 209.1 127.9, 209.2 127.9 L 209.2 124.0 L 209.8 124.0 L 209.8 129.0 L 209.1 129.0 L 207.4 126.1 Q 207.2 125.7, 206.9 125.3 Q 206.7 125.0, 206.7 124.8 L 206.7 129.0 L 206.0 129.0 L 206.0 124.0 L 206.8 124.0 "
   fill="#0000FF"
   id="path141" />
<path
   class="atom-29"
   d="M 145.3 132.2 Q 145.3 131.0, 145.9 130.3 Q 146.5 129.6, 147.6 129.6 Q 148.7 129.6, 149.3 130.3 Q 149.9 131.0, 149.9 132.2 Q 149.9 133.4, 149.3 134.1 Q 148.7 134.8, 147.6 134.8 Q 146.5 134.8, 145.9 134.1 Q 145.3 133.4, 145.3 132.2 M 147.6 134.2 Q 148.4 134.2, 148.8 133.7 Q 149.2 133.2, 149.2 132.2 Q 149.2 131.2, 148.8 130.7 Q 148.4 130.2, 147.6 130.2 Q 146.8 130.2, 146.4 130.7 Q 146.0 131.2, 146.0 132.2 Q 146.0 133.2, 146.4 133.7 Q 146.8 134.2, 147.6 134.2 "
   fill="#FF0000"
   id="path142" />
<path
   class="atom-32"
   d="M 165.2 185.2 Q 165.2 184.0, 165.8 183.3 Q 166.4 182.7, 167.5 182.7 Q 168.6 182.7, 169.2 183.3 Q 169.8 184.0, 169.8 185.2 Q 169.8 186.5, 169.2 187.2 Q 168.6 187.9, 167.5 187.9 Q 166.4 187.9, 165.8 187.2 Q 165.2 186.5, 165.2 185.2 M 167.5 187.3 Q 168.3 187.3, 168.7 186.8 Q 169.1 186.3, 169.1 185.2 Q 169.1 184.2, 168.7 183.7 Q 168.3 183.2, 167.5 183.2 Q 166.7 183.2, 166.3 183.7 Q 165.9 184.2, 165.9 185.2 Q 165.9 186.3, 166.3 186.8 Q 166.7 187.3, 167.5 187.3 "
   fill="#FF0000"
   id="path143" />
<path
   class="atom-33"
   d="M 139.9 167.3 Q 139.9 166.1, 140.5 165.4 Q 141.1 164.8, 142.3 164.8 Q 143.4 164.8, 144.0 165.4 Q 144.6 166.1, 144.6 167.3 Q 144.6 168.6, 144.0 169.3 Q 143.4 170.0, 142.3 170.0 Q 141.1 170.0, 140.5 169.3 Q 139.9 168.6, 139.9 167.3 M 142.3 169.4 Q 143.0 169.4, 143.5 168.9 Q 143.9 168.4, 143.9 167.3 Q 143.9 166.3, 143.5 165.8 Q 143.0 165.3, 142.3 165.3 Q 141.5 165.3, 141.1 165.8 Q 140.7 166.3, 140.7 167.3 Q 140.7 168.4, 141.1 168.9 Q 141.5 169.4, 142.3 169.4 "
   fill="#FF0000"
   id="path144" />
<path
   class="atom-39"
   d="M 177.3 217.0 Q 177.3 215.8, 177.9 215.1 Q 178.5 214.4, 179.6 214.4 Q 180.8 214.4, 181.4 215.1 Q 182.0 215.8, 182.0 217.0 Q 182.0 218.2, 181.4 218.9 Q 180.7 219.6, 179.6 219.6 Q 178.5 219.6, 177.9 218.9 Q 177.3 218.2, 177.3 217.0 M 179.6 219.0 Q 180.4 219.0, 180.8 218.5 Q 181.2 218.0, 181.2 217.0 Q 181.2 216.0, 180.8 215.5 Q 180.4 215.0, 179.6 215.0 Q 178.9 215.0, 178.4 215.5 Q 178.0 216.0, 178.0 217.0 Q 178.0 218.0, 178.4 218.5 Q 178.9 219.0, 179.6 219.0 "
   fill="#FF0000"
   id="path145" />
<path
   class="atom-40"
   d="M 153.8 196.9 Q 153.8 195.6, 154.4 195.0 Q 155.0 194.3, 156.1 194.3 Q 157.2 194.3, 157.8 195.0 Q 158.4 195.6, 158.4 196.9 Q 158.4 198.1, 157.8 198.8 Q 157.2 199.5, 156.1 199.5 Q 155.0 199.5, 154.4 198.8 Q 153.8 198.1, 153.8 196.9 M 156.1 198.9 Q 156.9 198.9, 157.3 198.4 Q 157.7 197.9, 157.7 196.9 Q 157.7 195.9, 157.3 195.4 Q 156.9 194.9, 156.1 194.9 Q 155.3 194.9, 154.9 195.4 Q 154.5 195.9, 154.5 196.9 Q 154.5 197.9, 154.9 198.4 Q 155.3 198.9, 156.1 198.9 "
   fill="#FF0000"
   id="path146" />
<path
   class="atom-17"
   d="M 231.6,132.4 L 231.5,132.4 L 231.5,132.4 L 231.5,132.5 L 231.5,132.5 L 231.5,132.5 L 231.5,132.6 L 231.5,132.6 L 231.5,132.6 L 231.4,132.6 L 231.4,132.6 L 231.4,132.7 L 231.4,132.7 L 231.3,132.7 L 231.3,132.7 L 231.3,132.7 L 231.3,132.7 L 231.2,132.7 L 231.2,132.7 L 231.2,132.7 L 231.1,132.7 L 231.1,132.7 L 231.1,132.7 L 231.1,132.7 L 231.0,132.7 L 231.0,132.7 L 231.0,132.7 L 230.9,132.6 L 230.9,132.6 L 230.9,132.6 L 230.9,132.6 L 230.9,132.5 L 230.9,132.5 L 230.9,132.5 L 230.8,132.5 L 230.8,132.4 L 230.8,132.4 L 230.8,132.4 L 230.8,132.3 L 230.8,132.3 L 230.9,132.3 L 230.9,132.2 L 230.9,132.2 L 230.9,132.2 L 230.9,132.2 L 230.9,132.1 L 230.9,132.1 L 231.0,132.1 L 231.0,132.1 L 231.0,132.1 L 231.1,132.0 L 231.1,132.0 L 231.1,132.0 L 231.1,132.0 L 231.2,132.0 L 231.2,132.0 L 231.2,132.0 L 231.3,132.0 L 231.3,132.0 L 231.3,132.0 L 231.3,132.1 L 231.4,132.1 L 231.4,132.1 L 231.4,132.1 L 231.4,132.1 L 231.5,132.1 L 231.5,132.2 L 231.5,132.2 L 231.5,132.2 L 231.5,132.3 L 231.5,132.3 L 231.5,132.3 L 231.5,132.3 L 231.6,132.4 L 231.2,132.4 Z"
   style="fill:#000000;fill-rule:evenodd;fill-opacity:1;stroke:#000000;stroke-width:0.0px;stroke-linecap:butt;stroke-linejoin:miter;stroke-opacity:1;"
   id="path147" />
<path
   class="atom-17"
   d="M 231.6,130.9 L 231.5,131.0 L 231.5,131.0 L 231.5,131.0 L 231.5,131.1 L 231.5,131.1 L 231.5,131.1 L 231.5,131.1 L 231.5,131.2 L 231.4,131.2 L 231.4,131.2 L 231.4,131.2 L 231.4,131.3 L 231.3,131.3 L 231.3,131.3 L 231.3,131.3 L 231.3,131.3 L 231.2,131.3 L 231.2,131.3 L 231.2,131.3 L 231.1,131.3 L 231.1,131.3 L 231.1,131.3 L 231.1,131.3 L 231.0,131.3 L 231.0,131.2 L 231.0,131.2 L 230.9,131.2 L 230.9,131.2 L 230.9,131.2 L 230.9,131.1 L 230.9,131.1 L 230.9,131.1 L 230.9,131.1 L 230.8,131.0 L 230.8,131.0 L 230.8,131.0 L 230.8,130.9 L 230.8,130.9 L 230.8,130.9 L 230.9,130.8 L 230.9,130.8 L 230.9,130.8 L 230.9,130.8 L 230.9,130.7 L 230.9,130.7 L 230.9,130.7 L 231.0,130.7 L 231.0,130.6 L 231.0,130.6 L 231.1,130.6 L 231.1,130.6 L 231.1,130.6 L 231.1,130.6 L 231.2,130.6 L 231.2,130.6 L 231.2,130.6 L 231.3,130.6 L 231.3,130.6 L 231.3,130.6 L 231.3,130.6 L 231.4,130.6 L 231.4,130.7 L 231.4,130.7 L 231.4,130.7 L 231.5,130.7 L 231.5,130.7 L 231.5,130.8 L 231.5,130.8 L 231.5,130.8 L 231.5,130.9 L 231.5,130.9 L 231.5,130.9 L 231.6,130.9 L 231.2,130.9 Z"
   style="fill:#000000;fill-rule:evenodd;fill-opacity:1;stroke:#000000;stroke-width:0.0px;stroke-linecap:butt;stroke-linejoin:miter;stroke-opacity:1;"
   id="path148" />
<path
   class="atom-4"
   d="M 238.2,192.8 L 238.2,195.2 L 240.6,195.2 L 240.6,192.8 L 238.2,192.8"
   style="fill:none;stroke:#FF0000;stroke-width:2.0px;stroke-linecap:butt;stroke-linejoin:miter;stroke-opacity:1;"
   id="path149" />
</svg>
