<?xml version="1.0" encoding="UTF-8" standalone="no"?>
<svg
   version="1.1"
   xml:space="preserve"
   width="300px"
   height="300px"
   viewBox="0 0 300 300"
   id="svg5"
   sodipodi:docname="CUA.svg"
   inkscape:export-filename="CUA.pdf"
   inkscape:export-xdpi="96"
   inkscape:export-ydpi="96"
   inkscape:version="1.3.2 (091e20e, 2023-11-25)"
   xmlns:inkscape="http://www.inkscape.org/namespaces/inkscape"
   xmlns:sodipodi="http://sodipodi.sourceforge.net/DTD/sodipodi-0.dtd"
   xmlns="http://www.w3.org/2000/svg"
   xmlns:svg="http://www.w3.org/2000/svg"><defs
   id="defs5" /><sodipodi:namedview
   id="namedview5"
   pagecolor="#ffffff"
   bordercolor="#000000"
   borderopacity="0.25"
   inkscape:showpageshadow="2"
   inkscape:pageopacity="0.0"
   inkscape:pagecheckerboard="0"
   inkscape:deskcolor="#d1d1d1"
   inkscape:zoom="0.78666667"
   inkscape:cx="149.36441"
   inkscape:cy="150"
   inkscape:window-width="1312"
   inkscape:window-height="449"
   inkscape:window-x="1440"
   inkscape:window-y="56"
   inkscape:window-maximized="0"
   inkscape:current-layer="svg5" />
<!-- END OF HEADER -->
<rect
   style="opacity:1.0;fill:#FFFFFF;stroke:none"
   width="300.0"
   height="300.0"
   x="0.0"
   y="0.0"
   id="rect1"> </rect>
<path
   class="bond-0 atom-0 atom-1"
   d="M 216.1,149.8 L 83.9,149.8"
   style="fill:none;fill-rule:evenodd;stroke:#000000;stroke-width:2.0px;stroke-linecap:butt;stroke-linejoin:miter;stroke-opacity:1"
   id="path1" />
<path
   class="atom-0"
   d="M 221.4 149.9 Q 221.4 142.9, 224.7 139.2 Q 228.0 135.5, 234.3 135.5 Q 240.2 135.5, 243.3 139.6 L 240.6 141.8 Q 238.4 138.8, 234.3 138.8 Q 230.0 138.8, 227.8 141.7 Q 225.5 144.5, 225.5 149.9 Q 225.5 155.5, 227.8 158.4 Q 230.2 161.3, 234.8 161.3 Q 237.9 161.3, 241.5 159.4 L 242.6 162.4 Q 241.2 163.4, 238.9 163.9 Q 236.7 164.5, 234.2 164.5 Q 228.0 164.5, 224.7 160.7 Q 221.4 157.0, 221.4 149.9 "
   fill="#000000"
   id="path2" />
<path
   class="atom-0"
   d="M 264.3 143.6 L 264.3 164.1 L 261.2 164.1 L 260.8 161.3 Q 258.1 164.5, 253.8 164.5 Q 250.4 164.5, 248.6 162.7 Q 246.8 160.8, 246.8 157.2 L 246.8 143.6 L 250.6 143.6 L 250.6 156.9 Q 250.6 159.3, 251.5 160.5 Q 252.5 161.5, 254.6 161.5 Q 256.4 161.5, 258.0 160.7 Q 259.6 159.8, 260.6 158.3 L 260.6 143.6 L 264.3 143.6 "
   fill="#000000"
   id="path3" />
<path
   class="atom-1"
   d="M 35.7 149.9 Q 35.7 142.9, 39.0 139.2 Q 42.3 135.5, 48.6 135.5 Q 54.4 135.5, 57.5 139.6 L 54.9 141.8 Q 52.6 138.8, 48.6 138.8 Q 44.3 138.8, 42.0 141.7 Q 39.8 144.5, 39.8 149.9 Q 39.8 155.5, 42.1 158.4 Q 44.4 161.3, 49.0 161.3 Q 52.1 161.3, 55.8 159.4 L 56.9 162.4 Q 55.4 163.4, 53.2 163.9 Q 50.9 164.5, 48.4 164.5 Q 42.3 164.5, 39.0 160.7 Q 35.7 157.0, 35.7 149.9 "
   fill="#000000"
   id="path4" />
<path
   class="atom-1"
   d="M 78.6 143.6 L 78.6 164.1 L 75.5 164.1 L 75.0 161.3 Q 72.4 164.5, 68.1 164.5 Q 64.6 164.5, 62.8 162.7 Q 61.1 160.8, 61.1 157.2 L 61.1 143.6 L 64.8 143.6 L 64.8 156.9 Q 64.8 159.3, 65.8 160.5 Q 66.7 161.5, 68.8 161.5 Q 70.7 161.5, 72.2 160.7 Q 73.8 159.8, 74.8 158.3 L 74.8 143.6 L 78.6 143.6 "
   fill="#000000"
   id="path5" />
</svg>
