<?xml version="1.0" encoding="UTF-8" standalone="no"?>
<svg
   version="1.1"
   xml:space="preserve"
   width="300px"
   height="300px"
   viewBox="0 0 300 300"
   id="svg125"
   sodipodi:docname="PC1.svg"
   inkscape:export-filename="PC1.pdf"
   inkscape:export-xdpi="96"
   inkscape:export-ydpi="96"
   inkscape:version="1.3.2 (091e20e, 2023-11-25)"
   xmlns:inkscape="http://www.inkscape.org/namespaces/inkscape"
   xmlns:sodipodi="http://sodipodi.sourceforge.net/DTD/sodipodi-0.dtd"
   xmlns="http://www.w3.org/2000/svg"
   xmlns:svg="http://www.w3.org/2000/svg"><defs
   id="defs125" /><sodipodi:namedview
   id="namedview125"
   pagecolor="#ffffff"
   bordercolor="#000000"
   borderopacity="0.25"
   inkscape:showpageshadow="2"
   inkscape:pageopacity="0.0"
   inkscape:pagecheckerboard="0"
   inkscape:deskcolor="#d1d1d1"
   inkscape:zoom="0.78666667"
   inkscape:cx="149.36441"
   inkscape:cy="150"
   inkscape:window-width="1312"
   inkscape:window-height="449"
   inkscape:window-x="1440"
   inkscape:window-y="56"
   inkscape:window-maximized="0"
   inkscape:current-layer="svg125" />
<!-- END OF HEADER -->
<rect
   style="opacity:1.0;fill:#FFFFFF;stroke:none"
   width="300.0"
   height="300.0"
   x="0.0"
   y="0.0"
   id="rect1"> </rect>
<path
   class="bond-0 atom-0 atom-1"
   d="M 15.0,211.2 L 26.9,208.2"
   style="fill:none;fill-rule:evenodd;stroke:#000000;stroke-width:2.0px;stroke-linecap:butt;stroke-linejoin:miter;stroke-opacity:1"
   id="path1" />
<path
   class="bond-1 atom-1 atom-2"
   d="M 26.9,208.2 L 35.4,217.0"
   style="fill:none;fill-rule:evenodd;stroke:#000000;stroke-width:2.0px;stroke-linecap:butt;stroke-linejoin:miter;stroke-opacity:1"
   id="path2" />
<path
   class="bond-2 atom-2 atom-3"
   d="M 35.4,217.0 L 47.2,214.0"
   style="fill:none;fill-rule:evenodd;stroke:#000000;stroke-width:2.0px;stroke-linecap:butt;stroke-linejoin:miter;stroke-opacity:1"
   id="path3" />
<path
   class="bond-3 atom-3 atom-4"
   d="M 47.2,214.0 L 55.8,222.8"
   style="fill:none;fill-rule:evenodd;stroke:#000000;stroke-width:2.0px;stroke-linecap:butt;stroke-linejoin:miter;stroke-opacity:1"
   id="path4" />
<path
   class="bond-4 atom-4 atom-5"
   d="M 55.8,222.8 L 67.6,219.8"
   style="fill:none;fill-rule:evenodd;stroke:#000000;stroke-width:2.0px;stroke-linecap:butt;stroke-linejoin:miter;stroke-opacity:1"
   id="path5" />
<path
   class="bond-5 atom-5 atom-6"
   d="M 67.6,219.8 L 76.1,228.6"
   style="fill:none;fill-rule:evenodd;stroke:#000000;stroke-width:2.0px;stroke-linecap:butt;stroke-linejoin:miter;stroke-opacity:1"
   id="path6" />
<path
   class="bond-6 atom-6 atom-7"
   d="M 76.1,228.6 L 88.0,225.6"
   style="fill:none;fill-rule:evenodd;stroke:#000000;stroke-width:2.0px;stroke-linecap:butt;stroke-linejoin:miter;stroke-opacity:1"
   id="path7" />
<path
   class="bond-7 atom-7 atom-8"
   d="M 88.0,225.6 L 96.5,234.4"
   style="fill:none;fill-rule:evenodd;stroke:#000000;stroke-width:2.0px;stroke-linecap:butt;stroke-linejoin:miter;stroke-opacity:1"
   id="path8" />
<path
   class="bond-8 atom-8 atom-9"
   d="M 96.5,234.4 L 108.4,231.4"
   style="fill:none;fill-rule:evenodd;stroke:#000000;stroke-width:2.0px;stroke-linecap:butt;stroke-linejoin:miter;stroke-opacity:1"
   id="path9" />
<path
   class="bond-9 atom-9 atom-10"
   d="M 108.4,231.4 L 116.9,240.2"
   style="fill:none;fill-rule:evenodd;stroke:#000000;stroke-width:2.0px;stroke-linecap:butt;stroke-linejoin:miter;stroke-opacity:1"
   id="path10" />
<path
   class="bond-10 atom-10 atom-11"
   d="M 116.9,240.2 L 128.7,237.2"
   style="fill:none;fill-rule:evenodd;stroke:#000000;stroke-width:2.0px;stroke-linecap:butt;stroke-linejoin:miter;stroke-opacity:1"
   id="path11" />
<path
   class="bond-11 atom-11 atom-12"
   d="M 128.7,237.2 L 137.3,246.0"
   style="fill:none;fill-rule:evenodd;stroke:#000000;stroke-width:2.0px;stroke-linecap:butt;stroke-linejoin:miter;stroke-opacity:1"
   id="path12" />
<path
   class="bond-12 atom-12 atom-13"
   d="M 137.3,246.0 L 149.1,243.0"
   style="fill:none;fill-rule:evenodd;stroke:#000000;stroke-width:2.0px;stroke-linecap:butt;stroke-linejoin:miter;stroke-opacity:1"
   id="path13" />
<path
   class="bond-13 atom-13 atom-14"
   d="M 149.1,243.0 L 157.6,251.8"
   style="fill:none;fill-rule:evenodd;stroke:#000000;stroke-width:2.0px;stroke-linecap:butt;stroke-linejoin:miter;stroke-opacity:1"
   id="path14" />
<path
   class="bond-14 atom-14 atom-15"
   d="M 157.6,251.8 L 169.5,248.8"
   style="fill:none;fill-rule:evenodd;stroke:#000000;stroke-width:2.0px;stroke-linecap:butt;stroke-linejoin:miter;stroke-opacity:1"
   id="path15" />
<path
   class="bond-15 atom-15 atom-16"
   d="M 169.5,248.8 L 178.0,257.6"
   style="fill:none;fill-rule:evenodd;stroke:#000000;stroke-width:2.0px;stroke-linecap:butt;stroke-linejoin:miter;stroke-opacity:1"
   id="path16" />
<path
   class="bond-16 atom-16 atom-17"
   d="M 178.0,257.6 L 189.9,254.6"
   style="fill:none;fill-rule:evenodd;stroke:#000000;stroke-width:2.0px;stroke-linecap:butt;stroke-linejoin:miter;stroke-opacity:1"
   id="path17" />
<path
   class="bond-17 atom-17 atom-18"
   d="M 188.8,254.8 L 192.1,258.2"
   style="fill:none;fill-rule:evenodd;stroke:#000000;stroke-width:2.0px;stroke-linecap:butt;stroke-linejoin:miter;stroke-opacity:1"
   id="path18" />
<path
   class="bond-17 atom-17 atom-18"
   d="M 192.1,258.2 L 195.4,261.6"
   style="fill:none;fill-rule:evenodd;stroke:#FF0000;stroke-width:2.0px;stroke-linecap:butt;stroke-linejoin:miter;stroke-opacity:1"
   id="path19" />
<path
   class="bond-17 atom-17 atom-18"
   d="M 190.1,253.6 L 193.4,256.9"
   style="fill:none;fill-rule:evenodd;stroke:#000000;stroke-width:2.0px;stroke-linecap:butt;stroke-linejoin:miter;stroke-opacity:1"
   id="path20" />
<path
   class="bond-17 atom-17 atom-18"
   d="M 193.4,256.9 L 196.7,260.3"
   style="fill:none;fill-rule:evenodd;stroke:#FF0000;stroke-width:2.0px;stroke-linecap:butt;stroke-linejoin:miter;stroke-opacity:1"
   id="path21" />
<path
   class="bond-18 atom-17 atom-19"
   d="M 189.9,254.6 L 191.2,250.0"
   style="fill:none;fill-rule:evenodd;stroke:#000000;stroke-width:2.0px;stroke-linecap:butt;stroke-linejoin:miter;stroke-opacity:1"
   id="path22" />
<path
   class="bond-18 atom-17 atom-19"
   d="M 191.2,250.0 L 192.5,245.4"
   style="fill:none;fill-rule:evenodd;stroke:#FF0000;stroke-width:2.0px;stroke-linecap:butt;stroke-linejoin:miter;stroke-opacity:1"
   id="path23" />
<path
   class="bond-19 atom-19 atom-20"
   d="M 195.6,242.2 L 200.3,241.0"
   style="fill:none;fill-rule:evenodd;stroke:#FF0000;stroke-width:2.0px;stroke-linecap:butt;stroke-linejoin:miter;stroke-opacity:1"
   id="path24" />
<path
   class="bond-19 atom-19 atom-20"
   d="M 200.3,241.0 L 205.1,239.8"
   style="fill:none;fill-rule:evenodd;stroke:#000000;stroke-width:2.0px;stroke-linecap:butt;stroke-linejoin:miter;stroke-opacity:1"
   id="path25" />
<path
   class="bond-20 atom-20 atom-21"
   d="M 205.1,239.8 L 208.4,228.1"
   style="fill:none;fill-rule:evenodd;stroke:#000000;stroke-width:2.0px;stroke-linecap:butt;stroke-linejoin:miter;stroke-opacity:1"
   id="path26" />
<path
   class="bond-21 atom-21 atom-22"
   d="M 208.4,228.1 L 220.3,225.1"
   style="fill:none;fill-rule:evenodd;stroke:#000000;stroke-width:2.0px;stroke-linecap:butt;stroke-linejoin:miter;stroke-opacity:1"
   id="path27" />
<path
   class="bond-22 atom-22 atom-23"
   d="M 220.3,225.1 L 221.6,220.5"
   style="fill:none;fill-rule:evenodd;stroke:#000000;stroke-width:2.0px;stroke-linecap:butt;stroke-linejoin:miter;stroke-opacity:1"
   id="path28" />
<path
   class="bond-22 atom-22 atom-23"
   d="M 221.6,220.5 L 222.9,215.9"
   style="fill:none;fill-rule:evenodd;stroke:#FF0000;stroke-width:2.0px;stroke-linecap:butt;stroke-linejoin:miter;stroke-opacity:1"
   id="path29" />
<path
   class="bond-23 atom-23 atom-24"
   d="M 226.0,212.7 L 229.8,211.8"
   style="fill:none;fill-rule:evenodd;stroke:#FF0000;stroke-width:2.0px;stroke-linecap:butt;stroke-linejoin:miter;stroke-opacity:1"
   id="path30" />
<path
   class="bond-23 atom-23 atom-24"
   d="M 229.8,211.8 L 233.7,210.8"
   style="fill:none;fill-rule:evenodd;stroke:#FF7F00;stroke-width:2.0px;stroke-linecap:butt;stroke-linejoin:miter;stroke-opacity:1"
   id="path31" />
<path
   class="bond-24 atom-24 atom-25"
   d="M 235.2,213.1 L 236.1,216.5"
   style="fill:none;fill-rule:evenodd;stroke:#FF7F00;stroke-width:2.0px;stroke-linecap:butt;stroke-linejoin:miter;stroke-opacity:1"
   id="path32" />
<path
   class="bond-24 atom-24 atom-25"
   d="M 236.1,216.5 L 236.9,219.9"
   style="fill:none;fill-rule:evenodd;stroke:#FF0000;stroke-width:2.0px;stroke-linecap:butt;stroke-linejoin:miter;stroke-opacity:1"
   id="path33" />
<path
   class="bond-24 atom-24 atom-25"
   d="M 237.0,212.6 L 237.9,216.0"
   style="fill:none;fill-rule:evenodd;stroke:#FF7F00;stroke-width:2.0px;stroke-linecap:butt;stroke-linejoin:miter;stroke-opacity:1"
   id="path34" />
<path
   class="bond-24 atom-24 atom-25"
   d="M 237.9,216.0 L 238.7,219.4"
   style="fill:none;fill-rule:evenodd;stroke:#FF0000;stroke-width:2.0px;stroke-linecap:butt;stroke-linejoin:miter;stroke-opacity:1"
   id="path35" />
<path
   class="bond-25 atom-24 atom-26"
   d="M 234.8,207.8 L 234.0,204.5"
   style="fill:none;fill-rule:evenodd;stroke:#FF7F00;stroke-width:2.0px;stroke-linecap:butt;stroke-linejoin:miter;stroke-opacity:1"
   id="path36" />
<path
   class="bond-25 atom-24 atom-26"
   d="M 234.0,204.5 L 233.1,201.1"
   style="fill:none;fill-rule:evenodd;stroke:#FF0000;stroke-width:2.0px;stroke-linecap:butt;stroke-linejoin:miter;stroke-opacity:1"
   id="path37" />
<path
   class="bond-26 atom-24 atom-27"
   d="M 237.2,209.9 L 241.1,208.9"
   style="fill:none;fill-rule:evenodd;stroke:#FF7F00;stroke-width:2.0px;stroke-linecap:butt;stroke-linejoin:miter;stroke-opacity:1"
   id="path38" />
<path
   class="bond-26 atom-24 atom-27"
   d="M 241.1,208.9 L 245.0,207.9"
   style="fill:none;fill-rule:evenodd;stroke:#FF0000;stroke-width:2.0px;stroke-linecap:butt;stroke-linejoin:miter;stroke-opacity:1"
   id="path39" />
<path
   class="bond-27 atom-27 atom-28"
   d="M 249.7,209.8 L 252.8,213.0"
   style="fill:none;fill-rule:evenodd;stroke:#FF0000;stroke-width:2.0px;stroke-linecap:butt;stroke-linejoin:miter;stroke-opacity:1"
   id="path40" />
<path
   class="bond-27 atom-27 atom-28"
   d="M 252.8,213.0 L 255.8,216.1"
   style="fill:none;fill-rule:evenodd;stroke:#000000;stroke-width:2.0px;stroke-linecap:butt;stroke-linejoin:miter;stroke-opacity:1"
   id="path41" />
<path
   class="bond-28 atom-28 atom-29"
   d="M 255.8,216.1 L 267.7,213.1"
   style="fill:none;fill-rule:evenodd;stroke:#000000;stroke-width:2.0px;stroke-linecap:butt;stroke-linejoin:miter;stroke-opacity:1"
   id="path42" />
<path
   class="bond-29 atom-29 atom-30"
   d="M 267.7,213.1 L 271.0,216.5"
   style="fill:none;fill-rule:evenodd;stroke:#000000;stroke-width:2.0px;stroke-linecap:butt;stroke-linejoin:miter;stroke-opacity:1"
   id="path43" />
<path
   class="bond-29 atom-29 atom-30"
   d="M 271.0,216.5 L 274.2,219.8"
   style="fill:none;fill-rule:evenodd;stroke:#0000FF;stroke-width:2.0px;stroke-linecap:butt;stroke-linejoin:miter;stroke-opacity:1"
   id="path44" />
<path
   class="bond-30 atom-30 atom-31"
   d="M 278.9,219.4 L 281.9,216.4"
   style="fill:none;fill-rule:evenodd;stroke:#0000FF;stroke-width:2.0px;stroke-linecap:butt;stroke-linejoin:miter;stroke-opacity:1"
   id="path45" />
<path
   class="bond-30 atom-30 atom-31"
   d="M 281.9,216.4 L 285.0,213.4"
   style="fill:none;fill-rule:evenodd;stroke:#000000;stroke-width:2.0px;stroke-linecap:butt;stroke-linejoin:miter;stroke-opacity:1"
   id="path46" />
<path
   class="bond-31 atom-30 atom-32"
   d="M 274.2,223.9 L 270.8,227.2"
   style="fill:none;fill-rule:evenodd;stroke:#0000FF;stroke-width:2.0px;stroke-linecap:butt;stroke-linejoin:miter;stroke-opacity:1"
   id="path47" />
<path
   class="bond-31 atom-30 atom-32"
   d="M 270.8,227.2 L 267.4,230.4"
   style="fill:none;fill-rule:evenodd;stroke:#000000;stroke-width:2.0px;stroke-linecap:butt;stroke-linejoin:miter;stroke-opacity:1"
   id="path48" />
<path
   class="bond-32 atom-30 atom-33"
   d="M 278.2,224.0 L 281.5,227.4"
   style="fill:none;fill-rule:evenodd;stroke:#0000FF;stroke-width:2.0px;stroke-linecap:butt;stroke-linejoin:miter;stroke-opacity:1"
   id="path49" />
<path
   class="bond-32 atom-30 atom-33"
   d="M 281.5,227.4 L 284.7,230.7"
   style="fill:none;fill-rule:evenodd;stroke:#000000;stroke-width:2.0px;stroke-linecap:butt;stroke-linejoin:miter;stroke-opacity:1"
   id="path50" />
<path
   class="bond-33 atom-21 atom-34"
   d="M 208.4,228.1 L 205.3,224.9"
   style="fill:none;fill-rule:evenodd;stroke:#000000;stroke-width:2.0px;stroke-linecap:butt;stroke-linejoin:miter;stroke-opacity:1"
   id="path51" />
<path
   class="bond-33 atom-21 atom-34"
   d="M 205.3,224.9 L 202.2,221.7"
   style="fill:none;fill-rule:evenodd;stroke:#FF0000;stroke-width:2.0px;stroke-linecap:butt;stroke-linejoin:miter;stroke-opacity:1"
   id="path52" />
<path
   class="bond-34 atom-34 atom-35"
   d="M 200.6,216.7 L 201.9,212.1"
   style="fill:none;fill-rule:evenodd;stroke:#FF0000;stroke-width:2.0px;stroke-linecap:butt;stroke-linejoin:miter;stroke-opacity:1"
   id="path53" />
<path
   class="bond-34 atom-34 atom-35"
   d="M 201.9,212.1 L 203.2,207.5"
   style="fill:none;fill-rule:evenodd;stroke:#000000;stroke-width:2.0px;stroke-linecap:butt;stroke-linejoin:miter;stroke-opacity:1"
   id="path54" />
<path
   class="bond-35 atom-35 atom-36"
   d="M 202.9,208.6 L 208.0,207.3"
   style="fill:none;fill-rule:evenodd;stroke:#000000;stroke-width:2.0px;stroke-linecap:butt;stroke-linejoin:miter;stroke-opacity:1"
   id="path55" />
<path
   class="bond-35 atom-35 atom-36"
   d="M 208.0,207.3 L 213.0,206.0"
   style="fill:none;fill-rule:evenodd;stroke:#FF0000;stroke-width:2.0px;stroke-linecap:butt;stroke-linejoin:miter;stroke-opacity:1"
   id="path56" />
<path
   class="bond-35 atom-35 atom-36"
   d="M 202.5,206.8 L 207.5,205.5"
   style="fill:none;fill-rule:evenodd;stroke:#000000;stroke-width:2.0px;stroke-linecap:butt;stroke-linejoin:miter;stroke-opacity:1"
   id="path57" />
<path
   class="bond-35 atom-35 atom-36"
   d="M 207.5,205.5 L 212.5,204.2"
   style="fill:none;fill-rule:evenodd;stroke:#FF0000;stroke-width:2.0px;stroke-linecap:butt;stroke-linejoin:miter;stroke-opacity:1"
   id="path58" />
<path
   class="bond-36 atom-35 atom-37"
   d="M 203.2,207.5 L 194.7,198.8"
   style="fill:none;fill-rule:evenodd;stroke:#000000;stroke-width:2.0px;stroke-linecap:butt;stroke-linejoin:miter;stroke-opacity:1"
   id="path59" />
<path
   class="bond-37 atom-37 atom-38"
   d="M 194.7,198.8 L 198.1,187.0"
   style="fill:none;fill-rule:evenodd;stroke:#000000;stroke-width:2.0px;stroke-linecap:butt;stroke-linejoin:miter;stroke-opacity:1"
   id="path60" />
<path
   class="bond-38 atom-38 atom-39"
   d="M 198.1,187.0 L 189.6,178.2"
   style="fill:none;fill-rule:evenodd;stroke:#000000;stroke-width:2.0px;stroke-linecap:butt;stroke-linejoin:miter;stroke-opacity:1"
   id="path61" />
<path
   class="bond-39 atom-39 atom-40"
   d="M 189.6,178.2 L 192.9,166.4"
   style="fill:none;fill-rule:evenodd;stroke:#000000;stroke-width:2.0px;stroke-linecap:butt;stroke-linejoin:miter;stroke-opacity:1"
   id="path62" />
<path
   class="bond-40 atom-40 atom-41"
   d="M 192.9,166.4 L 184.4,157.7"
   style="fill:none;fill-rule:evenodd;stroke:#000000;stroke-width:2.0px;stroke-linecap:butt;stroke-linejoin:miter;stroke-opacity:1"
   id="path63" />
<path
   class="bond-41 atom-41 atom-42"
   d="M 184.4,157.7 L 187.7,145.9"
   style="fill:none;fill-rule:evenodd;stroke:#000000;stroke-width:2.0px;stroke-linecap:butt;stroke-linejoin:miter;stroke-opacity:1"
   id="path64" />
<path
   class="bond-42 atom-42 atom-43"
   d="M 187.7,145.9 L 179.2,137.1"
   style="fill:none;fill-rule:evenodd;stroke:#000000;stroke-width:2.0px;stroke-linecap:butt;stroke-linejoin:miter;stroke-opacity:1"
   id="path65" />
<path
   class="bond-43 atom-43 atom-44"
   d="M 179.2,137.1 L 182.6,125.4"
   style="fill:none;fill-rule:evenodd;stroke:#000000;stroke-width:2.0px;stroke-linecap:butt;stroke-linejoin:miter;stroke-opacity:1"
   id="path66" />
<path
   class="bond-44 atom-44 atom-45"
   d="M 182.6,125.4 L 174.0,116.6"
   style="fill:none;fill-rule:evenodd;stroke:#000000;stroke-width:2.0px;stroke-linecap:butt;stroke-linejoin:miter;stroke-opacity:1"
   id="path67" />
<path
   class="bond-45 atom-45 atom-46"
   d="M 174.0,116.6 L 177.4,104.8"
   style="fill:none;fill-rule:evenodd;stroke:#000000;stroke-width:2.0px;stroke-linecap:butt;stroke-linejoin:miter;stroke-opacity:1"
   id="path68" />
<path
   class="bond-46 atom-46 atom-47"
   d="M 177.4,104.8 L 168.9,96.0"
   style="fill:none;fill-rule:evenodd;stroke:#000000;stroke-width:2.0px;stroke-linecap:butt;stroke-linejoin:miter;stroke-opacity:1"
   id="path69" />
<path
   class="bond-47 atom-47 atom-48"
   d="M 168.9,96.0 L 172.2,84.3"
   style="fill:none;fill-rule:evenodd;stroke:#000000;stroke-width:2.0px;stroke-linecap:butt;stroke-linejoin:miter;stroke-opacity:1"
   id="path70" />
<path
   class="bond-48 atom-48 atom-49"
   d="M 172.2,84.3 L 163.7,75.5"
   style="fill:none;fill-rule:evenodd;stroke:#000000;stroke-width:2.0px;stroke-linecap:butt;stroke-linejoin:miter;stroke-opacity:1"
   id="path71" />
<path
   class="bond-49 atom-49 atom-50"
   d="M 163.7,75.5 L 167.0,63.7"
   style="fill:none;fill-rule:evenodd;stroke:#000000;stroke-width:2.0px;stroke-linecap:butt;stroke-linejoin:miter;stroke-opacity:1"
   id="path72" />
<path
   class="bond-50 atom-50 atom-51"
   d="M 167.0,63.7 L 158.5,55.0"
   style="fill:none;fill-rule:evenodd;stroke:#000000;stroke-width:2.0px;stroke-linecap:butt;stroke-linejoin:miter;stroke-opacity:1"
   id="path73" />
<path
   class="bond-51 atom-51 atom-52"
   d="M 158.5,55.0 L 161.9,43.2"
   style="fill:none;fill-rule:evenodd;stroke:#000000;stroke-width:2.0px;stroke-linecap:butt;stroke-linejoin:miter;stroke-opacity:1"
   id="path74" />
<path
   class="bond-52 atom-52 atom-53"
   d="M 161.9,43.2 L 153.4,34.4"
   style="fill:none;fill-rule:evenodd;stroke:#000000;stroke-width:2.0px;stroke-linecap:butt;stroke-linejoin:miter;stroke-opacity:1"
   id="path75" />
<path
   d="M 26.3,208.4 L 26.9,208.2 L 27.3,208.7"
   style="fill:none;stroke:#000000;stroke-width:2.0px;stroke-linecap:butt;stroke-linejoin:miter;stroke-opacity:1;"
   id="path76" />
<path
   d="M 34.9,216.6 L 35.4,217.0 L 36.0,216.9"
   style="fill:none;stroke:#000000;stroke-width:2.0px;stroke-linecap:butt;stroke-linejoin:miter;stroke-opacity:1;"
   id="path77" />
<path
   d="M 46.6,214.2 L 47.2,214.0 L 47.7,214.5"
   style="fill:none;stroke:#000000;stroke-width:2.0px;stroke-linecap:butt;stroke-linejoin:miter;stroke-opacity:1;"
   id="path78" />
<path
   d="M 55.3,222.4 L 55.8,222.8 L 56.3,222.7"
   style="fill:none;stroke:#000000;stroke-width:2.0px;stroke-linecap:butt;stroke-linejoin:miter;stroke-opacity:1;"
   id="path79" />
<path
   d="M 67.0,220.0 L 67.6,219.8 L 68.0,220.3"
   style="fill:none;stroke:#000000;stroke-width:2.0px;stroke-linecap:butt;stroke-linejoin:miter;stroke-opacity:1;"
   id="path80" />
<path
   d="M 75.7,228.2 L 76.1,228.6 L 76.7,228.5"
   style="fill:none;stroke:#000000;stroke-width:2.0px;stroke-linecap:butt;stroke-linejoin:miter;stroke-opacity:1;"
   id="path81" />
<path
   d="M 87.4,225.8 L 88.0,225.6 L 88.4,226.1"
   style="fill:none;stroke:#000000;stroke-width:2.0px;stroke-linecap:butt;stroke-linejoin:miter;stroke-opacity:1;"
   id="path82" />
<path
   d="M 96.1,234.0 L 96.5,234.4 L 97.1,234.3"
   style="fill:none;stroke:#000000;stroke-width:2.0px;stroke-linecap:butt;stroke-linejoin:miter;stroke-opacity:1;"
   id="path83" />
<path
   d="M 107.8,231.6 L 108.4,231.4 L 108.8,231.9"
   style="fill:none;stroke:#000000;stroke-width:2.0px;stroke-linecap:butt;stroke-linejoin:miter;stroke-opacity:1;"
   id="path84" />
<path
   d="M 116.4,239.8 L 116.9,240.2 L 117.5,240.0"
   style="fill:none;stroke:#000000;stroke-width:2.0px;stroke-linecap:butt;stroke-linejoin:miter;stroke-opacity:1;"
   id="path85" />
<path
   d="M 128.1,237.4 L 128.7,237.2 L 129.2,237.6"
   style="fill:none;stroke:#000000;stroke-width:2.0px;stroke-linecap:butt;stroke-linejoin:miter;stroke-opacity:1;"
   id="path86" />
<path
   d="M 136.8,245.5 L 137.3,246.0 L 137.8,245.8"
   style="fill:none;stroke:#000000;stroke-width:2.0px;stroke-linecap:butt;stroke-linejoin:miter;stroke-opacity:1;"
   id="path87" />
<path
   d="M 148.5,243.2 L 149.1,243.0 L 149.5,243.4"
   style="fill:none;stroke:#000000;stroke-width:2.0px;stroke-linecap:butt;stroke-linejoin:miter;stroke-opacity:1;"
   id="path88" />
<path
   d="M 157.2,251.3 L 157.6,251.8 L 158.2,251.6"
   style="fill:none;stroke:#000000;stroke-width:2.0px;stroke-linecap:butt;stroke-linejoin:miter;stroke-opacity:1;"
   id="path89" />
<path
   d="M 168.9,248.9 L 169.5,248.8 L 169.9,249.2"
   style="fill:none;stroke:#000000;stroke-width:2.0px;stroke-linecap:butt;stroke-linejoin:miter;stroke-opacity:1;"
   id="path90" />
<path
   d="M 177.6,257.1 L 178.0,257.6 L 178.6,257.4"
   style="fill:none;stroke:#000000;stroke-width:2.0px;stroke-linecap:butt;stroke-linejoin:miter;stroke-opacity:1;"
   id="path91" />
<path
   d="M 189.3,254.7 L 189.9,254.6 L 189.9,254.4"
   style="fill:none;stroke:#000000;stroke-width:2.0px;stroke-linecap:butt;stroke-linejoin:miter;stroke-opacity:1;"
   id="path92" />
<path
   d="M 204.8,239.9 L 205.1,239.8 L 205.2,239.2"
   style="fill:none;stroke:#000000;stroke-width:2.0px;stroke-linecap:butt;stroke-linejoin:miter;stroke-opacity:1;"
   id="path93" />
<path
   d="M 219.7,225.2 L 220.3,225.1 L 220.3,224.9"
   style="fill:none;stroke:#000000;stroke-width:2.0px;stroke-linecap:butt;stroke-linejoin:miter;stroke-opacity:1;"
   id="path94" />
<path
   d="M 255.7,216.0 L 255.8,216.1 L 256.4,216.0"
   style="fill:none;stroke:#000000;stroke-width:2.0px;stroke-linecap:butt;stroke-linejoin:miter;stroke-opacity:1;"
   id="path95" />
<path
   d="M 267.1,213.3 L 267.7,213.1 L 267.9,213.3"
   style="fill:none;stroke:#000000;stroke-width:2.0px;stroke-linecap:butt;stroke-linejoin:miter;stroke-opacity:1;"
   id="path96" />
<path
   d="M 203.2,207.8 L 203.2,207.5 L 202.8,207.1"
   style="fill:none;stroke:#000000;stroke-width:2.0px;stroke-linecap:butt;stroke-linejoin:miter;stroke-opacity:1;"
   id="path97" />
<path
   d="M 195.1,199.2 L 194.7,198.8 L 194.9,198.2"
   style="fill:none;stroke:#000000;stroke-width:2.0px;stroke-linecap:butt;stroke-linejoin:miter;stroke-opacity:1;"
   id="path98" />
<path
   d="M 197.9,187.6 L 198.1,187.0 L 197.6,186.6"
   style="fill:none;stroke:#000000;stroke-width:2.0px;stroke-linecap:butt;stroke-linejoin:miter;stroke-opacity:1;"
   id="path99" />
<path
   d="M 190.0,178.7 L 189.6,178.2 L 189.7,177.6"
   style="fill:none;stroke:#000000;stroke-width:2.0px;stroke-linecap:butt;stroke-linejoin:miter;stroke-opacity:1;"
   id="path100" />
<path
   d="M 192.7,167.0 L 192.9,166.4 L 192.5,166.0"
   style="fill:none;stroke:#000000;stroke-width:2.0px;stroke-linecap:butt;stroke-linejoin:miter;stroke-opacity:1;"
   id="path101" />
<path
   d="M 184.8,158.1 L 184.4,157.7 L 184.5,157.1"
   style="fill:none;stroke:#000000;stroke-width:2.0px;stroke-linecap:butt;stroke-linejoin:miter;stroke-opacity:1;"
   id="path102" />
<path
   d="M 187.6,146.5 L 187.7,145.9 L 187.3,145.5"
   style="fill:none;stroke:#000000;stroke-width:2.0px;stroke-linecap:butt;stroke-linejoin:miter;stroke-opacity:1;"
   id="path103" />
<path
   d="M 179.6,137.6 L 179.2,137.1 L 179.4,136.5"
   style="fill:none;stroke:#000000;stroke-width:2.0px;stroke-linecap:butt;stroke-linejoin:miter;stroke-opacity:1;"
   id="path104" />
<path
   d="M 182.4,126.0 L 182.6,125.4 L 182.1,124.9"
   style="fill:none;stroke:#000000;stroke-width:2.0px;stroke-linecap:butt;stroke-linejoin:miter;stroke-opacity:1;"
   id="path105" />
<path
   d="M 174.5,117.0 L 174.0,116.6 L 174.2,116.0"
   style="fill:none;stroke:#000000;stroke-width:2.0px;stroke-linecap:butt;stroke-linejoin:miter;stroke-opacity:1;"
   id="path106" />
<path
   d="M 177.2,105.4 L 177.4,104.8 L 177.0,104.4"
   style="fill:none;stroke:#000000;stroke-width:2.0px;stroke-linecap:butt;stroke-linejoin:miter;stroke-opacity:1;"
   id="path107" />
<path
   d="M 169.3,96.5 L 168.9,96.0 L 169.0,95.5"
   style="fill:none;stroke:#000000;stroke-width:2.0px;stroke-linecap:butt;stroke-linejoin:miter;stroke-opacity:1;"
   id="path108" />
<path
   d="M 172.0,84.9 L 172.2,84.3 L 171.8,83.8"
   style="fill:none;stroke:#000000;stroke-width:2.0px;stroke-linecap:butt;stroke-linejoin:miter;stroke-opacity:1;"
   id="path109" />
<path
   d="M 164.1,75.9 L 163.7,75.5 L 163.9,74.9"
   style="fill:none;stroke:#000000;stroke-width:2.0px;stroke-linecap:butt;stroke-linejoin:miter;stroke-opacity:1;"
   id="path110" />
<path
   d="M 166.9,64.3 L 167.0,63.7 L 166.6,63.3"
   style="fill:none;stroke:#000000;stroke-width:2.0px;stroke-linecap:butt;stroke-linejoin:miter;stroke-opacity:1;"
   id="path111" />
<path
   d="M 158.9,55.4 L 158.5,55.0 L 158.7,54.4"
   style="fill:none;stroke:#000000;stroke-width:2.0px;stroke-linecap:butt;stroke-linejoin:miter;stroke-opacity:1;"
   id="path112" />
<path
   d="M 161.7,43.8 L 161.9,43.2 L 161.4,42.8"
   style="fill:none;stroke:#000000;stroke-width:2.0px;stroke-linecap:butt;stroke-linejoin:miter;stroke-opacity:1;"
   id="path113" />
<path
   class="atom-18"
   d="M 196.4 263.4 Q 196.4 262.4, 196.9 261.8 Q 197.4 261.2, 198.4 261.2 Q 199.3 261.2, 199.8 261.8 Q 200.3 262.4, 200.3 263.4 Q 200.3 264.4, 199.8 265.0 Q 199.3 265.6, 198.4 265.6 Q 197.4 265.6, 196.9 265.0 Q 196.4 264.4, 196.4 263.4 M 198.4 265.1 Q 199.0 265.1, 199.4 264.7 Q 199.7 264.2, 199.7 263.4 Q 199.7 262.5, 199.4 262.1 Q 199.0 261.7, 198.4 261.7 Q 197.7 261.7, 197.4 262.1 Q 197.0 262.5, 197.0 263.4 Q 197.0 264.2, 197.4 264.7 Q 197.7 265.1, 198.4 265.1 "
   fill="#FF0000"
   id="path114" />
<path
   class="atom-19"
   d="M 191.3 242.8 Q 191.3 241.8, 191.8 241.2 Q 192.3 240.7, 193.2 240.7 Q 194.1 240.7, 194.7 241.2 Q 195.2 241.8, 195.2 242.8 Q 195.2 243.9, 194.6 244.5 Q 194.1 245.0, 193.2 245.0 Q 192.3 245.0, 191.8 244.5 Q 191.3 243.9, 191.3 242.8 M 193.2 244.6 Q 193.9 244.6, 194.2 244.1 Q 194.6 243.7, 194.6 242.8 Q 194.6 242.0, 194.2 241.6 Q 193.9 241.2, 193.2 241.2 Q 192.6 241.2, 192.2 241.6 Q 191.9 242.0, 191.9 242.8 Q 191.9 243.7, 192.2 244.1 Q 192.6 244.6, 193.2 244.6 "
   fill="#FF0000"
   id="path115" />
<path
   class="atom-23"
   d="M 221.7 213.3 Q 221.7 212.3, 222.2 211.7 Q 222.7 211.2, 223.6 211.2 Q 224.6 211.2, 225.1 211.7 Q 225.6 212.3, 225.6 213.3 Q 225.6 214.4, 225.1 215.0 Q 224.5 215.5, 223.6 215.5 Q 222.7 215.5, 222.2 215.0 Q 221.7 214.4, 221.7 213.3 M 223.6 215.1 Q 224.3 215.1, 224.6 214.6 Q 225.0 214.2, 225.0 213.3 Q 225.0 212.5, 224.6 212.1 Q 224.3 211.7, 223.6 211.7 Q 223.0 211.7, 222.6 212.1 Q 222.3 212.5, 222.3 213.3 Q 222.3 214.2, 222.6 214.6 Q 223.0 215.1, 223.6 215.1 "
   fill="#FF0000"
   id="path116" />
<path
   class="atom-24"
   d="M 235.4 208.2 Q 236.1 208.2, 236.5 208.5 Q 236.8 208.9, 236.8 209.5 Q 236.8 210.1, 236.4 210.4 Q 236.1 210.7, 235.4 210.7 L 234.7 210.7 L 234.7 212.5 L 234.1 212.5 L 234.1 208.2 L 235.4 208.2 M 235.4 210.2 Q 235.8 210.2, 236.0 210.0 Q 236.2 209.8, 236.2 209.5 Q 236.2 209.1, 236.0 208.9 Q 235.8 208.7, 235.4 208.7 L 234.7 208.7 L 234.7 210.2 L 235.4 210.2 "
   fill="#FF7F00"
   id="path117" />
<path
   class="atom-25"
   d="M 236.5 222.2 Q 236.5 221.2, 237.0 220.6 Q 237.5 220.1, 238.5 220.1 Q 239.4 220.1, 239.9 220.6 Q 240.4 221.2, 240.4 222.2 Q 240.4 223.2, 239.9 223.8 Q 239.4 224.4, 238.5 224.4 Q 237.5 224.4, 237.0 223.8 Q 236.5 223.2, 236.5 222.2 M 238.5 223.9 Q 239.1 223.9, 239.5 223.5 Q 239.8 223.1, 239.8 222.2 Q 239.8 221.4, 239.5 221.0 Q 239.1 220.5, 238.5 220.5 Q 237.8 220.5, 237.5 221.0 Q 237.1 221.4, 237.1 222.2 Q 237.1 223.1, 237.5 223.5 Q 237.8 223.9, 238.5 223.9 "
   fill="#FF0000"
   id="path118" />
<path
   class="atom-26"
   d="M 230.5 198.5 Q 230.5 197.5, 231.0 196.9 Q 231.5 196.3, 232.5 196.3 Q 233.4 196.3, 233.9 196.9 Q 234.4 197.5, 234.4 198.5 Q 234.4 199.5, 233.9 200.1 Q 233.4 200.7, 232.5 200.7 Q 231.6 200.7, 231.0 200.1 Q 230.5 199.5, 230.5 198.5 M 232.5 200.2 Q 233.1 200.2, 233.5 199.8 Q 233.8 199.3, 233.8 198.5 Q 233.8 197.7, 233.5 197.2 Q 233.1 196.8, 232.5 196.8 Q 231.8 196.8, 231.5 197.2 Q 231.1 197.7, 231.1 198.5 Q 231.1 199.3, 231.5 199.8 Q 231.8 200.2, 232.5 200.2 "
   fill="#FF0000"
   id="path119" />
<path
   class="atom-26"
   d="M 235.0 197.0 L 236.5 197.0 L 236.5 197.3 L 235.0 197.3 L 235.0 197.0 "
   fill="#FF0000"
   id="path120" />
<path
   class="atom-27"
   d="M 245.4 207.4 Q 245.4 206.3, 245.9 205.8 Q 246.4 205.2, 247.3 205.2 Q 248.3 205.2, 248.8 205.8 Q 249.3 206.3, 249.3 207.4 Q 249.3 208.4, 248.8 209.0 Q 248.3 209.6, 247.3 209.6 Q 246.4 209.6, 245.9 209.0 Q 245.4 208.4, 245.4 207.4 M 247.3 209.1 Q 248.0 209.1, 248.3 208.7 Q 248.7 208.2, 248.7 207.4 Q 248.7 206.5, 248.3 206.1 Q 248.0 205.7, 247.3 205.7 Q 246.7 205.7, 246.3 206.1 Q 246.0 206.5, 246.0 207.4 Q 246.0 208.2, 246.3 208.7 Q 246.7 209.1, 247.3 209.1 "
   fill="#FF0000"
   id="path121" />
<path
   class="atom-30"
   d="M 275.3 219.8 L 276.7 222.0 Q 276.8 222.3, 277.0 222.7 Q 277.3 223.1, 277.3 223.1 L 277.3 219.8 L 277.8 219.8 L 277.8 224.0 L 277.3 224.0 L 275.8 221.6 Q 275.6 221.3, 275.4 221.0 Q 275.2 220.6, 275.2 220.5 L 275.2 224.0 L 274.6 224.0 L 274.6 219.8 L 275.3 219.8 "
   fill="#0000FF"
   id="path122" />
<path
   class="atom-30"
   d="M 278.6 220.6 L 279.4 220.6 L 279.4 219.8 L 279.7 219.8 L 279.7 220.6 L 280.5 220.6 L 280.5 220.9 L 279.7 220.9 L 279.7 221.6 L 279.4 221.6 L 279.4 220.9 L 278.6 220.9 L 278.6 220.6 "
   fill="#0000FF"
   id="path123" />
<path
   class="atom-34"
   d="M 197.9 219.3 Q 197.9 218.3, 198.4 217.7 Q 199.0 217.1, 199.9 217.1 Q 200.8 217.1, 201.3 217.7 Q 201.8 218.3, 201.8 219.3 Q 201.8 220.3, 201.3 220.9 Q 200.8 221.5, 199.9 221.5 Q 199.0 221.5, 198.4 220.9 Q 197.9 220.3, 197.9 219.3 M 199.9 221.0 Q 200.5 221.0, 200.9 220.6 Q 201.2 220.2, 201.2 219.3 Q 201.2 218.5, 200.9 218.1 Q 200.5 217.6, 199.9 217.6 Q 199.2 217.6, 198.9 218.0 Q 198.5 218.5, 198.5 219.3 Q 198.5 220.2, 198.9 220.6 Q 199.2 221.0, 199.9 221.0 "
   fill="#FF0000"
   id="path124" />
<path
   class="atom-36"
   d="M 213.1 204.6 Q 213.1 203.5, 213.7 203.0 Q 214.2 202.4, 215.1 202.4 Q 216.0 202.4, 216.5 203.0 Q 217.0 203.5, 217.0 204.6 Q 217.0 205.6, 216.5 206.2 Q 216.0 206.8, 215.1 206.8 Q 214.2 206.8, 213.7 206.2 Q 213.1 205.6, 213.1 204.6 M 215.1 206.3 Q 215.7 206.3, 216.1 205.8 Q 216.4 205.4, 216.4 204.6 Q 216.4 203.7, 216.1 203.3 Q 215.7 202.9, 215.1 202.9 Q 214.4 202.9, 214.1 203.3 Q 213.7 203.7, 213.7 204.6 Q 213.7 205.4, 214.1 205.8 Q 214.4 206.3, 215.1 206.3 "
   fill="#FF0000"
   id="path125" />
</svg>
