<?xml version="1.0" encoding="UTF-8" standalone="no"?>
<svg
   version="1.1"
   xml:space="preserve"
   width="300px"
   height="300px"
   viewBox="0 0 300 300"
   id="svg128"
   sodipodi:docname="PEK.svg"
   inkscape:export-filename="PEK.pdf"
   inkscape:export-xdpi="96"
   inkscape:export-ydpi="96"
   inkscape:version="1.3.2 (091e20e, 2023-11-25)"
   xmlns:inkscape="http://www.inkscape.org/namespaces/inkscape"
   xmlns:sodipodi="http://sodipodi.sourceforge.net/DTD/sodipodi-0.dtd"
   xmlns="http://www.w3.org/2000/svg"
   xmlns:svg="http://www.w3.org/2000/svg"><defs
   id="defs128" /><sodipodi:namedview
   id="namedview128"
   pagecolor="#ffffff"
   bordercolor="#000000"
   borderopacity="0.25"
   inkscape:showpageshadow="2"
   inkscape:pageopacity="0.0"
   inkscape:pagecheckerboard="0"
   inkscape:deskcolor="#d1d1d1"
   inkscape:zoom="0.78666667"
   inkscape:cx="149.36441"
   inkscape:cy="150"
   inkscape:window-width="1312"
   inkscape:window-height="449"
   inkscape:window-x="1440"
   inkscape:window-y="56"
   inkscape:window-maximized="0"
   inkscape:current-layer="svg128" />
<!-- END OF HEADER -->
<rect
   style="opacity:1.0;fill:#FFFFFF;stroke:none"
   width="300.0"
   height="300.0"
   x="0.0"
   y="0.0"
   id="rect1"> </rect>
<path
   class="bond-0 atom-0 atom-1"
   d="M 284.0,150.4 L 285.0,159.8"
   style="fill:none;fill-rule:evenodd;stroke:#000000;stroke-width:2.0px;stroke-linecap:butt;stroke-linejoin:miter;stroke-opacity:1"
   id="path1" />
<path
   class="bond-1 atom-1 atom-2"
   d="M 285.0,159.8 L 277.4,165.4"
   style="fill:none;fill-rule:evenodd;stroke:#000000;stroke-width:2.0px;stroke-linecap:butt;stroke-linejoin:miter;stroke-opacity:1"
   id="path2" />
<path
   class="bond-2 atom-2 atom-3"
   d="M 277.4,165.4 L 278.4,174.8"
   style="fill:none;fill-rule:evenodd;stroke:#000000;stroke-width:2.0px;stroke-linecap:butt;stroke-linejoin:miter;stroke-opacity:1"
   id="path3" />
<path
   class="bond-3 atom-3 atom-4"
   d="M 278.4,174.8 L 270.8,180.4"
   style="fill:none;fill-rule:evenodd;stroke:#000000;stroke-width:2.0px;stroke-linecap:butt;stroke-linejoin:miter;stroke-opacity:1"
   id="path4" />
<path
   class="bond-4 atom-4 atom-5"
   d="M 270.8,180.4 L 271.9,189.8"
   style="fill:none;fill-rule:evenodd;stroke:#000000;stroke-width:2.0px;stroke-linecap:butt;stroke-linejoin:miter;stroke-opacity:1"
   id="path5" />
<path
   class="bond-5 atom-5 atom-6"
   d="M 271.9,189.8 L 264.2,195.4"
   style="fill:none;fill-rule:evenodd;stroke:#000000;stroke-width:2.0px;stroke-linecap:butt;stroke-linejoin:miter;stroke-opacity:1"
   id="path6" />
<path
   class="bond-5 atom-5 atom-6"
   d="M 270.4,189.2 L 264.1,193.8"
   style="fill:none;fill-rule:evenodd;stroke:#000000;stroke-width:2.0px;stroke-linecap:butt;stroke-linejoin:miter;stroke-opacity:1"
   id="path7" />
<path
   class="bond-6 atom-6 atom-7"
   d="M 264.2,195.4 L 255.6,191.6"
   style="fill:none;fill-rule:evenodd;stroke:#000000;stroke-width:2.0px;stroke-linecap:butt;stroke-linejoin:miter;stroke-opacity:1"
   id="path8" />
<path
   class="bond-7 atom-7 atom-8"
   d="M 255.6,191.6 L 248.0,197.2"
   style="fill:none;fill-rule:evenodd;stroke:#000000;stroke-width:2.0px;stroke-linecap:butt;stroke-linejoin:miter;stroke-opacity:1"
   id="path9" />
<path
   class="bond-8 atom-8 atom-9"
   d="M 248.0,197.2 L 239.3,193.4"
   style="fill:none;fill-rule:evenodd;stroke:#000000;stroke-width:2.0px;stroke-linecap:butt;stroke-linejoin:miter;stroke-opacity:1"
   id="path10" />
<path
   class="bond-8 atom-8 atom-9"
   d="M 247.8,195.6 L 240.6,192.5"
   style="fill:none;fill-rule:evenodd;stroke:#000000;stroke-width:2.0px;stroke-linecap:butt;stroke-linejoin:miter;stroke-opacity:1"
   id="path11" />
<path
   class="bond-9 atom-9 atom-10"
   d="M 239.3,193.4 L 238.3,184.0"
   style="fill:none;fill-rule:evenodd;stroke:#000000;stroke-width:2.0px;stroke-linecap:butt;stroke-linejoin:miter;stroke-opacity:1"
   id="path12" />
<path
   class="bond-10 atom-10 atom-11"
   d="M 238.3,184.0 L 229.6,180.2"
   style="fill:none;fill-rule:evenodd;stroke:#000000;stroke-width:2.0px;stroke-linecap:butt;stroke-linejoin:miter;stroke-opacity:1"
   id="path13" />
<path
   class="bond-11 atom-11 atom-12"
   d="M 229.6,180.2 L 228.6,170.8"
   style="fill:none;fill-rule:evenodd;stroke:#000000;stroke-width:2.0px;stroke-linecap:butt;stroke-linejoin:miter;stroke-opacity:1"
   id="path14" />
<path
   class="bond-11 atom-11 atom-12"
   d="M 230.9,179.3 L 230.1,171.5"
   style="fill:none;fill-rule:evenodd;stroke:#000000;stroke-width:2.0px;stroke-linecap:butt;stroke-linejoin:miter;stroke-opacity:1"
   id="path15" />
<path
   class="bond-12 atom-12 atom-13"
   d="M 228.6,170.8 L 236.2,165.2"
   style="fill:none;fill-rule:evenodd;stroke:#000000;stroke-width:2.0px;stroke-linecap:butt;stroke-linejoin:miter;stroke-opacity:1"
   id="path16" />
<path
   class="bond-13 atom-13 atom-14"
   d="M 236.2,165.2 L 235.2,155.9"
   style="fill:none;fill-rule:evenodd;stroke:#000000;stroke-width:2.0px;stroke-linecap:butt;stroke-linejoin:miter;stroke-opacity:1"
   id="path17" />
<path
   class="bond-14 atom-14 atom-15"
   d="M 235.2,155.9 L 226.5,152.1"
   style="fill:none;fill-rule:evenodd;stroke:#000000;stroke-width:2.0px;stroke-linecap:butt;stroke-linejoin:miter;stroke-opacity:1"
   id="path18" />
<path
   class="bond-14 atom-14 atom-15"
   d="M 233.8,156.8 L 226.7,153.7"
   style="fill:none;fill-rule:evenodd;stroke:#000000;stroke-width:2.0px;stroke-linecap:butt;stroke-linejoin:miter;stroke-opacity:1"
   id="path19" />
<path
   class="bond-15 atom-15 atom-16"
   d="M 226.5,152.1 L 218.9,157.7"
   style="fill:none;fill-rule:evenodd;stroke:#000000;stroke-width:2.0px;stroke-linecap:butt;stroke-linejoin:miter;stroke-opacity:1"
   id="path20" />
<path
   class="bond-16 atom-16 atom-17"
   d="M 218.9,157.7 L 210.2,153.9"
   style="fill:none;fill-rule:evenodd;stroke:#000000;stroke-width:2.0px;stroke-linecap:butt;stroke-linejoin:miter;stroke-opacity:1"
   id="path21" />
<path
   class="bond-17 atom-17 atom-18"
   d="M 210.2,153.9 L 202.6,159.5"
   style="fill:none;fill-rule:evenodd;stroke:#000000;stroke-width:2.0px;stroke-linecap:butt;stroke-linejoin:miter;stroke-opacity:1"
   id="path22" />
<path
   class="bond-18 atom-18 atom-19"
   d="M 202.6,159.5 L 194.0,155.7"
   style="fill:none;fill-rule:evenodd;stroke:#000000;stroke-width:2.0px;stroke-linecap:butt;stroke-linejoin:miter;stroke-opacity:1"
   id="path23" />
<path
   class="bond-19 atom-19 atom-20"
   d="M 194.7,156.0 L 194.3,152.4"
   style="fill:none;fill-rule:evenodd;stroke:#000000;stroke-width:2.0px;stroke-linecap:butt;stroke-linejoin:miter;stroke-opacity:1"
   id="path24" />
<path
   class="bond-19 atom-19 atom-20"
   d="M 194.3,152.4 L 193.9,148.7"
   style="fill:none;fill-rule:evenodd;stroke:#FF0000;stroke-width:2.0px;stroke-linecap:butt;stroke-linejoin:miter;stroke-opacity:1"
   id="path25" />
<path
   class="bond-19 atom-19 atom-20"
   d="M 193.3,156.1 L 192.9,152.5"
   style="fill:none;fill-rule:evenodd;stroke:#000000;stroke-width:2.0px;stroke-linecap:butt;stroke-linejoin:miter;stroke-opacity:1"
   id="path26" />
<path
   class="bond-19 atom-19 atom-20"
   d="M 192.9,152.5 L 192.5,148.9"
   style="fill:none;fill-rule:evenodd;stroke:#FF0000;stroke-width:2.0px;stroke-linecap:butt;stroke-linejoin:miter;stroke-opacity:1"
   id="path27" />
<path
   class="bond-20 atom-19 atom-21"
   d="M 194.0,155.7 L 191.3,157.6"
   style="fill:none;fill-rule:evenodd;stroke:#000000;stroke-width:2.0px;stroke-linecap:butt;stroke-linejoin:miter;stroke-opacity:1"
   id="path28" />
<path
   class="bond-20 atom-19 atom-21"
   d="M 191.3,157.6 L 188.6,159.6"
   style="fill:none;fill-rule:evenodd;stroke:#FF0000;stroke-width:2.0px;stroke-linecap:butt;stroke-linejoin:miter;stroke-opacity:1"
   id="path29" />
<path
   class="bond-21 atom-21 atom-22"
   d="M 184.1,160.3 L 180.9,158.9"
   style="fill:none;fill-rule:evenodd;stroke:#FF0000;stroke-width:2.0px;stroke-linecap:butt;stroke-linejoin:miter;stroke-opacity:1"
   id="path30" />
<path
   class="bond-21 atom-21 atom-22"
   d="M 180.9,158.9 L 177.7,157.5"
   style="fill:none;fill-rule:evenodd;stroke:#000000;stroke-width:2.0px;stroke-linecap:butt;stroke-linejoin:miter;stroke-opacity:1"
   id="path31" />
<path
   class="bond-22 atom-22 atom-23"
   d="M 177.7,157.5 L 170.1,163.1"
   style="fill:none;fill-rule:evenodd;stroke:#000000;stroke-width:2.0px;stroke-linecap:butt;stroke-linejoin:miter;stroke-opacity:1"
   id="path32" />
<path
   class="bond-23 atom-23 atom-24"
   d="M 170.1,163.1 L 166.9,161.7"
   style="fill:none;fill-rule:evenodd;stroke:#000000;stroke-width:2.0px;stroke-linecap:butt;stroke-linejoin:miter;stroke-opacity:1"
   id="path33" />
<path
   class="bond-23 atom-23 atom-24"
   d="M 166.9,161.7 L 163.7,160.3"
   style="fill:none;fill-rule:evenodd;stroke:#FF0000;stroke-width:2.0px;stroke-linecap:butt;stroke-linejoin:miter;stroke-opacity:1"
   id="path34" />
<path
   class="bond-24 atom-24 atom-25"
   d="M 159.2,160.9 L 156.5,162.9"
   style="fill:none;fill-rule:evenodd;stroke:#FF0000;stroke-width:2.0px;stroke-linecap:butt;stroke-linejoin:miter;stroke-opacity:1"
   id="path35" />
<path
   class="bond-24 atom-24 atom-25"
   d="M 156.5,162.9 L 153.8,164.9"
   style="fill:none;fill-rule:evenodd;stroke:#000000;stroke-width:2.0px;stroke-linecap:butt;stroke-linejoin:miter;stroke-opacity:1"
   id="path36" />
<path
   class="bond-25 atom-25 atom-26"
   d="M 153.1,164.5 L 153.5,168.2"
   style="fill:none;fill-rule:evenodd;stroke:#000000;stroke-width:2.0px;stroke-linecap:butt;stroke-linejoin:miter;stroke-opacity:1"
   id="path37" />
<path
   class="bond-25 atom-25 atom-26"
   d="M 153.5,168.2 L 153.9,171.9"
   style="fill:none;fill-rule:evenodd;stroke:#FF0000;stroke-width:2.0px;stroke-linecap:butt;stroke-linejoin:miter;stroke-opacity:1"
   id="path38" />
<path
   class="bond-25 atom-25 atom-26"
   d="M 154.5,164.4 L 154.9,168.1"
   style="fill:none;fill-rule:evenodd;stroke:#000000;stroke-width:2.0px;stroke-linecap:butt;stroke-linejoin:miter;stroke-opacity:1"
   id="path39" />
<path
   class="bond-25 atom-25 atom-26"
   d="M 154.9,168.1 L 155.3,171.7"
   style="fill:none;fill-rule:evenodd;stroke:#FF0000;stroke-width:2.0px;stroke-linecap:butt;stroke-linejoin:miter;stroke-opacity:1"
   id="path40" />
<path
   class="bond-26 atom-25 atom-27"
   d="M 153.8,164.9 L 145.2,161.1"
   style="fill:none;fill-rule:evenodd;stroke:#000000;stroke-width:2.0px;stroke-linecap:butt;stroke-linejoin:miter;stroke-opacity:1"
   id="path41" />
<path
   class="bond-27 atom-27 atom-28"
   d="M 145.2,161.1 L 137.5,166.7"
   style="fill:none;fill-rule:evenodd;stroke:#000000;stroke-width:2.0px;stroke-linecap:butt;stroke-linejoin:miter;stroke-opacity:1"
   id="path42" />
<path
   class="bond-28 atom-28 atom-29"
   d="M 137.5,166.7 L 128.9,162.9"
   style="fill:none;fill-rule:evenodd;stroke:#000000;stroke-width:2.0px;stroke-linecap:butt;stroke-linejoin:miter;stroke-opacity:1"
   id="path43" />
<path
   class="bond-29 atom-29 atom-30"
   d="M 128.9,162.9 L 121.3,168.5"
   style="fill:none;fill-rule:evenodd;stroke:#000000;stroke-width:2.0px;stroke-linecap:butt;stroke-linejoin:miter;stroke-opacity:1"
   id="path44" />
<path
   class="bond-30 atom-30 atom-31"
   d="M 121.3,168.5 L 112.6,164.7"
   style="fill:none;fill-rule:evenodd;stroke:#000000;stroke-width:2.0px;stroke-linecap:butt;stroke-linejoin:miter;stroke-opacity:1"
   id="path45" />
<path
   class="bond-31 atom-31 atom-32"
   d="M 112.6,164.7 L 105.0,170.3"
   style="fill:none;fill-rule:evenodd;stroke:#000000;stroke-width:2.0px;stroke-linecap:butt;stroke-linejoin:miter;stroke-opacity:1"
   id="path46" />
<path
   class="bond-32 atom-32 atom-33"
   d="M 105.0,170.3 L 96.3,166.5"
   style="fill:none;fill-rule:evenodd;stroke:#000000;stroke-width:2.0px;stroke-linecap:butt;stroke-linejoin:miter;stroke-opacity:1"
   id="path47" />
<path
   class="bond-33 atom-33 atom-34"
   d="M 96.3,166.5 L 88.7,172.1"
   style="fill:none;fill-rule:evenodd;stroke:#000000;stroke-width:2.0px;stroke-linecap:butt;stroke-linejoin:miter;stroke-opacity:1"
   id="path48" />
<path
   class="bond-34 atom-34 atom-35"
   d="M 88.7,172.1 L 80.1,168.3"
   style="fill:none;fill-rule:evenodd;stroke:#000000;stroke-width:2.0px;stroke-linecap:butt;stroke-linejoin:miter;stroke-opacity:1"
   id="path49" />
<path
   class="bond-35 atom-35 atom-36"
   d="M 80.1,168.3 L 72.5,173.9"
   style="fill:none;fill-rule:evenodd;stroke:#000000;stroke-width:2.0px;stroke-linecap:butt;stroke-linejoin:miter;stroke-opacity:1"
   id="path50" />
<path
   class="bond-36 atom-36 atom-37"
   d="M 72.5,173.9 L 63.8,170.1"
   style="fill:none;fill-rule:evenodd;stroke:#000000;stroke-width:2.0px;stroke-linecap:butt;stroke-linejoin:miter;stroke-opacity:1"
   id="path51" />
<path
   class="bond-37 atom-37 atom-38"
   d="M 63.8,170.1 L 56.2,175.7"
   style="fill:none;fill-rule:evenodd;stroke:#000000;stroke-width:2.0px;stroke-linecap:butt;stroke-linejoin:miter;stroke-opacity:1"
   id="path52" />
<path
   class="bond-38 atom-38 atom-39"
   d="M 56.2,175.7 L 47.5,171.9"
   style="fill:none;fill-rule:evenodd;stroke:#000000;stroke-width:2.0px;stroke-linecap:butt;stroke-linejoin:miter;stroke-opacity:1"
   id="path53" />
<path
   class="bond-39 atom-39 atom-40"
   d="M 47.5,171.9 L 39.9,177.5"
   style="fill:none;fill-rule:evenodd;stroke:#000000;stroke-width:2.0px;stroke-linecap:butt;stroke-linejoin:miter;stroke-opacity:1"
   id="path54" />
<path
   class="bond-40 atom-40 atom-41"
   d="M 39.9,177.5 L 31.3,173.7"
   style="fill:none;fill-rule:evenodd;stroke:#000000;stroke-width:2.0px;stroke-linecap:butt;stroke-linejoin:miter;stroke-opacity:1"
   id="path55" />
<path
   class="bond-41 atom-41 atom-42"
   d="M 31.3,173.7 L 23.7,179.3"
   style="fill:none;fill-rule:evenodd;stroke:#000000;stroke-width:2.0px;stroke-linecap:butt;stroke-linejoin:miter;stroke-opacity:1"
   id="path56" />
<path
   class="bond-42 atom-42 atom-43"
   d="M 23.7,179.3 L 15.0,175.5"
   style="fill:none;fill-rule:evenodd;stroke:#000000;stroke-width:2.0px;stroke-linecap:butt;stroke-linejoin:miter;stroke-opacity:1"
   id="path57" />
<path
   class="bond-43 atom-22 atom-44"
   d="M 177.7,157.5 L 176.6,148.1"
   style="fill:none;fill-rule:evenodd;stroke:#000000;stroke-width:2.0px;stroke-linecap:butt;stroke-linejoin:miter;stroke-opacity:1"
   id="path58" />
<path
   class="bond-44 atom-44 atom-45"
   d="M 176.6,148.1 L 173.5,146.7"
   style="fill:none;fill-rule:evenodd;stroke:#000000;stroke-width:2.0px;stroke-linecap:butt;stroke-linejoin:miter;stroke-opacity:1"
   id="path59" />
<path
   class="bond-44 atom-44 atom-45"
   d="M 173.5,146.7 L 170.3,145.3"
   style="fill:none;fill-rule:evenodd;stroke:#FF0000;stroke-width:2.0px;stroke-linecap:butt;stroke-linejoin:miter;stroke-opacity:1"
   id="path60" />
<path
   class="bond-45 atom-45 atom-46"
   d="M 167.7,141.8 L 167.5,139.6"
   style="fill:none;fill-rule:evenodd;stroke:#FF0000;stroke-width:2.0px;stroke-linecap:butt;stroke-linejoin:miter;stroke-opacity:1"
   id="path61" />
<path
   class="bond-45 atom-45 atom-46"
   d="M 167.5,139.6 L 167.2,137.3"
   style="fill:none;fill-rule:evenodd;stroke:#FF7F00;stroke-width:2.0px;stroke-linecap:butt;stroke-linejoin:miter;stroke-opacity:1"
   id="path62" />
<path
   class="bond-46 atom-46 atom-47"
   d="M 165.2,134.4 L 162.5,134.7"
   style="fill:none;fill-rule:evenodd;stroke:#FF7F00;stroke-width:2.0px;stroke-linecap:butt;stroke-linejoin:miter;stroke-opacity:1"
   id="path63" />
<path
   class="bond-46 atom-46 atom-47"
   d="M 162.5,134.7 L 159.7,135.0"
   style="fill:none;fill-rule:evenodd;stroke:#FF0000;stroke-width:2.0px;stroke-linecap:butt;stroke-linejoin:miter;stroke-opacity:1"
   id="path64" />
<path
   class="bond-46 atom-46 atom-47"
   d="M 165.4,135.8 L 162.6,136.1"
   style="fill:none;fill-rule:evenodd;stroke:#FF7F00;stroke-width:2.0px;stroke-linecap:butt;stroke-linejoin:miter;stroke-opacity:1"
   id="path65" />
<path
   class="bond-46 atom-46 atom-47"
   d="M 162.6,136.1 L 159.9,136.4"
   style="fill:none;fill-rule:evenodd;stroke:#FF0000;stroke-width:2.0px;stroke-linecap:butt;stroke-linejoin:miter;stroke-opacity:1"
   id="path66" />
<path
   class="bond-47 atom-46 atom-48"
   d="M 168.6,134.7 L 171.4,134.4"
   style="fill:none;fill-rule:evenodd;stroke:#FF7F00;stroke-width:2.0px;stroke-linecap:butt;stroke-linejoin:miter;stroke-opacity:1"
   id="path67" />
<path
   class="bond-47 atom-46 atom-48"
   d="M 171.4,134.4 L 174.1,134.1"
   style="fill:none;fill-rule:evenodd;stroke:#FF0000;stroke-width:2.0px;stroke-linecap:butt;stroke-linejoin:miter;stroke-opacity:1"
   id="path68" />
<path
   class="bond-48 atom-46 atom-49"
   d="M 166.7,132.5 L 166.4,130.2"
   style="fill:none;fill-rule:evenodd;stroke:#FF7F00;stroke-width:2.0px;stroke-linecap:butt;stroke-linejoin:miter;stroke-opacity:1"
   id="path69" />
<path
   class="bond-48 atom-46 atom-49"
   d="M 166.4,130.2 L 166.2,128.0"
   style="fill:none;fill-rule:evenodd;stroke:#FF0000;stroke-width:2.0px;stroke-linecap:butt;stroke-linejoin:miter;stroke-opacity:1"
   id="path70" />
<path
   class="bond-49 atom-49 atom-50"
   d="M 168.2,123.8 L 170.8,121.9"
   style="fill:none;fill-rule:evenodd;stroke:#FF0000;stroke-width:2.0px;stroke-linecap:butt;stroke-linejoin:miter;stroke-opacity:1"
   id="path71" />
<path
   class="bond-49 atom-49 atom-50"
   d="M 170.8,121.9 L 173.5,119.9"
   style="fill:none;fill-rule:evenodd;stroke:#000000;stroke-width:2.0px;stroke-linecap:butt;stroke-linejoin:miter;stroke-opacity:1"
   id="path72" />
<path
   class="bond-50 atom-50 atom-51"
   d="M 173.5,119.9 L 172.5,110.5"
   style="fill:none;fill-rule:evenodd;stroke:#000000;stroke-width:2.0px;stroke-linecap:butt;stroke-linejoin:miter;stroke-opacity:1"
   id="path73" />
<path
   class="bond-51 atom-51 atom-52"
   d="M 172.5,110.5 L 175.3,108.4"
   style="fill:none;fill-rule:evenodd;stroke:#000000;stroke-width:2.0px;stroke-linecap:butt;stroke-linejoin:miter;stroke-opacity:1"
   id="path74" />
<path
   class="bond-51 atom-51 atom-52"
   d="M 175.3,108.4 L 178.2,106.3"
   style="fill:none;fill-rule:evenodd;stroke:#0000FF;stroke-width:2.0px;stroke-linecap:butt;stroke-linejoin:miter;stroke-opacity:1"
   id="path75" />
<path
   d="M 284.9,159.4 L 285.0,159.8 L 284.6,160.1"
   style="fill:none;stroke:#000000;stroke-width:2.0px;stroke-linecap:butt;stroke-linejoin:miter;stroke-opacity:1;"
   id="path76" />
<path
   d="M 277.8,165.2 L 277.4,165.4 L 277.4,165.9"
   style="fill:none;stroke:#000000;stroke-width:2.0px;stroke-linecap:butt;stroke-linejoin:miter;stroke-opacity:1;"
   id="path77" />
<path
   d="M 278.4,174.4 L 278.4,174.8 L 278.0,175.1"
   style="fill:none;stroke:#000000;stroke-width:2.0px;stroke-linecap:butt;stroke-linejoin:miter;stroke-opacity:1;"
   id="path78" />
<path
   d="M 271.2,180.1 L 270.8,180.4 L 270.9,180.9"
   style="fill:none;stroke:#000000;stroke-width:2.0px;stroke-linecap:butt;stroke-linejoin:miter;stroke-opacity:1;"
   id="path79" />
<path
   d="M 271.8,189.3 L 271.9,189.8 L 271.5,190.1"
   style="fill:none;stroke:#000000;stroke-width:2.0px;stroke-linecap:butt;stroke-linejoin:miter;stroke-opacity:1;"
   id="path80" />
<path
   d="M 264.6,195.1 L 264.2,195.4 L 263.8,195.2"
   style="fill:none;stroke:#000000;stroke-width:2.0px;stroke-linecap:butt;stroke-linejoin:miter;stroke-opacity:1;"
   id="path81" />
<path
   d="M 256.0,191.8 L 255.6,191.6 L 255.2,191.9"
   style="fill:none;stroke:#000000;stroke-width:2.0px;stroke-linecap:butt;stroke-linejoin:miter;stroke-opacity:1;"
   id="path82" />
<path
   d="M 248.4,196.9 L 248.0,197.2 L 247.5,197.0"
   style="fill:none;stroke:#000000;stroke-width:2.0px;stroke-linecap:butt;stroke-linejoin:miter;stroke-opacity:1;"
   id="path83" />
<path
   d="M 239.7,193.6 L 239.3,193.4 L 239.3,193.0"
   style="fill:none;stroke:#000000;stroke-width:2.0px;stroke-linecap:butt;stroke-linejoin:miter;stroke-opacity:1;"
   id="path84" />
<path
   d="M 238.3,184.5 L 238.3,184.0 L 237.8,183.8"
   style="fill:none;stroke:#000000;stroke-width:2.0px;stroke-linecap:butt;stroke-linejoin:miter;stroke-opacity:1;"
   id="path85" />
<path
   d="M 230.1,180.4 L 229.6,180.2 L 229.6,179.8"
   style="fill:none;stroke:#000000;stroke-width:2.0px;stroke-linecap:butt;stroke-linejoin:miter;stroke-opacity:1;"
   id="path86" />
<path
   d="M 228.6,171.3 L 228.6,170.8 L 229.0,170.6"
   style="fill:none;stroke:#000000;stroke-width:2.0px;stroke-linecap:butt;stroke-linejoin:miter;stroke-opacity:1;"
   id="path87" />
<path
   d="M 235.8,165.5 L 236.2,165.2 L 236.1,164.8"
   style="fill:none;stroke:#000000;stroke-width:2.0px;stroke-linecap:butt;stroke-linejoin:miter;stroke-opacity:1;"
   id="path88" />
<path
   d="M 235.2,156.3 L 235.2,155.9 L 234.7,155.7"
   style="fill:none;stroke:#000000;stroke-width:2.0px;stroke-linecap:butt;stroke-linejoin:miter;stroke-opacity:1;"
   id="path89" />
<path
   d="M 226.9,152.2 L 226.5,152.1 L 226.1,152.3"
   style="fill:none;stroke:#000000;stroke-width:2.0px;stroke-linecap:butt;stroke-linejoin:miter;stroke-opacity:1;"
   id="path90" />
<path
   d="M 219.3,157.4 L 218.9,157.7 L 218.5,157.5"
   style="fill:none;stroke:#000000;stroke-width:2.0px;stroke-linecap:butt;stroke-linejoin:miter;stroke-opacity:1;"
   id="path91" />
<path
   d="M 210.7,154.1 L 210.2,153.9 L 209.8,154.1"
   style="fill:none;stroke:#000000;stroke-width:2.0px;stroke-linecap:butt;stroke-linejoin:miter;stroke-opacity:1;"
   id="path92" />
<path
   d="M 203.0,159.2 L 202.6,159.5 L 202.2,159.3"
   style="fill:none;stroke:#000000;stroke-width:2.0px;stroke-linecap:butt;stroke-linejoin:miter;stroke-opacity:1;"
   id="path93" />
<path
   d="M 194.4,155.9 L 194.0,155.7 L 193.8,155.8"
   style="fill:none;stroke:#000000;stroke-width:2.0px;stroke-linecap:butt;stroke-linejoin:miter;stroke-opacity:1;"
   id="path94" />
<path
   d="M 170.5,162.8 L 170.1,163.1 L 169.9,163.0"
   style="fill:none;stroke:#000000;stroke-width:2.0px;stroke-linecap:butt;stroke-linejoin:miter;stroke-opacity:1;"
   id="path95" />
<path
   d="M 153.9,164.8 L 153.8,164.9 L 153.4,164.7"
   style="fill:none;stroke:#000000;stroke-width:2.0px;stroke-linecap:butt;stroke-linejoin:miter;stroke-opacity:1;"
   id="path96" />
<path
   d="M 145.6,161.3 L 145.2,161.1 L 144.8,161.4"
   style="fill:none;stroke:#000000;stroke-width:2.0px;stroke-linecap:butt;stroke-linejoin:miter;stroke-opacity:1;"
   id="path97" />
<path
   d="M 137.9,166.4 L 137.5,166.7 L 137.1,166.5"
   style="fill:none;stroke:#000000;stroke-width:2.0px;stroke-linecap:butt;stroke-linejoin:miter;stroke-opacity:1;"
   id="path98" />
<path
   d="M 129.3,163.1 L 128.9,162.9 L 128.5,163.2"
   style="fill:none;stroke:#000000;stroke-width:2.0px;stroke-linecap:butt;stroke-linejoin:miter;stroke-opacity:1;"
   id="path99" />
<path
   d="M 121.6,168.2 L 121.3,168.5 L 120.8,168.3"
   style="fill:none;stroke:#000000;stroke-width:2.0px;stroke-linecap:butt;stroke-linejoin:miter;stroke-opacity:1;"
   id="path100" />
<path
   d="M 113.0,164.9 L 112.6,164.7 L 112.2,165.0"
   style="fill:none;stroke:#000000;stroke-width:2.0px;stroke-linecap:butt;stroke-linejoin:miter;stroke-opacity:1;"
   id="path101" />
<path
   d="M 105.4,170.0 L 105.0,170.3 L 104.6,170.1"
   style="fill:none;stroke:#000000;stroke-width:2.0px;stroke-linecap:butt;stroke-linejoin:miter;stroke-opacity:1;"
   id="path102" />
<path
   d="M 96.8,166.7 L 96.3,166.5 L 96.0,166.8"
   style="fill:none;stroke:#000000;stroke-width:2.0px;stroke-linecap:butt;stroke-linejoin:miter;stroke-opacity:1;"
   id="path103" />
<path
   d="M 89.1,171.8 L 88.7,172.1 L 88.3,171.9"
   style="fill:none;stroke:#000000;stroke-width:2.0px;stroke-linecap:butt;stroke-linejoin:miter;stroke-opacity:1;"
   id="path104" />
<path
   d="M 80.5,168.5 L 80.1,168.3 L 79.7,168.6"
   style="fill:none;stroke:#000000;stroke-width:2.0px;stroke-linecap:butt;stroke-linejoin:miter;stroke-opacity:1;"
   id="path105" />
<path
   d="M 72.8,173.6 L 72.5,173.9 L 72.0,173.7"
   style="fill:none;stroke:#000000;stroke-width:2.0px;stroke-linecap:butt;stroke-linejoin:miter;stroke-opacity:1;"
   id="path106" />
<path
   d="M 64.2,170.3 L 63.8,170.1 L 63.4,170.4"
   style="fill:none;stroke:#000000;stroke-width:2.0px;stroke-linecap:butt;stroke-linejoin:miter;stroke-opacity:1;"
   id="path107" />
<path
   d="M 56.6,175.4 L 56.2,175.7 L 55.8,175.5"
   style="fill:none;stroke:#000000;stroke-width:2.0px;stroke-linecap:butt;stroke-linejoin:miter;stroke-opacity:1;"
   id="path108" />
<path
   d="M 48.0,172.1 L 47.5,171.9 L 47.2,172.2"
   style="fill:none;stroke:#000000;stroke-width:2.0px;stroke-linecap:butt;stroke-linejoin:miter;stroke-opacity:1;"
   id="path109" />
<path
   d="M 40.3,177.2 L 39.9,177.5 L 39.5,177.3"
   style="fill:none;stroke:#000000;stroke-width:2.0px;stroke-linecap:butt;stroke-linejoin:miter;stroke-opacity:1;"
   id="path110" />
<path
   d="M 31.7,173.9 L 31.3,173.7 L 30.9,174.0"
   style="fill:none;stroke:#000000;stroke-width:2.0px;stroke-linecap:butt;stroke-linejoin:miter;stroke-opacity:1;"
   id="path111" />
<path
   d="M 24.0,179.0 L 23.7,179.3 L 23.2,179.1"
   style="fill:none;stroke:#000000;stroke-width:2.0px;stroke-linecap:butt;stroke-linejoin:miter;stroke-opacity:1;"
   id="path112" />
<path
   d="M 176.7,148.5 L 176.6,148.1 L 176.5,148.0"
   style="fill:none;stroke:#000000;stroke-width:2.0px;stroke-linecap:butt;stroke-linejoin:miter;stroke-opacity:1;"
   id="path113" />
<path
   d="M 173.4,120.0 L 173.5,119.9 L 173.5,119.4"
   style="fill:none;stroke:#000000;stroke-width:2.0px;stroke-linecap:butt;stroke-linejoin:miter;stroke-opacity:1;"
   id="path114" />
<path
   d="M 172.5,111.0 L 172.5,110.5 L 172.6,110.4"
   style="fill:none;stroke:#000000;stroke-width:2.0px;stroke-linecap:butt;stroke-linejoin:miter;stroke-opacity:1;"
   id="path115" />
<path
   class="atom-20"
   d="M 191.0 146.3 Q 191.0 145.3, 191.5 144.7 Q 192.0 144.1, 192.9 144.1 Q 193.9 144.1, 194.4 144.7 Q 194.9 145.3, 194.9 146.3 Q 194.9 147.3, 194.4 147.9 Q 193.8 148.5, 192.9 148.5 Q 192.0 148.5, 191.5 147.9 Q 191.0 147.3, 191.0 146.3 M 192.9 148.0 Q 193.6 148.0, 193.9 147.6 Q 194.3 147.1, 194.3 146.3 Q 194.3 145.4, 193.9 145.0 Q 193.6 144.6, 192.9 144.6 Q 192.3 144.6, 191.9 145.0 Q 191.6 145.4, 191.6 146.3 Q 191.6 147.1, 191.9 147.6 Q 192.3 148.0, 192.9 148.0 "
   fill="#FF0000"
   id="path116" />
<path
   class="atom-21"
   d="M 184.4 161.3 Q 184.4 160.3, 184.9 159.7 Q 185.4 159.1, 186.3 159.1 Q 187.3 159.1, 187.8 159.7 Q 188.3 160.3, 188.3 161.3 Q 188.3 162.3, 187.8 162.9 Q 187.3 163.5, 186.3 163.5 Q 185.4 163.5, 184.9 162.9 Q 184.4 162.3, 184.4 161.3 M 186.3 163.0 Q 187.0 163.0, 187.3 162.6 Q 187.7 162.1, 187.7 161.3 Q 187.7 160.4, 187.3 160.0 Q 187.0 159.6, 186.3 159.6 Q 185.7 159.6, 185.3 160.0 Q 185.0 160.4, 185.0 161.3 Q 185.0 162.1, 185.3 162.6 Q 185.7 163.0, 186.3 163.0 "
   fill="#FF0000"
   id="path117" />
<path
   class="atom-24"
   d="M 159.5 159.3 Q 159.5 158.3, 160.0 157.7 Q 160.5 157.1, 161.4 157.1 Q 162.4 157.1, 162.9 157.7 Q 163.4 158.3, 163.4 159.3 Q 163.4 160.3, 162.9 160.9 Q 162.4 161.5, 161.4 161.5 Q 160.5 161.5, 160.0 160.9 Q 159.5 160.3, 159.5 159.3 M 161.4 161.0 Q 162.1 161.0, 162.4 160.6 Q 162.8 160.1, 162.8 159.3 Q 162.8 158.4, 162.4 158.0 Q 162.1 157.6, 161.4 157.6 Q 160.8 157.6, 160.4 158.0 Q 160.1 158.4, 160.1 159.3 Q 160.1 160.1, 160.4 160.6 Q 160.8 161.0, 161.4 161.0 "
   fill="#FF0000"
   id="path118" />
<path
   class="atom-26"
   d="M 152.9 174.3 Q 152.9 173.3, 153.4 172.7 Q 153.9 172.1, 154.8 172.1 Q 155.8 172.1, 156.3 172.7 Q 156.8 173.3, 156.8 174.3 Q 156.8 175.3, 156.3 175.9 Q 155.8 176.5, 154.8 176.5 Q 153.9 176.5, 153.4 175.9 Q 152.9 175.3, 152.9 174.3 M 154.8 176.0 Q 155.5 176.0, 155.8 175.6 Q 156.2 175.1, 156.2 174.3 Q 156.2 173.4, 155.8 173.0 Q 155.5 172.6, 154.8 172.6 Q 154.2 172.6, 153.8 173.0 Q 153.5 173.4, 153.5 174.3 Q 153.5 175.1, 153.8 175.6 Q 154.2 176.0, 154.8 176.0 "
   fill="#FF0000"
   id="path119" />
<path
   class="atom-45"
   d="M 166.0 144.3 Q 166.0 143.3, 166.5 142.7 Q 167.1 142.1, 168.0 142.1 Q 168.9 142.1, 169.4 142.7 Q 169.9 143.3, 169.9 144.3 Q 169.9 145.3, 169.4 145.9 Q 168.9 146.5, 168.0 146.5 Q 167.1 146.5, 166.5 145.9 Q 166.0 145.3, 166.0 144.3 M 168.0 146.0 Q 168.6 146.0, 169.0 145.6 Q 169.3 145.1, 169.3 144.3 Q 169.3 143.5, 169.0 143.0 Q 168.6 142.6, 168.0 142.6 Q 167.3 142.6, 167.0 143.0 Q 166.6 143.5, 166.6 144.3 Q 166.6 145.2, 167.0 145.6 Q 167.3 146.0, 168.0 146.0 "
   fill="#FF0000"
   id="path120" />
<path
   class="atom-46"
   d="M 166.9 132.8 Q 167.6 132.8, 167.9 133.1 Q 168.3 133.4, 168.3 134.0 Q 168.3 134.6, 167.9 134.9 Q 167.6 135.3, 166.9 135.3 L 166.2 135.3 L 166.2 137.0 L 165.6 137.0 L 165.6 132.8 L 166.9 132.8 M 166.9 134.8 Q 167.3 134.8, 167.5 134.6 Q 167.7 134.4, 167.7 134.0 Q 167.7 133.6, 167.5 133.4 Q 167.3 133.2, 166.9 133.2 L 166.2 133.2 L 166.2 134.8 L 166.9 134.8 "
   fill="#FF7F00"
   id="path121" />
<path
   class="atom-47"
   d="M 155.6 135.9 Q 155.6 134.9, 156.1 134.4 Q 156.6 133.8, 157.6 133.8 Q 158.5 133.8, 159.0 134.4 Q 159.5 134.9, 159.5 135.9 Q 159.5 137.0, 159.0 137.6 Q 158.5 138.1, 157.6 138.1 Q 156.6 138.1, 156.1 137.6 Q 155.6 137.0, 155.6 135.9 M 157.6 137.7 Q 158.2 137.7, 158.6 137.2 Q 158.9 136.8, 158.9 135.9 Q 158.9 135.1, 158.6 134.7 Q 158.2 134.3, 157.6 134.3 Q 156.9 134.3, 156.6 134.7 Q 156.2 135.1, 156.2 135.9 Q 156.2 136.8, 156.6 137.2 Q 156.9 137.7, 157.6 137.7 "
   fill="#FF0000"
   id="path122" />
<path
   class="atom-48"
   d="M 174.4 133.9 Q 174.4 132.8, 174.9 132.3 Q 175.4 131.7, 176.3 131.7 Q 177.3 131.7, 177.8 132.3 Q 178.3 132.8, 178.3 133.9 Q 178.3 134.9, 177.8 135.5 Q 177.3 136.1, 176.3 136.1 Q 175.4 136.1, 174.9 135.5 Q 174.4 134.9, 174.4 133.9 M 176.3 135.6 Q 177.0 135.6, 177.3 135.1 Q 177.7 134.7, 177.7 133.9 Q 177.7 133.0, 177.3 132.6 Q 177.0 132.2, 176.3 132.2 Q 175.7 132.2, 175.3 132.6 Q 175.0 133.0, 175.0 133.9 Q 175.0 134.7, 175.3 135.1 Q 175.7 135.6, 176.3 135.6 "
   fill="#FF0000"
   id="path123" />
<path
   class="atom-48"
   d="M 179.0 131.7 L 179.5 131.7 L 179.5 133.6 L 181.7 133.6 L 181.7 131.7 L 182.3 131.7 L 182.3 136.0 L 181.7 136.0 L 181.7 134.0 L 179.5 134.0 L 179.5 136.0 L 179.0 136.0 L 179.0 131.7 "
   fill="#FF0000"
   id="path124" />
<path
   class="atom-49"
   d="M 164.0 125.5 Q 164.0 124.5, 164.5 123.9 Q 165.0 123.3, 165.9 123.3 Q 166.9 123.3, 167.4 123.9 Q 167.9 124.5, 167.9 125.5 Q 167.9 126.5, 167.4 127.1 Q 166.8 127.7, 165.9 127.7 Q 165.0 127.7, 164.5 127.1 Q 164.0 126.5, 164.0 125.5 M 165.9 127.2 Q 166.6 127.2, 166.9 126.8 Q 167.3 126.4, 167.3 125.5 Q 167.3 124.7, 166.9 124.3 Q 166.6 123.8, 165.9 123.8 Q 165.3 123.8, 164.9 124.2 Q 164.6 124.7, 164.6 125.5 Q 164.6 126.4, 164.9 126.8 Q 165.3 127.2, 165.9 127.2 "
   fill="#FF0000"
   id="path125" />
<path
   class="atom-52"
   d="M 179.2 102.8 L 180.6 105.0 Q 180.7 105.3, 180.9 105.7 Q 181.1 106.1, 181.1 106.1 L 181.1 102.8 L 181.7 102.8 L 181.7 107.0 L 181.1 107.0 L 179.6 104.6 Q 179.5 104.3, 179.3 104.0 Q 179.1 103.6, 179.0 103.5 L 179.0 107.0 L 178.5 107.0 L 178.5 102.8 L 179.2 102.8 "
   fill="#0000FF"
   id="path126" />
<path
   class="atom-52"
   d="M 182.5 102.8 L 183.1 102.8 L 183.1 104.6 L 185.3 104.6 L 185.3 102.8 L 185.8 102.8 L 185.8 107.0 L 185.3 107.0 L 185.3 105.1 L 183.1 105.1 L 183.1 107.0 L 182.5 107.0 L 182.5 102.8 "
   fill="#0000FF"
   id="path127" />
<path
   class="atom-52"
   d="M 186.7 106.9 Q 186.8 106.6, 187.0 106.5 Q 187.3 106.3, 187.6 106.3 Q 188.0 106.3, 188.3 106.5 Q 188.5 106.8, 188.5 107.2 Q 188.5 107.6, 188.2 108.0 Q 187.9 108.4, 187.3 108.8 L 188.6 108.8 L 188.6 109.2 L 186.7 109.2 L 186.7 108.9 Q 187.2 108.5, 187.5 108.2 Q 187.8 108.0, 188.0 107.7 Q 188.1 107.5, 188.1 107.2 Q 188.1 106.9, 188.0 106.8 Q 187.8 106.6, 187.6 106.6 Q 187.4 106.6, 187.2 106.7 Q 187.1 106.8, 187.0 107.0 L 186.7 106.9 "
   fill="#0000FF"
   id="path128" />
</svg>
