<?xml version="1.0" encoding="UTF-8" standalone="no"?>
<svg
   version="1.1"
   xml:space="preserve"
   width="300px"
   height="300px"
   viewBox="0 0 300 300"
   id="svg136"
   sodipodi:docname="TGL.svg"
   inkscape:export-filename="TGL.pdf"
   inkscape:export-xdpi="96"
   inkscape:export-ydpi="96"
   inkscape:version="1.3.2 (091e20e, 2023-11-25)"
   xmlns:inkscape="http://www.inkscape.org/namespaces/inkscape"
   xmlns:sodipodi="http://sodipodi.sourceforge.net/DTD/sodipodi-0.dtd"
   xmlns="http://www.w3.org/2000/svg"
   xmlns:svg="http://www.w3.org/2000/svg"><defs
   id="defs136" /><sodipodi:namedview
   id="namedview136"
   pagecolor="#ffffff"
   bordercolor="#000000"
   borderopacity="0.25"
   inkscape:showpageshadow="2"
   inkscape:pageopacity="0.0"
   inkscape:pagecheckerboard="0"
   inkscape:deskcolor="#d1d1d1"
   inkscape:zoom="0.78666667"
   inkscape:cx="149.36441"
   inkscape:cy="150"
   inkscape:window-width="1312"
   inkscape:window-height="449"
   inkscape:window-x="1440"
   inkscape:window-y="56"
   inkscape:window-maximized="0"
   inkscape:current-layer="svg136" />
<!-- END OF HEADER -->
<rect
   style="opacity:1.0;fill:#FFFFFF;stroke:none"
   width="300.0"
   height="300.0"
   x="0.0"
   y="0.0"
   id="rect1"> </rect>
<path
   class="bond-0 atom-0 atom-1"
   d="M 15.0,137.9 L 23.8,139.8"
   style="fill:none;fill-rule:evenodd;stroke:#000000;stroke-width:2.0px;stroke-linecap:butt;stroke-linejoin:miter;stroke-opacity:1"
   id="path1" />
<path
   class="bond-1 atom-1 atom-2"
   d="M 23.8,139.8 L 26.6,148.3"
   style="fill:none;fill-rule:evenodd;stroke:#000000;stroke-width:2.0px;stroke-linecap:butt;stroke-linejoin:miter;stroke-opacity:1"
   id="path2" />
<path
   class="bond-2 atom-2 atom-3"
   d="M 26.6,148.3 L 35.3,150.2"
   style="fill:none;fill-rule:evenodd;stroke:#000000;stroke-width:2.0px;stroke-linecap:butt;stroke-linejoin:miter;stroke-opacity:1"
   id="path3" />
<path
   class="bond-3 atom-3 atom-4"
   d="M 35.3,150.2 L 38.1,158.7"
   style="fill:none;fill-rule:evenodd;stroke:#000000;stroke-width:2.0px;stroke-linecap:butt;stroke-linejoin:miter;stroke-opacity:1"
   id="path4" />
<path
   class="bond-4 atom-4 atom-5"
   d="M 38.1,158.7 L 46.9,160.6"
   style="fill:none;fill-rule:evenodd;stroke:#000000;stroke-width:2.0px;stroke-linecap:butt;stroke-linejoin:miter;stroke-opacity:1"
   id="path5" />
<path
   class="bond-5 atom-5 atom-6"
   d="M 46.9,160.6 L 49.7,169.1"
   style="fill:none;fill-rule:evenodd;stroke:#000000;stroke-width:2.0px;stroke-linecap:butt;stroke-linejoin:miter;stroke-opacity:1"
   id="path6" />
<path
   class="bond-6 atom-6 atom-7"
   d="M 49.7,169.1 L 58.4,171.0"
   style="fill:none;fill-rule:evenodd;stroke:#000000;stroke-width:2.0px;stroke-linecap:butt;stroke-linejoin:miter;stroke-opacity:1"
   id="path7" />
<path
   class="bond-7 atom-7 atom-8"
   d="M 58.4,171.0 L 61.2,179.6"
   style="fill:none;fill-rule:evenodd;stroke:#000000;stroke-width:2.0px;stroke-linecap:butt;stroke-linejoin:miter;stroke-opacity:1"
   id="path8" />
<path
   class="bond-8 atom-8 atom-9"
   d="M 61.2,179.6 L 70.0,181.4"
   style="fill:none;fill-rule:evenodd;stroke:#000000;stroke-width:2.0px;stroke-linecap:butt;stroke-linejoin:miter;stroke-opacity:1"
   id="path9" />
<path
   class="bond-9 atom-9 atom-10"
   d="M 70.0,181.4 L 72.8,190.0"
   style="fill:none;fill-rule:evenodd;stroke:#000000;stroke-width:2.0px;stroke-linecap:butt;stroke-linejoin:miter;stroke-opacity:1"
   id="path10" />
<path
   class="bond-10 atom-10 atom-11"
   d="M 72.8,190.0 L 81.6,191.8"
   style="fill:none;fill-rule:evenodd;stroke:#000000;stroke-width:2.0px;stroke-linecap:butt;stroke-linejoin:miter;stroke-opacity:1"
   id="path11" />
<path
   class="bond-11 atom-11 atom-12"
   d="M 81.6,191.8 L 84.3,200.4"
   style="fill:none;fill-rule:evenodd;stroke:#000000;stroke-width:2.0px;stroke-linecap:butt;stroke-linejoin:miter;stroke-opacity:1"
   id="path12" />
<path
   class="bond-12 atom-12 atom-13"
   d="M 84.3,200.4 L 93.1,202.3"
   style="fill:none;fill-rule:evenodd;stroke:#000000;stroke-width:2.0px;stroke-linecap:butt;stroke-linejoin:miter;stroke-opacity:1"
   id="path13" />
<path
   class="bond-13 atom-13 atom-14"
   d="M 93.1,202.3 L 95.9,210.8"
   style="fill:none;fill-rule:evenodd;stroke:#000000;stroke-width:2.0px;stroke-linecap:butt;stroke-linejoin:miter;stroke-opacity:1"
   id="path14" />
<path
   class="bond-14 atom-14 atom-15"
   d="M 95.9,210.8 L 104.7,212.7"
   style="fill:none;fill-rule:evenodd;stroke:#000000;stroke-width:2.0px;stroke-linecap:butt;stroke-linejoin:miter;stroke-opacity:1"
   id="path15" />
<path
   class="bond-15 atom-15 atom-16"
   d="M 104.7,212.7 L 107.4,221.2"
   style="fill:none;fill-rule:evenodd;stroke:#000000;stroke-width:2.0px;stroke-linecap:butt;stroke-linejoin:miter;stroke-opacity:1"
   id="path16" />
<path
   class="bond-16 atom-16 atom-17"
   d="M 107.4,221.2 L 116.2,223.1"
   style="fill:none;fill-rule:evenodd;stroke:#000000;stroke-width:2.0px;stroke-linecap:butt;stroke-linejoin:miter;stroke-opacity:1"
   id="path17" />
<path
   class="bond-17 atom-17 atom-18"
   d="M 115.5,222.9 L 116.5,226.2"
   style="fill:none;fill-rule:evenodd;stroke:#000000;stroke-width:2.0px;stroke-linecap:butt;stroke-linejoin:miter;stroke-opacity:1"
   id="path18" />
<path
   class="bond-17 atom-17 atom-18"
   d="M 116.5,226.2 L 117.6,229.4"
   style="fill:none;fill-rule:evenodd;stroke:#FF0000;stroke-width:2.0px;stroke-linecap:butt;stroke-linejoin:miter;stroke-opacity:1"
   id="path19" />
<path
   class="bond-17 atom-17 atom-18"
   d="M 116.7,222.5 L 117.8,225.7"
   style="fill:none;fill-rule:evenodd;stroke:#000000;stroke-width:2.0px;stroke-linecap:butt;stroke-linejoin:miter;stroke-opacity:1"
   id="path20" />
<path
   class="bond-17 atom-17 atom-18"
   d="M 117.8,225.7 L 118.8,229.0"
   style="fill:none;fill-rule:evenodd;stroke:#FF0000;stroke-width:2.0px;stroke-linecap:butt;stroke-linejoin:miter;stroke-opacity:1"
   id="path21" />
<path
   class="bond-18 atom-17 atom-19"
   d="M 116.2,223.1 L 118.1,221.0"
   style="fill:none;fill-rule:evenodd;stroke:#000000;stroke-width:2.0px;stroke-linecap:butt;stroke-linejoin:miter;stroke-opacity:1"
   id="path22" />
<path
   class="bond-18 atom-17 atom-19"
   d="M 118.1,221.0 L 120.0,218.9"
   style="fill:none;fill-rule:evenodd;stroke:#FF0000;stroke-width:2.0px;stroke-linecap:butt;stroke-linejoin:miter;stroke-opacity:1"
   id="path23" />
<path
   class="bond-19 atom-19 atom-20"
   d="M 124.5,216.9 L 127.7,217.6"
   style="fill:none;fill-rule:evenodd;stroke:#FF0000;stroke-width:2.0px;stroke-linecap:butt;stroke-linejoin:miter;stroke-opacity:1"
   id="path24" />
<path
   class="bond-19 atom-19 atom-20"
   d="M 127.7,217.6 L 131.0,218.3"
   style="fill:none;fill-rule:evenodd;stroke:#000000;stroke-width:2.0px;stroke-linecap:butt;stroke-linejoin:miter;stroke-opacity:1"
   id="path25" />
<path
   class="bond-20 atom-20 atom-21"
   d="M 131.0,218.3 L 137.0,211.6"
   style="fill:none;fill-rule:evenodd;stroke:#000000;stroke-width:2.0px;stroke-linecap:butt;stroke-linejoin:miter;stroke-opacity:1"
   id="path26" />
<path
   class="bond-21 atom-21 atom-22"
   d="M 137.0,211.6 L 145.8,213.5"
   style="fill:none;fill-rule:evenodd;stroke:#000000;stroke-width:2.0px;stroke-linecap:butt;stroke-linejoin:miter;stroke-opacity:1"
   id="path27" />
<path
   class="bond-22 atom-22 atom-23"
   d="M 145.8,213.5 L 147.7,211.4"
   style="fill:none;fill-rule:evenodd;stroke:#000000;stroke-width:2.0px;stroke-linecap:butt;stroke-linejoin:miter;stroke-opacity:1"
   id="path28" />
<path
   class="bond-22 atom-22 atom-23"
   d="M 147.7,211.4 L 149.6,209.3"
   style="fill:none;fill-rule:evenodd;stroke:#FF0000;stroke-width:2.0px;stroke-linecap:butt;stroke-linejoin:miter;stroke-opacity:1"
   id="path29" />
<path
   class="bond-23 atom-23 atom-24"
   d="M 154.1,207.3 L 157.3,208.0"
   style="fill:none;fill-rule:evenodd;stroke:#FF0000;stroke-width:2.0px;stroke-linecap:butt;stroke-linejoin:miter;stroke-opacity:1"
   id="path30" />
<path
   class="bond-23 atom-23 atom-24"
   d="M 157.3,208.0 L 160.6,208.7"
   style="fill:none;fill-rule:evenodd;stroke:#000000;stroke-width:2.0px;stroke-linecap:butt;stroke-linejoin:miter;stroke-opacity:1"
   id="path31" />
<path
   class="bond-24 atom-24 atom-25"
   d="M 159.8,208.5 L 160.9,211.8"
   style="fill:none;fill-rule:evenodd;stroke:#000000;stroke-width:2.0px;stroke-linecap:butt;stroke-linejoin:miter;stroke-opacity:1"
   id="path32" />
<path
   class="bond-24 atom-24 atom-25"
   d="M 160.9,211.8 L 161.9,215.0"
   style="fill:none;fill-rule:evenodd;stroke:#FF0000;stroke-width:2.0px;stroke-linecap:butt;stroke-linejoin:miter;stroke-opacity:1"
   id="path33" />
<path
   class="bond-24 atom-24 atom-25"
   d="M 161.1,208.1 L 162.2,211.4"
   style="fill:none;fill-rule:evenodd;stroke:#000000;stroke-width:2.0px;stroke-linecap:butt;stroke-linejoin:miter;stroke-opacity:1"
   id="path34" />
<path
   class="bond-24 atom-24 atom-25"
   d="M 162.2,211.4 L 163.2,214.6"
   style="fill:none;fill-rule:evenodd;stroke:#FF0000;stroke-width:2.0px;stroke-linecap:butt;stroke-linejoin:miter;stroke-opacity:1"
   id="path35" />
<path
   class="bond-25 atom-24 atom-26"
   d="M 160.6,208.7 L 166.6,202.0"
   style="fill:none;fill-rule:evenodd;stroke:#000000;stroke-width:2.0px;stroke-linecap:butt;stroke-linejoin:miter;stroke-opacity:1"
   id="path36" />
<path
   class="bond-26 atom-26 atom-27"
   d="M 166.6,202.0 L 175.4,203.9"
   style="fill:none;fill-rule:evenodd;stroke:#000000;stroke-width:2.0px;stroke-linecap:butt;stroke-linejoin:miter;stroke-opacity:1"
   id="path37" />
<path
   class="bond-27 atom-27 atom-28"
   d="M 175.4,203.9 L 181.4,197.2"
   style="fill:none;fill-rule:evenodd;stroke:#000000;stroke-width:2.0px;stroke-linecap:butt;stroke-linejoin:miter;stroke-opacity:1"
   id="path38" />
<path
   class="bond-28 atom-28 atom-29"
   d="M 181.4,197.2 L 190.2,199.1"
   style="fill:none;fill-rule:evenodd;stroke:#000000;stroke-width:2.0px;stroke-linecap:butt;stroke-linejoin:miter;stroke-opacity:1"
   id="path39" />
<path
   class="bond-29 atom-29 atom-30"
   d="M 190.2,199.1 L 196.2,192.4"
   style="fill:none;fill-rule:evenodd;stroke:#000000;stroke-width:2.0px;stroke-linecap:butt;stroke-linejoin:miter;stroke-opacity:1"
   id="path40" />
<path
   class="bond-30 atom-30 atom-31"
   d="M 196.2,192.4 L 205.0,194.3"
   style="fill:none;fill-rule:evenodd;stroke:#000000;stroke-width:2.0px;stroke-linecap:butt;stroke-linejoin:miter;stroke-opacity:1"
   id="path41" />
<path
   class="bond-31 atom-31 atom-32"
   d="M 205.0,194.3 L 211.0,187.6"
   style="fill:none;fill-rule:evenodd;stroke:#000000;stroke-width:2.0px;stroke-linecap:butt;stroke-linejoin:miter;stroke-opacity:1"
   id="path42" />
<path
   class="bond-32 atom-32 atom-33"
   d="M 211.0,187.6 L 219.8,189.5"
   style="fill:none;fill-rule:evenodd;stroke:#000000;stroke-width:2.0px;stroke-linecap:butt;stroke-linejoin:miter;stroke-opacity:1"
   id="path43" />
<path
   class="bond-33 atom-33 atom-34"
   d="M 219.8,189.5 L 225.8,182.8"
   style="fill:none;fill-rule:evenodd;stroke:#000000;stroke-width:2.0px;stroke-linecap:butt;stroke-linejoin:miter;stroke-opacity:1"
   id="path44" />
<path
   class="bond-34 atom-34 atom-35"
   d="M 225.8,182.8 L 234.6,184.7"
   style="fill:none;fill-rule:evenodd;stroke:#000000;stroke-width:2.0px;stroke-linecap:butt;stroke-linejoin:miter;stroke-opacity:1"
   id="path45" />
<path
   class="bond-35 atom-35 atom-36"
   d="M 234.6,184.7 L 240.6,178.0"
   style="fill:none;fill-rule:evenodd;stroke:#000000;stroke-width:2.0px;stroke-linecap:butt;stroke-linejoin:miter;stroke-opacity:1"
   id="path46" />
<path
   class="bond-36 atom-36 atom-37"
   d="M 240.6,178.0 L 249.4,179.9"
   style="fill:none;fill-rule:evenodd;stroke:#000000;stroke-width:2.0px;stroke-linecap:butt;stroke-linejoin:miter;stroke-opacity:1"
   id="path47" />
<path
   class="bond-37 atom-37 atom-38"
   d="M 249.4,179.9 L 255.4,173.2"
   style="fill:none;fill-rule:evenodd;stroke:#000000;stroke-width:2.0px;stroke-linecap:butt;stroke-linejoin:miter;stroke-opacity:1"
   id="path48" />
<path
   class="bond-38 atom-38 atom-39"
   d="M 255.4,173.2 L 264.2,175.1"
   style="fill:none;fill-rule:evenodd;stroke:#000000;stroke-width:2.0px;stroke-linecap:butt;stroke-linejoin:miter;stroke-opacity:1"
   id="path49" />
<path
   class="bond-39 atom-39 atom-40"
   d="M 264.2,175.1 L 270.2,168.4"
   style="fill:none;fill-rule:evenodd;stroke:#000000;stroke-width:2.0px;stroke-linecap:butt;stroke-linejoin:miter;stroke-opacity:1"
   id="path50" />
<path
   class="bond-40 atom-40 atom-41"
   d="M 270.2,168.4 L 279.0,170.3"
   style="fill:none;fill-rule:evenodd;stroke:#000000;stroke-width:2.0px;stroke-linecap:butt;stroke-linejoin:miter;stroke-opacity:1"
   id="path51" />
<path
   class="bond-41 atom-41 atom-42"
   d="M 279.0,170.3 L 285.0,163.6"
   style="fill:none;fill-rule:evenodd;stroke:#000000;stroke-width:2.0px;stroke-linecap:butt;stroke-linejoin:miter;stroke-opacity:1"
   id="path52" />
<path
   class="bond-42 atom-21 atom-43"
   d="M 137.0,211.6 L 136.0,208.6"
   style="fill:none;fill-rule:evenodd;stroke:#000000;stroke-width:2.0px;stroke-linecap:butt;stroke-linejoin:miter;stroke-opacity:1"
   id="path53" />
<path
   class="bond-42 atom-21 atom-43"
   d="M 136.0,208.6 L 135.1,205.6"
   style="fill:none;fill-rule:evenodd;stroke:#FF0000;stroke-width:2.0px;stroke-linecap:butt;stroke-linejoin:miter;stroke-opacity:1"
   id="path54" />
<path
   class="bond-43 atom-43 atom-44"
   d="M 136.5,200.6 L 138.4,198.5"
   style="fill:none;fill-rule:evenodd;stroke:#FF0000;stroke-width:2.0px;stroke-linecap:butt;stroke-linejoin:miter;stroke-opacity:1"
   id="path55" />
<path
   class="bond-43 atom-43 atom-44"
   d="M 138.4,198.5 L 140.3,196.4"
   style="fill:none;fill-rule:evenodd;stroke:#000000;stroke-width:2.0px;stroke-linecap:butt;stroke-linejoin:miter;stroke-opacity:1"
   id="path56" />
<path
   class="bond-44 atom-44 atom-45"
   d="M 139.7,197.0 L 143.2,197.7"
   style="fill:none;fill-rule:evenodd;stroke:#000000;stroke-width:2.0px;stroke-linecap:butt;stroke-linejoin:miter;stroke-opacity:1"
   id="path57" />
<path
   class="bond-44 atom-44 atom-45"
   d="M 143.2,197.7 L 146.7,198.5"
   style="fill:none;fill-rule:evenodd;stroke:#FF0000;stroke-width:2.0px;stroke-linecap:butt;stroke-linejoin:miter;stroke-opacity:1"
   id="path58" />
<path
   class="bond-44 atom-44 atom-45"
   d="M 140.0,195.7 L 143.5,196.4"
   style="fill:none;fill-rule:evenodd;stroke:#000000;stroke-width:2.0px;stroke-linecap:butt;stroke-linejoin:miter;stroke-opacity:1"
   id="path59" />
<path
   class="bond-44 atom-44 atom-45"
   d="M 143.5,196.4 L 146.9,197.1"
   style="fill:none;fill-rule:evenodd;stroke:#FF0000;stroke-width:2.0px;stroke-linecap:butt;stroke-linejoin:miter;stroke-opacity:1"
   id="path60" />
<path
   class="bond-45 atom-44 atom-46"
   d="M 140.3,196.4 L 137.5,187.9"
   style="fill:none;fill-rule:evenodd;stroke:#000000;stroke-width:2.0px;stroke-linecap:butt;stroke-linejoin:miter;stroke-opacity:1"
   id="path61" />
<path
   class="bond-46 atom-46 atom-47"
   d="M 137.5,187.9 L 143.5,181.2"
   style="fill:none;fill-rule:evenodd;stroke:#000000;stroke-width:2.0px;stroke-linecap:butt;stroke-linejoin:miter;stroke-opacity:1"
   id="path62" />
<path
   class="bond-47 atom-47 atom-48"
   d="M 143.5,181.2 L 140.7,172.7"
   style="fill:none;fill-rule:evenodd;stroke:#000000;stroke-width:2.0px;stroke-linecap:butt;stroke-linejoin:miter;stroke-opacity:1"
   id="path63" />
<path
   class="bond-48 atom-48 atom-49"
   d="M 140.7,172.7 L 146.8,166.0"
   style="fill:none;fill-rule:evenodd;stroke:#000000;stroke-width:2.0px;stroke-linecap:butt;stroke-linejoin:miter;stroke-opacity:1"
   id="path64" />
<path
   class="bond-49 atom-49 atom-50"
   d="M 146.8,166.0 L 144.0,157.4"
   style="fill:none;fill-rule:evenodd;stroke:#000000;stroke-width:2.0px;stroke-linecap:butt;stroke-linejoin:miter;stroke-opacity:1"
   id="path65" />
<path
   class="bond-50 atom-50 atom-51"
   d="M 144.0,157.4 L 150.0,150.8"
   style="fill:none;fill-rule:evenodd;stroke:#000000;stroke-width:2.0px;stroke-linecap:butt;stroke-linejoin:miter;stroke-opacity:1"
   id="path66" />
<path
   class="bond-51 atom-51 atom-52"
   d="M 150.0,150.8 L 147.2,142.2"
   style="fill:none;fill-rule:evenodd;stroke:#000000;stroke-width:2.0px;stroke-linecap:butt;stroke-linejoin:miter;stroke-opacity:1"
   id="path67" />
<path
   class="bond-52 atom-52 atom-53"
   d="M 147.2,142.2 L 153.2,135.6"
   style="fill:none;fill-rule:evenodd;stroke:#000000;stroke-width:2.0px;stroke-linecap:butt;stroke-linejoin:miter;stroke-opacity:1"
   id="path68" />
<path
   class="bond-53 atom-53 atom-54"
   d="M 153.2,135.6 L 150.5,127.0"
   style="fill:none;fill-rule:evenodd;stroke:#000000;stroke-width:2.0px;stroke-linecap:butt;stroke-linejoin:miter;stroke-opacity:1"
   id="path69" />
<path
   class="bond-54 atom-54 atom-55"
   d="M 150.5,127.0 L 156.5,120.3"
   style="fill:none;fill-rule:evenodd;stroke:#000000;stroke-width:2.0px;stroke-linecap:butt;stroke-linejoin:miter;stroke-opacity:1"
   id="path70" />
<path
   class="bond-55 atom-55 atom-56"
   d="M 156.5,120.3 L 153.7,111.8"
   style="fill:none;fill-rule:evenodd;stroke:#000000;stroke-width:2.0px;stroke-linecap:butt;stroke-linejoin:miter;stroke-opacity:1"
   id="path71" />
<path
   class="bond-56 atom-56 atom-57"
   d="M 153.7,111.8 L 159.7,105.1"
   style="fill:none;fill-rule:evenodd;stroke:#000000;stroke-width:2.0px;stroke-linecap:butt;stroke-linejoin:miter;stroke-opacity:1"
   id="path72" />
<path
   class="bond-57 atom-57 atom-58"
   d="M 159.7,105.1 L 157.0,96.6"
   style="fill:none;fill-rule:evenodd;stroke:#000000;stroke-width:2.0px;stroke-linecap:butt;stroke-linejoin:miter;stroke-opacity:1"
   id="path73" />
<path
   class="bond-58 atom-58 atom-59"
   d="M 157.0,96.6 L 163.0,89.9"
   style="fill:none;fill-rule:evenodd;stroke:#000000;stroke-width:2.0px;stroke-linecap:butt;stroke-linejoin:miter;stroke-opacity:1"
   id="path74" />
<path
   class="bond-59 atom-59 atom-60"
   d="M 163.0,89.9 L 160.2,81.4"
   style="fill:none;fill-rule:evenodd;stroke:#000000;stroke-width:2.0px;stroke-linecap:butt;stroke-linejoin:miter;stroke-opacity:1"
   id="path75" />
<path
   class="bond-60 atom-60 atom-61"
   d="M 160.2,81.4 L 166.2,74.7"
   style="fill:none;fill-rule:evenodd;stroke:#000000;stroke-width:2.0px;stroke-linecap:butt;stroke-linejoin:miter;stroke-opacity:1"
   id="path76" />
<path
   class="bond-61 atom-61 atom-62"
   d="M 166.2,74.7 L 163.4,66.2"
   style="fill:none;fill-rule:evenodd;stroke:#000000;stroke-width:2.0px;stroke-linecap:butt;stroke-linejoin:miter;stroke-opacity:1"
   id="path77" />
<path
   d="M 23.3,139.7 L 23.8,139.8 L 23.9,140.2"
   style="fill:none;stroke:#000000;stroke-width:2.0px;stroke-linecap:butt;stroke-linejoin:miter;stroke-opacity:1;"
   id="path78" />
<path
   d="M 26.4,147.9 L 26.6,148.3 L 27.0,148.4"
   style="fill:none;stroke:#000000;stroke-width:2.0px;stroke-linecap:butt;stroke-linejoin:miter;stroke-opacity:1;"
   id="path79" />
<path
   d="M 34.9,150.1 L 35.3,150.2 L 35.5,150.6"
   style="fill:none;stroke:#000000;stroke-width:2.0px;stroke-linecap:butt;stroke-linejoin:miter;stroke-opacity:1;"
   id="path80" />
<path
   d="M 38.0,158.3 L 38.1,158.7 L 38.5,158.8"
   style="fill:none;stroke:#000000;stroke-width:2.0px;stroke-linecap:butt;stroke-linejoin:miter;stroke-opacity:1;"
   id="path81" />
<path
   d="M 46.5,160.5 L 46.9,160.6 L 47.0,161.0"
   style="fill:none;stroke:#000000;stroke-width:2.0px;stroke-linecap:butt;stroke-linejoin:miter;stroke-opacity:1;"
   id="path82" />
<path
   d="M 49.5,168.7 L 49.7,169.1 L 50.1,169.2"
   style="fill:none;stroke:#000000;stroke-width:2.0px;stroke-linecap:butt;stroke-linejoin:miter;stroke-opacity:1;"
   id="path83" />
<path
   d="M 58.0,170.9 L 58.4,171.0 L 58.6,171.4"
   style="fill:none;stroke:#000000;stroke-width:2.0px;stroke-linecap:butt;stroke-linejoin:miter;stroke-opacity:1;"
   id="path84" />
<path
   d="M 61.1,179.1 L 61.2,179.6 L 61.7,179.6"
   style="fill:none;stroke:#000000;stroke-width:2.0px;stroke-linecap:butt;stroke-linejoin:miter;stroke-opacity:1;"
   id="path85" />
<path
   d="M 69.6,181.3 L 70.0,181.4 L 70.1,181.9"
   style="fill:none;stroke:#000000;stroke-width:2.0px;stroke-linecap:butt;stroke-linejoin:miter;stroke-opacity:1;"
   id="path86" />
<path
   d="M 72.6,189.5 L 72.8,190.0 L 73.2,190.1"
   style="fill:none;stroke:#000000;stroke-width:2.0px;stroke-linecap:butt;stroke-linejoin:miter;stroke-opacity:1;"
   id="path87" />
<path
   d="M 81.1,191.7 L 81.6,191.8 L 81.7,192.3"
   style="fill:none;stroke:#000000;stroke-width:2.0px;stroke-linecap:butt;stroke-linejoin:miter;stroke-opacity:1;"
   id="path88" />
<path
   d="M 84.2,200.0 L 84.3,200.4 L 84.8,200.5"
   style="fill:none;stroke:#000000;stroke-width:2.0px;stroke-linecap:butt;stroke-linejoin:miter;stroke-opacity:1;"
   id="path89" />
<path
   d="M 92.7,202.2 L 93.1,202.3 L 93.2,202.7"
   style="fill:none;stroke:#000000;stroke-width:2.0px;stroke-linecap:butt;stroke-linejoin:miter;stroke-opacity:1;"
   id="path90" />
<path
   d="M 95.7,210.4 L 95.9,210.8 L 96.3,210.9"
   style="fill:none;stroke:#000000;stroke-width:2.0px;stroke-linecap:butt;stroke-linejoin:miter;stroke-opacity:1;"
   id="path91" />
<path
   d="M 104.2,212.6 L 104.7,212.7 L 104.8,213.1"
   style="fill:none;stroke:#000000;stroke-width:2.0px;stroke-linecap:butt;stroke-linejoin:miter;stroke-opacity:1;"
   id="path92" />
<path
   d="M 107.3,220.8 L 107.4,221.2 L 107.9,221.3"
   style="fill:none;stroke:#000000;stroke-width:2.0px;stroke-linecap:butt;stroke-linejoin:miter;stroke-opacity:1;"
   id="path93" />
<path
   d="M 115.8,223.0 L 116.2,223.1 L 116.3,223.0"
   style="fill:none;stroke:#000000;stroke-width:2.0px;stroke-linecap:butt;stroke-linejoin:miter;stroke-opacity:1;"
   id="path94" />
<path
   d="M 130.8,218.3 L 131.0,218.3 L 131.3,218.0"
   style="fill:none;stroke:#000000;stroke-width:2.0px;stroke-linecap:butt;stroke-linejoin:miter;stroke-opacity:1;"
   id="path95" />
<path
   d="M 145.4,213.4 L 145.8,213.5 L 145.9,213.4"
   style="fill:none;stroke:#000000;stroke-width:2.0px;stroke-linecap:butt;stroke-linejoin:miter;stroke-opacity:1;"
   id="path96" />
<path
   d="M 160.4,208.7 L 160.6,208.7 L 160.9,208.4"
   style="fill:none;stroke:#000000;stroke-width:2.0px;stroke-linecap:butt;stroke-linejoin:miter;stroke-opacity:1;"
   id="path97" />
<path
   d="M 166.3,202.4 L 166.6,202.0 L 167.1,202.1"
   style="fill:none;stroke:#000000;stroke-width:2.0px;stroke-linecap:butt;stroke-linejoin:miter;stroke-opacity:1;"
   id="path98" />
<path
   d="M 175.0,203.8 L 175.4,203.9 L 175.7,203.6"
   style="fill:none;stroke:#000000;stroke-width:2.0px;stroke-linecap:butt;stroke-linejoin:miter;stroke-opacity:1;"
   id="path99" />
<path
   d="M 181.1,197.6 L 181.4,197.2 L 181.9,197.3"
   style="fill:none;stroke:#000000;stroke-width:2.0px;stroke-linecap:butt;stroke-linejoin:miter;stroke-opacity:1;"
   id="path100" />
<path
   d="M 189.8,199.0 L 190.2,199.1 L 190.5,198.8"
   style="fill:none;stroke:#000000;stroke-width:2.0px;stroke-linecap:butt;stroke-linejoin:miter;stroke-opacity:1;"
   id="path101" />
<path
   d="M 195.9,192.8 L 196.2,192.4 L 196.7,192.5"
   style="fill:none;stroke:#000000;stroke-width:2.0px;stroke-linecap:butt;stroke-linejoin:miter;stroke-opacity:1;"
   id="path102" />
<path
   d="M 204.6,194.2 L 205.0,194.3 L 205.3,194.0"
   style="fill:none;stroke:#000000;stroke-width:2.0px;stroke-linecap:butt;stroke-linejoin:miter;stroke-opacity:1;"
   id="path103" />
<path
   d="M 210.7,188.0 L 211.0,187.6 L 211.5,187.7"
   style="fill:none;stroke:#000000;stroke-width:2.0px;stroke-linecap:butt;stroke-linejoin:miter;stroke-opacity:1;"
   id="path104" />
<path
   d="M 219.4,189.4 L 219.8,189.5 L 220.1,189.2"
   style="fill:none;stroke:#000000;stroke-width:2.0px;stroke-linecap:butt;stroke-linejoin:miter;stroke-opacity:1;"
   id="path105" />
<path
   d="M 225.5,183.2 L 225.8,182.8 L 226.2,182.9"
   style="fill:none;stroke:#000000;stroke-width:2.0px;stroke-linecap:butt;stroke-linejoin:miter;stroke-opacity:1;"
   id="path106" />
<path
   d="M 234.2,184.6 L 234.6,184.7 L 234.9,184.4"
   style="fill:none;stroke:#000000;stroke-width:2.0px;stroke-linecap:butt;stroke-linejoin:miter;stroke-opacity:1;"
   id="path107" />
<path
   d="M 240.3,178.4 L 240.6,178.0 L 241.0,178.1"
   style="fill:none;stroke:#000000;stroke-width:2.0px;stroke-linecap:butt;stroke-linejoin:miter;stroke-opacity:1;"
   id="path108" />
<path
   d="M 249.0,179.8 L 249.4,179.9 L 249.7,179.6"
   style="fill:none;stroke:#000000;stroke-width:2.0px;stroke-linecap:butt;stroke-linejoin:miter;stroke-opacity:1;"
   id="path109" />
<path
   d="M 255.1,173.6 L 255.4,173.2 L 255.8,173.3"
   style="fill:none;stroke:#000000;stroke-width:2.0px;stroke-linecap:butt;stroke-linejoin:miter;stroke-opacity:1;"
   id="path110" />
<path
   d="M 263.7,175.0 L 264.2,175.1 L 264.5,174.8"
   style="fill:none;stroke:#000000;stroke-width:2.0px;stroke-linecap:butt;stroke-linejoin:miter;stroke-opacity:1;"
   id="path111" />
<path
   d="M 269.9,168.8 L 270.2,168.4 L 270.6,168.5"
   style="fill:none;stroke:#000000;stroke-width:2.0px;stroke-linecap:butt;stroke-linejoin:miter;stroke-opacity:1;"
   id="path112" />
<path
   d="M 278.5,170.2 L 279.0,170.3 L 279.3,170.0"
   style="fill:none;stroke:#000000;stroke-width:2.0px;stroke-linecap:butt;stroke-linejoin:miter;stroke-opacity:1;"
   id="path113" />
<path
   d="M 140.2,196.5 L 140.3,196.4 L 140.1,196.0"
   style="fill:none;stroke:#000000;stroke-width:2.0px;stroke-linecap:butt;stroke-linejoin:miter;stroke-opacity:1;"
   id="path114" />
<path
   d="M 137.6,188.3 L 137.5,187.9 L 137.8,187.5"
   style="fill:none;stroke:#000000;stroke-width:2.0px;stroke-linecap:butt;stroke-linejoin:miter;stroke-opacity:1;"
   id="path115" />
<path
   d="M 143.2,181.5 L 143.5,181.2 L 143.4,180.8"
   style="fill:none;stroke:#000000;stroke-width:2.0px;stroke-linecap:butt;stroke-linejoin:miter;stroke-opacity:1;"
   id="path116" />
<path
   d="M 140.9,173.1 L 140.7,172.7 L 141.0,172.3"
   style="fill:none;stroke:#000000;stroke-width:2.0px;stroke-linecap:butt;stroke-linejoin:miter;stroke-opacity:1;"
   id="path117" />
<path
   d="M 146.5,166.3 L 146.8,166.0 L 146.6,165.6"
   style="fill:none;stroke:#000000;stroke-width:2.0px;stroke-linecap:butt;stroke-linejoin:miter;stroke-opacity:1;"
   id="path118" />
<path
   d="M 144.1,157.9 L 144.0,157.4 L 144.3,157.1"
   style="fill:none;stroke:#000000;stroke-width:2.0px;stroke-linecap:butt;stroke-linejoin:miter;stroke-opacity:1;"
   id="path119" />
<path
   d="M 149.7,151.1 L 150.0,150.8 L 149.9,150.3"
   style="fill:none;stroke:#000000;stroke-width:2.0px;stroke-linecap:butt;stroke-linejoin:miter;stroke-opacity:1;"
   id="path120" />
<path
   d="M 147.4,142.6 L 147.2,142.2 L 147.5,141.9"
   style="fill:none;stroke:#000000;stroke-width:2.0px;stroke-linecap:butt;stroke-linejoin:miter;stroke-opacity:1;"
   id="path121" />
<path
   d="M 152.9,135.9 L 153.2,135.6 L 153.1,135.1"
   style="fill:none;stroke:#000000;stroke-width:2.0px;stroke-linecap:butt;stroke-linejoin:miter;stroke-opacity:1;"
   id="path122" />
<path
   d="M 150.6,127.4 L 150.5,127.0 L 150.8,126.7"
   style="fill:none;stroke:#000000;stroke-width:2.0px;stroke-linecap:butt;stroke-linejoin:miter;stroke-opacity:1;"
   id="path123" />
<path
   d="M 156.2,120.7 L 156.5,120.3 L 156.3,119.9"
   style="fill:none;stroke:#000000;stroke-width:2.0px;stroke-linecap:butt;stroke-linejoin:miter;stroke-opacity:1;"
   id="path124" />
<path
   d="M 153.9,112.2 L 153.7,111.8 L 154.0,111.5"
   style="fill:none;stroke:#000000;stroke-width:2.0px;stroke-linecap:butt;stroke-linejoin:miter;stroke-opacity:1;"
   id="path125" />
<path
   d="M 159.4,105.5 L 159.7,105.1 L 159.6,104.7"
   style="fill:none;stroke:#000000;stroke-width:2.0px;stroke-linecap:butt;stroke-linejoin:miter;stroke-opacity:1;"
   id="path126" />
<path
   d="M 157.1,97.0 L 157.0,96.6 L 157.3,96.2"
   style="fill:none;stroke:#000000;stroke-width:2.0px;stroke-linecap:butt;stroke-linejoin:miter;stroke-opacity:1;"
   id="path127" />
<path
   d="M 162.7,90.2 L 163.0,89.9 L 162.8,89.5"
   style="fill:none;stroke:#000000;stroke-width:2.0px;stroke-linecap:butt;stroke-linejoin:miter;stroke-opacity:1;"
   id="path128" />
<path
   d="M 160.3,81.8 L 160.2,81.4 L 160.5,81.0"
   style="fill:none;stroke:#000000;stroke-width:2.0px;stroke-linecap:butt;stroke-linejoin:miter;stroke-opacity:1;"
   id="path129" />
<path
   d="M 165.9,75.0 L 166.2,74.7 L 166.1,74.3"
   style="fill:none;stroke:#000000;stroke-width:2.0px;stroke-linecap:butt;stroke-linejoin:miter;stroke-opacity:1;"
   id="path130" />
<path
   class="atom-18"
   d="M 117.0 231.6 Q 117.0 230.6, 117.5 230.1 Q 118.0 229.5, 119.0 229.5 Q 119.9 229.5, 120.4 230.1 Q 120.9 230.6, 120.9 231.6 Q 120.9 232.7, 120.4 233.3 Q 119.9 233.8, 119.0 233.8 Q 118.0 233.8, 117.5 233.3 Q 117.0 232.7, 117.0 231.6 M 119.0 233.4 Q 119.6 233.4, 120.0 232.9 Q 120.3 232.5, 120.3 231.6 Q 120.3 230.8, 120.0 230.4 Q 119.6 230.0, 119.0 230.0 Q 118.3 230.0, 118.0 230.4 Q 117.6 230.8, 117.6 231.6 Q 117.6 232.5, 118.0 232.9 Q 118.3 233.4, 119.0 233.4 "
   fill="#FF0000"
   id="path131" />
<path
   class="atom-19"
   d="M 120.3 216.4 Q 120.3 215.4, 120.8 214.8 Q 121.3 214.3, 122.2 214.3 Q 123.2 214.3, 123.7 214.8 Q 124.2 215.4, 124.2 216.4 Q 124.2 217.5, 123.7 218.1 Q 123.2 218.6, 122.2 218.6 Q 121.3 218.6, 120.8 218.1 Q 120.3 217.5, 120.3 216.4 M 122.2 218.2 Q 122.9 218.2, 123.2 217.7 Q 123.6 217.3, 123.6 216.4 Q 123.6 215.6, 123.2 215.2 Q 122.9 214.8, 122.2 214.8 Q 121.6 214.8, 121.2 215.2 Q 120.9 215.6, 120.9 216.4 Q 120.9 217.3, 121.2 217.7 Q 121.6 218.2, 122.2 218.2 "
   fill="#FF0000"
   id="path132" />
<path
   class="atom-23"
   d="M 149.9 206.8 Q 149.9 205.8, 150.4 205.2 Q 150.9 204.7, 151.8 204.7 Q 152.8 204.7, 153.3 205.2 Q 153.8 205.8, 153.8 206.8 Q 153.8 207.9, 153.3 208.5 Q 152.8 209.0, 151.8 209.0 Q 150.9 209.0, 150.4 208.5 Q 149.9 207.9, 149.9 206.8 M 151.8 208.6 Q 152.5 208.6, 152.8 208.1 Q 153.2 207.7, 153.2 206.8 Q 153.2 206.0, 152.8 205.6 Q 152.5 205.2, 151.8 205.2 Q 151.2 205.2, 150.8 205.6 Q 150.5 206.0, 150.5 206.8 Q 150.5 207.7, 150.8 208.1 Q 151.2 208.6, 151.8 208.6 "
   fill="#FF0000"
   id="path133" />
<path
   class="atom-25"
   d="M 161.4 217.3 Q 161.4 216.2, 161.9 215.7 Q 162.4 215.1, 163.4 215.1 Q 164.3 215.1, 164.8 215.7 Q 165.3 216.2, 165.3 217.3 Q 165.3 218.3, 164.8 218.9 Q 164.3 219.5, 163.4 219.5 Q 162.4 219.5, 161.9 218.9 Q 161.4 218.3, 161.4 217.3 M 163.4 219.0 Q 164.0 219.0, 164.4 218.5 Q 164.7 218.1, 164.7 217.3 Q 164.7 216.4, 164.4 216.0 Q 164.0 215.6, 163.4 215.6 Q 162.7 215.6, 162.4 216.0 Q 162.0 216.4, 162.0 217.3 Q 162.0 218.1, 162.4 218.5 Q 162.7 219.0, 163.4 219.0 "
   fill="#FF0000"
   id="path134" />
<path
   class="atom-43"
   d="M 132.3 203.1 Q 132.3 202.1, 132.8 201.5 Q 133.3 200.9, 134.3 200.9 Q 135.2 200.9, 135.7 201.5 Q 136.2 202.1, 136.2 203.1 Q 136.2 204.1, 135.7 204.7 Q 135.2 205.3, 134.3 205.3 Q 133.3 205.3, 132.8 204.7 Q 132.3 204.1, 132.3 203.1 M 134.3 204.8 Q 134.9 204.8, 135.3 204.4 Q 135.6 203.9, 135.6 203.1 Q 135.6 202.3, 135.3 201.8 Q 134.9 201.4, 134.3 201.4 Q 133.6 201.4, 133.3 201.8 Q 132.9 202.3, 132.9 203.1 Q 132.9 203.9, 133.3 204.4 Q 133.6 204.8, 134.3 204.8 "
   fill="#FF0000"
   id="path135" />
<path
   class="atom-45"
   d="M 147.1 198.3 Q 147.1 197.3, 147.6 196.7 Q 148.1 196.1, 149.1 196.1 Q 150.0 196.1, 150.5 196.7 Q 151.0 197.3, 151.0 198.3 Q 151.0 199.3, 150.5 199.9 Q 150.0 200.5, 149.1 200.5 Q 148.1 200.5, 147.6 199.9 Q 147.1 199.3, 147.1 198.3 M 149.1 200.0 Q 149.7 200.0, 150.0 199.6 Q 150.4 199.1, 150.4 198.3 Q 150.4 197.5, 150.0 197.0 Q 149.7 196.6, 149.1 196.6 Q 148.4 196.6, 148.1 197.0 Q 147.7 197.5, 147.7 198.3 Q 147.7 199.1, 148.1 199.6 Q 148.4 200.0, 149.1 200.0 "
   fill="#FF0000"
   id="path136" />
</svg>
